<svg xmlns="http://www.w3.org/2000/svg" xmlns:xlink="http://www.w3.org/1999/xlink" width="1289" height="1390.53"><g transform="translate(-12 2.525707877768127)"><path d="M0 0h1360v1760H0z" fill="#fff"/><path d="M474.84 195.95c0-98.57 73.96-178.48 165.2-178.48 72.97 0 134.54 48.33 157.1 123.33C1011.7 136.46 1053 433.92 970.4 552.9c123.9 59.5 82.6 356.97-41.3 356.97 41.3 178.48-123.88 356.96-330.37 237.97-165.2 119-371.68 0-289.08-237.97-107.37-59.5-107.37-297.47 0-356.96-82.6-118.98-41.3-356.95 165.2-356.95zM550 1266.27V1368h160v-101.73z" stroke="#000" stroke-width="2" fill="#fff"/><path d="M700 1276.27h-15v20h15z" stroke="#000" fill="#fff"/><path d="M690 1279.6h-10v3.34h10zm0 10h-10v3.34h10z" stroke="#000" fill="#fff"/><use xlink:href="#a" transform="matrix(1,0,0,1,550,1266.2691751085383) translate(54.055 55.8375)"/><path d="M950 686h70" stroke="#000" stroke-width="2" fill="none"/><path d="M950 687h-1v-2h1zM1023 687h-3v-2h3z"/><path d="M32 490h240v60H32z" fill="none"/><use xlink:href="#b" transform="matrix(1,0,0,1,32,490) translate(87.075 33.6)"/><path d="M255 520h-10m-40 0c0-11.05 8.95-20 20-20s20 8.95 20 20-8.95 20-20 20-20-8.95-20-20z" stroke="#000" stroke-width="2" fill="#fff"/><path d="M894.48 880.14h294.1v60h-294.1z" fill="none"/><use xlink:href="#c" transform="matrix(1,0,0,1,894.4783808647654,880.1374819102748) translate(123.05 33.6)"/><g fill="none"><path d="M1040 860h-10m30 20c-11.05 0-20-8.95-20-20s8.95-20 20-20" stroke="#000" stroke-width="2"/><path d="M1060 880c-11.05 0-20-8.95-20-20s8.95-20 20-20z"/></g><path d="M310 800v120h160V800z" stroke="#000" stroke-width="2" fill="#fff"/><path d="M460 810h-15v20h15z" stroke="#000" fill="#fff"/><path d="M450 813.33h-10v3.34h10zm0 10h-10v3.34h10z" stroke="#000" fill="#fff"/><use xlink:href="#d" transform="matrix(1,0,0,1,310.00000000000006,800) translate(23.054999999999993 51.9)"/><use xlink:href="#e" transform="matrix(1,0,0,1,310.00000000000006,800) translate(44.55499999999999 73.5)"/><path d="M550 166v120h160V166z" stroke="#000" stroke-width="2" fill="#fff"/><path d="M700 176h-15v20h15z" stroke="#000" fill="#fff"/><path d="M690 179.33h-10v3.34h10zm0 10h-10v3.34h10z" stroke="#000" fill="#fff"/><use xlink:href="#f" transform="matrix(1,0,0,1,550,166) translate(32.10499999999999 51.9)"/><use xlink:href="#e" transform="matrix(1,0,0,1,550,166) translate(44.55499999999999 73.5)"/><path d="M789 630v120h160V630z" stroke="#000" stroke-width="2" fill="#fff"/><path d="M939 640h-15v20h15z" stroke="#000" fill="#fff"/><path d="M929 643.33h-10v3.34h10zm0 10h-10v3.34h10z" stroke="#000" fill="#fff"/><use xlink:href="#g" transform="matrix(1,0,0,1,789.0000000000001,630) translate(32.07999999999999 51.9)"/><use xlink:href="#e" transform="matrix(1,0,0,1,789.0000000000001,630) translate(44.55499999999999 73.5)"/><path d="M789 800v120h160V800z" stroke="#000" stroke-width="2" fill="#fff"/><path d="M939 810h-15v20h15z" stroke="#000" fill="#fff"/><path d="M929 813.33h-10v3.34h10zm0 10h-10v3.34h10z" stroke="#000" fill="#fff"/><use xlink:href="#h" transform="matrix(1,0,0,1,789.0000000000001,800) translate(27.604999999999997 63.15)"/><use xlink:href="#e" transform="matrix(1,0,0,1,789.0000000000001,800) translate(61.505 63.15)"/><path d="M310 460v120h160V460z" stroke="#000" stroke-width="2" fill="#fff"/><path d="M460 470h-15v20h15z" stroke="#000" fill="#fff"/><path d="M450 473.33h-10v3.34h10zm0 10h-10v3.34h10z" stroke="#000" fill="#fff"/><use xlink:href="#i" transform="matrix(1,0,0,1,310.00000000000006,460) translate(23.154999999999994 63.15)"/><use xlink:href="#j" transform="matrix(1,0,0,1,310.00000000000006,460) translate(74.005 63.15)"/><path d="M310 520h-55" stroke="#000" stroke-width="2" fill="none"/><path d="M255 521h-3v-2h3z"/><path d="M710 196h301" stroke="#000" stroke-width="2" fill="none"/><path d="M1014 197h-3v-2h3z"/><path d="M549.5 1030.38v105.24h160v-105.24z" stroke="#000" stroke-width="2" fill="#fff"/><path d="M699.5 1040.38h-15v20h15z" stroke="#000" fill="#fff"/><path d="M689.5 1043.7h-10v3.35h10zm0 10h-10v3.35h10z" stroke="#000" fill="#fff"/><use xlink:href="#k" transform="matrix(1,0,0,1,549.5,1030.380607814761) translate(17.604999999999997 57.4625)"/><use xlink:href="#e" transform="matrix(1,0,0,1,549.5,1030.380607814761) translate(71.505 57.4625)"/><path d="M949 860h81" stroke="#000" stroke-width="2" fill="none"/><path d="M1033 861h-3v-2h3z"/><path d="M710 256h301" stroke="#000" stroke-width="2" fill="none"/><path d="M1014 257h-3v-2h3z"/><path d="M629.5 1135.62v28.93h.5v28.93" stroke="#000" stroke-width="2" fill="none"/><path d="M631 1196.48h-2v-3h2z"/><path d="M630 1266.27v-22.8" stroke="#000" stroke-width="2" fill="none"/><path d="M631 1243.48h-2v-3h2z"/><path d="M310 628v120h160V628z" stroke="#000" stroke-width="2" fill="#fff"/><path d="M460 638h-15v20h15z" stroke="#000" fill="#fff"/><path d="M450 641.33h-10v3.34h10zm0 10h-10v3.34h10z" stroke="#000" fill="#fff"/><use xlink:href="#l" transform="matrix(1,0,0,1,310.00000000000006,628) translate(23.12999999999999 51.9)"/><use xlink:href="#m" transform="matrix(1,0,0,1,310.00000000000006,628) translate(50.555 73.5)"/><path d="M440 1193.13h240V1244H440z" fill="none"/><use xlink:href="#n" transform="matrix(1,0,0,1,440,1193.1345875542693) translate(77.05 29.1)"/><use xlink:href="#o" transform="matrix(1,0,0,1,440,1193.1345875542693) translate(133.95 29.1)"/><path d="M630 1243.48v-11m20-14c0-11.04-8.95-20-20-20s-20 8.96-20 20m20-20v-5" stroke="#000" stroke-width="2" fill="none"/><path d="M616 1218.48c0-7.73 6.27-14 14-14s14 6.27 14 14-6.27 14-14 14-14-6.27-14-14z" stroke="#000" stroke-width="2" fill="#fff"/><path d="M650 1218.48c0-11.04-8.95-20-20-20s-20 8.96-20 20c0 11.05 8.95 20 20 20s20-8.95 20-20z" fill="none"/><path d="M789 460v120h160V460z" stroke="#000" stroke-width="2" fill="#fff"/><path d="M939 470h-15v20h15z" stroke="#000" fill="#fff"/><path d="M929 473.33h-10v3.34h10zm0 10h-10v3.34h10z" stroke="#000" fill="#fff"/><use xlink:href="#p" transform="matrix(1,0,0,1,789.0000000000001,460) translate(24.07999999999999 51.9)"/><use xlink:href="#q" transform="matrix(1,0,0,1,789.0000000000001,460) translate(79.97999999999999 51.9)"/><use xlink:href="#e" transform="matrix(1,0,0,1,789.0000000000001,460) translate(44.55499999999999 73.5)"/><path d="M549.5 408v560h160V408z" stroke="#000" stroke-width="2" fill="#fff"/><path d="M699.5 418h-15v20h15z" stroke="#000" fill="#fff"/><path d="M689.5 421.33h-10v3.34h10zm0 10h-10v3.34h10z" stroke="#000" fill="#fff"/><use xlink:href="#r" transform="matrix(1,0,0,1,549.5000000000001,408) translate(14.579999999999993 276.9)"/><use xlink:href="#s" transform="matrix(1,0,0,1,549.5000000000001,408) translate(92.53 276.9)"/><use xlink:href="#t" transform="matrix(1,0,0,1,549.5000000000001,408) translate(80.00500000000001 298.5)"/><path d="M789 860h-77.75" fill="none"/><path d="M789 860h-8.64m-8.64 0h-17.28m-8.64 0h-17.28m-8.63 0h-8.65" stroke="#000" stroke-width="2" fill="none"/><path d="M725.5 864.64L711.26 860l14.26-4.64z"/><path d="M726.5 866l-17-5.52v-.96l17-5.53zm-12.02-6l10.03 3.26v-6.52z"/><path d="M789 690h-77.75" fill="none"/><path d="M789 690h-8.64m-8.64 0h-17.28m-8.64 0h-17.28m-8.63 0h-8.65" stroke="#000" stroke-width="2" fill="none"/><path d="M725.5 694.64L711.26 690l14.26-4.64z"/><path d="M726.5 696l-17-5.52v-.96l17-5.53zm-12.02-6l10.03 3.26v-6.52z"/><path d="M789 520h-77.75" fill="none"/><path d="M789 520h-8.64m-8.64 0h-17.28m-8.64 0h-17.28m-8.63 0h-8.65" stroke="#000" stroke-width="2" fill="none"/><path d="M725.5 524.64L711.26 520l14.26-4.64z"/><path d="M726.5 526l-17-5.52v-.96l17-5.53zm-12.02-6l10.03 3.26v-6.52z"/><path d="M470 688h79.5" fill="none"/><path d="M470 688h8.83m8.84 0h17.66m8.84 0h17.66m8.84 0h8.83" stroke="#000" stroke-width="2" fill="none"/><path d="M549.5 688l-14.27 4.64v-9.28z"/><path d="M549.5 686.95v2.1L534.23 694v-12zm-13.27 4.3l10.03-3.25-10.03-3.26z"/><path d="M630 286v61h-.5v61" fill="none"/><path d="M630 286v10.2m0 10.22v20.4m0 10.22V347h-.5v9.96m0 10.2v20.42m0 10.2V408" stroke="#000" stroke-width="2" fill="none"/><path d="M629.5 408l-4.64-14.27h9.28z"/><path d="M630.55 408h-2.1l-4.96-15.27h12zm-4.3-13.27l3.25 10.03 3.26-10.03z"/><path d="M470 520h77.75" fill="none"/><path d="M470 520h8.64m8.64 0h17.28m8.64 0h17.28m8.63 0h8.65" stroke="#000" stroke-width="2" fill="none"/><path d="M547.75 520l-14.26 4.64v-9.28z"/><path d="M549.5 519.52v.96l-17 5.53v-12zm-15 3.74L544.5 520l-10.03-3.26z"/><path d="M629.5 1030.38V968" fill="none"/><path d="M629.5 1030.38v-10.4m0-10.4v-20.8m0-10.38V968" stroke="#000" stroke-width="2" fill="none"/><path d="M634.14 982.27h-9.28L629.5 968z"/><path d="M635.5 983.27h-12l4.95-15.27h2.1zm-9.26-2h6.52l-3.26-10.03z"/><path d="M470 860h77.75" fill="none"/><path d="M470 860h8.64m8.64 0h17.28m8.64 0h17.28m8.63 0h8.65" stroke="#000" stroke-width="2" fill="none"/><path d="M547.75 860l-14.26 4.64v-9.28z"/><path d="M549.5 859.52v.96l-17 5.53v-12zm-15 3.74L544.5 860l-10.03-3.26z"/><path d="M898 1357.83c0 5.62-24.4 10.17-54.5 10.17s-54.5-4.55-54.5-10.17v-81.4c0-5.6 24.4-10.16 54.5-10.16s54.5 4.55 54.5 10.17z" stroke="#000" stroke-width="2" fill="#fff"/><path d="M898 1276.44c0 5.62-24.4 10.18-54.5 10.18s-54.5-4.56-54.5-10.18" stroke="#000" stroke-width="2" fill="none"/><use xlink:href="#u" transform="matrix(1,0,0,1,794,1291.6153400868307) translate(4.049999999999997 39.6)"/><path d="M710 1317.13h79" fill="none"/><path d="M710 1317.13h8.78m8.78 0h17.55m8.8 0h17.54m8.78 0H789" stroke="#000" stroke-width="2" fill="none"/><path d="M789 1317.13l-14.27 4.64v-9.27z"/><path d="M789 1316.08v2.1l-15.27 4.97v-12.03zm-13.27 4.3l10.03-3.25-10.03-3.25z"/><path d="M962 166h294.1v60H962z" fill="none"/><use xlink:href="#v" transform="matrix(1,0,0,1,962,166) translate(91.94999999999999 33.6)"/><g fill="none"><path d="M1021 196h-10m30 20c-11.05 0-20-8.95-20-20s8.95-20 20-20" stroke="#000" stroke-width="2"/><path d="M1041 216c-11.05 0-20-8.95-20-20s8.95-20 20-20z"/></g><path d="M962 226h294.1v60H962z" fill="none"/><use xlink:href="#w" transform="matrix(1,0,0,1,962,226) translate(89.8 33.6)"/><g fill="none"><path d="M1021 256h-10m30 20c-11.05 0-20-8.95-20-20s8.95-20 20-20" stroke="#000" stroke-width="2"/><path d="M1041 276c-11.05 0-20-8.95-20-20s8.95-20 20-20z"/></g><path d="M961.9 660H1256v60H961.9z" fill="none"/><use xlink:href="#x" transform="matrix(1,0,0,1,961.9061637534498,660) translate(104.525 33.6)"/><g fill="none"><path d="M1030 686h-10m30 20c-11.05 0-20-8.95-20-20s8.95-20 20-20" stroke="#000" stroke-width="2"/><path d="M1050 706c-11.05 0-20-8.95-20-20s8.95-20 20-20z"/></g><path d="M789 290v120h160V290z" stroke="#000" stroke-width="2" fill="#fff"/><path d="M939 300h-15v20h15z" stroke="#000" fill="#fff"/><path d="M929 303.33h-10v3.34h10zm0 10h-10v3.34h10z" stroke="#000" fill="#fff"/><use xlink:href="#y" transform="matrix(1,0,0,1,789.0000000000001,289.9999999999999) translate(21.529999999999994 40.65)"/><use xlink:href="#z" transform="matrix(1,0,0,1,789.0000000000001,289.9999999999999) translate(56.38 62.25)"/><use xlink:href="#A" transform="matrix(1,0,0,1,789.0000000000001,289.9999999999999) translate(44.55499999999999 83.85000000000001)"/><path d="M789 350H669.5v58" fill="none"/><path d="M789 350h-9.86m-9.86 0h-19.72m-9.87 0h-19.73m-9.86 0h-19.7m-9.87 0H669.5v8.7m0 9.86v19.72m0 9.86V408" stroke="#000" stroke-width="2" fill="none"/><path d="M669.5 408l-4.64-14.27h9.28z"/><path d="M670.55 408h-2.1l-4.96-15.27h12zm-4.3-13.27l3.25 10.03 3.26-10.03z"/><path d="M949 350h71" stroke="#000" stroke-width="2" fill="none"/><path d="M1023 351h-3v-2h3z"/><path d="M1041 320h240v60h-240z" fill="none"/><use xlink:href="#B" transform="matrix(1,0,0,1,1041,320) translate(41.55 33.6)"/><path d="M1020 350h10m40 0c0 11.05-8.95 20-20 20s-20-8.95-20-20 8.95-20 20-20 20 8.95 20 20zM789 1015v120h160v-120z" stroke="#000" stroke-width="2" fill="#fff"/><path d="M939 1025h-15v20h15z" stroke="#000" fill="#fff"/><path d="M929 1028.33h-10v3.34h10zm0 10h-10v3.34h10z" stroke="#000" fill="#fff"/><use xlink:href="#C" transform="matrix(1,0,0,1,789,1015) translate(40.57999999999999 51.9)"/><use xlink:href="#D" transform="matrix(1,0,0,1,789,1015) translate(50.05499999999999 73.5)"/><path d="M310 1023v120h160v-120z" stroke="#000" stroke-width="2" fill="#fff"/><path d="M460 1033h-15v20h15z" stroke="#000" fill="#fff"/><path d="M450 1036.33h-10v3.34h10zm0 10h-10v3.34h10z" stroke="#000" fill="#fff"/><use xlink:href="#E" transform="matrix(1,0,0,1,310,1023) translate(50.05499999999999 51.9)"/><use xlink:href="#D" transform="matrix(1,0,0,1,310,1023) translate(50.05499999999999 73.5)"/><path d="M390 1023v-70.33h158.5" fill="none"/><path d="M390 1023v-9.53m0-9.54v-19.07m0-9.53v-19.07m5.94-3.6H415m9.55 0h19.07m9.53 0h19.07m9.54 0h19.07m9.53 0h19.07m9.54 0h9.53" stroke="#000" stroke-width="2" fill="none"/><path d="M548.5 952.67l-14.27 4.63v-9.27z"/><path d="M549.5 951.94v1.45l-16.27 5.28v-12.03zm-14.27 4l10.03-3.27-10.03-3.26z"/><path d="M869 1015v-61H710.5" fill="none"/><path d="M869 1015v-10.45m0-10.45v-20.9m0-10.46V954h-12.17m-10.45 0h-20.9m-10.46 0h-20.9m-10.45 0h-20.9m-10.46 0h-20.9m-10.45 0H710.5" stroke="#000" stroke-width="2" fill="none"/><path d="M724.77 958.64L710.5 954l14.27-4.64z"/><path d="M725.77 960l-16.27-5.27v-1.46l16.27-5.28zm-12.03-6l10.03 3.26v-6.52z"/><path d="M520 236h64l16 16v64h-80z" stroke="#d9be60" stroke-width="2" fill="#ffdf71"/><path d="M584 236l16 16h-16z" fill="#d9be60"/><g><use xlink:href="#F" transform="matrix(1,0,0,1,525,241) translate(8.5 38.6)"/></g><path d="M272 708h64.4l15.6 15.6V786h-80z" stroke="#d9be60" stroke-width="2" fill="#ffdf71"/><path d="M336.4 708l15.6 15.6h-15.6z" fill="#d9be60"/><g><use xlink:href="#G" transform="matrix(1,0,0,1,277,713) translate(23 37.6)"/></g><path d="M921 520h64l16 16v66h-80z" stroke="#d9be60" stroke-width="2" fill="#ffdf71"/><path d="M985 520l16 16h-16z" fill="#d9be60"/><g><use xlink:href="#H" transform="matrix(1,0,0,1,926,525) translate(18 39.6)"/></g><path d="M921 706h64l16 16v64h-80z" stroke="#d9be60" stroke-width="2" fill="#ffdf71"/><path d="M985 706l16 16h-16z" fill="#d9be60"/><g><use xlink:href="#I" transform="matrix(1,0,0,1,926,711) translate(3.5 27.799999999999997)"/><use xlink:href="#J" transform="matrix(1,0,0,1,926,711) translate(37.5 27.799999999999997)"/><use xlink:href="#K" transform="matrix(1,0,0,1,926,711) translate(18.675 49.4)"/></g><path d="M921 868.86h65.6l16.4 16.4v65.88h-82z" stroke="#d9be60" stroke-width="2" fill="#ffdf71"/><path d="M986.6 868.86l16.4 16.4h-16.4z" fill="#d9be60"/><g><use xlink:href="#L" transform="matrix(1,0,0,1,926,873.8625180897252) translate(9.5 40.1)"/></g><path d="M272 871h64l16 16v64h-80z" stroke="#d9be60" stroke-width="2" fill="#ffdf71"/><path d="M336 871l16 16h-16z" fill="#d9be60"/><g><use xlink:href="#M" transform="matrix(1,0,0,1,277,876) translate(23 38.6)"/></g><defs><path d="M30-248c118-7 216 8 213 122C240-48 200 0 122 0H30v-248zM63-27c89 8 146-16 146-99s-60-101-146-95v194" id="N"/><path d="M160-131c35 5 61 23 61 61C221 17 115-2 30 0v-248c76 3 177-17 177 60 0 33-19 50-47 57zm-97-11c50-1 110 9 110-42 0-47-63-36-110-37v79zm0 115c55-2 124 14 124-45 0-56-70-42-124-44v89" id="O"/><path d="M240 0l2-218c-23 76-54 145-80 218h-23L58-218 59 0H30v-248h44l77 211c21-75 51-140 76-211h43V0h-30" id="P"/><path d="M185-189c-5-48-123-54-124 2 14 75 158 14 163 119 3 78-121 87-175 55-17-10-28-26-33-46l33-7c5 56 141 63 141-1 0-78-155-14-162-118-5-82 145-84 179-34 5 7 8 16 11 25" id="Q"/><g id="a"><use transform="matrix(0.05,0,0,0.05,0,0)" xlink:href="#N"/><use transform="matrix(0.05,0,0,0.05,12.950000000000001,0)" xlink:href="#O"/><use transform="matrix(0.05,0,0,0.05,24.950000000000003,0)" xlink:href="#P"/><use transform="matrix(0.05,0,0,0.05,39.900000000000006,0)" xlink:href="#Q"/></g><path d="M212-179c-10-28-35-45-73-45-59 0-87 40-87 99 0 60 29 101 89 101 43 0 62-24 78-52l27 14C228-24 195 4 139 4 59 4 22-46 18-125c-6-104 99-153 187-111 19 9 31 26 39 46" id="R"/><path d="M24 0v-261h32V0H24" id="S"/><path d="M24-231v-30h32v30H24zM24 0v-190h32V0H24" id="T"/><path d="M100-194c63 0 86 42 84 106H49c0 40 14 67 53 68 26 1 43-12 49-29l28 8c-11 28-37 45-77 45C44 4 14-33 15-96c1-61 26-98 85-98zm52 81c6-60-76-77-97-28-3 7-6 17-6 28h103" id="U"/><path d="M117-194c89-4 53 116 60 194h-32v-121c0-31-8-49-39-48C34-167 62-67 57 0H25l-1-190h30c1 10-1 24 2 32 11-22 29-35 61-36" id="V"/><path d="M59-47c-2 24 18 29 38 22v24C64 9 27 4 27-40v-127H5v-23h24l9-43h21v43h35v23H59v120" id="W"/><path d="M33 0v-248h34V0H33" id="X"/><g id="b"><use transform="matrix(0.05,0,0,0.05,0,0)" xlink:href="#R"/><use transform="matrix(0.05,0,0,0.05,12.950000000000001,0)" xlink:href="#S"/><use transform="matrix(0.05,0,0,0.05,16.900000000000002,0)" xlink:href="#T"/><use transform="matrix(0.05,0,0,0.05,20.85,0)" xlink:href="#U"/><use transform="matrix(0.05,0,0,0.05,30.85,0)" xlink:href="#V"/><use transform="matrix(0.05,0,0,0.05,40.85,0)" xlink:href="#W"/><use transform="matrix(0.05,0,0,0.05,45.85,0)" xlink:href="#X"/><use transform="matrix(0.05,0,0,0.05,50.85,0)" xlink:href="#V"/><use transform="matrix(0.05,0,0,0.05,60.85,0)" xlink:href="#W"/></g><path d="M141-36C126-15 110 5 73 4 37 3 15-17 15-53c-1-64 63-63 125-63 3-35-9-54-41-54-24 1-41 7-42 31l-33-3c5-37 33-52 76-52 45 0 72 20 72 64v82c-1 20 7 32 28 27v20c-31 9-61-2-59-35zM48-53c0 20 12 33 32 33 41-3 63-29 60-74-43 2-92-5-92 41" id="Y"/><path d="M114-163C36-179 61-72 57 0H25l-1-190h30c1 12-1 29 2 39 6-27 23-49 58-41v29" id="Z"/><g id="c"><use transform="matrix(0.05,0,0,0.05,0,0)" xlink:href="#R"/><use transform="matrix(0.05,0,0,0.05,12.950000000000001,0)" xlink:href="#Y"/><use transform="matrix(0.05,0,0,0.05,22.950000000000003,0)" xlink:href="#Z"/><use transform="matrix(0.05,0,0,0.05,28.900000000000002,0)" xlink:href="#X"/><use transform="matrix(0.05,0,0,0.05,33.900000000000006,0)" xlink:href="#V"/><use transform="matrix(0.05,0,0,0.05,43.900000000000006,0)" xlink:href="#W"/></g><path d="M205 0l-28-72H64L36 0H1l101-248h38L239 0h-34zm-38-99l-47-123c-12 45-31 82-46 123h93" id="aa"/><path d="M84 4C-5 8 30-112 23-190h32v120c0 31 7 50 39 49 72-2 45-101 50-169h31l1 190h-30c-1-10 1-25-2-33-11 22-28 36-60 37" id="ab"/><path d="M106-169C34-169 62-67 57 0H25v-261h32l-1 103c12-21 28-36 61-36 89 0 53 116 60 194h-32v-121c2-32-8-49-39-48" id="ac"/><path d="M96-169c-40 0-48 33-48 73s9 75 48 75c24 0 41-14 43-38l32 2c-6 37-31 61-74 61-59 0-76-41-82-99-10-93 101-131 147-64 4 7 5 14 7 22l-32 3c-4-21-16-35-41-35" id="ad"/><path d="M100-194c62-1 85 37 85 99 1 63-27 99-86 99S16-35 15-95c0-66 28-99 85-99zM99-20c44 1 53-31 53-75 0-43-8-75-51-75s-53 32-53 75 10 74 51 75" id="ae"/><g id="d"><use transform="matrix(0.05,0,0,0.05,0,0)" xlink:href="#aa"/><use transform="matrix(0.05,0,0,0.05,12,0)" xlink:href="#ab"/><use transform="matrix(0.05,0,0,0.05,22,0)" xlink:href="#W"/><use transform="matrix(0.05,0,0,0.05,27,0)" xlink:href="#ac"/><use transform="matrix(0.05,0,0,0.05,37,0)" xlink:href="#U"/><use transform="matrix(0.05,0,0,0.05,47,0)" xlink:href="#V"/><use transform="matrix(0.05,0,0,0.05,57,0)" xlink:href="#W"/><use transform="matrix(0.05,0,0,0.05,62,0)" xlink:href="#T"/><use transform="matrix(0.05,0,0,0.05,65.95,0)" xlink:href="#ad"/><use transform="matrix(0.05,0,0,0.05,74.95,0)" xlink:href="#Y"/><use transform="matrix(0.05,0,0,0.05,84.95,0)" xlink:href="#W"/><use transform="matrix(0.05,0,0,0.05,89.95,0)" xlink:href="#T"/><use transform="matrix(0.05,0,0,0.05,93.9,0)" xlink:href="#ae"/><use transform="matrix(0.05,0,0,0.05,103.9,0)" xlink:href="#V"/></g><path d="M177-190C167-65 218 103 67 71c-23-6-38-20-44-43l32-5c15 47 100 32 89-28v-30C133-14 115 1 83 1 29 1 15-40 15-95c0-56 16-97 71-98 29-1 48 16 59 35 1-10 0-23 2-32h30zM94-22c36 0 50-32 50-73 0-42-14-75-50-75-39 0-46 34-46 75s6 73 46 73" id="af"/><g id="e"><use transform="matrix(0.05,0,0,0.05,0,0)" xlink:href="#P"/><use transform="matrix(0.05,0,0,0.05,14.950000000000001,0)" xlink:href="#Y"/><use transform="matrix(0.05,0,0,0.05,24.950000000000003,0)" xlink:href="#V"/><use transform="matrix(0.05,0,0,0.05,34.95,0)" xlink:href="#Y"/><use transform="matrix(0.05,0,0,0.05,44.95,0)" xlink:href="#af"/><use transform="matrix(0.05,0,0,0.05,54.95,0)" xlink:href="#U"/><use transform="matrix(0.05,0,0,0.05,64.95,0)" xlink:href="#Z"/></g><path d="M233-177c-1 41-23 64-60 70L243 0h-38l-65-103H63V0H30v-248c88 3 205-21 203 71zM63-129c60-2 137 13 137-47 0-61-80-42-137-45v92" id="ag"/><path d="M135-143c-3-34-86-38-87 0 15 53 115 12 119 90S17 21 10-45l28-5c4 36 97 45 98 0-10-56-113-15-118-90-4-57 82-63 122-42 12 7 21 19 24 35" id="ah"/><g id="f"><use transform="matrix(0.05,0,0,0.05,0,0)" xlink:href="#ag"/><use transform="matrix(0.05,0,0,0.05,12.950000000000001,0)" xlink:href="#U"/><use transform="matrix(0.05,0,0,0.05,22.950000000000003,0)" xlink:href="#af"/><use transform="matrix(0.05,0,0,0.05,32.95,0)" xlink:href="#T"/><use transform="matrix(0.05,0,0,0.05,36.900000000000006,0)" xlink:href="#ah"/><use transform="matrix(0.05,0,0,0.05,45.900000000000006,0)" xlink:href="#W"/><use transform="matrix(0.05,0,0,0.05,50.900000000000006,0)" xlink:href="#Z"/><use transform="matrix(0.05,0,0,0.05,56.85,0)" xlink:href="#Y"/><use transform="matrix(0.05,0,0,0.05,66.85000000000001,0)" xlink:href="#W"/><use transform="matrix(0.05,0,0,0.05,71.85000000000001,0)" xlink:href="#T"/><use transform="matrix(0.05,0,0,0.05,75.80000000000001,0)" xlink:href="#ae"/><use transform="matrix(0.05,0,0,0.05,85.80000000000001,0)" xlink:href="#V"/></g><path d="M108 0H70L1-190h34L89-25l56-165h34" id="ai"/><g id="g"><use transform="matrix(0.05,0,0,0.05,0,0)" xlink:href="#ag"/><use transform="matrix(0.05,0,0,0.05,12.950000000000001,0)" xlink:href="#U"/><use transform="matrix(0.05,0,0,0.05,22.950000000000003,0)" xlink:href="#ah"/><use transform="matrix(0.05,0,0,0.05,31.950000000000003,0)" xlink:href="#U"/><use transform="matrix(0.05,0,0,0.05,41.95,0)" xlink:href="#Z"/><use transform="matrix(0.05,0,0,0.05,47.900000000000006,0)" xlink:href="#ai"/><use transform="matrix(0.05,0,0,0.05,56.900000000000006,0)" xlink:href="#Y"/><use transform="matrix(0.05,0,0,0.05,66.9,0)" xlink:href="#W"/><use transform="matrix(0.05,0,0,0.05,71.9,0)" xlink:href="#T"/><use transform="matrix(0.05,0,0,0.05,75.85000000000001,0)" xlink:href="#ae"/><use transform="matrix(0.05,0,0,0.05,85.85000000000001,0)" xlink:href="#V"/></g><g id="h"><use transform="matrix(0.05,0,0,0.05,0,0)" xlink:href="#R"/><use transform="matrix(0.05,0,0,0.05,12.950000000000001,0)" xlink:href="#Y"/><use transform="matrix(0.05,0,0,0.05,22.950000000000003,0)" xlink:href="#Z"/></g><g id="i"><use transform="matrix(0.05,0,0,0.05,0,0)" xlink:href="#R"/><use transform="matrix(0.05,0,0,0.05,12.950000000000001,0)" xlink:href="#S"/><use transform="matrix(0.05,0,0,0.05,16.900000000000002,0)" xlink:href="#T"/><use transform="matrix(0.05,0,0,0.05,20.85,0)" xlink:href="#U"/><use transform="matrix(0.05,0,0,0.05,30.85,0)" xlink:href="#V"/><use transform="matrix(0.05,0,0,0.05,40.85,0)" xlink:href="#W"/></g><path d="M197 0v-115H63V0H30v-248h33v105h134v-105h34V0h-34" id="aj"/><path d="M85-194c31 0 48 13 60 33l-1-100h32l1 261h-30c-2-10 0-23-3-31C134-8 116 4 85 4 32 4 16-35 15-94c0-66 23-100 70-100zm9 24c-40 0-46 34-46 75 0 40 6 74 45 74 42 0 51-32 51-76 0-42-9-74-50-73" id="ak"/><g id="j"><use transform="matrix(0.05,0,0,0.05,0,0)" xlink:href="#aj"/><use transform="matrix(0.05,0,0,0.05,12.950000000000001,0)" xlink:href="#Y"/><use transform="matrix(0.05,0,0,0.05,22.950000000000003,0)" xlink:href="#V"/><use transform="matrix(0.05,0,0,0.05,32.95,0)" xlink:href="#ak"/><use transform="matrix(0.05,0,0,0.05,42.95,0)" xlink:href="#S"/><use transform="matrix(0.05,0,0,0.05,46.900000000000006,0)" xlink:href="#U"/><use transform="matrix(0.05,0,0,0.05,56.900000000000006,0)" xlink:href="#Z"/></g><g id="k"><use transform="matrix(0.05,0,0,0.05,0,0)" xlink:href="#P"/><use transform="matrix(0.05,0,0,0.05,14.950000000000001,0)" xlink:href="#ae"/><use transform="matrix(0.05,0,0,0.05,24.950000000000003,0)" xlink:href="#ak"/><use transform="matrix(0.05,0,0,0.05,34.95,0)" xlink:href="#U"/><use transform="matrix(0.05,0,0,0.05,44.95,0)" xlink:href="#S"/></g><path d="M210-169c-67 3-38 105-44 169h-31v-121c0-29-5-50-35-48C34-165 62-65 56 0H25l-1-190h30c1 10-1 24 2 32 10-44 99-50 107 0 11-21 27-35 58-36 85-2 47 119 55 194h-31v-121c0-29-5-49-35-48" id="al"/><g id="l"><use transform="matrix(0.05,0,0,0.05,0,0)" xlink:href="#aa"/><use transform="matrix(0.05,0,0,0.05,12,0)" xlink:href="#ak"/><use transform="matrix(0.05,0,0,0.05,22,0)" xlink:href="#al"/><use transform="matrix(0.05,0,0,0.05,36.95,0)" xlink:href="#T"/><use transform="matrix(0.05,0,0,0.05,40.900000000000006,0)" xlink:href="#V"/><use transform="matrix(0.05,0,0,0.05,50.900000000000006,0)" xlink:href="#T"/><use transform="matrix(0.05,0,0,0.05,54.85,0)" xlink:href="#ah"/><use transform="matrix(0.05,0,0,0.05,63.85,0)" xlink:href="#W"/><use transform="matrix(0.05,0,0,0.05,68.85000000000001,0)" xlink:href="#Z"/><use transform="matrix(0.05,0,0,0.05,74.80000000000001,0)" xlink:href="#Y"/><use transform="matrix(0.05,0,0,0.05,84.80000000000001,0)" xlink:href="#W"/><use transform="matrix(0.05,0,0,0.05,89.80000000000001,0)" xlink:href="#T"/><use transform="matrix(0.05,0,0,0.05,93.75000000000001,0)" xlink:href="#ae"/><use transform="matrix(0.05,0,0,0.05,103.75,0)" xlink:href="#V"/></g><g id="m"><use transform="matrix(0.05,0,0,0.05,0,0)" xlink:href="#P"/><use transform="matrix(0.05,0,0,0.05,14.950000000000001,0)" xlink:href="#ae"/><use transform="matrix(0.05,0,0,0.05,24.950000000000003,0)" xlink:href="#ak"/><use transform="matrix(0.05,0,0,0.05,34.95,0)" xlink:href="#ab"/><use transform="matrix(0.05,0,0,0.05,44.95,0)" xlink:href="#S"/><use transform="matrix(0.05,0,0,0.05,48.900000000000006,0)" xlink:href="#U"/></g><g id="n"><use transform="matrix(0.05,0,0,0.05,0,0)" xlink:href="#N"/><use transform="matrix(0.05,0,0,0.05,12.950000000000001,0)" xlink:href="#O"/><use transform="matrix(0.05,0,0,0.05,24.950000000000003,0)" xlink:href="#P"/><use transform="matrix(0.05,0,0,0.05,39.900000000000006,0)" xlink:href="#Q"/></g><path d="M30-248c87 1 191-15 191 75 0 78-77 80-158 76V0H30v-248zm33 125c57 0 124 11 124-50 0-59-68-47-124-48v98" id="am"/><g id="o"><use transform="matrix(0.05,0,0,0.05,0,0)" xlink:href="#aa"/><use transform="matrix(0.05,0,0,0.05,12,0)" xlink:href="#am"/><use transform="matrix(0.05,0,0,0.05,24,0)" xlink:href="#X"/></g><path d="M206 0h-36l-40-164L89 0H53L-1-190h32L70-26l43-164h34l41 164 42-164h31" id="an"/><g id="p"><use transform="matrix(0.05,0,0,0.05,0,0)" xlink:href="#am"/><use transform="matrix(0.05,0,0,0.05,12,0)" xlink:href="#ae"/><use transform="matrix(0.05,0,0,0.05,22,0)" xlink:href="#an"/><use transform="matrix(0.05,0,0,0.05,34.95,0)" xlink:href="#U"/><use transform="matrix(0.05,0,0,0.05,44.95,0)" xlink:href="#Z"/></g><g id="q"><use transform="matrix(0.05,0,0,0.05,0,0)" xlink:href="#Q"/><use transform="matrix(0.05,0,0,0.05,12,0)" xlink:href="#W"/><use transform="matrix(0.05,0,0,0.05,17,0)" xlink:href="#Y"/><use transform="matrix(0.05,0,0,0.05,27,0)" xlink:href="#W"/><use transform="matrix(0.05,0,0,0.05,32,0)" xlink:href="#T"/><use transform="matrix(0.05,0,0,0.05,35.95,0)" xlink:href="#ae"/><use transform="matrix(0.05,0,0,0.05,45.95,0)" xlink:href="#V"/></g><g id="r"><use transform="matrix(0.05,0,0,0.05,0,0)" xlink:href="#P"/><use transform="matrix(0.05,0,0,0.05,14.950000000000001,0)" xlink:href="#U"/><use transform="matrix(0.05,0,0,0.05,24.950000000000003,0)" xlink:href="#ah"/><use transform="matrix(0.05,0,0,0.05,33.95,0)" xlink:href="#ah"/><use transform="matrix(0.05,0,0,0.05,42.95,0)" xlink:href="#Y"/><use transform="matrix(0.05,0,0,0.05,52.95,0)" xlink:href="#af"/><use transform="matrix(0.05,0,0,0.05,62.95,0)" xlink:href="#U"/></g><path d="M143 0L79-87 56-68V0H24v-261h32v163l83-92h37l-77 82L181 0h-38" id="ao"/><g id="s"><use transform="matrix(0.05,0,0,0.05,0,0)" xlink:href="#O"/><use transform="matrix(0.05,0,0,0.05,12,0)" xlink:href="#Z"/><use transform="matrix(0.05,0,0,0.05,17.95,0)" xlink:href="#ae"/><use transform="matrix(0.05,0,0,0.05,27.950000000000003,0)" xlink:href="#ao"/><use transform="matrix(0.05,0,0,0.05,36.95,0)" xlink:href="#U"/><use transform="matrix(0.05,0,0,0.05,46.95,0)" xlink:href="#Z"/></g><g id="u"><use transform="matrix(0.05,0,0,0.05,0,0)" xlink:href="#N"/><use transform="matrix(0.05,0,0,0.05,12.950000000000001,0)" xlink:href="#O"/><use transform="matrix(0.05,0,0,0.05,24.950000000000003,0)" xlink:href="#Q"/><use transform="matrix(0.05,0,0,0.05,36.95,0)" xlink:href="#ad"/><use transform="matrix(0.05,0,0,0.05,45.95,0)" xlink:href="#ac"/><use transform="matrix(0.05,0,0,0.05,55.95,0)" xlink:href="#U"/><use transform="matrix(0.05,0,0,0.05,65.95,0)" xlink:href="#al"/><use transform="matrix(0.05,0,0,0.05,80.9,0)" xlink:href="#Y"/></g><path d="M30 0v-248h33v221h125V0H30" id="ap"/><path d="M137 0h-34L2-248h35l83 218 83-218h36" id="aq"/><g id="v"><use transform="matrix(0.05,0,0,0.05,0,0)" xlink:href="#N"/><use transform="matrix(0.05,0,0,0.05,12.950000000000001,0)" xlink:href="#ap"/><use transform="matrix(0.05,0,0,0.05,21.6,0)" xlink:href="#aq"/><use transform="matrix(0.05,0,0,0.05,32.25,0)" xlink:href="#Y"/><use transform="matrix(0.05,0,0,0.05,42.25,0)" xlink:href="#S"/><use transform="matrix(0.05,0,0,0.05,46.2,0)" xlink:href="#T"/><use transform="matrix(0.05,0,0,0.05,50.150000000000006,0)" xlink:href="#ak"/><use transform="matrix(0.05,0,0,0.05,60.150000000000006,0)" xlink:href="#Y"/><use transform="matrix(0.05,0,0,0.05,70.15,0)" xlink:href="#W"/><use transform="matrix(0.05,0,0,0.05,75.15,0)" xlink:href="#ae"/><use transform="matrix(0.05,0,0,0.05,85.15,0)" xlink:href="#Z"/><use transform="matrix(0.05,0,0,0.05,91.10000000000001,0)" xlink:href="#X"/><use transform="matrix(0.05,0,0,0.05,96.10000000000001,0)" xlink:href="#V"/><use transform="matrix(0.05,0,0,0.05,106.10000000000001,0)" xlink:href="#W"/></g><g id="w"><use transform="matrix(0.05,0,0,0.05,0,0)" xlink:href="#R"/><use transform="matrix(0.05,0,0,0.05,12.950000000000001,0)" xlink:href="#R"/><use transform="matrix(0.05,0,0,0.05,25.900000000000002,0)" xlink:href="#aq"/><use transform="matrix(0.05,0,0,0.05,36.55,0)" xlink:href="#Y"/><use transform="matrix(0.05,0,0,0.05,46.55,0)" xlink:href="#S"/><use transform="matrix(0.05,0,0,0.05,50.5,0)" xlink:href="#T"/><use transform="matrix(0.05,0,0,0.05,54.45,0)" xlink:href="#ak"/><use transform="matrix(0.05,0,0,0.05,64.45,0)" xlink:href="#Y"/><use transform="matrix(0.05,0,0,0.05,74.45,0)" xlink:href="#W"/><use transform="matrix(0.05,0,0,0.05,79.45,0)" xlink:href="#ae"/><use transform="matrix(0.05,0,0,0.05,89.45,0)" xlink:href="#Z"/><use transform="matrix(0.05,0,0,0.05,95.4,0)" xlink:href="#X"/><use transform="matrix(0.05,0,0,0.05,100.4,0)" xlink:href="#V"/><use transform="matrix(0.05,0,0,0.05,110.4,0)" xlink:href="#W"/></g><path d="M179-190L93 31C79 59 56 82 12 73V49c39 6 53-20 64-50L1-190h34L92-34l54-156h33" id="ar"/><g id="x"><use transform="matrix(0.05,0,0,0.05,0,0)" xlink:href="#am"/><use transform="matrix(0.05,0,0,0.05,12,0)" xlink:href="#Y"/><use transform="matrix(0.05,0,0,0.05,22,0)" xlink:href="#ar"/><use transform="matrix(0.05,0,0,0.05,31,0)" xlink:href="#al"/><use transform="matrix(0.05,0,0,0.05,45.95,0)" xlink:href="#U"/><use transform="matrix(0.05,0,0,0.05,55.95,0)" xlink:href="#V"/><use transform="matrix(0.05,0,0,0.05,65.95,0)" xlink:href="#X"/><use transform="matrix(0.05,0,0,0.05,70.95,0)" xlink:href="#V"/><use transform="matrix(0.05,0,0,0.05,80.95,0)" xlink:href="#W"/></g><g id="y"><use transform="matrix(0.05,0,0,0.05,0,0)" xlink:href="#aa"/><use transform="matrix(0.05,0,0,0.05,12,0)" xlink:href="#ah"/><use transform="matrix(0.05,0,0,0.05,21,0)" xlink:href="#ah"/><use transform="matrix(0.05,0,0,0.05,30,0)" xlink:href="#T"/><use transform="matrix(0.05,0,0,0.05,33.95,0)" xlink:href="#ah"/><use transform="matrix(0.05,0,0,0.05,42.95,0)" xlink:href="#W"/><use transform="matrix(0.05,0,0,0.05,47.95,0)" xlink:href="#Y"/><use transform="matrix(0.05,0,0,0.05,57.95,0)" xlink:href="#V"/><use transform="matrix(0.05,0,0,0.05,67.95,0)" xlink:href="#ad"/><use transform="matrix(0.05,0,0,0.05,76.95,0)" xlink:href="#U"/></g><path d="M127-220V0H93v-220H8v-28h204v28h-85" id="as"/><g id="z"><use transform="matrix(0.05,0,0,0.05,0,0)" xlink:href="#as"/><use transform="matrix(0.05,0,0,0.05,10.3,0)" xlink:href="#T"/><use transform="matrix(0.05,0,0,0.05,14.25,0)" xlink:href="#ad"/><use transform="matrix(0.05,0,0,0.05,23.25,0)" xlink:href="#ao"/><use transform="matrix(0.05,0,0,0.05,32.25,0)" xlink:href="#U"/><use transform="matrix(0.05,0,0,0.05,42.25,0)" xlink:href="#W"/></g><g id="A"><use transform="matrix(0.05,0,0,0.05,0,0)" xlink:href="#P"/><use transform="matrix(0.05,0,0,0.05,14.950000000000001,0)" xlink:href="#Y"/><use transform="matrix(0.05,0,0,0.05,24.950000000000003,0)" xlink:href="#V"/><use transform="matrix(0.05,0,0,0.05,34.95,0)" xlink:href="#Y"/><use transform="matrix(0.05,0,0,0.05,44.95,0)" xlink:href="#af"/><use transform="matrix(0.05,0,0,0.05,54.95,0)" xlink:href="#U"/><use transform="matrix(0.05,0,0,0.05,64.95,0)" xlink:href="#Z"/></g><path d="M101-234c-31-9-42 10-38 44h38v23H63V0H32v-167H5v-23h27c-7-52 17-82 69-68v24" id="at"/><g id="B"><use transform="matrix(0.05,0,0,0.05,0,0)" xlink:href="#aa"/><use transform="matrix(0.05,0,0,0.05,12,0)" xlink:href="#ah"/><use transform="matrix(0.05,0,0,0.05,21,0)" xlink:href="#ah"/><use transform="matrix(0.05,0,0,0.05,30,0)" xlink:href="#T"/><use transform="matrix(0.05,0,0,0.05,33.95,0)" xlink:href="#ah"/><use transform="matrix(0.05,0,0,0.05,42.95,0)" xlink:href="#W"/><use transform="matrix(0.05,0,0,0.05,47.95,0)" xlink:href="#Y"/><use transform="matrix(0.05,0,0,0.05,57.95,0)" xlink:href="#V"/><use transform="matrix(0.05,0,0,0.05,67.95,0)" xlink:href="#ad"/><use transform="matrix(0.05,0,0,0.05,76.95,0)" xlink:href="#U"/><use transform="matrix(0.05,0,0,0.05,86.95,0)" xlink:href="#X"/><use transform="matrix(0.05,0,0,0.05,91.95,0)" xlink:href="#V"/><use transform="matrix(0.05,0,0,0.05,101.95,0)" xlink:href="#W"/><use transform="matrix(0.05,0,0,0.05,106.95,0)" xlink:href="#U"/><use transform="matrix(0.05,0,0,0.05,116.95,0)" xlink:href="#Z"/><use transform="matrix(0.05,0,0,0.05,122.9,0)" xlink:href="#at"/><use transform="matrix(0.05,0,0,0.05,127.9,0)" xlink:href="#Y"/><use transform="matrix(0.05,0,0,0.05,137.9,0)" xlink:href="#ad"/><use transform="matrix(0.05,0,0,0.05,146.9,0)" xlink:href="#U"/></g><g id="C"><use transform="matrix(0.05,0,0,0.05,0,0)" xlink:href="#N"/><use transform="matrix(0.05,0,0,0.05,12.950000000000001,0)" xlink:href="#T"/><use transform="matrix(0.05,0,0,0.05,16.900000000000002,0)" xlink:href="#ah"/><use transform="matrix(0.05,0,0,0.05,25.900000000000002,0)" xlink:href="#ad"/><use transform="matrix(0.05,0,0,0.05,34.900000000000006,0)" xlink:href="#ae"/><use transform="matrix(0.05,0,0,0.05,44.900000000000006,0)" xlink:href="#ai"/><use transform="matrix(0.05,0,0,0.05,53.900000000000006,0)" xlink:href="#U"/><use transform="matrix(0.05,0,0,0.05,63.900000000000006,0)" xlink:href="#Z"/><use transform="matrix(0.05,0,0,0.05,69.85000000000001,0)" xlink:href="#ar"/></g><g id="D"><use transform="matrix(0.05,0,0,0.05,0,0)" xlink:href="#Q"/><use transform="matrix(0.05,0,0,0.05,12,0)" xlink:href="#U"/><use transform="matrix(0.05,0,0,0.05,22,0)" xlink:href="#Z"/><use transform="matrix(0.05,0,0,0.05,27.950000000000003,0)" xlink:href="#ai"/><use transform="matrix(0.05,0,0,0.05,36.95,0)" xlink:href="#T"/><use transform="matrix(0.05,0,0,0.05,40.900000000000006,0)" xlink:href="#ad"/><use transform="matrix(0.05,0,0,0.05,49.900000000000006,0)" xlink:href="#U"/></g><g id="E"><use transform="matrix(0.05,0,0,0.05,0,0)" xlink:href="#O"/><use transform="matrix(0.05,0,0,0.05,12,0)" xlink:href="#T"/><use transform="matrix(0.05,0,0,0.05,15.949999999999998,0)" xlink:href="#V"/><use transform="matrix(0.05,0,0,0.05,25.950000000000003,0)" xlink:href="#ak"/><use transform="matrix(0.05,0,0,0.05,35.95,0)" xlink:href="#T"/><use transform="matrix(0.05,0,0,0.05,39.900000000000006,0)" xlink:href="#V"/><use transform="matrix(0.05,0,0,0.05,49.900000000000006,0)" xlink:href="#af"/></g><path d="M143 4C61 4 22-44 18-125c-5-107 100-154 193-111 17 8 29 25 37 43l-32 9c-13-25-37-40-76-40-61 0-88 39-88 99 0 61 29 100 91 101 35 0 62-11 79-27v-45h-74v-28h105v86C228-13 192 4 143 4" id="au"/><path d="M27 0v-27h64v-190l-56 39v-29l58-41h29v221h61V0H27" id="av"/><path d="M68-38c1 34 0 65-14 84H32c9-13 17-26 17-46H33v-38h35" id="aw"/><path d="M126-127c33 6 58 20 58 59 0 88-139 92-164 29-3-8-5-16-6-25l32-3c6 27 21 44 54 44 32 0 52-15 52-46 0-38-36-46-79-43v-28c39 1 72-4 72-42 0-27-17-43-46-43-28 0-47 15-49 41l-32-3c6-42 35-63 81-64 48-1 79 21 79 65 0 36-21 52-52 59" id="ax"/><g id="F"><use transform="matrix(0.05,0,0,0.05,0,0)" xlink:href="#au"/><use transform="matrix(0.05,0,0,0.05,14,0)" xlink:href="#av"/><use transform="matrix(0.05,0,0,0.05,24,0)" xlink:href="#aw"/><use transform="matrix(0.05,0,0,0.05,29,0)" xlink:href="#au"/><use transform="matrix(0.05,0,0,0.05,43,0)" xlink:href="#ax"/></g><path d="M134-131c28 9 52 24 51 62-1 50-34 73-85 73S17-19 16-69c0-36 21-54 49-61-75-25-45-126 34-121 46 3 78 18 79 63 0 33-17 51-44 57zm-34-11c31 1 46-15 46-44 0-28-17-43-47-42-29 0-46 13-45 42 1 28 16 44 46 44zm1 122c35 0 51-18 51-52 0-30-18-46-53-46-33 0-51 17-51 47 0 34 19 51 53 51" id="ay"/><g id="G"><use transform="matrix(0.05,0,0,0.05,0,0)" xlink:href="#au"/><use transform="matrix(0.05,0,0,0.05,14,0)" xlink:href="#ay"/></g><path d="M101-251c68 0 85 55 85 127S166 4 100 4C33 4 14-52 14-124c0-73 17-127 87-127zm-1 229c47 0 54-49 54-102s-4-102-53-102c-51 0-55 48-55 102 0 53 5 102 54 102" id="az"/><g id="H"><use transform="matrix(0.05,0,0,0.05,0,0)" xlink:href="#au"/><use transform="matrix(0.05,0,0,0.05,14,0)" xlink:href="#av"/><use transform="matrix(0.05,0,0,0.05,24,0)" xlink:href="#az"/></g><path d="M54-142c48-35 137-8 131 61C196 18 31 33 14-55l32-4c7 23 22 37 52 37 35-1 51-22 54-58 4-55-73-65-99-34H22l8-134h141v27H59" id="aA"/><g id="I"><use transform="matrix(0.05,0,0,0.05,0,0)" xlink:href="#au"/><use transform="matrix(0.05,0,0,0.05,14,0)" xlink:href="#aA"/><use transform="matrix(0.05,0,0,0.05,24,0)" xlink:href="#aw"/></g><path d="M64 0c3-98 48-159 88-221H18v-27h164v26C143-157 98-101 97 0H64" id="aB"/><g id="J"><use transform="matrix(0.05,0,0,0.05,0,0)" xlink:href="#au"/><use transform="matrix(0.05,0,0,0.05,14,0)" xlink:href="#aB"/><use transform="matrix(0.05,0,0,0.05,24,0)" xlink:href="#aw"/></g><g id="K"><use transform="matrix(0.05,0,0,0.05,0,0)" xlink:href="#au"/><use transform="matrix(0.05,0,0,0.05,14,0)" xlink:href="#av"/><use transform="matrix(0.05,0,0,0.05,22.65,0)" xlink:href="#av"/></g><path d="M155-56V0h-30v-56H8v-25l114-167h33v167h35v25h-35zm-30-156c-27 46-58 90-88 131h88v-131" id="aC"/><path d="M110-160c48 1 74 30 74 79 0 53-28 85-80 85-65 0-83-55-86-122-5-90 50-162 133-122 14 7 22 21 27 39l-31 6c-5-40-67-38-82-6-9 19-15 44-15 74 11-20 30-34 60-33zm-7 138c34 0 49-23 49-58s-16-56-50-56c-29 0-50 16-49 49 1 36 15 65 50 65" id="aD"/><g id="L"><use transform="matrix(0.05,0,0,0.05,0,0)" xlink:href="#au"/><use transform="matrix(0.05,0,0,0.05,14,0)" xlink:href="#aC"/><use transform="matrix(0.05,0,0,0.05,24,0)" xlink:href="#aw"/><use transform="matrix(0.05,0,0,0.05,29,0)" xlink:href="#au"/><use transform="matrix(0.05,0,0,0.05,43,0)" xlink:href="#aD"/></g><path d="M101-251c82-7 93 87 43 132L82-64C71-53 59-42 53-27h129V0H18c2-99 128-94 128-182 0-28-16-43-45-43s-46 15-49 41l-32-3c6-41 34-60 81-64" id="aE"/><g id="M"><use transform="matrix(0.05,0,0,0.05,0,0)" xlink:href="#au"/><use transform="matrix(0.05,0,0,0.05,14,0)" xlink:href="#aE"/></g></defs></g></svg>