<svg xmlns="http://www.w3.org/2000/svg" xmlns:xlink="http://www.w3.org/1999/xlink" width="1060" height="880"><g transform="translate(-40 -100)"><path d="M0 0h1360v1760H0z" fill="#fff"/><path d="M360 695h240v60H360z" fill="none"/><use xlink:href="#a" transform="matrix(1,0,0,1,360,695) translate(77.05 33.6)"/><use xlink:href="#b" transform="matrix(1,0,0,1,360,695) translate(133.95 33.6)"/><path d="M680 380h240v60H680z" fill="none"/><use xlink:href="#c" transform="matrix(1,0,0,1,680,380) translate(62.3 33.6)"/><path d="M680 200h240v60H680z" fill="none"/><use xlink:href="#d" transform="matrix(1,0,0,1,680,200) translate(64.44999999999999 33.6)"/><path d="M680 740h240v60H680z" fill="none"/><use xlink:href="#e" transform="matrix(1,0,0,1,680,740) translate(95.55 33.6)"/><path d="M674.67 560h240v60h-240z" fill="none"/><use xlink:href="#f" transform="matrix(1,0,0,1,674.6666666666666,560) translate(74.525 33.6)"/><path d="M825 180h-11m-14-20c-11.05 0-20 8.95-20 20s8.95 20 20 20m-20-20h-5" stroke="#000" stroke-width="2" fill="none"/><path d="M800 194c-7.73 0-14-6.27-14-14s6.27-14 14-14 14 6.27 14 14-6.27 14-14 14z" stroke="#000" stroke-width="2" fill="#fff"/><path d="M800 160c-11.05 0-20 8.95-20 20s8.95 20 20 20 20-8.95 20-20-8.95-20-20-20z" fill="none"/><path d="M825 360h-11m-14-20c-11.05 0-20 8.95-20 20s8.95 20 20 20m-20-20h-5" stroke="#000" stroke-width="2" fill="none"/><path d="M800 374c-7.73 0-14-6.27-14-14s6.27-14 14-14 14 6.27 14 14-6.27 14-14 14z" stroke="#000" stroke-width="2" fill="#fff"/><path d="M800 340c-11.05 0-20 8.95-20 20s8.95 20 20 20 20-8.95 20-20-8.95-20-20-20z" fill="none"/><path d="M825 540h-11m-14-20c-11.05 0-20 8.95-20 20s8.95 20 20 20m-20-20h-5" stroke="#000" stroke-width="2" fill="none"/><path d="M800 554c-7.73 0-14-6.27-14-14s6.27-14 14-14 14 6.27 14 14-6.27 14-14 14z" stroke="#000" stroke-width="2" fill="#fff"/><path d="M800 520c-11.05 0-20 8.95-20 20s8.95 20 20 20 20-8.95 20-20-8.95-20-20-20z" fill="none"/><path d="M825 720h-11m-14-20c-11.05 0-20 8.95-20 20s8.95 20 20 20m-20-20h-5" stroke="#000" stroke-width="2" fill="none"/><path d="M800 734c-7.73 0-14-6.27-14-14s6.27-14 14-14 14 6.27 14 14-6.27 14-14 14z" stroke="#000" stroke-width="2" fill="#fff"/><path d="M800 700c-11.05 0-20 8.95-20 20s8.95 20 20 20 20-8.95 20-20-8.95-20-20-20z" fill="none"/><path d="M560 745v-11m20-14c0-11.05-8.95-20-20-20s-20 8.95-20 20m20-20v-5" stroke="#000" stroke-width="2" fill="none"/><path d="M546 720c0-7.73 6.27-14 14-14s14 6.27 14 14-6.27 14-14 14-14-6.27-14-14z" stroke="#000" stroke-width="2" fill="#fff"/><path d="M580 720c0-11.05-8.95-20-20-20s-20 8.95-20 20 8.95 20 20 20 20-8.95 20-20z" fill="none"/><path d="M340 450h75" stroke="#000" stroke-width="2" fill="none"/><path d="M418 451h-3v-2h3z"/><path d="M520 450h-55" stroke="#000" stroke-width="2" fill="none"/><path d="M465 451h-3v-2h3z"/><path d="M640 510v210h135" stroke="#000" stroke-width="2" fill="none"/><path d="M778 721h-3v-2h3z"/><path d="M680 420h47.5v-60H775" stroke="#000" stroke-width="2" fill="none"/><path d="M778 361h-3v-2h3z"/><path d="M600 390V180h175" stroke="#000" stroke-width="2" fill="none"/><path d="M778 181h-3v-2h3z"/><path d="M920 540h-95" stroke="#000" stroke-width="2" fill="none"/><path d="M825 541h-3v-2h3z"/><path d="M920 360h-95" stroke="#000" stroke-width="2" fill="none"/><path d="M825 361h-3v-2h3z"/><path d="M920 180h-95" stroke="#000" stroke-width="2" fill="none"/><path d="M825 181h-3v-2h3z"/><path d="M180 390v120h160V390z" stroke="#000" stroke-width="2" fill="#fff"/><path d="M330 400h-15v20h15z" stroke="#000" fill="#fff"/><path d="M320 403.33h-10v3.34h10zm0 10h-10v3.34h10z" stroke="#000" fill="#fff"/><use xlink:href="#g" transform="matrix(1,0,0,1,180,390) translate(57.08 63.15)"/><path d="M480 840v120h160V840z" stroke="#000" stroke-width="2" fill="#fff"/><path d="M630 850h-15v20h15z" stroke="#000" fill="#fff"/><path d="M620 853.33h-10v3.34h10zm0 10h-10v3.34h10z" stroke="#000" fill="#fff"/><use xlink:href="#h" transform="matrix(1,0,0,1,480,840) translate(54.055 63.15)"/><path d="M920 660v120h160V660z" stroke="#000" stroke-width="2" fill="#fff"/><path d="M1070 670h-15v20h15z" stroke="#000" fill="#fff"/><path d="M1060 673.33h-10v3.34h10zm0 10h-10v3.34h10z" stroke="#000" fill="#fff"/><use xlink:href="#i" transform="matrix(1,0,0,1,920,660) translate(65.555 63.15)"/><path d="M920 480v120h160V480z" stroke="#000" stroke-width="2" fill="#fff"/><path d="M1070 490h-15v20h15z" stroke="#000" fill="#fff"/><path d="M1060 493.33h-10v3.34h10zm0 10h-10v3.34h10z" stroke="#000" fill="#fff"/><use xlink:href="#j" transform="matrix(1,0,0,1,920,480) translate(27.054999999999993 51.9)"/><use xlink:href="#k" transform="matrix(1,0,0,1,920,480) translate(10.604999999999999 73.5)"/><use xlink:href="#l" transform="matrix(1,0,0,1,920,480) translate(86.555 73.5)"/><path d="M920 300v120h160V300z" stroke="#000" stroke-width="2" fill="#fff"/><path d="M1070 310h-15v20h15z" stroke="#000" fill="#fff"/><path d="M1060 313.33h-10v3.34h10zm0 10h-10v3.34h10z" stroke="#000" fill="#fff"/><use xlink:href="#j" transform="matrix(1,0,0,1,920,300) translate(27.054999999999993 51.9)"/><use xlink:href="#m" transform="matrix(1,0,0,1,920,300) translate(29.805 73.5)"/><use xlink:href="#n" transform="matrix(1,0,0,1,920,300) translate(60.705000000000005 73.5)"/><path d="M920 120v120h160V120z" stroke="#000" stroke-width="2" fill="#fff"/><path d="M1070 130h-15v20h15z" stroke="#000" fill="#fff"/><path d="M1060 133.33h-10v3.34h10zm0 10h-10v3.34h10z" stroke="#000" fill="#fff"/><use xlink:href="#j" transform="matrix(1,0,0,1,920,120) translate(27.054999999999993 51.9)"/><use xlink:href="#o" transform="matrix(1,0,0,1,920,120) translate(31.604999999999997 73.5)"/><use xlink:href="#n" transform="matrix(1,0,0,1,920,120) translate(58.905 73.5)"/><path d="M920 720H820" stroke="#000" stroke-width="2" fill="none"/><path d="M820 721h-.04l.04-1-.13-1h.13z"/><path d="M520 390v120h160V390z" stroke="#000" stroke-width="2" fill="#fff"/><path d="M670 400h-15v20h15z" stroke="#000" fill="#fff"/><path d="M660 403.33h-10v3.34h10zm0 10h-10v3.34h10z" stroke="#000" fill="#fff"/><use xlink:href="#p" transform="matrix(1,0,0,1,520,390) translate(53.555 63.15)"/><path d="M680 480h47.5v60H775" stroke="#000" stroke-width="2" fill="none"/><path d="M778 541h-3v-2h3z"/><path d="M320 470h240v60H320z" fill="none"/><use xlink:href="#q" transform="matrix(1,0,0,1,320,470) translate(87.075 33.6)"/><g><path d="M465 450h-11m-14-20c-11.05 0-20 8.95-20 20s8.95 20 20 20m-20-20h-5" stroke="#000" stroke-width="2" fill="none"/><path d="M440 464c-7.73 0-14-6.27-14-14s6.27-14 14-14 14 6.27 14 14-6.27 14-14 14z" stroke="#000" stroke-width="2" fill="#fff"/><path d="M440 430c-11.05 0-20 8.95-20 20s8.95 20 20 20 20-8.95 20-20-8.95-20-20-20z" fill="none"/></g><path d="M180 120v120h160V120z" stroke="#000" stroke-width="2" fill="#fff"/><path d="M330 130h-15v20h15z" stroke="#000" fill="#fff"/><path d="M320 133.33h-10v3.34h10zm0 10h-10v3.34h10z" stroke="#000" fill="#fff"/><g><use xlink:href="#r" transform="matrix(1,0,0,1,180,120) translate(27.054999999999993 51.9)"/><use xlink:href="#s" transform="matrix(1,0,0,1,180,120) translate(22.104999999999997 73.5)"/><use xlink:href="#t" transform="matrix(1,0,0,1,180,120) translate(71.055 73.5)"/></g><path d="M260 241v44" stroke="#000" stroke-width="2" fill="none"/><path d="M261 241h-2v-1h2zM261 288h-2v-3h2z"/><path d="M260 390v-55" stroke="#000" stroke-width="2" fill="none"/><path d="M261 335h-2v-3h2z"/><path d="M60 280h240v60H60z" fill="none"/><g><use xlink:href="#u" transform="matrix(1,0,0,1,60,280) translate(83.525 33.6)"/></g><g><path d="M260 285v11m-20 14c0 11.05 8.95 20 20 20s20-8.95 20-20m-20 20v5" stroke="#000" stroke-width="2" fill="none"/><path d="M274 310c0 7.73-6.27 14-14 14s-14-6.27-14-14 6.27-14 14-14 14 6.27 14 14z" stroke="#000" stroke-width="2" fill="#fff"/><path d="M240 310c0 11.05 8.95 20 20 20s20-8.95 20-20-8.95-20-20-20-20 8.95-20 20z" fill="none"/></g><path d="M560 510v185M560 840v-95" stroke="#000" stroke-width="2" fill="none"/><path d="M561 745h-2v-3h2z"/><defs><path d="M30-248c118-7 216 8 213 122C240-48 200 0 122 0H30v-248zM63-27c89 8 146-16 146-99s-60-101-146-95v194" id="v"/><path d="M160-131c35 5 61 23 61 61C221 17 115-2 30 0v-248c76 3 177-17 177 60 0 33-19 50-47 57zm-97-11c50-1 110 9 110-42 0-47-63-36-110-37v79zm0 115c55-2 124 14 124-45 0-56-70-42-124-44v89" id="w"/><path d="M240 0l2-218c-23 76-54 145-80 218h-23L58-218 59 0H30v-248h44l77 211c21-75 51-140 76-211h43V0h-30" id="x"/><path d="M185-189c-5-48-123-54-124 2 14 75 158 14 163 119 3 78-121 87-175 55-17-10-28-26-33-46l33-7c5 56 141 63 141-1 0-78-155-14-162-118-5-82 145-84 179-34 5 7 8 16 11 25" id="y"/><g id="a"><use transform="matrix(0.05,0,0,0.05,0,0)" xlink:href="#v"/><use transform="matrix(0.05,0,0,0.05,12.950000000000001,0)" xlink:href="#w"/><use transform="matrix(0.05,0,0,0.05,24.950000000000003,0)" xlink:href="#x"/><use transform="matrix(0.05,0,0,0.05,39.900000000000006,0)" xlink:href="#y"/></g><path d="M205 0l-28-72H64L36 0H1l101-248h38L239 0h-34zm-38-99l-47-123c-12 45-31 82-46 123h93" id="z"/><path d="M30-248c87 1 191-15 191 75 0 78-77 80-158 76V0H30v-248zm33 125c57 0 124 11 124-50 0-59-68-47-124-48v98" id="A"/><path d="M33 0v-248h34V0H33" id="B"/><g id="b"><use transform="matrix(0.05,0,0,0.05,0,0)" xlink:href="#z"/><use transform="matrix(0.05,0,0,0.05,12,0)" xlink:href="#A"/><use transform="matrix(0.05,0,0,0.05,24,0)" xlink:href="#B"/></g><path d="M212-179c-10-28-35-45-73-45-59 0-87 40-87 99 0 60 29 101 89 101 43 0 62-24 78-52l27 14C228-24 195 4 139 4 59 4 22-46 18-125c-6-104 99-153 187-111 19 9 31 26 39 46" id="C"/><path d="M137 0h-34L2-248h35l83 218 83-218h36" id="D"/><path d="M141-36C126-15 110 5 73 4 37 3 15-17 15-53c-1-64 63-63 125-63 3-35-9-54-41-54-24 1-41 7-42 31l-33-3c5-37 33-52 76-52 45 0 72 20 72 64v82c-1 20 7 32 28 27v20c-31 9-61-2-59-35zM48-53c0 20 12 33 32 33 41-3 63-29 60-74-43 2-92-5-92 41" id="E"/><path d="M24 0v-261h32V0H24" id="F"/><path d="M24-231v-30h32v30H24zM24 0v-190h32V0H24" id="G"/><path d="M85-194c31 0 48 13 60 33l-1-100h32l1 261h-30c-2-10 0-23-3-31C134-8 116 4 85 4 32 4 16-35 15-94c0-66 23-100 70-100zm9 24c-40 0-46 34-46 75 0 40 6 74 45 74 42 0 51-32 51-76 0-42-9-74-50-73" id="H"/><path d="M59-47c-2 24 18 29 38 22v24C64 9 27 4 27-40v-127H5v-23h24l9-43h21v43h35v23H59v120" id="I"/><path d="M100-194c62-1 85 37 85 99 1 63-27 99-86 99S16-35 15-95c0-66 28-99 85-99zM99-20c44 1 53-31 53-75 0-43-8-75-51-75s-53 32-53 75 10 74 51 75" id="J"/><path d="M114-163C36-179 61-72 57 0H25l-1-190h30c1 12-1 29 2 39 6-27 23-49 58-41v29" id="K"/><path d="M117-194c89-4 53 116 60 194h-32v-121c0-31-8-49-39-48C34-167 62-67 57 0H25l-1-190h30c1 10-1 24 2 32 11-22 29-35 61-36" id="L"/><g id="c"><use transform="matrix(0.05,0,0,0.05,0,0)" xlink:href="#C"/><use transform="matrix(0.05,0,0,0.05,12.950000000000001,0)" xlink:href="#C"/><use transform="matrix(0.05,0,0,0.05,25.900000000000002,0)" xlink:href="#D"/><use transform="matrix(0.05,0,0,0.05,36.55,0)" xlink:href="#E"/><use transform="matrix(0.05,0,0,0.05,46.55,0)" xlink:href="#F"/><use transform="matrix(0.05,0,0,0.05,50.5,0)" xlink:href="#G"/><use transform="matrix(0.05,0,0,0.05,54.45,0)" xlink:href="#H"/><use transform="matrix(0.05,0,0,0.05,64.45,0)" xlink:href="#E"/><use transform="matrix(0.05,0,0,0.05,74.45,0)" xlink:href="#I"/><use transform="matrix(0.05,0,0,0.05,79.45,0)" xlink:href="#J"/><use transform="matrix(0.05,0,0,0.05,89.45,0)" xlink:href="#K"/><use transform="matrix(0.05,0,0,0.05,95.4,0)" xlink:href="#B"/><use transform="matrix(0.05,0,0,0.05,100.4,0)" xlink:href="#L"/><use transform="matrix(0.05,0,0,0.05,110.4,0)" xlink:href="#I"/></g><path d="M30 0v-248h33v221h125V0H30" id="M"/><g id="d"><use transform="matrix(0.05,0,0,0.05,0,0)" xlink:href="#v"/><use transform="matrix(0.05,0,0,0.05,12.950000000000001,0)" xlink:href="#M"/><use transform="matrix(0.05,0,0,0.05,21.6,0)" xlink:href="#D"/><use transform="matrix(0.05,0,0,0.05,32.25,0)" xlink:href="#E"/><use transform="matrix(0.05,0,0,0.05,42.25,0)" xlink:href="#F"/><use transform="matrix(0.05,0,0,0.05,46.2,0)" xlink:href="#G"/><use transform="matrix(0.05,0,0,0.05,50.150000000000006,0)" xlink:href="#H"/><use transform="matrix(0.05,0,0,0.05,60.150000000000006,0)" xlink:href="#E"/><use transform="matrix(0.05,0,0,0.05,70.15,0)" xlink:href="#I"/><use transform="matrix(0.05,0,0,0.05,75.15,0)" xlink:href="#J"/><use transform="matrix(0.05,0,0,0.05,85.15,0)" xlink:href="#K"/><use transform="matrix(0.05,0,0,0.05,91.10000000000001,0)" xlink:href="#B"/><use transform="matrix(0.05,0,0,0.05,96.10000000000001,0)" xlink:href="#L"/><use transform="matrix(0.05,0,0,0.05,106.10000000000001,0)" xlink:href="#I"/></g><g id="e"><use transform="matrix(0.05,0,0,0.05,0,0)" xlink:href="#C"/><use transform="matrix(0.05,0,0,0.05,12.950000000000001,0)" xlink:href="#E"/><use transform="matrix(0.05,0,0,0.05,22.950000000000003,0)" xlink:href="#K"/><use transform="matrix(0.05,0,0,0.05,28.900000000000002,0)" xlink:href="#B"/><use transform="matrix(0.05,0,0,0.05,33.900000000000006,0)" xlink:href="#L"/><use transform="matrix(0.05,0,0,0.05,43.900000000000006,0)" xlink:href="#I"/></g><path d="M179-190L93 31C79 59 56 82 12 73V49c39 6 53-20 64-50L1-190h34L92-34l54-156h33" id="N"/><path d="M210-169c-67 3-38 105-44 169h-31v-121c0-29-5-50-35-48C34-165 62-65 56 0H25l-1-190h30c1 10-1 24 2 32 10-44 99-50 107 0 11-21 27-35 58-36 85-2 47 119 55 194h-31v-121c0-29-5-49-35-48" id="O"/><path d="M100-194c63 0 86 42 84 106H49c0 40 14 67 53 68 26 1 43-12 49-29l28 8c-11 28-37 45-77 45C44 4 14-33 15-96c1-61 26-98 85-98zm52 81c6-60-76-77-97-28-3 7-6 17-6 28h103" id="P"/><g id="f"><use transform="matrix(0.05,0,0,0.05,0,0)" xlink:href="#A"/><use transform="matrix(0.05,0,0,0.05,12,0)" xlink:href="#E"/><use transform="matrix(0.05,0,0,0.05,22,0)" xlink:href="#N"/><use transform="matrix(0.05,0,0,0.05,31,0)" xlink:href="#O"/><use transform="matrix(0.05,0,0,0.05,45.95,0)" xlink:href="#P"/><use transform="matrix(0.05,0,0,0.05,55.95,0)" xlink:href="#L"/><use transform="matrix(0.05,0,0,0.05,65.95,0)" xlink:href="#I"/><use transform="matrix(0.05,0,0,0.05,70.95,0)" xlink:href="#B"/><use transform="matrix(0.05,0,0,0.05,75.95,0)" xlink:href="#L"/><use transform="matrix(0.05,0,0,0.05,85.95,0)" xlink:href="#I"/></g><g id="g"><use transform="matrix(0.05,0,0,0.05,0,0)" xlink:href="#C"/><use transform="matrix(0.05,0,0,0.05,12.950000000000001,0)" xlink:href="#F"/><use transform="matrix(0.05,0,0,0.05,16.900000000000002,0)" xlink:href="#G"/><use transform="matrix(0.05,0,0,0.05,20.85,0)" xlink:href="#P"/><use transform="matrix(0.05,0,0,0.05,30.85,0)" xlink:href="#L"/><use transform="matrix(0.05,0,0,0.05,40.85,0)" xlink:href="#I"/></g><g id="h"><use transform="matrix(0.05,0,0,0.05,0,0)" xlink:href="#v"/><use transform="matrix(0.05,0,0,0.05,12.950000000000001,0)" xlink:href="#w"/><use transform="matrix(0.05,0,0,0.05,24.950000000000003,0)" xlink:href="#x"/><use transform="matrix(0.05,0,0,0.05,39.900000000000006,0)" xlink:href="#y"/></g><g id="i"><use transform="matrix(0.05,0,0,0.05,0,0)" xlink:href="#C"/><use transform="matrix(0.05,0,0,0.05,12.950000000000001,0)" xlink:href="#E"/><use transform="matrix(0.05,0,0,0.05,22.950000000000003,0)" xlink:href="#K"/></g><path d="M18-100v-36l175-74v27L42-118l151 64v27" id="Q"/><path d="M141 0L90-78 38 0H4l68-98-65-92h35l48 74 47-74h35l-64 92 68 98h-35" id="R"/><path d="M18-27v-27l151-64-151-65v-27l175 74v36" id="S"/><g id="j"><use transform="matrix(0.05,0,0,0.05,0,0)" xlink:href="#Q"/><use transform="matrix(0.05,0,0,0.05,10.5,0)" xlink:href="#Q"/><use transform="matrix(0.05,0,0,0.05,21,0)" xlink:href="#P"/><use transform="matrix(0.05,0,0,0.05,31,0)" xlink:href="#R"/><use transform="matrix(0.05,0,0,0.05,40,0)" xlink:href="#I"/><use transform="matrix(0.05,0,0,0.05,45,0)" xlink:href="#P"/><use transform="matrix(0.05,0,0,0.05,55,0)" xlink:href="#K"/><use transform="matrix(0.05,0,0,0.05,60.95,0)" xlink:href="#L"/><use transform="matrix(0.05,0,0,0.05,70.95,0)" xlink:href="#E"/><use transform="matrix(0.05,0,0,0.05,80.95,0)" xlink:href="#F"/><use transform="matrix(0.05,0,0,0.05,84.9,0)" xlink:href="#S"/><use transform="matrix(0.05,0,0,0.05,95.4,0)" xlink:href="#S"/></g><g id="k"><use transform="matrix(0.05,0,0,0.05,0,0)" xlink:href="#A"/><use transform="matrix(0.05,0,0,0.05,12,0)" xlink:href="#E"/><use transform="matrix(0.05,0,0,0.05,22,0)" xlink:href="#N"/><use transform="matrix(0.05,0,0,0.05,31,0)" xlink:href="#O"/><use transform="matrix(0.05,0,0,0.05,45.95,0)" xlink:href="#P"/><use transform="matrix(0.05,0,0,0.05,55.95,0)" xlink:href="#L"/><use transform="matrix(0.05,0,0,0.05,65.95,0)" xlink:href="#I"/></g><path d="M197 0v-115H63V0H30v-248h33v105h134v-105h34V0h-34" id="T"/><g id="l"><use transform="matrix(0.05,0,0,0.05,0,0)" xlink:href="#T"/><use transform="matrix(0.05,0,0,0.05,12.950000000000001,0)" xlink:href="#E"/><use transform="matrix(0.05,0,0,0.05,22.950000000000003,0)" xlink:href="#L"/><use transform="matrix(0.05,0,0,0.05,32.95,0)" xlink:href="#H"/><use transform="matrix(0.05,0,0,0.05,42.95,0)" xlink:href="#F"/><use transform="matrix(0.05,0,0,0.05,46.900000000000006,0)" xlink:href="#P"/><use transform="matrix(0.05,0,0,0.05,56.900000000000006,0)" xlink:href="#K"/></g><g id="m"><use transform="matrix(0.05,0,0,0.05,0,0)" xlink:href="#C"/><use transform="matrix(0.05,0,0,0.05,12.950000000000001,0)" xlink:href="#C"/></g><g id="n"><use transform="matrix(0.05,0,0,0.05,0,0)" xlink:href="#D"/><use transform="matrix(0.05,0,0,0.05,10.65,0)" xlink:href="#E"/><use transform="matrix(0.05,0,0,0.05,20.65,0)" xlink:href="#F"/><use transform="matrix(0.05,0,0,0.05,24.599999999999998,0)" xlink:href="#G"/><use transform="matrix(0.05,0,0,0.05,28.549999999999997,0)" xlink:href="#H"/><use transform="matrix(0.05,0,0,0.05,38.55,0)" xlink:href="#E"/><use transform="matrix(0.05,0,0,0.05,48.55,0)" xlink:href="#I"/><use transform="matrix(0.05,0,0,0.05,53.54999999999999,0)" xlink:href="#J"/><use transform="matrix(0.05,0,0,0.05,63.54999999999999,0)" xlink:href="#K"/></g><g id="o"><use transform="matrix(0.05,0,0,0.05,0,0)" xlink:href="#v"/><use transform="matrix(0.05,0,0,0.05,12.950000000000001,0)" xlink:href="#M"/></g><path d="M108 0H70L1-190h34L89-25l56-165h34" id="U"/><g id="p"><use transform="matrix(0.05,0,0,0.05,0,0)" xlink:href="#y"/><use transform="matrix(0.05,0,0,0.05,12,0)" xlink:href="#P"/><use transform="matrix(0.05,0,0,0.05,22,0)" xlink:href="#K"/><use transform="matrix(0.05,0,0,0.05,27.950000000000003,0)" xlink:href="#U"/><use transform="matrix(0.05,0,0,0.05,36.95,0)" xlink:href="#P"/><use transform="matrix(0.05,0,0,0.05,46.95,0)" xlink:href="#K"/></g><g id="q"><use transform="matrix(0.05,0,0,0.05,0,0)" xlink:href="#C"/><use transform="matrix(0.05,0,0,0.05,12.950000000000001,0)" xlink:href="#F"/><use transform="matrix(0.05,0,0,0.05,16.900000000000002,0)" xlink:href="#G"/><use transform="matrix(0.05,0,0,0.05,20.85,0)" xlink:href="#P"/><use transform="matrix(0.05,0,0,0.05,30.85,0)" xlink:href="#L"/><use transform="matrix(0.05,0,0,0.05,40.85,0)" xlink:href="#I"/><use transform="matrix(0.05,0,0,0.05,45.85,0)" xlink:href="#B"/><use transform="matrix(0.05,0,0,0.05,50.85,0)" xlink:href="#L"/><use transform="matrix(0.05,0,0,0.05,60.85,0)" xlink:href="#I"/></g><g id="r"><use transform="matrix(0.05,0,0,0.05,0,0)" xlink:href="#Q"/><use transform="matrix(0.05,0,0,0.05,10.5,0)" xlink:href="#Q"/><use transform="matrix(0.05,0,0,0.05,21,0)" xlink:href="#P"/><use transform="matrix(0.05,0,0,0.05,31,0)" xlink:href="#R"/><use transform="matrix(0.05,0,0,0.05,40,0)" xlink:href="#I"/><use transform="matrix(0.05,0,0,0.05,45,0)" xlink:href="#P"/><use transform="matrix(0.05,0,0,0.05,55,0)" xlink:href="#K"/><use transform="matrix(0.05,0,0,0.05,60.95,0)" xlink:href="#L"/><use transform="matrix(0.05,0,0,0.05,70.95,0)" xlink:href="#E"/><use transform="matrix(0.05,0,0,0.05,80.95,0)" xlink:href="#F"/><use transform="matrix(0.05,0,0,0.05,84.9,0)" xlink:href="#S"/><use transform="matrix(0.05,0,0,0.05,95.4,0)" xlink:href="#S"/></g><path d="M115-194c55 1 70 41 70 98S169 2 115 4C84 4 66-9 55-30l1 105H24l-1-265h31l2 30c10-21 28-34 59-34zm-8 174c40 0 45-34 45-75s-6-73-45-74c-42 0-51 32-51 76 0 43 10 73 51 73" id="V"/><path d="M135-143c-3-34-86-38-87 0 15 53 115 12 119 90S17 21 10-45l28-5c4 36 97 45 98 0-10-56-113-15-118-90-4-57 82-63 122-42 12 7 21 19 24 35" id="W"/><g id="s"><use transform="matrix(0.05,0,0,0.05,0,0)" xlink:href="#x"/><use transform="matrix(0.05,0,0,0.05,14.950000000000001,0)" xlink:href="#E"/><use transform="matrix(0.05,0,0,0.05,24.950000000000003,0)" xlink:href="#V"/><use transform="matrix(0.05,0,0,0.05,34.95,0)" xlink:href="#W"/></g><g id="t"><use transform="matrix(0.05,0,0,0.05,0,0)" xlink:href="#A"/><use transform="matrix(0.05,0,0,0.05,12,0)" xlink:href="#K"/><use transform="matrix(0.05,0,0,0.05,17.95,0)" xlink:href="#J"/><use transform="matrix(0.05,0,0,0.05,27.950000000000003,0)" xlink:href="#U"/><use transform="matrix(0.05,0,0,0.05,36.95,0)" xlink:href="#G"/><use transform="matrix(0.05,0,0,0.05,40.900000000000006,0)" xlink:href="#H"/><use transform="matrix(0.05,0,0,0.05,50.900000000000006,0)" xlink:href="#P"/><use transform="matrix(0.05,0,0,0.05,60.900000000000006,0)" xlink:href="#K"/></g><g id="u"><use transform="matrix(0.05,0,0,0.05,0,0)" xlink:href="#x"/><use transform="matrix(0.05,0,0,0.05,14.950000000000001,0)" xlink:href="#E"/><use transform="matrix(0.05,0,0,0.05,24.950000000000003,0)" xlink:href="#V"/><use transform="matrix(0.05,0,0,0.05,34.95,0)" xlink:href="#W"/><use transform="matrix(0.05,0,0,0.05,43.95,0)" xlink:href="#z"/><use transform="matrix(0.05,0,0,0.05,55.95,0)" xlink:href="#A"/><use transform="matrix(0.05,0,0,0.05,67.95,0)" xlink:href="#B"/></g></defs></g></svg>