<svg xmlns="http://www.w3.org/2000/svg" xmlns:xlink="http://www.w3.org/1999/xlink" width="1324.06" height="1280"><g transform="translate(20 0)"><path d="M0 0h1360v1760H0z" fill="#fff"/><path d="M441.6 181.9C441.6 92.5 512.52 20 600 20c70 0 129.02 43.84 150.65 111.87C956.4 127.93 996 397.77 916.8 505.7c118.8 53.97 79.2 323.8-39.6 323.8 39.6 161.9-118.8 323.8-316.8 215.87-158.4 107.93-356.4 0-277.2-215.87-102.96-53.97-102.96-269.83 0-323.8-79.2-107.93-39.6-323.8 158.4-323.8z" stroke="#000" stroke-width="2" fill="#fff"/><use xlink:href="#a" transform="matrix(6.123233995736766e-17,1,-1,6.123233995736766e-17,991.0000000000005,24.99999999999998) translate(535 396.9)"/><path d="M526 1158.27V1260h160v-101.73z" stroke="#000" stroke-width="2" fill="#fff"/><path d="M676 1168.27h-15v20h15z" stroke="#000" fill="#fff"/><path d="M666 1171.6h-10v3.34h10zm0 10h-10v3.34h10z" stroke="#000" fill="#fff"/><use xlink:href="#b" transform="matrix(1,0,0,1,526,1158.2691751085385) translate(54.055 55.8375)"/><path d="M1088 692v120h196.06V692z" stroke="#000" stroke-width="2" fill="#fff"/><path d="M1274.06 702h-15v20h15z" stroke="#000" fill="#fff"/><path d="M1264.06 705.33h-10v3.34h10zm0 10h-10v3.34h10z" stroke="#000" fill="#fff"/><use xlink:href="#c" transform="matrix(1,0,0,1,1088,692) translate(83.555 63.15)"/><path d="M918 578h70" stroke="#000" stroke-width="2" fill="none"/><path d="M918 579h-1v-2h1zM991 579h-3v-2h3z"/><path d="M0 382h240v60H0z" fill="none"/><use xlink:href="#d" transform="matrix(1,0,0,1,0,382) translate(87.075 33.6)"/><path d="M223 412h-10m-40 0c0-11.05 8.95-20 20-20s20 8.95 20 20-8.95 20-20 20-20-8.95-20-20z" stroke="#000" stroke-width="2" fill="#fff"/><path d="M862.48 772.14h294.1v60h-294.1z" fill="none"/><use xlink:href="#e" transform="matrix(1,0,0,1,862.4783808647654,772.1374819102748) translate(123.05 33.6)"/><path d="M1038 752h-11m-14-20c-11.05 0-20 8.95-20 20s8.95 20 20 20m-20-20h-5" stroke="#000" stroke-width="2" fill="none"/><path d="M1013 766c-7.73 0-14-6.27-14-14s6.27-14 14-14 14 6.27 14 14-6.27 14-14 14z" stroke="#000" stroke-width="2" fill="#fff"/><path d="M1013 732c-11.05 0-20 8.95-20 20s8.95 20 20 20 20-8.95 20-20-8.95-20-20-20z" fill="none"/><path d="M278 692v120h160V692z" stroke="#000" stroke-width="2" fill="#fff"/><path d="M428 702h-15v20h15z" stroke="#000" fill="#fff"/><path d="M418 705.33h-10v3.34h10zm0 10h-10v3.34h10z" stroke="#000" fill="#fff"/><use xlink:href="#f" transform="matrix(1,0,0,1,278.00000000000006,692) translate(23.054999999999993 51.9)"/><use xlink:href="#g" transform="matrix(1,0,0,1,278.00000000000006,692) translate(44.55499999999999 73.5)"/><path d="M526 117.83v120h160v-120z" stroke="#000" stroke-width="2" fill="#fff"/><path d="M676 127.83h-15v20h15z" stroke="#000" fill="#fff"/><path d="M666 131.16h-10v3.33h10zm0 10h-10v3.33h10z" stroke="#000" fill="#fff"/><use xlink:href="#h" transform="matrix(1,0,0,1,526,117.82633863965316) translate(32.10499999999999 51.9)"/><use xlink:href="#g" transform="matrix(1,0,0,1,526,117.82633863965316) translate(44.55499999999999 73.5)"/><path d="M757 522v120h160V522z" stroke="#000" stroke-width="2" fill="#fff"/><path d="M907 532h-15v20h15z" stroke="#000" fill="#fff"/><path d="M897 535.33h-10v3.34h10zm0 10h-10v3.34h10z" stroke="#000" fill="#fff"/><use xlink:href="#i" transform="matrix(1,0,0,1,757.0000000000001,522) translate(32.07999999999999 51.9)"/><use xlink:href="#g" transform="matrix(1,0,0,1,757.0000000000001,522) translate(44.55499999999999 73.5)"/><path d="M757 692v120h160V692z" stroke="#000" stroke-width="2" fill="#fff"/><path d="M907 702h-15v20h15z" stroke="#000" fill="#fff"/><path d="M897 705.33h-10v3.34h10zm0 10h-10v3.34h10z" stroke="#000" fill="#fff"/><use xlink:href="#j" transform="matrix(1,0,0,1,757.0000000000001,692) translate(27.604999999999997 63.15)"/><use xlink:href="#g" transform="matrix(1,0,0,1,757.0000000000001,692) translate(61.505 63.15)"/><path d="M278 352v120h160V352z" stroke="#000" stroke-width="2" fill="#fff"/><path d="M428 362h-15v20h15z" stroke="#000" fill="#fff"/><path d="M418 365.33h-10v3.34h10zm0 10h-10v3.34h10z" stroke="#000" fill="#fff"/><use xlink:href="#k" transform="matrix(1,0,0,1,278.00000000000006,351.99999999999994) translate(23.154999999999994 63.15)"/><use xlink:href="#l" transform="matrix(1,0,0,1,278.00000000000006,351.99999999999994) translate(74.005 63.15)"/><path d="M278 412h-55" stroke="#000" stroke-width="2" fill="none"/><path d="M223 413h-3v-2h3z"/><path d="M686 147.83h146.5v.17H979" stroke="#000" stroke-width="2" fill="none"/><path d="M982 149h-3v-2h3z"/><path d="M526 922.17v105.24h160V922.18z" stroke="#000" stroke-width="2" fill="#fff"/><path d="M676 932.17h-15v20h15z" stroke="#000" fill="#fff"/><path d="M666 935.5h-10v3.34h10zm0 10h-10v3.34h10z" stroke="#000" fill="#fff"/><use xlink:href="#m" transform="matrix(1,0,0,1,526,922.1736613603468) translate(17.604999999999997 57.4625)"/><use xlink:href="#g" transform="matrix(1,0,0,1,526,922.1736613603468) translate(71.505 57.4625)"/><path d="M917 752h71" stroke="#000" stroke-width="2" fill="none"/><path d="M991 753h-3v-2h3z"/><path d="M686 207.83h74v.17h219" stroke="#000" stroke-width="2" fill="none"/><path d="M982 209h-3v-2h3z"/><path d="M606 1027.4v58.6" stroke="#000" stroke-width="2" fill="none"/><path d="M607 1089h-2v-3h2z"/><path d="M606 1158.27V1136" stroke="#000" stroke-width="2" fill="none"/><path d="M607 1136h-2v-3h2z"/><path d="M278 520v120h160V520z" stroke="#000" stroke-width="2" fill="#fff"/><path d="M428 530h-15v20h15z" stroke="#000" fill="#fff"/><path d="M418 533.33h-10v3.34h10zm0 10h-10v3.34h10z" stroke="#000" fill="#fff"/><use xlink:href="#n" transform="matrix(1,0,0,1,278.00000000000006,520) translate(23.12999999999999 51.9)"/><use xlink:href="#o" transform="matrix(1,0,0,1,278.00000000000006,520) translate(50.555 73.5)"/><path d="M416 1085.65h240v50.87H416z" fill="none"/><use xlink:href="#p" transform="matrix(1,0,0,1,416,1085.6516642547035) translate(77.05 29.1)"/><use xlink:href="#q" transform="matrix(1,0,0,1,416,1085.6516642547035) translate(133.95 29.1)"/><path d="M606 1136v-11m20-14c0-11.05-8.95-20-20-20s-20 8.95-20 20m20-20v-5" stroke="#000" stroke-width="2" fill="none"/><path d="M592 1111c0-7.73 6.27-14 14-14s14 6.27 14 14-6.27 14-14 14-14-6.27-14-14z" stroke="#000" stroke-width="2" fill="#fff"/><path d="M626 1111c0-11.05-8.95-20-20-20s-20 8.95-20 20 8.95 20 20 20 20-8.95 20-20z" fill="none"/><path d="M757 352v120h160V352z" stroke="#000" stroke-width="2" fill="#fff"/><path d="M907 362h-15v20h15z" stroke="#000" fill="#fff"/><path d="M897 365.33h-10v3.34h10zm0 10h-10v3.34h10z" stroke="#000" fill="#fff"/><use xlink:href="#r" transform="matrix(1,0,0,1,757.0000000000001,351.99999999999994) translate(24.07999999999999 51.9)"/><use xlink:href="#s" transform="matrix(1,0,0,1,757.0000000000001,351.99999999999994) translate(79.97999999999999 51.9)"/><use xlink:href="#g" transform="matrix(1,0,0,1,757.0000000000001,351.99999999999994) translate(44.55499999999999 73.5)"/><path d="M526 300v560h160V300z" stroke="#000" stroke-width="2" fill="#fff"/><path d="M676 310h-15v20h15z" stroke="#000" fill="#fff"/><path d="M666 313.33h-10v3.34h10zm0 10h-10v3.34h10z" stroke="#000" fill="#fff"/><use xlink:href="#t" transform="matrix(1,0,0,1,526,300) translate(14.579999999999993 259.4)"/><use xlink:href="#u" transform="matrix(1,0,0,1,526,300) translate(92.53 259.4)"/><use xlink:href="#v" transform="matrix(1,0,0,1,526,300) translate(13.104999999999999 281)"/><use xlink:href="#w" transform="matrix(1,0,0,1,526,300) translate(60.004999999999995 281)"/><use xlink:href="#x" transform="matrix(1,0,0,1,526,300) translate(85.005 281)"/><use xlink:href="#y" transform="matrix(1,0,0,1,526,300) translate(141.905 281)"/><use xlink:href="#z" transform="matrix(1,0,0,1,526,300) translate(38.07999999999999 302.6)"/><path d="M757 752h-69.25" fill="none"/><path d="M757 752h-11.54m-11.54 0h-23.1m-11.53 0h-11.55" stroke="#000" stroke-width="2" fill="none"/><path d="M702 756.64L687.76 752l14.26-4.64z"/><path d="M703 758l-17-5.52v-.96l17-5.53zM691 752l10.03 3.26v-6.52z"/><path d="M757 582h-69.25" fill="none"/><path d="M757 582h-11.54m-11.54 0h-23.1m-11.53 0h-11.55" stroke="#000" stroke-width="2" fill="none"/><path d="M702 586.64L687.76 582l14.26-4.64z"/><path d="M703 588l-17-5.52v-.96l17-5.53zM691 582l10.03 3.26v-6.52z"/><path d="M757 412h-69.25" fill="none"/><path d="M757 412h-11.54m-11.54 0h-23.09m-11.54 0h-11.55" stroke="#000" stroke-width="2" fill="none"/><path d="M702 416.64L687.76 412l14.26-4.64z"/><path d="M703 418l-17-5.52v-.96l17-5.53zM691 412l10.03 3.26v-6.52z"/><path d="M438 580h88" fill="none"/><path d="M438 580h9.78m9.78 0h19.55m9.8 0h19.54m9.78 0H526" stroke="#000" stroke-width="2" fill="none"/><path d="M526 580l-14.27 4.64v-9.28z"/><path d="M526 578.95v2.1L510.73 586v-12zm-13.27 4.3l10.03-3.25-10.03-3.26z"/><path d="M606 237.83V300" fill="none"/><path d="M606 237.83v10.36m0 10.35v20.73m0 10.36V300" stroke="#000" stroke-width="2" fill="none"/><path d="M606 300l-4.64-14.27h9.28z"/><path d="M607.05 300h-2.1L600 284.73h12zm-4.3-13.27l3.25 10.03 3.26-10.03z"/><path d="M438 412h86.25" fill="none"/><path d="M438 412h9.58m9.6 0h19.16m9.58 0h19.17m9.57 0h9.58" stroke="#000" stroke-width="2" fill="none"/><path d="M524.25 412L510 416.64v-9.28z"/><path d="M526 411.52v.96L509 418v-12zm-15 3.74L521 412 511 408.74z"/><path d="M606 922.17V860" fill="none"/><path d="M606 922.17V911.8m0-10.35v-20.73m0-10.36V860" stroke="#000" stroke-width="2" fill="none"/><path d="M610.64 874.27h-9.28L606 860z"/><path d="M612 875.27h-12l4.95-15.27h2.1zm-9.26-2h6.52L606 863.24z"/><path d="M438 752h86.25" fill="none"/><path d="M438 752h9.58m9.6 0h19.16m9.58 0h19.17m9.57 0h9.58" stroke="#000" stroke-width="2" fill="none"/><path d="M524.25 752L510 756.64v-9.28z"/><path d="M526 751.52v.96L509 758v-12zm-15 3.74L521 752 511 748.74z"/><path d="M917 1249.83c0 5.62-24.4 10.17-54.5 10.17s-54.5-4.55-54.5-10.17v-81.4c0-5.6 24.4-10.16 54.5-10.16s54.5 4.55 54.5 10.17z" stroke="#000" stroke-width="2" fill="#fff"/><path d="M917 1168.44c0 5.62-24.4 10.18-54.5 10.18s-54.5-4.56-54.5-10.18" stroke="#000" stroke-width="2" fill="none"/><g><use xlink:href="#a" transform="matrix(1,0,0,1,813,1183.6153400868309) translate(49.5 41.4)"/></g><path d="M686 1209.13h122" fill="none"/><path d="M686 1209.13h10.17m10.16 0h20.34m10.16 0h20.34m10.16 0h20.34m10.16 0H808" stroke="#000" stroke-width="2" fill="none"/><path d="M808 1209.13l-14.27 4.64v-9.27z"/><path d="M808 1208.08v2.1l-15.27 4.97v-12.03zm-13.27 4.3l10.03-3.25-10.03-3.25z"/><path d="M930 118h294.1v60H930z" fill="none"/><g><use xlink:href="#A" transform="matrix(1,0,0,1,930.0000000000001,118) translate(91.94999999999999 33.6)"/></g><g fill="none"><path d="M989 148h-10m30 20c-11.05 0-20-8.95-20-20s8.95-20 20-20" stroke="#000" stroke-width="2"/><path d="M1009 168c-11.05 0-20-8.95-20-20s8.95-20 20-20z"/></g><path d="M930 178h294.1v60H930z" fill="none"/><g><use xlink:href="#B" transform="matrix(1,0,0,1,930,178) translate(89.8 33.6)"/></g><g fill="none"><path d="M989 208h-10m30 20c-11.05 0-20-8.95-20-20s8.95-20 20-20" stroke="#000" stroke-width="2"/><path d="M1009 228c-11.05 0-20-8.95-20-20s8.95-20 20-20z"/></g><path d="M929.9 552H1224v60H929.9z" fill="none"/><g><use xlink:href="#C" transform="matrix(1,0,0,1,929.9061637534498,552) translate(104.525 33.6)"/></g><g fill="none"><path d="M998 578h-10m30 20c-11.05 0-20-8.95-20-20s8.95-20 20-20" stroke="#000" stroke-width="2"/><path d="M1018 598c-11.05 0-20-8.95-20-20s8.95-20 20-20z"/></g><path d="M1088 752h-50" stroke="#000" stroke-width="2" fill="none"/><path d="M1038 753h-3v-2h3z"/><defs><path d="M30-248c118-7 216 8 213 122C240-48 200 0 122 0H30v-248zM63-27c89 8 146-16 146-99s-60-101-146-95v194" id="D"/><path d="M160-131c35 5 61 23 61 61C221 17 115-2 30 0v-248c76 3 177-17 177 60 0 33-19 50-47 57zm-97-11c50-1 110 9 110-42 0-47-63-36-110-37v79zm0 115c55-2 124 14 124-45 0-56-70-42-124-44v89" id="E"/><path d="M240 0l2-218c-23 76-54 145-80 218h-23L58-218 59 0H30v-248h44l77 211c21-75 51-140 76-211h43V0h-30" id="F"/><path d="M185-189c-5-48-123-54-124 2 14 75 158 14 163 119 3 78-121 87-175 55-17-10-28-26-33-46l33-7c5 56 141 63 141-1 0-78-155-14-162-118-5-82 145-84 179-34 5 7 8 16 11 25" id="G"/><g id="b"><use transform="matrix(0.05,0,0,0.05,0,0)" xlink:href="#D"/><use transform="matrix(0.05,0,0,0.05,12.950000000000001,0)" xlink:href="#E"/><use transform="matrix(0.05,0,0,0.05,24.950000000000003,0)" xlink:href="#F"/><use transform="matrix(0.05,0,0,0.05,39.900000000000006,0)" xlink:href="#G"/></g><path d="M212-179c-10-28-35-45-73-45-59 0-87 40-87 99 0 60 29 101 89 101 43 0 62-24 78-52l27 14C228-24 195 4 139 4 59 4 22-46 18-125c-6-104 99-153 187-111 19 9 31 26 39 46" id="H"/><path d="M141-36C126-15 110 5 73 4 37 3 15-17 15-53c-1-64 63-63 125-63 3-35-9-54-41-54-24 1-41 7-42 31l-33-3c5-37 33-52 76-52 45 0 72 20 72 64v82c-1 20 7 32 28 27v20c-31 9-61-2-59-35zM48-53c0 20 12 33 32 33 41-3 63-29 60-74-43 2-92-5-92 41" id="I"/><path d="M114-163C36-179 61-72 57 0H25l-1-190h30c1 12-1 29 2 39 6-27 23-49 58-41v29" id="J"/><g id="c"><use transform="matrix(0.05,0,0,0.05,0,0)" xlink:href="#H"/><use transform="matrix(0.05,0,0,0.05,12.950000000000001,0)" xlink:href="#I"/><use transform="matrix(0.05,0,0,0.05,22.950000000000003,0)" xlink:href="#J"/></g><path d="M24 0v-261h32V0H24" id="K"/><path d="M24-231v-30h32v30H24zM24 0v-190h32V0H24" id="L"/><path d="M100-194c63 0 86 42 84 106H49c0 40 14 67 53 68 26 1 43-12 49-29l28 8c-11 28-37 45-77 45C44 4 14-33 15-96c1-61 26-98 85-98zm52 81c6-60-76-77-97-28-3 7-6 17-6 28h103" id="M"/><path d="M117-194c89-4 53 116 60 194h-32v-121c0-31-8-49-39-48C34-167 62-67 57 0H25l-1-190h30c1 10-1 24 2 32 11-22 29-35 61-36" id="N"/><path d="M59-47c-2 24 18 29 38 22v24C64 9 27 4 27-40v-127H5v-23h24l9-43h21v43h35v23H59v120" id="O"/><path d="M33 0v-248h34V0H33" id="P"/><g id="d"><use transform="matrix(0.05,0,0,0.05,0,0)" xlink:href="#H"/><use transform="matrix(0.05,0,0,0.05,12.950000000000001,0)" xlink:href="#K"/><use transform="matrix(0.05,0,0,0.05,16.900000000000002,0)" xlink:href="#L"/><use transform="matrix(0.05,0,0,0.05,20.85,0)" xlink:href="#M"/><use transform="matrix(0.05,0,0,0.05,30.85,0)" xlink:href="#N"/><use transform="matrix(0.05,0,0,0.05,40.85,0)" xlink:href="#O"/><use transform="matrix(0.05,0,0,0.05,45.85,0)" xlink:href="#P"/><use transform="matrix(0.05,0,0,0.05,50.85,0)" xlink:href="#N"/><use transform="matrix(0.05,0,0,0.05,60.85,0)" xlink:href="#O"/></g><g id="e"><use transform="matrix(0.05,0,0,0.05,0,0)" xlink:href="#H"/><use transform="matrix(0.05,0,0,0.05,12.950000000000001,0)" xlink:href="#I"/><use transform="matrix(0.05,0,0,0.05,22.950000000000003,0)" xlink:href="#J"/><use transform="matrix(0.05,0,0,0.05,28.900000000000002,0)" xlink:href="#P"/><use transform="matrix(0.05,0,0,0.05,33.900000000000006,0)" xlink:href="#N"/><use transform="matrix(0.05,0,0,0.05,43.900000000000006,0)" xlink:href="#O"/></g><path d="M205 0l-28-72H64L36 0H1l101-248h38L239 0h-34zm-38-99l-47-123c-12 45-31 82-46 123h93" id="Q"/><path d="M84 4C-5 8 30-112 23-190h32v120c0 31 7 50 39 49 72-2 45-101 50-169h31l1 190h-30c-1-10 1-25-2-33-11 22-28 36-60 37" id="R"/><path d="M106-169C34-169 62-67 57 0H25v-261h32l-1 103c12-21 28-36 61-36 89 0 53 116 60 194h-32v-121c2-32-8-49-39-48" id="S"/><path d="M96-169c-40 0-48 33-48 73s9 75 48 75c24 0 41-14 43-38l32 2c-6 37-31 61-74 61-59 0-76-41-82-99-10-93 101-131 147-64 4 7 5 14 7 22l-32 3c-4-21-16-35-41-35" id="T"/><path d="M100-194c62-1 85 37 85 99 1 63-27 99-86 99S16-35 15-95c0-66 28-99 85-99zM99-20c44 1 53-31 53-75 0-43-8-75-51-75s-53 32-53 75 10 74 51 75" id="U"/><g id="f"><use transform="matrix(0.05,0,0,0.05,0,0)" xlink:href="#Q"/><use transform="matrix(0.05,0,0,0.05,12,0)" xlink:href="#R"/><use transform="matrix(0.05,0,0,0.05,22,0)" xlink:href="#O"/><use transform="matrix(0.05,0,0,0.05,27,0)" xlink:href="#S"/><use transform="matrix(0.05,0,0,0.05,37,0)" xlink:href="#M"/><use transform="matrix(0.05,0,0,0.05,47,0)" xlink:href="#N"/><use transform="matrix(0.05,0,0,0.05,57,0)" xlink:href="#O"/><use transform="matrix(0.05,0,0,0.05,62,0)" xlink:href="#L"/><use transform="matrix(0.05,0,0,0.05,65.95,0)" xlink:href="#T"/><use transform="matrix(0.05,0,0,0.05,74.95,0)" xlink:href="#I"/><use transform="matrix(0.05,0,0,0.05,84.95,0)" xlink:href="#O"/><use transform="matrix(0.05,0,0,0.05,89.95,0)" xlink:href="#L"/><use transform="matrix(0.05,0,0,0.05,93.9,0)" xlink:href="#U"/><use transform="matrix(0.05,0,0,0.05,103.9,0)" xlink:href="#N"/></g><path d="M177-190C167-65 218 103 67 71c-23-6-38-20-44-43l32-5c15 47 100 32 89-28v-30C133-14 115 1 83 1 29 1 15-40 15-95c0-56 16-97 71-98 29-1 48 16 59 35 1-10 0-23 2-32h30zM94-22c36 0 50-32 50-73 0-42-14-75-50-75-39 0-46 34-46 75s6 73 46 73" id="V"/><g id="g"><use transform="matrix(0.05,0,0,0.05,0,0)" xlink:href="#F"/><use transform="matrix(0.05,0,0,0.05,14.950000000000001,0)" xlink:href="#I"/><use transform="matrix(0.05,0,0,0.05,24.950000000000003,0)" xlink:href="#N"/><use transform="matrix(0.05,0,0,0.05,34.95,0)" xlink:href="#I"/><use transform="matrix(0.05,0,0,0.05,44.95,0)" xlink:href="#V"/><use transform="matrix(0.05,0,0,0.05,54.95,0)" xlink:href="#M"/><use transform="matrix(0.05,0,0,0.05,64.95,0)" xlink:href="#J"/></g><path d="M233-177c-1 41-23 64-60 70L243 0h-38l-65-103H63V0H30v-248c88 3 205-21 203 71zM63-129c60-2 137 13 137-47 0-61-80-42-137-45v92" id="W"/><path d="M135-143c-3-34-86-38-87 0 15 53 115 12 119 90S17 21 10-45l28-5c4 36 97 45 98 0-10-56-113-15-118-90-4-57 82-63 122-42 12 7 21 19 24 35" id="X"/><g id="h"><use transform="matrix(0.05,0,0,0.05,0,0)" xlink:href="#W"/><use transform="matrix(0.05,0,0,0.05,12.950000000000001,0)" xlink:href="#M"/><use transform="matrix(0.05,0,0,0.05,22.950000000000003,0)" xlink:href="#V"/><use transform="matrix(0.05,0,0,0.05,32.95,0)" xlink:href="#L"/><use transform="matrix(0.05,0,0,0.05,36.900000000000006,0)" xlink:href="#X"/><use transform="matrix(0.05,0,0,0.05,45.900000000000006,0)" xlink:href="#O"/><use transform="matrix(0.05,0,0,0.05,50.900000000000006,0)" xlink:href="#J"/><use transform="matrix(0.05,0,0,0.05,56.85,0)" xlink:href="#I"/><use transform="matrix(0.05,0,0,0.05,66.85000000000001,0)" xlink:href="#O"/><use transform="matrix(0.05,0,0,0.05,71.85000000000001,0)" xlink:href="#L"/><use transform="matrix(0.05,0,0,0.05,75.80000000000001,0)" xlink:href="#U"/><use transform="matrix(0.05,0,0,0.05,85.80000000000001,0)" xlink:href="#N"/></g><path d="M108 0H70L1-190h34L89-25l56-165h34" id="Y"/><g id="i"><use transform="matrix(0.05,0,0,0.05,0,0)" xlink:href="#W"/><use transform="matrix(0.05,0,0,0.05,12.950000000000001,0)" xlink:href="#M"/><use transform="matrix(0.05,0,0,0.05,22.950000000000003,0)" xlink:href="#X"/><use transform="matrix(0.05,0,0,0.05,31.950000000000003,0)" xlink:href="#M"/><use transform="matrix(0.05,0,0,0.05,41.95,0)" xlink:href="#J"/><use transform="matrix(0.05,0,0,0.05,47.900000000000006,0)" xlink:href="#Y"/><use transform="matrix(0.05,0,0,0.05,56.900000000000006,0)" xlink:href="#I"/><use transform="matrix(0.05,0,0,0.05,66.9,0)" xlink:href="#O"/><use transform="matrix(0.05,0,0,0.05,71.9,0)" xlink:href="#L"/><use transform="matrix(0.05,0,0,0.05,75.85000000000001,0)" xlink:href="#U"/><use transform="matrix(0.05,0,0,0.05,85.85000000000001,0)" xlink:href="#N"/></g><g id="j"><use transform="matrix(0.05,0,0,0.05,0,0)" xlink:href="#H"/><use transform="matrix(0.05,0,0,0.05,12.950000000000001,0)" xlink:href="#I"/><use transform="matrix(0.05,0,0,0.05,22.950000000000003,0)" xlink:href="#J"/></g><g id="k"><use transform="matrix(0.05,0,0,0.05,0,0)" xlink:href="#H"/><use transform="matrix(0.05,0,0,0.05,12.950000000000001,0)" xlink:href="#K"/><use transform="matrix(0.05,0,0,0.05,16.900000000000002,0)" xlink:href="#L"/><use transform="matrix(0.05,0,0,0.05,20.85,0)" xlink:href="#M"/><use transform="matrix(0.05,0,0,0.05,30.85,0)" xlink:href="#N"/><use transform="matrix(0.05,0,0,0.05,40.85,0)" xlink:href="#O"/></g><path d="M197 0v-115H63V0H30v-248h33v105h134v-105h34V0h-34" id="Z"/><path d="M85-194c31 0 48 13 60 33l-1-100h32l1 261h-30c-2-10 0-23-3-31C134-8 116 4 85 4 32 4 16-35 15-94c0-66 23-100 70-100zm9 24c-40 0-46 34-46 75 0 40 6 74 45 74 42 0 51-32 51-76 0-42-9-74-50-73" id="aa"/><g id="l"><use transform="matrix(0.05,0,0,0.05,0,0)" xlink:href="#Z"/><use transform="matrix(0.05,0,0,0.05,12.950000000000001,0)" xlink:href="#I"/><use transform="matrix(0.05,0,0,0.05,22.950000000000003,0)" xlink:href="#N"/><use transform="matrix(0.05,0,0,0.05,32.95,0)" xlink:href="#aa"/><use transform="matrix(0.05,0,0,0.05,42.95,0)" xlink:href="#K"/><use transform="matrix(0.05,0,0,0.05,46.900000000000006,0)" xlink:href="#M"/><use transform="matrix(0.05,0,0,0.05,56.900000000000006,0)" xlink:href="#J"/></g><g id="m"><use transform="matrix(0.05,0,0,0.05,0,0)" xlink:href="#F"/><use transform="matrix(0.05,0,0,0.05,14.950000000000001,0)" xlink:href="#U"/><use transform="matrix(0.05,0,0,0.05,24.950000000000003,0)" xlink:href="#aa"/><use transform="matrix(0.05,0,0,0.05,34.95,0)" xlink:href="#M"/><use transform="matrix(0.05,0,0,0.05,44.95,0)" xlink:href="#K"/></g><path d="M210-169c-67 3-38 105-44 169h-31v-121c0-29-5-50-35-48C34-165 62-65 56 0H25l-1-190h30c1 10-1 24 2 32 10-44 99-50 107 0 11-21 27-35 58-36 85-2 47 119 55 194h-31v-121c0-29-5-49-35-48" id="ab"/><g id="n"><use transform="matrix(0.05,0,0,0.05,0,0)" xlink:href="#Q"/><use transform="matrix(0.05,0,0,0.05,12,0)" xlink:href="#aa"/><use transform="matrix(0.05,0,0,0.05,22,0)" xlink:href="#ab"/><use transform="matrix(0.05,0,0,0.05,36.95,0)" xlink:href="#L"/><use transform="matrix(0.05,0,0,0.05,40.900000000000006,0)" xlink:href="#N"/><use transform="matrix(0.05,0,0,0.05,50.900000000000006,0)" xlink:href="#L"/><use transform="matrix(0.05,0,0,0.05,54.85,0)" xlink:href="#X"/><use transform="matrix(0.05,0,0,0.05,63.85,0)" xlink:href="#O"/><use transform="matrix(0.05,0,0,0.05,68.85000000000001,0)" xlink:href="#J"/><use transform="matrix(0.05,0,0,0.05,74.80000000000001,0)" xlink:href="#I"/><use transform="matrix(0.05,0,0,0.05,84.80000000000001,0)" xlink:href="#O"/><use transform="matrix(0.05,0,0,0.05,89.80000000000001,0)" xlink:href="#L"/><use transform="matrix(0.05,0,0,0.05,93.75000000000001,0)" xlink:href="#U"/><use transform="matrix(0.05,0,0,0.05,103.75,0)" xlink:href="#N"/></g><g id="o"><use transform="matrix(0.05,0,0,0.05,0,0)" xlink:href="#F"/><use transform="matrix(0.05,0,0,0.05,14.950000000000001,0)" xlink:href="#U"/><use transform="matrix(0.05,0,0,0.05,24.950000000000003,0)" xlink:href="#aa"/><use transform="matrix(0.05,0,0,0.05,34.95,0)" xlink:href="#R"/><use transform="matrix(0.05,0,0,0.05,44.95,0)" xlink:href="#K"/><use transform="matrix(0.05,0,0,0.05,48.900000000000006,0)" xlink:href="#M"/></g><g id="p"><use transform="matrix(0.05,0,0,0.05,0,0)" xlink:href="#D"/><use transform="matrix(0.05,0,0,0.05,12.950000000000001,0)" xlink:href="#E"/><use transform="matrix(0.05,0,0,0.05,24.950000000000003,0)" xlink:href="#F"/><use transform="matrix(0.05,0,0,0.05,39.900000000000006,0)" xlink:href="#G"/></g><path d="M30-248c87 1 191-15 191 75 0 78-77 80-158 76V0H30v-248zm33 125c57 0 124 11 124-50 0-59-68-47-124-48v98" id="ac"/><g id="q"><use transform="matrix(0.05,0,0,0.05,0,0)" xlink:href="#Q"/><use transform="matrix(0.05,0,0,0.05,12,0)" xlink:href="#ac"/><use transform="matrix(0.05,0,0,0.05,24,0)" xlink:href="#P"/></g><path d="M206 0h-36l-40-164L89 0H53L-1-190h32L70-26l43-164h34l41 164 42-164h31" id="ad"/><g id="r"><use transform="matrix(0.05,0,0,0.05,0,0)" xlink:href="#ac"/><use transform="matrix(0.05,0,0,0.05,12,0)" xlink:href="#U"/><use transform="matrix(0.05,0,0,0.05,22,0)" xlink:href="#ad"/><use transform="matrix(0.05,0,0,0.05,34.95,0)" xlink:href="#M"/><use transform="matrix(0.05,0,0,0.05,44.95,0)" xlink:href="#J"/></g><g id="s"><use transform="matrix(0.05,0,0,0.05,0,0)" xlink:href="#G"/><use transform="matrix(0.05,0,0,0.05,12,0)" xlink:href="#O"/><use transform="matrix(0.05,0,0,0.05,17,0)" xlink:href="#I"/><use transform="matrix(0.05,0,0,0.05,27,0)" xlink:href="#O"/><use transform="matrix(0.05,0,0,0.05,32,0)" xlink:href="#L"/><use transform="matrix(0.05,0,0,0.05,35.95,0)" xlink:href="#U"/><use transform="matrix(0.05,0,0,0.05,45.95,0)" xlink:href="#N"/></g><g id="t"><use transform="matrix(0.05,0,0,0.05,0,0)" xlink:href="#F"/><use transform="matrix(0.05,0,0,0.05,14.950000000000001,0)" xlink:href="#M"/><use transform="matrix(0.05,0,0,0.05,24.950000000000003,0)" xlink:href="#X"/><use transform="matrix(0.05,0,0,0.05,33.95,0)" xlink:href="#X"/><use transform="matrix(0.05,0,0,0.05,42.95,0)" xlink:href="#I"/><use transform="matrix(0.05,0,0,0.05,52.95,0)" xlink:href="#V"/><use transform="matrix(0.05,0,0,0.05,62.95,0)" xlink:href="#M"/></g><path d="M143 0L79-87 56-68V0H24v-261h32v163l83-92h37l-77 82L181 0h-38" id="ae"/><g id="u"><use transform="matrix(0.05,0,0,0.05,0,0)" xlink:href="#E"/><use transform="matrix(0.05,0,0,0.05,12,0)" xlink:href="#J"/><use transform="matrix(0.05,0,0,0.05,17.95,0)" xlink:href="#U"/><use transform="matrix(0.05,0,0,0.05,27.950000000000003,0)" xlink:href="#ae"/><use transform="matrix(0.05,0,0,0.05,36.95,0)" xlink:href="#M"/><use transform="matrix(0.05,0,0,0.05,46.95,0)" xlink:href="#J"/></g><path d="M87 75C49 33 22-17 22-94c0-76 28-126 65-167h31c-38 41-64 92-64 168S80 34 118 75H87" id="af"/><path d="M153-248C145-148 188 4 80 4 36 3 13-21 6-62l32-5c4 25 16 42 43 43 27 0 39-20 39-49v-147H72v-28h81" id="ag"/><g id="v"><use transform="matrix(0.05,0,0,0.05,0,0)" xlink:href="#af"/><use transform="matrix(0.05,0,0,0.05,5.95,0)" xlink:href="#ag"/><use transform="matrix(0.05,0,0,0.05,14.949999999999998,0)" xlink:href="#F"/><use transform="matrix(0.05,0,0,0.05,29.899999999999995,0)" xlink:href="#G"/></g><g id="w"><use transform="matrix(0.05,0,0,0.05,0,0)" xlink:href="#U"/><use transform="matrix(0.05,0,0,0.05,10,0)" xlink:href="#N"/></g><path d="M115-194c53 0 69 39 70 98 0 66-23 100-70 100C84 3 66-7 56-30L54 0H23l1-261h32v101c10-23 28-34 59-34zm-8 174c40 0 45-34 45-75 0-40-5-75-45-74-42 0-51 32-51 76 0 43 10 73 51 73" id="ah"/><g id="x"><use transform="matrix(0.05,0,0,0.05,0,0)" xlink:href="#W"/><use transform="matrix(0.05,0,0,0.05,12.950000000000001,0)" xlink:href="#I"/><use transform="matrix(0.05,0,0,0.05,22.950000000000003,0)" xlink:href="#ah"/><use transform="matrix(0.05,0,0,0.05,32.95,0)" xlink:href="#ah"/><use transform="matrix(0.05,0,0,0.05,42.95,0)" xlink:href="#L"/><use transform="matrix(0.05,0,0,0.05,46.900000000000006,0)" xlink:href="#O"/></g><path d="M0 4l72-265h28L28 4H0" id="ai"/><use transform="matrix(0.05,0,0,0.05,0,0)" xlink:href="#ai" id="y"/><path d="M140-251c81 0 123 46 123 126C263-53 228-8 163 1c7 30 30 48 69 40v23c-55 16-95-15-103-61C56-3 17-48 17-125c0-80 42-126 123-126zm0 227c63 0 89-41 89-101s-29-99-89-99c-61 0-89 39-89 99S79-25 140-24" id="aj"/><path d="M33-261c38 41 65 92 65 168S71 34 33 75H2C39 34 66-17 66-93S39-220 2-261h31" id="ak"/><g id="z"><use transform="matrix(0.05,0,0,0.05,0,0)" xlink:href="#Q"/><use transform="matrix(0.05,0,0,0.05,12,0)" xlink:href="#T"/><use transform="matrix(0.05,0,0,0.05,21,0)" xlink:href="#O"/><use transform="matrix(0.05,0,0,0.05,26,0)" xlink:href="#L"/><use transform="matrix(0.05,0,0,0.05,29.950000000000003,0)" xlink:href="#Y"/><use transform="matrix(0.05,0,0,0.05,38.95,0)" xlink:href="#M"/><use transform="matrix(0.05,0,0,0.05,48.95,0)" xlink:href="#F"/><use transform="matrix(0.05,0,0,0.05,63.900000000000006,0)" xlink:href="#aj"/><use transform="matrix(0.05,0,0,0.05,77.9,0)" xlink:href="#ak"/></g><path d="M30 0v-248h33v221h125V0H30" id="al"/><path d="M137 0h-34L2-248h35l83 218 83-218h36" id="am"/><g id="A"><use transform="matrix(0.05,0,0,0.05,0,0)" xlink:href="#D"/><use transform="matrix(0.05,0,0,0.05,12.950000000000001,0)" xlink:href="#al"/><use transform="matrix(0.05,0,0,0.05,21.6,0)" xlink:href="#am"/><use transform="matrix(0.05,0,0,0.05,32.25,0)" xlink:href="#I"/><use transform="matrix(0.05,0,0,0.05,42.25,0)" xlink:href="#K"/><use transform="matrix(0.05,0,0,0.05,46.2,0)" xlink:href="#L"/><use transform="matrix(0.05,0,0,0.05,50.150000000000006,0)" xlink:href="#aa"/><use transform="matrix(0.05,0,0,0.05,60.150000000000006,0)" xlink:href="#I"/><use transform="matrix(0.05,0,0,0.05,70.15,0)" xlink:href="#O"/><use transform="matrix(0.05,0,0,0.05,75.15,0)" xlink:href="#U"/><use transform="matrix(0.05,0,0,0.05,85.15,0)" xlink:href="#J"/><use transform="matrix(0.05,0,0,0.05,91.10000000000001,0)" xlink:href="#P"/><use transform="matrix(0.05,0,0,0.05,96.10000000000001,0)" xlink:href="#N"/><use transform="matrix(0.05,0,0,0.05,106.10000000000001,0)" xlink:href="#O"/></g><g id="B"><use transform="matrix(0.05,0,0,0.05,0,0)" xlink:href="#H"/><use transform="matrix(0.05,0,0,0.05,12.950000000000001,0)" xlink:href="#H"/><use transform="matrix(0.05,0,0,0.05,25.900000000000002,0)" xlink:href="#am"/><use transform="matrix(0.05,0,0,0.05,36.55,0)" xlink:href="#I"/><use transform="matrix(0.05,0,0,0.05,46.55,0)" xlink:href="#K"/><use transform="matrix(0.05,0,0,0.05,50.5,0)" xlink:href="#L"/><use transform="matrix(0.05,0,0,0.05,54.45,0)" xlink:href="#aa"/><use transform="matrix(0.05,0,0,0.05,64.45,0)" xlink:href="#I"/><use transform="matrix(0.05,0,0,0.05,74.45,0)" xlink:href="#O"/><use transform="matrix(0.05,0,0,0.05,79.45,0)" xlink:href="#U"/><use transform="matrix(0.05,0,0,0.05,89.45,0)" xlink:href="#J"/><use transform="matrix(0.05,0,0,0.05,95.4,0)" xlink:href="#P"/><use transform="matrix(0.05,0,0,0.05,100.4,0)" xlink:href="#N"/><use transform="matrix(0.05,0,0,0.05,110.4,0)" xlink:href="#O"/></g><path d="M179-190L93 31C79 59 56 82 12 73V49c39 6 53-20 64-50L1-190h34L92-34l54-156h33" id="an"/><g id="C"><use transform="matrix(0.05,0,0,0.05,0,0)" xlink:href="#ac"/><use transform="matrix(0.05,0,0,0.05,12,0)" xlink:href="#I"/><use transform="matrix(0.05,0,0,0.05,22,0)" xlink:href="#an"/><use transform="matrix(0.05,0,0,0.05,31,0)" xlink:href="#ab"/><use transform="matrix(0.05,0,0,0.05,45.95,0)" xlink:href="#M"/><use transform="matrix(0.05,0,0,0.05,55.95,0)" xlink:href="#N"/><use transform="matrix(0.05,0,0,0.05,65.95,0)" xlink:href="#P"/><use transform="matrix(0.05,0,0,0.05,70.95,0)" xlink:href="#N"/><use transform="matrix(0.05,0,0,0.05,80.95,0)" xlink:href="#O"/></g></defs></g></svg>