<svg xmlns="http://www.w3.org/2000/svg" xmlns:xlink="http://www.w3.org/1999/xlink" width="1320" height="1095"><g transform="translate(-80 -140)"><path d="M0 0h1360v1760H0z" fill="#fff"/><path d="M683 1012.5c-67.93 0-123-60.44-123-135 0-59.65 33.3-109.96 85-128.4-3-175.35 202-209.1 284-141.6 41-101.25 246-67.5 246 33.75 123-33.75 246 101.25 164 270 82 135 0 303.75-164 236.25-41 87.75-205 87.75-246 0-82 67.5-246 33.75-246-135z" stroke="#000" stroke-width="2" fill="#fff"/><use xlink:href="#a" transform="matrix(1,0,0,1,560,540) translate(395.005 341.353125)"/><path d="M860 625c0-2.76 2.24-5 5-5h230c2.76 0 5 2.24 5 5v50c0 2.76-2.24 5-5 5H865c-2.76 0-5-2.24-5-5z" fill="none"/><use xlink:href="#b" transform="matrix(1,0,0,1,860,620) translate(4.299999999999983 33.6)"/><use xlink:href="#c" transform="matrix(1,0,0,1,860,620) translate(63.19999999999999 33.6)"/><use xlink:href="#d" transform="matrix(1,0,0,1,860,620) translate(119 33.6)"/><path d="M1060 1072.33c0 5.9-23.88 10.67-53.33 10.67-29.46 0-53.34-4.78-53.34-10.67V987c0-5.9 23.88-10.67 53.34-10.67 29.45 0 53.33 4.78 53.33 10.67z" stroke="#000" stroke-width="2" fill="#fff"/><path d="M1060 987c0 5.9-23.88 10.67-53.33 10.67-29.46 0-53.34-4.78-53.34-10.67" stroke="#000" stroke-width="2" fill="none"/><use xlink:href="#e" transform="matrix(1,0,0,1,953.3333333333335,1002.6666666666667) translate(8.054999999999994 44.775)"/><path d="M1020 201c0-2.76 1.72-6.43 3.84-8.2l35.52-29.6c2.12-1.77 6.08-3.2 8.84-3.2H1375c2.76 0 5 2.24 5 5v306.8c0 2.76-1.43 6.72-3.2 8.84l-29.6 35.52c-1.77 2.12-5.44 3.84-8.2 3.84h-314c-2.76 0-5-2.24-5-5z" stroke="#000" stroke-width="2" fill="#fff"/><path d="M1025 196c-2.76 0-3.28-1.43-1.16-3.2l35.52-29.6c2.12-1.77 6.08-3.2 8.84-3.2H1375c2.76 0 3.42 1.58 1.46 3.54l-28.92 28.92c-1.96 1.96-5.78 3.54-8.54 3.54z" stroke="#000" stroke-width="2" fill="#e6e6e6"/><path d="M1344 201c0-2.76 1.58-6.58 3.54-8.54l28.92-28.92c1.96-1.96 3.54-1.3 3.54 1.46v306.8c0 2.76-1.43 6.72-3.2 8.84l-29.6 35.52c-1.77 2.12-3.2 1.6-3.2-1.16z" stroke="#000" stroke-width="2" fill="#ccc"/><use xlink:href="#f" transform="matrix(1,0,0,1,1028,204) translate(77.025 14.4)"/><use xlink:href="#g" transform="matrix(1,0,0,1,1028,204) translate(113.525 36)"/><path d="M1040 289c0-2.76 1.72-6.43 3.84-8.2l21.12-17.6c2.12-1.77 6.08-3.2 8.84-3.2H1315c2.76 0 5 2.24 5 5v201.2c0 2.76-1.43 6.72-3.2 8.84l-17.6 21.12c-1.77 2.12-5.44 3.84-8.2 3.84h-246c-2.76 0-5-2.24-5-5z" stroke="#000" stroke-width="2" fill="#fff"/><path d="M1045 284c-2.76 0-3.28-1.43-1.16-3.2l21.12-17.6c2.12-1.77 6.08-3.2 8.84-3.2H1315c2.76 0 3.42 1.58 1.46 3.54l-16.92 16.92c-1.96 1.96-5.78 3.54-8.54 3.54z" stroke="#000" stroke-width="2" fill="#e6e6e6"/><path d="M1296 289c0-2.76 1.58-6.58 3.54-8.54l16.92-16.92c1.96-1.96 3.54-1.3 3.54 1.46v201.2c0 2.76-1.43 6.72-3.2 8.84l-17.6 21.12c-1.77 2.12-3.2 1.6-3.2-1.16z" stroke="#000" stroke-width="2" fill="#ccc"/><use xlink:href="#h" transform="matrix(1,0,0,1,1048,292) translate(64 14.4)"/><use xlink:href="#i" transform="matrix(1,0,0,1,1048,292) translate(47.099999999999994 36)"/><use xlink:href="#j" transform="matrix(1,0,0,1,1048,292) translate(122.9 36)"/><path d="M1060 359c0-2.76 1.72-6.43 3.84-8.2l9.12-7.6c2.12-1.77 6.08-3.2 8.84-3.2H1255c2.76 0 5 2.24 5 5v113.2c0 2.76-1.43 6.72-3.2 8.84l-7.6 9.12c-1.77 2.12-5.44 3.84-8.2 3.84h-176c-2.76 0-5-2.24-5-5z" stroke="#000" stroke-width="2" fill="#fff"/><path d="M1065 354c-2.76 0-3.28-1.43-1.16-3.2l9.12-7.6c2.12-1.77 6.08-3.2 8.84-3.2H1255c2.76 0 3.42 1.58 1.46 3.54l-6.92 6.92c-1.96 1.96-5.78 3.54-8.54 3.54z" stroke="#000" stroke-width="2" fill="#e6e6e6"/><path d="M1246 359c0-2.76 1.58-6.58 3.54-8.54l6.92-6.92c1.96-1.96 3.54-1.3 3.54 1.46v113.2c0 2.76-1.43 6.72-3.2 8.84l-7.6 9.12c-1.77 2.12-3.2 1.6-3.2-1.16z" stroke="#000" stroke-width="2" fill="#ccc"/><use xlink:href="#k" transform="matrix(1,0,0,1,1068,362) translate(18.775 16.6)"/><path d="M1080 405c0-2.76 2.24-5 5-5h130c2.76 0 5 2.24 5 5v50c0 2.76-2.24 5-5 5h-130c-2.76 0-5-2.24-5-5z" stroke="#000" stroke-width="2" fill="#fff"/><use xlink:href="#l" transform="matrix(1,0,0,1,1080,400) translate(30.705 33.15)"/><path d="M810 875v95" stroke="#000" stroke-width="2" fill="none"/><path fill="#fff" d="M742.13 890.1h135.75v64.8H742.13z"/><use xlink:href="#m" transform="matrix(1,0,0,1,742.125,890.1) translate(0 14.4)"/><use xlink:href="#n" transform="matrix(1,0,0,1,742.125,890.1) translate(0 36)"/><use xlink:href="#o" transform="matrix(1,0,0,1,742.125,890.1) translate(0 57.6)"/><use xlink:href="#p" transform="matrix(1,0,0,1,742.125,890.1) translate(70.9 57.6)"/><path d="M1200 521v238" stroke="#000" stroke-width="2" fill="none"/><path d="M1201 521h-2v-1h2zM1201 760h-2v-1h2z"/><path fill="#fff" d="M1149.58 694.78h100.85v21.6h-100.85z"/><use xlink:href="#q" transform="matrix(1,0,0,1,1149.575,694.7814902976203) translate(0 14.4)"/><use xlink:href="#r" transform="matrix(1,0,0,1,1149.575,694.7814902976203) translate(71.85000000000001 14.4)"/><path d="M100 879c0-2.76 1.72-6.43 3.84-8.2l33.12-27.6c2.12-1.77 6.08-3.2 8.84-3.2H435c2.76 0 5 2.24 5 5v289.2c0 2.76-1.43 6.72-3.2 8.84l-27.6 33.12c-1.77 2.12-5.44 3.84-8.2 3.84H105c-2.76 0-5-2.24-5-5z" stroke="#000" stroke-width="2" fill="#fff"/><path d="M105 874c-2.76 0-3.28-1.43-1.16-3.2l33.12-27.6c2.12-1.77 6.08-3.2 8.84-3.2H435c2.76 0 3.42 1.58 1.46 3.54l-26.92 26.92c-1.96 1.96-5.78 3.54-8.54 3.54z" stroke="#000" stroke-width="2" fill="#e6e6e6"/><path d="M406 879c0-2.76 1.58-6.58 3.54-8.54l26.92-26.92c1.96-1.96 3.54-1.3 3.54 1.46v289.2c0 2.76-1.43 6.72-3.2 8.84l-27.6 33.12c-1.77 2.12-3.2 1.6-3.2-1.16z" stroke="#000" stroke-width="2" fill="#ccc"/><use xlink:href="#f" transform="matrix(1,0,0,1,108,882) translate(70.025 14.4)"/><use xlink:href="#s" transform="matrix(1,0,0,1,108,882) translate(104.025 36)"/><path d="M120 971c0-2.76 1.72-6.43 3.84-8.2l17.52-14.6c2.12-1.77 6.08-3.2 8.84-3.2H335c2.76 0 5 2.24 5 5v174.8c0 2.76-1.43 6.72-3.2 8.84l-14.6 17.52c-1.77 2.12-5.44 3.84-8.2 3.84H125c-2.76 0-5-2.24-5-5z" stroke="#000" stroke-width="2" fill="#fff"/><path d="M125 966c-2.76 0-3.28-1.43-1.16-3.2l17.52-14.6c2.12-1.77 6.08-3.2 8.84-3.2H335c2.76 0 3.42 1.58 1.46 3.54l-13.92 13.92c-1.96 1.96-5.78 3.54-8.54 3.54z" stroke="#000" stroke-width="2" fill="#e6e6e6"/><path d="M319 971c0-2.76 1.58-6.58 3.54-8.54l13.92-13.92c1.96-1.96 3.54-1.3 3.54 1.46v174.8c0 2.76-1.43 6.72-3.2 8.84l-14.6 17.52c-1.77 2.12-3.2 1.6-3.2-1.16z" stroke="#000" stroke-width="2" fill="#ccc"/><use xlink:href="#h" transform="matrix(1,0,0,1,128,974) translate(43 14.4)"/><use xlink:href="#t" transform="matrix(1,0,0,1,128,974) translate(22.625 36)"/><use xlink:href="#u" transform="matrix(1,0,0,1,128,974) translate(75.475 36)"/><use xlink:href="#v" transform="matrix(1,0,0,1,128,974) translate(77 57.6)"/><path d="M145 1030c-2.76 0-5 2.24-5 5v90c0 2.76 2.24 5 5 5h120c2.76 0 5-2.24 5-5v-90c0-2.76-2.24-5-5-5z" stroke="#000" stroke-width="2" fill="#fff"/><path d="M260 1040h-15v20h15z" stroke="#000" fill="#fff"/><path d="M250 1043.33h-10v3.34h10zm0 10h-10v3.34h10z" stroke="#000" fill="#fff"/><use xlink:href="#w" transform="matrix(1,0,0,1,140,1030) translate(35.555 33.15)"/><use xlink:href="#x" transform="matrix(1,0,0,1,140,1030) translate(17.554999999999993 54.75)"/><use xlink:href="#y" transform="matrix(1,0,0,1,140,1030) translate(35.029999999999994 76.35000000000001)"/><path d="M440 1010h140c2.76 0 5-2.24 5-5V850c0-2.76 2.24-5 5-5h140" stroke="#000" stroke-width="2" fill="none"/><path fill="#fff" d="M469.3 977.6h80.96v64.8H469.3z"/><use xlink:href="#z" transform="matrix(1,0,0,1,469.3056289289909,977.6) translate(0 14.4)"/><use xlink:href="#A" transform="matrix(1,0,0,1,469.3056289289909,977.6) translate(0 36)"/><use xlink:href="#B" transform="matrix(1,0,0,1,469.3056289289909,977.6) translate(35 36)"/><use xlink:href="#C" transform="matrix(1,0,0,1,469.3056289289909,977.6) translate(0 57.6)"/><use xlink:href="#D" transform="matrix(1,0,0,1,469.3056289289909,977.6) translate(15 57.6)"/><path d="M890 815h112.5c1.38 0 2.5 1.12 2.5 2.5s1.12 2.5 2.5 2.5H1120" stroke="#000" stroke-width="2" fill="none"/><path fill="#fff" d="M937.13 785.1h135.75v64.8H937.13z"/><use xlink:href="#m" transform="matrix(1,0,0,1,937.125,785.1) translate(0 14.4)"/><use xlink:href="#n" transform="matrix(1,0,0,1,937.125,785.1) translate(0 36)"/><use xlink:href="#o" transform="matrix(1,0,0,1,937.125,785.1) translate(0 57.6)"/><use xlink:href="#p" transform="matrix(1,0,0,1,937.125,785.1) translate(70.9 57.6)"/><path d="M735 755c-2.76 0-5 2.24-5 5v110c0 2.76 2.24 5 5 5h150c2.76 0 5-2.24 5-5V760c0-2.76-2.24-5-5-5z" stroke="#000" stroke-width="2" fill="#fff"/><path d="M880 765h-15v20h15z" stroke="#000" fill="#fff"/><path d="M870 768.33h-10v3.34h10zm0 10h-10v3.34h10z" stroke="#000" fill="#fff"/><use xlink:href="#E" transform="matrix(1,0,0,1,730,755) translate(19.554999999999993 51.9)"/><use xlink:href="#F" transform="matrix(1,0,0,1,730,755) translate(97.505 51.9)"/><use xlink:href="#G" transform="matrix(1,0,0,1,730,755) translate(36.07999999999999 73.5)"/><path d="M1125 760c-2.76 0-5 2.24-5 5v110c0 2.76 2.24 5 5 5h150c2.76 0 5-2.24 5-5V765c0-2.76-2.24-5-5-5z" stroke="#000" stroke-width="2" fill="#fff"/><path d="M1270 770h-15v20h15z" stroke="#000" fill="#fff"/><path d="M1260 773.33h-10v3.34h10zm0 10h-10v3.34h10z" stroke="#000" fill="#fff"/><use xlink:href="#H" transform="matrix(1,0,0,1,1120,760) translate(24.229999999999997 51.9)"/><use xlink:href="#I" transform="matrix(1,0,0,1,1120,760) translate(65.82999999999998 51.9)"/><use xlink:href="#J" transform="matrix(1,0,0,1,1120,760) translate(48.57999999999999 73.5)"/><path d="M640 199c0-2.76 1.72-6.43 3.84-8.2l33.12-27.6c2.12-1.77 6.08-3.2 8.84-3.2H975c2.76 0 5 2.24 5 5v309.2c0 2.76-1.43 6.72-3.2 8.84l-27.6 33.12c-1.77 2.12-5.44 3.84-8.2 3.84H645c-2.76 0-5-2.24-5-5z" stroke="#000" stroke-width="2" fill="#fff"/><path d="M645 194c-2.76 0-3.28-1.43-1.16-3.2l33.12-27.6c2.12-1.77 6.08-3.2 8.84-3.2H975c2.76 0 3.42 1.58 1.46 3.54l-26.92 26.92c-1.96 1.96-5.78 3.54-8.54 3.54z" stroke="#000" stroke-width="2" fill="#e6e6e6"/><path d="M946 199c0-2.76 1.58-6.58 3.54-8.54l26.92-26.92c1.96-1.96 3.54-1.3 3.54 1.46v309.2c0 2.76-1.43 6.72-3.2 8.84l-27.6 33.12c-1.77 2.12-3.2 1.6-3.2-1.16z" stroke="#000" stroke-width="2" fill="#ccc"/><use xlink:href="#f" transform="matrix(1,0,0,1,648,204) translate(70.025 14.4)"/><use xlink:href="#K" transform="matrix(1,0,0,1,648,204) translate(63.15 36)"/><path d="M660 289c0-2.76 1.72-6.43 3.84-8.2l21.12-17.6c2.12-1.77 6.08-3.2 8.84-3.2H895c2.76 0 5 2.24 5 5v201.2c0 2.76-1.43 6.72-3.2 8.84l-17.6 21.12c-1.77 2.12-5.44 3.84-8.2 3.84H665c-2.76 0-5-2.24-5-5z" stroke="#000" stroke-width="2" fill="#fff"/><path d="M665 284c-2.76 0-3.28-1.43-1.16-3.2l21.12-17.6c2.12-1.77 6.08-3.2 8.84-3.2H895c2.76 0 3.42 1.58 1.46 3.54l-16.92 16.92c-1.96 1.96-5.78 3.54-8.54 3.54z" stroke="#000" stroke-width="2" fill="#e6e6e6"/><path d="M876 289c0-2.76 1.58-6.58 3.54-8.54l16.92-16.92c1.96-1.96 3.54-1.3 3.54 1.46v201.2c0 2.76-1.43 6.72-3.2 8.84l-17.6 21.12c-1.77 2.12-3.2 1.6-3.2-1.16z" stroke="#000" stroke-width="2" fill="#ccc"/><use xlink:href="#h" transform="matrix(1,0,0,1,668,292) translate(50 14.4)"/><use xlink:href="#L" transform="matrix(1,0,0,1,668,292) translate(40.075 36)"/><use xlink:href="#j" transform="matrix(1,0,0,1,668,292) translate(101.92500000000001 36)"/><path d="M685 350c-2.76 0-5 2.24-5 5v110c0 2.76 2.24 5 5 5h150c2.76 0 5-2.24 5-5V355c0-2.76-2.24-5-5-5z" stroke="#000" stroke-width="2" fill="#fff"/><path d="M830 360h-15v20h15z" stroke="#000" fill="#fff"/><path d="M820 363.33h-10v3.34h10zm0 10h-10v3.34h10z" stroke="#000" fill="#fff"/><g><use xlink:href="#M" transform="matrix(1,0,0,1,680,350) translate(35.07999999999999 63.15)"/><use xlink:href="#N" transform="matrix(1,0,0,1,680,350) translate(92.93 63.15)"/></g><path d="M810 521v234" stroke="#000" stroke-width="2" fill="none"/><path d="M811 521h-2v-1h2z"/><path fill="#fff" d="M759.58 699.43h100.85v21.6H759.58z"/><g><use xlink:href="#q" transform="matrix(1,0,0,1,759.575,699.4342568587612) translate(0 14.4)"/><use xlink:href="#r" transform="matrix(1,0,0,1,759.575,699.4342568587612) translate(71.85000000000001 14.4)"/></g><path d="M100 509c0-2.76 1.72-6.43 3.84-8.2l33.12-27.6c2.12-1.77 6.08-3.2 8.84-3.2H435c2.76 0 5 2.24 5 5v289.2c0 2.76-1.43 6.72-3.2 8.84l-27.6 33.12c-1.77 2.12-5.44 3.84-8.2 3.84H105c-2.76 0-5-2.24-5-5z" stroke="#000" stroke-width="2" fill="#fff"/><path d="M105 504c-2.76 0-3.28-1.43-1.16-3.2l33.12-27.6c2.12-1.77 6.08-3.2 8.84-3.2H435c2.76 0 3.42 1.58 1.46 3.54l-26.92 26.92c-1.96 1.96-5.78 3.54-8.54 3.54z" stroke="#000" stroke-width="2" fill="#e6e6e6"/><path d="M406 509c0-2.76 1.58-6.58 3.54-8.54l26.92-26.92c1.96-1.96 3.54-1.3 3.54 1.46v289.2c0 2.76-1.43 6.72-3.2 8.84l-27.6 33.12c-1.77 2.12-3.2 1.6-3.2-1.16z" stroke="#000" stroke-width="2" fill="#ccc"/><g><use xlink:href="#f" transform="matrix(1,0,0,1,108,512) translate(70.025 14.4)"/><use xlink:href="#O" transform="matrix(1,0,0,1,108,512) translate(61.62499999999999 36)"/></g><path d="M120 601c0-2.76 1.72-6.43 3.84-8.2l17.52-14.6c2.12-1.77 6.08-3.2 8.84-3.2H335c2.76 0 5 2.24 5 5v174.8c0 2.76-1.43 6.72-3.2 8.84l-14.6 17.52c-1.77 2.12-5.44 3.84-8.2 3.84H125c-2.76 0-5-2.24-5-5z" stroke="#000" stroke-width="2" fill="#fff"/><path d="M125 596c-2.76 0-3.28-1.43-1.16-3.2l17.52-14.6c2.12-1.77 6.08-3.2 8.84-3.2H335c2.76 0 3.42 1.58 1.46 3.54l-13.92 13.92c-1.96 1.96-5.78 3.54-8.54 3.54z" stroke="#000" stroke-width="2" fill="#e6e6e6"/><path d="M319 601c0-2.76 1.58-6.58 3.54-8.54l13.92-13.92c1.96-1.96 3.54-1.3 3.54 1.46v174.8c0 2.76-1.43 6.72-3.2 8.84l-14.6 17.52c-1.77 2.12-3.2 1.6-3.2-1.16z" stroke="#000" stroke-width="2" fill="#ccc"/><g><use xlink:href="#h" transform="matrix(1,0,0,1,128,604) translate(43 14.4)"/><use xlink:href="#t" transform="matrix(1,0,0,1,128,604) translate(22.625 36)"/><use xlink:href="#u" transform="matrix(1,0,0,1,128,604) translate(75.475 36)"/><use xlink:href="#v" transform="matrix(1,0,0,1,128,604) translate(77 57.6)"/></g><path d="M145 650c-2.76 0-5 2.24-5 5v100c0 2.76 2.24 5 5 5h120c2.76 0 5-2.24 5-5V655c0-2.76-2.24-5-5-5z" stroke="#000" stroke-width="2" fill="#fff"/><path d="M260 660h-15v20h15z" stroke="#000" fill="#fff"/><path d="M250 663.33h-10v3.34h10zm0 10h-10v3.34h10z" stroke="#000" fill="#fff"/><g><use xlink:href="#P" transform="matrix(1,0,0,1,140,650) translate(11.579999999999993 49.41)"/><use xlink:href="#Q" transform="matrix(1,0,0,1,140,650) translate(46.029999999999994 71.01)"/><use xlink:href="#R" transform="matrix(1,0,0,1,140,650) translate(35.029999999999994 92.61000000000001)"/></g><path d="M440 640h140c2.76 0 5 2.24 5 5v135c0 2.76 2.24 5 5 5h140" stroke="#000" stroke-width="2" fill="none"/><path fill="#fff" d="M478.48 629.2h50.85v21.6h-50.85z"/><g><use xlink:href="#S" transform="matrix(1,0,0,1,478.4833322501107,629.2) translate(0 14.4)"/></g><path d="M735 970c-2.76 0-5 2.24-5 5v110c0 2.76 2.24 5 5 5h150c2.76 0 5-2.24 5-5V975c0-2.76-2.24-5-5-5z" stroke="#000" stroke-width="2" fill="#fff"/><path d="M880 980h-15v20h15z" stroke="#000" fill="#fff"/><path d="M870 983.33h-10v3.34h10zm0 10h-10v3.34h10z" stroke="#000" fill="#fff"/><g><use xlink:href="#T" transform="matrix(1,0,0,1,730,970) translate(54.055 63.15)"/></g><path d="M953.33 1029.67h-31.5c-.1 0-.16.07-.16.16 0 .1-.08.17-.17.17H890" stroke="#000" stroke-width="2" fill="none"/><defs><path d="M24-248c93 1 206-16 204 79-1 75-69 88-152 82V0H24v-248zm52 121c47 0 100 7 100-41 0-47-54-39-100-39v80" id="U"/><path d="M85 4C-2 5 27-109 22-190h50c7 57-23 150 33 157 60-5 35-97 40-157h50l1 190h-47c-2-12 1-28-3-38-12 25-28 42-61 42" id="V"/><path d="M135-194c52 0 70 43 70 98 0 56-19 99-73 100-30 1-46-15-58-35L72 0H24l1-261h50v104c11-23 29-37 60-37zM114-30c31 0 40-27 40-66 0-37-7-63-39-63s-41 28-41 65c0 36 8 64 40 64" id="W"/><path d="M25 0v-261h50V0H25" id="X"/><path d="M25-224v-37h50v37H25zM25 0v-190h50V0H25" id="Y"/><path d="M190-63c-7 42-38 67-86 67-59 0-84-38-90-98-12-110 154-137 174-36l-49 2c-2-19-15-32-35-32-30 0-35 28-38 64-6 74 65 87 74 30" id="Z"/><g id="b"><use transform="matrix(0.05,0,0,0.05,0,0)" xlink:href="#U"/><use transform="matrix(0.05,0,0,0.05,12,0)" xlink:href="#V"/><use transform="matrix(0.05,0,0,0.05,22.950000000000003,0)" xlink:href="#W"/><use transform="matrix(0.05,0,0,0.05,33.900000000000006,0)" xlink:href="#X"/><use transform="matrix(0.05,0,0,0.05,38.900000000000006,0)" xlink:href="#Y"/><use transform="matrix(0.05,0,0,0.05,43.900000000000006,0)" xlink:href="#Z"/></g><path d="M67-125c0 53 21 87 73 88 37 1 54-22 65-47l45 17C233-25 199 4 140 4 58 4 20-42 15-125 8-235 124-281 211-232c18 10 29 29 36 50l-46 12c-8-25-30-41-62-41-52 0-71 34-72 86" id="aa"/><path d="M110-194c64 0 96 36 96 99 0 64-35 99-97 99-61 0-95-36-95-99 0-62 34-99 96-99zm-1 164c35 0 45-28 45-65 0-40-10-65-43-65-34 0-45 26-45 65 0 36 10 65 43 65" id="ab"/><path d="M88-194c31-1 46 15 58 34l-1-101h50l1 261h-48c-2-10 0-23-3-31C134-8 116 4 84 4 32 4 16-41 15-95c0-56 19-97 73-99zm17 164c33 0 40-30 41-66 1-37-9-64-41-64s-38 30-39 65c0 43 13 65 39 65" id="ac"/><g id="c"><use transform="matrix(0.05,0,0,0.05,0,0)" xlink:href="#aa"/><use transform="matrix(0.05,0,0,0.05,12.950000000000001,0)" xlink:href="#X"/><use transform="matrix(0.05,0,0,0.05,17.950000000000003,0)" xlink:href="#ab"/><use transform="matrix(0.05,0,0,0.05,28.900000000000006,0)" xlink:href="#V"/><use transform="matrix(0.05,0,0,0.05,39.85000000000001,0)" xlink:href="#ac"/></g><path d="M24 0v-248h52V0H24" id="ad"/><path d="M135-194c87-1 58 113 63 194h-50c-7-57 23-157-34-157-59 0-34 97-39 157H25l-1-190h47c2 12-1 28 3 38 12-26 28-41 61-42" id="ae"/><path d="M121-226c-27-7-43 5-38 36h38v33H83V0H34v-157H6v-33h28c-9-59 32-81 87-68v32" id="af"/><path d="M135-150c-39-12-60 13-60 57V0H25l-1-190h47c2 13-1 29 3 40 6-28 27-53 61-41v41" id="ag"/><path d="M133-34C117-15 103 5 69 4 32 3 11-16 11-54c-1-60 55-63 116-61 1-26-3-47-28-47-18 1-26 9-28 27l-52-2c7-38 36-58 82-57s74 22 75 68l1 82c-1 14 12 18 25 15v27c-30 8-71 5-69-32zm-48 3c29 0 43-24 42-57-32 0-66-3-65 30 0 17 8 27 23 27" id="ah"/><path d="M137-138c1-29-70-34-71-4 15 46 118 7 119 86 1 83-164 76-172 9l43-7c4 19 20 25 44 25 33 8 57-30 24-41C81-84 22-81 20-136c-2-80 154-74 161-7" id="ai"/><path d="M115-3C79 11 28 4 28-45v-112H4v-33h27l15-45h31v45h36v33H77v99c-1 23 16 31 38 25v30" id="aj"/><path d="M185-48c-13 30-37 53-82 52C43 2 14-33 14-96s30-98 90-98c62 0 83 45 84 108H66c0 31 8 55 39 56 18 0 30-7 34-22zm-45-69c5-46-57-63-70-21-2 6-4 13-4 21h74" id="ak"/><g id="d"><use transform="matrix(0.05,0,0,0.05,0,0)" xlink:href="#ad"/><use transform="matrix(0.05,0,0,0.05,5,0)" xlink:href="#ae"/><use transform="matrix(0.05,0,0,0.05,15.950000000000001,0)" xlink:href="#af"/><use transform="matrix(0.05,0,0,0.05,21.900000000000002,0)" xlink:href="#ag"/><use transform="matrix(0.05,0,0,0.05,28.900000000000002,0)" xlink:href="#ah"/><use transform="matrix(0.05,0,0,0.05,38.900000000000006,0)" xlink:href="#ai"/><use transform="matrix(0.05,0,0,0.05,48.900000000000006,0)" xlink:href="#aj"/><use transform="matrix(0.05,0,0,0.05,54.85,0)" xlink:href="#ag"/><use transform="matrix(0.05,0,0,0.05,61.85,0)" xlink:href="#V"/><use transform="matrix(0.05,0,0,0.05,72.80000000000001,0)" xlink:href="#Z"/><use transform="matrix(0.05,0,0,0.05,82.80000000000001,0)" xlink:href="#aj"/><use transform="matrix(0.05,0,0,0.05,88.75000000000001,0)" xlink:href="#V"/><use transform="matrix(0.05,0,0,0.05,99.70000000000002,0)" xlink:href="#ag"/><use transform="matrix(0.05,0,0,0.05,106.7,0)" xlink:href="#ak"/></g><path d="M30-248c118-7 216 8 213 122C240-48 200 0 122 0H30v-248zM63-27c89 8 146-16 146-99s-60-101-146-95v194" id="al"/><path d="M160-131c35 5 61 23 61 61C221 17 115-2 30 0v-248c76 3 177-17 177 60 0 33-19 50-47 57zm-97-11c50-1 110 9 110-42 0-47-63-36-110-37v79zm0 115c55-2 124 14 124-45 0-56-70-42-124-44v89" id="am"/><path d="M185-189c-5-48-123-54-124 2 14 75 158 14 163 119 3 78-121 87-175 55-17-10-28-26-33-46l33-7c5 56 141 63 141-1 0-78-155-14-162-118-5-82 145-84 179-34 5 7 8 16 11 25" id="an"/><path d="M96-169c-40 0-48 33-48 73s9 75 48 75c24 0 41-14 43-38l32 2c-6 37-31 61-74 61-59 0-76-41-82-99-10-93 101-131 147-64 4 7 5 14 7 22l-32 3c-4-21-16-35-41-35" id="ao"/><path d="M106-169C34-169 62-67 57 0H25v-261h32l-1 103c12-21 28-36 61-36 89 0 53 116 60 194h-32v-121c2-32-8-49-39-48" id="ap"/><path d="M100-194c63 0 86 42 84 106H49c0 40 14 67 53 68 26 1 43-12 49-29l28 8c-11 28-37 45-77 45C44 4 14-33 15-96c1-61 26-98 85-98zm52 81c6-60-76-77-97-28-3 7-6 17-6 28h103" id="aq"/><path d="M210-169c-67 3-38 105-44 169h-31v-121c0-29-5-50-35-48C34-165 62-65 56 0H25l-1-190h30c1 10-1 24 2 32 10-44 99-50 107 0 11-21 27-35 58-36 85-2 47 119 55 194h-31v-121c0-29-5-49-35-48" id="ar"/><path d="M141-36C126-15 110 5 73 4 37 3 15-17 15-53c-1-64 63-63 125-63 3-35-9-54-41-54-24 1-41 7-42 31l-33-3c5-37 33-52 76-52 45 0 72 20 72 64v82c-1 20 7 32 28 27v20c-31 9-61-2-59-35zM48-53c0 20 12 33 32 33 41-3 63-29 60-74-43 2-92-5-92 41" id="as"/><g id="e"><use transform="matrix(0.05,0,0,0.05,0,0)" xlink:href="#al"/><use transform="matrix(0.05,0,0,0.05,12.950000000000001,0)" xlink:href="#am"/><use transform="matrix(0.05,0,0,0.05,24.950000000000003,0)" xlink:href="#an"/><use transform="matrix(0.05,0,0,0.05,36.95,0)" xlink:href="#ao"/><use transform="matrix(0.05,0,0,0.05,45.95,0)" xlink:href="#ap"/><use transform="matrix(0.05,0,0,0.05,55.95,0)" xlink:href="#aq"/><use transform="matrix(0.05,0,0,0.05,65.95,0)" xlink:href="#ar"/><use transform="matrix(0.05,0,0,0.05,80.9,0)" xlink:href="#as"/></g><path d="M15-91v-56l181-69v40L49-119l147 57v40" id="at"/><path d="M128 0H69L1-190h53L99-40l48-150h52" id="au"/><path d="M15-22v-40l146-57-146-57v-40l181 69v56" id="av"/><g id="f"><use transform="matrix(0.05,0,0,0.05,0,0)" xlink:href="#at"/><use transform="matrix(0.05,0,0,0.05,10.5,0)" xlink:href="#at"/><use transform="matrix(0.05,0,0,0.05,21,0)" xlink:href="#ac"/><use transform="matrix(0.05,0,0,0.05,31.950000000000003,0)" xlink:href="#ak"/><use transform="matrix(0.05,0,0,0.05,41.95,0)" xlink:href="#au"/><use transform="matrix(0.05,0,0,0.05,51.95,0)" xlink:href="#Y"/><use transform="matrix(0.05,0,0,0.05,56.95,0)" xlink:href="#Z"/><use transform="matrix(0.05,0,0,0.05,66.95,0)" xlink:href="#ak"/><use transform="matrix(0.05,0,0,0.05,76.95,0)" xlink:href="#av"/><use transform="matrix(0.05,0,0,0.05,87.45,0)" xlink:href="#av"/></g><g id="g"><use transform="matrix(0.05,0,0,0.05,0,0)" xlink:href="#U"/><use transform="matrix(0.05,0,0,0.05,12,0)" xlink:href="#aa"/></g><path d="M140-251c80 0 125 45 125 126S219 4 139 4C58 4 15-44 15-125s44-126 125-126zm-1 214c52 0 73-35 73-88 0-50-21-86-72-86-52 0-73 35-73 86s22 88 72 88" id="aw"/><path d="M169-182c-1-43-94-46-97-3 18 66 151 10 154 114 3 95-165 93-204 36-6-8-10-19-12-30l50-8c3 46 112 56 116 5-17-69-150-10-154-114-4-87 153-88 188-35 5 8 8 18 10 28" id="ax"/><g id="h"><use transform="matrix(0.05,0,0,0.05,0,0)" xlink:href="#at"/><use transform="matrix(0.05,0,0,0.05,10.5,0)" xlink:href="#at"/><use transform="matrix(0.05,0,0,0.05,21,0)" xlink:href="#aw"/><use transform="matrix(0.05,0,0,0.05,35,0)" xlink:href="#ax"/><use transform="matrix(0.05,0,0,0.05,47,0)" xlink:href="#av"/><use transform="matrix(0.05,0,0,0.05,57.5,0)" xlink:href="#av"/></g><path d="M24-248c120-7 223 5 221 122C244-46 201 0 124 0H24v-248zM76-40c74 7 117-18 117-86 0-67-45-88-117-82v168" id="ay"/><path d="M147 0L96-86 75-71V0H25v-261h50v150l67-79h53l-66 74L201 0h-54" id="az"/><path d="M135-194c53 0 70 44 70 98 0 56-19 98-73 100-31 1-45-17-59-34 3 33 2 69 2 105H25l-1-265h48c2 10 0 23 3 31 11-24 29-35 60-35zM114-30c33 0 39-31 40-66 0-38-9-64-40-64-56 0-55 130 0 130" id="aA"/><g id="i"><use transform="matrix(0.05,0,0,0.05,0,0)" xlink:href="#ay"/><use transform="matrix(0.05,0,0,0.05,12.950000000000001,0)" xlink:href="#ak"/><use transform="matrix(0.05,0,0,0.05,22.950000000000003,0)" xlink:href="#ai"/><use transform="matrix(0.05,0,0,0.05,32.95,0)" xlink:href="#az"/><use transform="matrix(0.05,0,0,0.05,42.95,0)" xlink:href="#aj"/><use transform="matrix(0.05,0,0,0.05,48.900000000000006,0)" xlink:href="#ab"/><use transform="matrix(0.05,0,0,0.05,59.85,0)" xlink:href="#aA"/></g><g id="j"><use transform="matrix(0.05,0,0,0.05,0,0)" xlink:href="#aw"/><use transform="matrix(0.05,0,0,0.05,14,0)" xlink:href="#ax"/></g><path d="M266 0h-40l-56-210L115 0H75L2-248h35L96-30l15-64 43-154h32l59 218 59-218h35" id="aB"/><path d="M115-194c53 0 69 39 70 98 0 66-23 100-70 100C84 3 66-7 56-30L54 0H23l1-261h32v101c10-23 28-34 59-34zm-8 174c40 0 45-34 45-75 0-40-5-75-45-74-42 0-51 32-51 76 0 43 10 73 51 73" id="aC"/><path d="M114-163C36-179 61-72 57 0H25l-1-190h30c1 12-1 29 2 39 6-27 23-49 58-41v29" id="aD"/><path d="M100-194c62-1 85 37 85 99 1 63-27 99-86 99S16-35 15-95c0-66 28-99 85-99zM99-20c44 1 53-31 53-75 0-43-8-75-51-75s-53 32-53 75 10 74 51 75" id="aE"/><path d="M206 0h-36l-40-164L89 0H53L-1-190h32L70-26l43-164h34l41 164 42-164h31" id="aF"/><path d="M135-143c-3-34-86-38-87 0 15 53 115 12 119 90S17 21 10-45l28-5c4 36 97 45 98 0-10-56-113-15-118-90-4-57 82-63 122-42 12 7 21 19 24 35" id="aG"/><g id="k"><use transform="matrix(0.05,0,0,0.05,0,0)" xlink:href="#aB"/><use transform="matrix(0.05,0,0,0.05,16.599999999999998,0)" xlink:href="#aq"/><use transform="matrix(0.05,0,0,0.05,26.599999999999994,0)" xlink:href="#aC"/><use transform="matrix(0.05,0,0,0.05,36.599999999999994,0)" xlink:href="#am"/><use transform="matrix(0.05,0,0,0.05,48.599999999999994,0)" xlink:href="#aD"/><use transform="matrix(0.05,0,0,0.05,54.54999999999999,0)" xlink:href="#aE"/><use transform="matrix(0.05,0,0,0.05,64.55,0)" xlink:href="#aF"/><use transform="matrix(0.05,0,0,0.05,77.5,0)" xlink:href="#aG"/><use transform="matrix(0.05,0,0,0.05,86.5,0)" xlink:href="#aq"/><use transform="matrix(0.05,0,0,0.05,96.5,0)" xlink:href="#aD"/></g><path d="M30-248c87 1 191-15 191 75 0 78-77 80-158 76V0H30v-248zm33 125c57 0 124 11 124-50 0-59-68-47-124-48v98" id="aH"/><path d="M177-190C167-65 218 103 67 71c-23-6-38-20-44-43l32-5c15 47 100 32 89-28v-30C133-14 115 1 83 1 29 1 15-40 15-95c0-56 16-97 71-98 29-1 48 16 59 35 1-10 0-23 2-32h30zM94-22c36 0 50-32 50-73 0-42-14-75-50-75-39 0-46 34-46 75s6 73 46 73" id="aI"/><g id="l"><use transform="matrix(0.05,0,0,0.05,0,0)" xlink:href="#aB"/><use transform="matrix(0.05,0,0,0.05,16.599999999999998,0)" xlink:href="#aq"/><use transform="matrix(0.05,0,0,0.05,26.599999999999994,0)" xlink:href="#aC"/><use transform="matrix(0.05,0,0,0.05,36.599999999999994,0)" xlink:href="#aH"/><use transform="matrix(0.05,0,0,0.05,48.599999999999994,0)" xlink:href="#as"/><use transform="matrix(0.05,0,0,0.05,58.599999999999994,0)" xlink:href="#aI"/><use transform="matrix(0.05,0,0,0.05,68.6,0)" xlink:href="#aq"/></g><path d="M205 0l-28-72H64L36 0H1l101-248h38L239 0h-34zm-38-99l-47-123c-12 45-31 82-46 123h93" id="aJ"/><path d="M179-190L93 31C79 59 56 82 12 73V49c39 6 53-20 64-50L1-190h34L92-34l54-156h33" id="aK"/><path d="M117-194c89-4 53 116 60 194h-32v-121c0-31-8-49-39-48C34-167 62-67 57 0H25l-1-190h30c1 10-1 24 2 32 11-22 29-35 61-36" id="aL"/><path d="M84 4C-5 8 30-112 23-190h32v120c0 31 7 50 39 49 72-2 45-101 50-169h31l1 190h-30c-1-10 1-25-2-33-11 22-28 36-60 37" id="aM"/><g id="m"><use transform="matrix(0.05,0,0,0.05,0,0)" xlink:href="#aJ"/><use transform="matrix(0.05,0,0,0.05,12,0)" xlink:href="#aG"/><use transform="matrix(0.05,0,0,0.05,21,0)" xlink:href="#aK"/><use transform="matrix(0.05,0,0,0.05,30,0)" xlink:href="#aL"/><use transform="matrix(0.05,0,0,0.05,40,0)" xlink:href="#ao"/><use transform="matrix(0.05,0,0,0.05,49,0)" xlink:href="#aD"/><use transform="matrix(0.05,0,0,0.05,54.95,0)" xlink:href="#aE"/><use transform="matrix(0.05,0,0,0.05,64.95,0)" xlink:href="#aL"/><use transform="matrix(0.05,0,0,0.05,74.95,0)" xlink:href="#aE"/><use transform="matrix(0.05,0,0,0.05,84.95,0)" xlink:href="#aM"/><use transform="matrix(0.05,0,0,0.05,94.95,0)" xlink:href="#aG"/></g><path d="M212-179c-10-28-35-45-73-45-59 0-87 40-87 99 0 60 29 101 89 101 43 0 62-24 78-52l27 14C228-24 195 4 139 4 59 4 22-46 18-125c-6-104 99-153 187-111 19 9 31 26 39 46" id="aN"/><path d="M24-231v-30h32v30H24zM24 0v-190h32V0H24" id="aO"/><path d="M59-47c-2 24 18 29 38 22v24C64 9 27 4 27-40v-127H5v-23h24l9-43h21v43h35v23H59v120" id="aP"/><g id="n"><use transform="matrix(0.05,0,0,0.05,0,0)" xlink:href="#aN"/><use transform="matrix(0.05,0,0,0.05,12.950000000000001,0)" xlink:href="#aE"/><use transform="matrix(0.05,0,0,0.05,22.950000000000003,0)" xlink:href="#ar"/><use transform="matrix(0.05,0,0,0.05,37.900000000000006,0)" xlink:href="#ar"/><use transform="matrix(0.05,0,0,0.05,52.85,0)" xlink:href="#aM"/><use transform="matrix(0.05,0,0,0.05,62.85,0)" xlink:href="#aL"/><use transform="matrix(0.05,0,0,0.05,72.85000000000001,0)" xlink:href="#aO"/><use transform="matrix(0.05,0,0,0.05,76.80000000000001,0)" xlink:href="#ao"/><use transform="matrix(0.05,0,0,0.05,85.80000000000001,0)" xlink:href="#as"/><use transform="matrix(0.05,0,0,0.05,95.80000000000001,0)" xlink:href="#aP"/><use transform="matrix(0.05,0,0,0.05,100.80000000000001,0)" xlink:href="#aO"/><use transform="matrix(0.05,0,0,0.05,104.75,0)" xlink:href="#aE"/><use transform="matrix(0.05,0,0,0.05,114.75,0)" xlink:href="#aL"/></g><path d="M24 0v-261h32V0H24" id="aQ"/><g id="o"><use transform="matrix(0.05,0,0,0.05,0,0)" xlink:href="#aH"/><use transform="matrix(0.05,0,0,0.05,12,0)" xlink:href="#aD"/><use transform="matrix(0.05,0,0,0.05,17.95,0)" xlink:href="#aE"/><use transform="matrix(0.05,0,0,0.05,27.950000000000003,0)" xlink:href="#aP"/><use transform="matrix(0.05,0,0,0.05,32.95,0)" xlink:href="#aE"/><use transform="matrix(0.05,0,0,0.05,42.95,0)" xlink:href="#ao"/><use transform="matrix(0.05,0,0,0.05,51.95,0)" xlink:href="#aE"/><use transform="matrix(0.05,0,0,0.05,61.95,0)" xlink:href="#aQ"/></g><path d="M87 75C49 33 22-17 22-94c0-76 28-126 65-167h31c-38 41-64 92-64 168S80 34 118 75H87" id="aR"/><path d="M240 0l2-218c-23 76-54 145-80 218h-23L58-218 59 0H30v-248h44l77 211c21-75 51-140 76-211h43V0h-30" id="aS"/><path d="M140-251c81 0 123 46 123 126C263-53 228-8 163 1c7 30 30 48 69 40v23c-55 16-95-15-103-61C56-3 17-48 17-125c0-80 42-126 123-126zm0 227c63 0 89-41 89-101s-29-99-89-99c-61 0-89 39-89 99S79-25 140-24" id="aT"/><path d="M33-261c38 41 65 92 65 168S71 34 33 75H2C39 34 66-17 66-93S39-220 2-261h31" id="aU"/><g id="p"><use transform="matrix(0.05,0,0,0.05,0,0)" xlink:href="#aR"/><use transform="matrix(0.05,0,0,0.05,5.95,0)" xlink:href="#aJ"/><use transform="matrix(0.05,0,0,0.05,17.95,0)" xlink:href="#aS"/><use transform="matrix(0.05,0,0,0.05,32.9,0)" xlink:href="#aT"/><use transform="matrix(0.05,0,0,0.05,46.9,0)" xlink:href="#aH"/><use transform="matrix(0.05,0,0,0.05,58.900000000000006,0)" xlink:href="#aU"/></g><path d="M233-177c-1 41-23 64-60 70L243 0h-38l-65-103H63V0H30v-248c88 3 205-21 203 71zM63-129c60-2 137 13 137-47 0-61-80-42-137-45v92" id="aV"/><path d="M30 0v-248h187v28H63v79h144v27H63v87h162V0H30" id="aW"/><path d="M127-220V0H93v-220H8v-28h204v28h-85" id="aX"/><path d="M101-234c-31-9-42 10-38 44h38v23H63V0H32v-167H5v-23h27c-7-52 17-82 69-68v24" id="aY"/><g id="q"><use transform="matrix(0.05,0,0,0.05,0,0)" xlink:href="#aV"/><use transform="matrix(0.05,0,0,0.05,12.950000000000001,0)" xlink:href="#aW"/><use transform="matrix(0.05,0,0,0.05,24.950000000000003,0)" xlink:href="#an"/><use transform="matrix(0.05,0,0,0.05,36.95,0)" xlink:href="#aX"/><use transform="matrix(0.05,0,0,0.05,47.900000000000006,0)" xlink:href="#aY"/><use transform="matrix(0.05,0,0,0.05,52.900000000000006,0)" xlink:href="#aM"/><use transform="matrix(0.05,0,0,0.05,62.900000000000006,0)" xlink:href="#aQ"/></g><path d="M33 0v-248h34V0H33" id="aZ"/><g id="r"><use transform="matrix(0.05,0,0,0.05,0,0)" xlink:href="#aJ"/><use transform="matrix(0.05,0,0,0.05,12,0)" xlink:href="#aH"/><use transform="matrix(0.05,0,0,0.05,24,0)" xlink:href="#aZ"/></g><g id="s"><use transform="matrix(0.05,0,0,0.05,0,0)" xlink:href="#aa"/><use transform="matrix(0.05,0,0,0.05,12.950000000000001,0)" xlink:href="#ah"/><use transform="matrix(0.05,0,0,0.05,22.950000000000003,0)" xlink:href="#ag"/></g><path d="M24 0v-248h52v208h133V0H24" id="ba"/><path d="M144 0l-44-69L55 0H2l70-98-66-92h53l41 62 40-62h54l-67 91 71 99h-54" id="bb"/><g id="t"><use transform="matrix(0.05,0,0,0.05,0,0)" xlink:href="#ba"/><use transform="matrix(0.05,0,0,0.05,10.950000000000001,0)" xlink:href="#Y"/><use transform="matrix(0.05,0,0,0.05,15.950000000000001,0)" xlink:href="#ae"/><use transform="matrix(0.05,0,0,0.05,26.900000000000002,0)" xlink:href="#V"/><use transform="matrix(0.05,0,0,0.05,37.85,0)" xlink:href="#bb"/></g><path d="M195 0l-88-114-31 24V0H24v-248h52v113l112-113h60L142-143 257 0h-62" id="bc"/><g id="u"><use transform="matrix(0.05,0,0,0.05,0,0)" xlink:href="#bc"/><use transform="matrix(0.05,0,0,0.05,12.950000000000001,0)" xlink:href="#ak"/><use transform="matrix(0.05,0,0,0.05,22.950000000000003,0)" xlink:href="#ag"/><use transform="matrix(0.05,0,0,0.05,29.950000000000003,0)" xlink:href="#ae"/><use transform="matrix(0.05,0,0,0.05,40.900000000000006,0)" xlink:href="#ak"/><use transform="matrix(0.05,0,0,0.05,50.900000000000006,0)" xlink:href="#X"/></g><g id="w"><use transform="matrix(0.05,0,0,0.05,0,0)" xlink:href="#aN"/><use transform="matrix(0.05,0,0,0.05,12.950000000000001,0)" xlink:href="#as"/><use transform="matrix(0.05,0,0,0.05,22.950000000000003,0)" xlink:href="#aD"/></g><g id="x"><use transform="matrix(0.05,0,0,0.05,0,0)" xlink:href="#aS"/><use transform="matrix(0.05,0,0,0.05,14.950000000000001,0)" xlink:href="#as"/><use transform="matrix(0.05,0,0,0.05,24.950000000000003,0)" xlink:href="#aL"/><use transform="matrix(0.05,0,0,0.05,34.95,0)" xlink:href="#as"/><use transform="matrix(0.05,0,0,0.05,44.95,0)" xlink:href="#aI"/><use transform="matrix(0.05,0,0,0.05,54.95,0)" xlink:href="#ar"/><use transform="matrix(0.05,0,0,0.05,69.9,0)" xlink:href="#aq"/><use transform="matrix(0.05,0,0,0.05,79.9,0)" xlink:href="#aL"/><use transform="matrix(0.05,0,0,0.05,89.9,0)" xlink:href="#aP"/></g><g id="y"><use transform="matrix(0.05,0,0,0.05,0,0)" xlink:href="#an"/><use transform="matrix(0.05,0,0,0.05,12,0)" xlink:href="#aK"/><use transform="matrix(0.05,0,0,0.05,21,0)" xlink:href="#aG"/><use transform="matrix(0.05,0,0,0.05,30,0)" xlink:href="#aP"/><use transform="matrix(0.05,0,0,0.05,35,0)" xlink:href="#aq"/><use transform="matrix(0.05,0,0,0.05,45,0)" xlink:href="#ar"/></g><path d="M140-251c81 0 123 46 123 126C263-46 219 4 140 4 59 4 17-45 17-125s42-126 123-126zm0 227c63 0 89-41 89-101s-29-99-89-99c-61 0-89 39-89 99S79-25 140-24" id="bd"/><path d="M115-194c55 1 70 41 70 98S169 2 115 4C84 4 66-9 55-30l1 105H24l-1-265h31l2 30c10-21 28-34 59-34zm-8 174c40 0 45-34 45-75s-6-73-45-74c-42 0-51 32-51 76 0 43 10 73 51 73" id="be"/><path d="M137 0h-34L2-248h35l83 218 83-218h36" id="bf"/><path d="M190 0L58-211 59 0H30v-248h39L202-35l-2-213h31V0h-41" id="bg"/><g id="z"><use transform="matrix(0.05,0,0,0.05,0,0)" xlink:href="#bd"/><use transform="matrix(0.05,0,0,0.05,14,0)" xlink:href="#be"/><use transform="matrix(0.05,0,0,0.05,24,0)" xlink:href="#aq"/><use transform="matrix(0.05,0,0,0.05,34,0)" xlink:href="#aL"/><use transform="matrix(0.05,0,0,0.05,44,0)" xlink:href="#bf"/><use transform="matrix(0.05,0,0,0.05,56,0)" xlink:href="#aH"/><use transform="matrix(0.05,0,0,0.05,68,0)" xlink:href="#bg"/></g><path d="M118-107v75H92v-75H18v-26h74v-75h26v75h74v26h-74" id="bh"/><use transform="matrix(0.05,0,0,0.05,0,0)" xlink:href="#bh" id="B"/><g id="D"><use transform="matrix(0.05,0,0,0.05,0,0)" xlink:href="#aS"/><use transform="matrix(0.05,0,0,0.05,14.950000000000001,0)" xlink:href="#aT"/><use transform="matrix(0.05,0,0,0.05,28.950000000000003,0)" xlink:href="#aX"/><use transform="matrix(0.05,0,0,0.05,39.900000000000006,0)" xlink:href="#aX"/></g><g id="E"><use transform="matrix(0.05,0,0,0.05,0,0)" xlink:href="#am"/><use transform="matrix(0.05,0,0,0.05,12,0)" xlink:href="#aM"/><use transform="matrix(0.05,0,0,0.05,22,0)" xlink:href="#aG"/><use transform="matrix(0.05,0,0,0.05,31,0)" xlink:href="#aO"/><use transform="matrix(0.05,0,0,0.05,34.95,0)" xlink:href="#aL"/><use transform="matrix(0.05,0,0,0.05,44.95,0)" xlink:href="#aq"/><use transform="matrix(0.05,0,0,0.05,54.95,0)" xlink:href="#aG"/><use transform="matrix(0.05,0,0,0.05,63.95,0)" xlink:href="#aG"/></g><path d="M30 0v-248h33v221h125V0H30" id="bi"/><g id="F"><use transform="matrix(0.05,0,0,0.05,0,0)" xlink:href="#bi"/><use transform="matrix(0.05,0,0,0.05,10,0)" xlink:href="#aE"/><use transform="matrix(0.05,0,0,0.05,20,0)" xlink:href="#aI"/><use transform="matrix(0.05,0,0,0.05,30,0)" xlink:href="#aO"/><use transform="matrix(0.05,0,0,0.05,33.95,0)" xlink:href="#ao"/></g><g id="G"><use transform="matrix(0.05,0,0,0.05,0,0)" xlink:href="#aJ"/><use transform="matrix(0.05,0,0,0.05,12,0)" xlink:href="#be"/><use transform="matrix(0.05,0,0,0.05,22,0)" xlink:href="#be"/><use transform="matrix(0.05,0,0,0.05,32,0)" xlink:href="#aQ"/><use transform="matrix(0.05,0,0,0.05,35.95,0)" xlink:href="#aO"/><use transform="matrix(0.05,0,0,0.05,39.900000000000006,0)" xlink:href="#ao"/><use transform="matrix(0.05,0,0,0.05,48.900000000000006,0)" xlink:href="#as"/><use transform="matrix(0.05,0,0,0.05,58.900000000000006,0)" xlink:href="#aP"/><use transform="matrix(0.05,0,0,0.05,63.900000000000006,0)" xlink:href="#aO"/><use transform="matrix(0.05,0,0,0.05,67.85000000000001,0)" xlink:href="#aE"/><use transform="matrix(0.05,0,0,0.05,77.85000000000001,0)" xlink:href="#aL"/></g><g id="H"><use transform="matrix(0.05,0,0,0.05,0,0)" xlink:href="#aB"/><use transform="matrix(0.05,0,0,0.05,16.599999999999998,0)" xlink:href="#aq"/><use transform="matrix(0.05,0,0,0.05,26.599999999999994,0)" xlink:href="#aC"/></g><g id="I"><use transform="matrix(0.05,0,0,0.05,0,0)" xlink:href="#aZ"/><use transform="matrix(0.05,0,0,0.05,5,0)" xlink:href="#aL"/><use transform="matrix(0.05,0,0,0.05,15,0)" xlink:href="#aP"/><use transform="matrix(0.05,0,0,0.05,20,0)" xlink:href="#aq"/><use transform="matrix(0.05,0,0,0.05,30,0)" xlink:href="#aD"/><use transform="matrix(0.05,0,0,0.05,35.95,0)" xlink:href="#aY"/><use transform="matrix(0.05,0,0,0.05,40.95,0)" xlink:href="#as"/><use transform="matrix(0.05,0,0,0.05,50.95,0)" xlink:href="#ao"/><use transform="matrix(0.05,0,0,0.05,59.95,0)" xlink:href="#aq"/></g><path d="M197 0v-115H63V0H30v-248h33v105h134v-105h34V0h-34" id="bj"/><path d="M85-194c31 0 48 13 60 33l-1-100h32l1 261h-30c-2-10 0-23-3-31C134-8 116 4 85 4 32 4 16-35 15-94c0-66 23-100 70-100zm9 24c-40 0-46 34-46 75 0 40 6 74 45 74 42 0 51-32 51-76 0-42-9-74-50-73" id="bk"/><g id="J"><use transform="matrix(0.05,0,0,0.05,0,0)" xlink:href="#bj"/><use transform="matrix(0.05,0,0,0.05,12.950000000000001,0)" xlink:href="#as"/><use transform="matrix(0.05,0,0,0.05,22.950000000000003,0)" xlink:href="#aL"/><use transform="matrix(0.05,0,0,0.05,32.95,0)" xlink:href="#bk"/><use transform="matrix(0.05,0,0,0.05,42.95,0)" xlink:href="#aQ"/><use transform="matrix(0.05,0,0,0.05,46.900000000000006,0)" xlink:href="#aq"/><use transform="matrix(0.05,0,0,0.05,56.900000000000006,0)" xlink:href="#aD"/></g><path d="M230 0l2-204L168 0h-37L68-204 70 0H24v-248h70l56 185 57-185h69V0h-46" id="bl"/><path d="M114-157C55-157 80-60 75 0H25v-261h50l-1 109c12-26 28-41 61-42 86-1 58 113 63 194h-50c-7-57 23-157-34-157" id="bm"/><g id="K"><use transform="matrix(0.05,0,0,0.05,0,0)" xlink:href="#bl"/><use transform="matrix(0.05,0,0,0.05,14.950000000000001,0)" xlink:href="#ab"/><use transform="matrix(0.05,0,0,0.05,25.900000000000002,0)" xlink:href="#W"/><use transform="matrix(0.05,0,0,0.05,36.85,0)" xlink:href="#Y"/><use transform="matrix(0.05,0,0,0.05,41.85,0)" xlink:href="#X"/><use transform="matrix(0.05,0,0,0.05,46.85,0)" xlink:href="#ak"/><use transform="matrix(0.05,0,0,0.05,56.85,0)" xlink:href="#U"/><use transform="matrix(0.05,0,0,0.05,68.85,0)" xlink:href="#bm"/><use transform="matrix(0.05,0,0,0.05,79.8,0)" xlink:href="#ab"/><use transform="matrix(0.05,0,0,0.05,90.75,0)" xlink:href="#ae"/><use transform="matrix(0.05,0,0,0.05,101.7,0)" xlink:href="#ak"/></g><g id="L"><use transform="matrix(0.05,0,0,0.05,0,0)" xlink:href="#bl"/><use transform="matrix(0.05,0,0,0.05,14.950000000000001,0)" xlink:href="#ab"/><use transform="matrix(0.05,0,0,0.05,25.900000000000002,0)" xlink:href="#W"/><use transform="matrix(0.05,0,0,0.05,36.85,0)" xlink:href="#Y"/><use transform="matrix(0.05,0,0,0.05,41.85,0)" xlink:href="#X"/><use transform="matrix(0.05,0,0,0.05,46.85,0)" xlink:href="#ak"/></g><g id="M"><use transform="matrix(0.05,0,0,0.05,0,0)" xlink:href="#aS"/><use transform="matrix(0.05,0,0,0.05,14.950000000000001,0)" xlink:href="#aE"/><use transform="matrix(0.05,0,0,0.05,24.950000000000003,0)" xlink:href="#aC"/><use transform="matrix(0.05,0,0,0.05,34.95,0)" xlink:href="#aO"/><use transform="matrix(0.05,0,0,0.05,38.900000000000006,0)" xlink:href="#aQ"/><use transform="matrix(0.05,0,0,0.05,42.85000000000001,0)" xlink:href="#aq"/></g><g id="N"><use transform="matrix(0.05,0,0,0.05,0,0)" xlink:href="#aJ"/><use transform="matrix(0.05,0,0,0.05,12,0)" xlink:href="#be"/><use transform="matrix(0.05,0,0,0.05,22,0)" xlink:href="#be"/></g><path d="M231 0h-52l-39-155L100 0H48L-1-190h46L77-45c9-52 24-97 36-145h53l37 145 32-145h46" id="bn"/><g id="O"><use transform="matrix(0.05,0,0,0.05,0,0)" xlink:href="#U"/><use transform="matrix(0.05,0,0,0.05,12,0)" xlink:href="#ab"/><use transform="matrix(0.05,0,0,0.05,22.950000000000003,0)" xlink:href="#bn"/><use transform="matrix(0.05,0,0,0.05,36.95,0)" xlink:href="#ak"/><use transform="matrix(0.05,0,0,0.05,46.95,0)" xlink:href="#ag"/><use transform="matrix(0.05,0,0,0.05,53.95,0)" xlink:href="#ax"/><use transform="matrix(0.05,0,0,0.05,65.95,0)" xlink:href="#aj"/><use transform="matrix(0.05,0,0,0.05,71.9,0)" xlink:href="#ah"/><use transform="matrix(0.05,0,0,0.05,81.9,0)" xlink:href="#aj"/><use transform="matrix(0.05,0,0,0.05,87.85000000000001,0)" xlink:href="#Y"/><use transform="matrix(0.05,0,0,0.05,92.85000000000001,0)" xlink:href="#ab"/><use transform="matrix(0.05,0,0,0.05,103.80000000000001,0)" xlink:href="#ae"/></g><g id="P"><use transform="matrix(0.05,0,0,0.05,0,0)" xlink:href="#aH"/><use transform="matrix(0.05,0,0,0.05,12,0)" xlink:href="#aE"/><use transform="matrix(0.05,0,0,0.05,22,0)" xlink:href="#aF"/><use transform="matrix(0.05,0,0,0.05,34.95,0)" xlink:href="#aq"/><use transform="matrix(0.05,0,0,0.05,44.95,0)" xlink:href="#aD"/><use transform="matrix(0.05,0,0,0.05,50.900000000000006,0)" xlink:href="#an"/><use transform="matrix(0.05,0,0,0.05,62.900000000000006,0)" xlink:href="#aP"/><use transform="matrix(0.05,0,0,0.05,67.9,0)" xlink:href="#as"/><use transform="matrix(0.05,0,0,0.05,77.9,0)" xlink:href="#aP"/><use transform="matrix(0.05,0,0,0.05,82.9,0)" xlink:href="#aO"/><use transform="matrix(0.05,0,0,0.05,86.85000000000001,0)" xlink:href="#aE"/><use transform="matrix(0.05,0,0,0.05,96.85000000000001,0)" xlink:href="#aL"/></g><g id="Q"><use transform="matrix(0.05,0,0,0.05,0,0)" xlink:href="#al"/><use transform="matrix(0.05,0,0,0.05,12.950000000000001,0)" xlink:href="#as"/><use transform="matrix(0.05,0,0,0.05,22.950000000000003,0)" xlink:href="#aP"/><use transform="matrix(0.05,0,0,0.05,27.950000000000003,0)" xlink:href="#as"/></g><g id="R"><use transform="matrix(0.05,0,0,0.05,0,0)" xlink:href="#an"/><use transform="matrix(0.05,0,0,0.05,12,0)" xlink:href="#aK"/><use transform="matrix(0.05,0,0,0.05,21,0)" xlink:href="#aG"/><use transform="matrix(0.05,0,0,0.05,30,0)" xlink:href="#aP"/><use transform="matrix(0.05,0,0,0.05,35,0)" xlink:href="#aq"/><use transform="matrix(0.05,0,0,0.05,45,0)" xlink:href="#ar"/></g><g id="S"><use transform="matrix(0.05,0,0,0.05,0,0)" xlink:href="#aS"/><use transform="matrix(0.05,0,0,0.05,14.950000000000001,0)" xlink:href="#aT"/><use transform="matrix(0.05,0,0,0.05,28.950000000000003,0)" xlink:href="#aX"/><use transform="matrix(0.05,0,0,0.05,39.900000000000006,0)" xlink:href="#aX"/></g><g id="T"><use transform="matrix(0.05,0,0,0.05,0,0)" xlink:href="#al"/><use transform="matrix(0.05,0,0,0.05,12.950000000000001,0)" xlink:href="#am"/><use transform="matrix(0.05,0,0,0.05,24.950000000000003,0)" xlink:href="#aS"/><use transform="matrix(0.05,0,0,0.05,39.900000000000006,0)" xlink:href="#an"/></g></defs></g></svg>