<?xml version="1.0" encoding="UTF-8" standalone="no"?>
<svg
   xmlns:dc="http://purl.org/dc/elements/1.1/"
   xmlns:cc="http://creativecommons.org/ns#"
   xmlns:rdf="http://www.w3.org/1999/02/22-rdf-syntax-ns#"
   xmlns:svg="http://www.w3.org/2000/svg"
   xmlns="http://www.w3.org/2000/svg"
   xmlns:xlink="http://www.w3.org/1999/xlink"
   xmlns:sodipodi="http://sodipodi.sourceforge.net/DTD/sodipodi-0.dtd"
   xmlns:inkscape="http://www.inkscape.org/namespaces/inkscape"
   width="1060"
   height="880"
   id="svg2"
   version="1.1"
   inkscape:version="0.91 r13725"
   sodipodi:docname="OverView.svg">
  <metadata
     id="metadata579">
    <rdf:RDF>
      <cc:Work
         rdf:about="">
        <dc:format>image/svg+xml</dc:format>
        <dc:type
           rdf:resource="http://purl.org/dc/dcmitype/StillImage" />
      </cc:Work>
    </rdf:RDF>
  </metadata>
  <defs
     id="defs577" />
  <sodipodi:namedview
     pagecolor="#ffffff"
     bordercolor="#666666"
     borderopacity="1"
     objecttolerance="10"
     gridtolerance="10"
     guidetolerance="10"
     inkscape:pageopacity="0"
     inkscape:pageshadow="2"
     inkscape:window-width="1850"
     inkscape:window-height="1446"
     id="namedview575"
     showgrid="false"
     inkscape:zoom="0.26818182"
     inkscape:cx="530"
     inkscape:cy="440"
     inkscape:window-x="20"
     inkscape:window-y="68"
     inkscape:window-maximized="0"
     inkscape:current-layer="g4" />
  <g
     transform="translate(-40 -100)"
     id="g4">
    <path
       d="m 100.67797,115.59322 983.38983,0 0,853.89831 -983.38983,0 z"
       id="path6"
       inkscape:connector-curvature="0"
       style="fill:#ffffff" />
    <path
       d="M360 695h240v60H360z"
       fill="none"
       id="path8" />
    <use
       xlink:href="#a"
       transform="matrix(1,0,0,1,360,695) translate(77.05 33.6)"
       id="use10" />
    <use
       xlink:href="#b"
       transform="matrix(1,0,0,1,360,695) translate(133.95 33.6)"
       id="use12" />
    <path
       d="M680 380h240v60H680z"
       fill="none"
       id="path14" />
    <use
       xlink:href="#c"
       transform="matrix(1,0,0,1,680,380) translate(62.3 33.6)"
       id="use16" />
    <path
       d="M680 200h240v60H680z"
       fill="none"
       id="path18" />
    <use
       xlink:href="#d"
       transform="matrix(1,0,0,1,680,200) translate(64.44999999999999 33.6)"
       id="use20" />
    <path
       d="M680 740h240v60H680z"
       fill="none"
       id="path22" />
    <use
       xlink:href="#e"
       transform="matrix(1,0,0,1,680,740) translate(95.55 33.6)"
       id="use24" />
    <path
       d="M674.67 560h240v60h-240z"
       fill="none"
       id="path26" />
    <use
       xlink:href="#f"
       transform="matrix(1,0,0,1,674.6666666666666,560) translate(74.525 33.6)"
       id="use28" />
    <path
       d="M825 180h-11m-14-20c-11.05 0-20 8.95-20 20s8.95 20 20 20m-20-20h-5"
       stroke="#000"
       stroke-width="2"
       fill="none"
       id="path30" />
    <path
       d="M800 194c-7.73 0-14-6.27-14-14s6.27-14 14-14 14 6.27 14 14-6.27 14-14 14z"
       stroke="#000"
       stroke-width="2"
       fill="#fff"
       id="path32" />
    <path
       d="M800 160c-11.05 0-20 8.95-20 20s8.95 20 20 20 20-8.95 20-20-8.95-20-20-20z"
       fill="none"
       id="path34" />
    <path
       d="M825 360h-11m-14-20c-11.05 0-20 8.95-20 20s8.95 20 20 20m-20-20h-5"
       stroke="#000"
       stroke-width="2"
       fill="none"
       id="path36" />
    <path
       d="M800 374c-7.73 0-14-6.27-14-14s6.27-14 14-14 14 6.27 14 14-6.27 14-14 14z"
       stroke="#000"
       stroke-width="2"
       fill="#fff"
       id="path38" />
    <path
       d="M800 340c-11.05 0-20 8.95-20 20s8.95 20 20 20 20-8.95 20-20-8.95-20-20-20z"
       fill="none"
       id="path40" />
    <path
       d="M825 540h-11m-14-20c-11.05 0-20 8.95-20 20s8.95 20 20 20m-20-20h-5"
       stroke="#000"
       stroke-width="2"
       fill="none"
       id="path42" />
    <path
       d="M800 554c-7.73 0-14-6.27-14-14s6.27-14 14-14 14 6.27 14 14-6.27 14-14 14z"
       stroke="#000"
       stroke-width="2"
       fill="#fff"
       id="path44" />
    <path
       d="M800 520c-11.05 0-20 8.95-20 20s8.95 20 20 20 20-8.95 20-20-8.95-20-20-20z"
       fill="none"
       id="path46" />
    <path
       d="M825 720h-11m-14-20c-11.05 0-20 8.95-20 20s8.95 20 20 20m-20-20h-5"
       stroke="#000"
       stroke-width="2"
       fill="none"
       id="path48" />
    <path
       d="M800 734c-7.73 0-14-6.27-14-14s6.27-14 14-14 14 6.27 14 14-6.27 14-14 14z"
       stroke="#000"
       stroke-width="2"
       fill="#fff"
       id="path50" />
    <path
       d="M800 700c-11.05 0-20 8.95-20 20s8.95 20 20 20 20-8.95 20-20-8.95-20-20-20z"
       fill="none"
       id="path52" />
    <path
       d="M560 695v11m-20 14c0 11.05 8.95 20 20 20s20-8.95 20-20m-20 20v5"
       stroke="#000"
       stroke-width="2"
       fill="none"
       id="path54" />
    <path
       d="M574 720c0 7.73-6.27 14-14 14s-14-6.27-14-14 6.27-14 14-14 14 6.27 14 14z"
       stroke="#000"
       stroke-width="2"
       fill="#fff"
       id="path56" />
    <path
       d="M540 720c0 11.05 8.95 20 20 20s20-8.95 20-20-8.95-20-20-20-20 8.95-20 20z"
       fill="none"
       id="path58" />
    <path
       d="M340 450h75"
       stroke="#000"
       stroke-width="2"
       fill="none"
       id="path60" />
    <path
       d="M418 451h-3v-2h3z"
       id="path62" />
    <path
       d="M520 450h-55"
       stroke="#000"
       stroke-width="2"
       fill="none"
       id="path64" />
    <path
       d="M465 451h-3v-2h3z"
       id="path66" />
    <path
       d="M560 840v-95"
       stroke="#000"
       stroke-width="2"
       fill="none"
       id="path68" />
    <path
       d="M561 745h-2v-3h2z"
       id="path70" />
    <path
       d="M640 510v210h135"
       stroke="#000"
       stroke-width="2"
       fill="none"
       id="path72" />
    <path
       d="M778 721h-3v-2h3z"
       id="path74" />
    <path
       d="M680 420h47.5v-60H775"
       stroke="#000"
       stroke-width="2"
       fill="none"
       id="path76" />
    <path
       d="M778 361h-3v-2h3z"
       id="path78" />
    <path
       d="M600 390V180h175"
       stroke="#000"
       stroke-width="2"
       fill="none"
       id="path80" />
    <path
       d="M778 181h-3v-2h3z"
       id="path82" />
    <path
       d="M920 540h-95"
       stroke="#000"
       stroke-width="2"
       fill="none"
       id="path84" />
    <path
       d="M825 541h-3v-2h3z"
       id="path86" />
    <path
       d="M920 360h-95"
       stroke="#000"
       stroke-width="2"
       fill="none"
       id="path88" />
    <path
       d="M825 361h-3v-2h3z"
       id="path90" />
    <path
       d="M920 180h-95"
       stroke="#000"
       stroke-width="2"
       fill="none"
       id="path92" />
    <path
       d="M825 181h-3v-2h3z"
       id="path94" />
    <path
       d="M180 390v120h160V390z"
       stroke="#000"
       stroke-width="2"
       fill="#fff"
       id="path96" />
    <path
       d="M330 400h-15v20h15z"
       stroke="#000"
       fill="#fff"
       id="path98" />
    <path
       d="M320 403.33h-10v3.34h10zm0 10h-10v3.34h10z"
       stroke="#000"
       fill="#fff"
       id="path100" />
    <use
       xlink:href="#g"
       transform="matrix(1,0,0,1,180,390) translate(57.08 63.15)"
       id="use102" />
    <path
       d="M480 840v120h160V840z"
       stroke="#000"
       stroke-width="2"
       fill="#fff"
       id="path104" />
    <path
       d="M630 850h-15v20h15z"
       stroke="#000"
       fill="#fff"
       id="path106" />
    <path
       d="M620 853.33h-10v3.34h10zm0 10h-10v3.34h10z"
       stroke="#000"
       fill="#fff"
       id="path108" />
    <use
       xlink:href="#h"
       transform="matrix(1,0,0,1,480,840) translate(54.055 63.15)"
       id="use110" />
    <path
       d="M920 660v120h160V660z"
       stroke="#000"
       stroke-width="2"
       fill="#fff"
       id="path112" />
    <path
       d="M1070 670h-15v20h15z"
       stroke="#000"
       fill="#fff"
       id="path114" />
    <path
       d="M1060 673.33h-10v3.34h10zm0 10h-10v3.34h10z"
       stroke="#000"
       fill="#fff"
       id="path116" />
    <use
       xlink:href="#i"
       transform="matrix(1,0,0,1,920,660) translate(65.555 63.15)"
       id="use118" />
    <path
       d="M920 480v120h160V480z"
       stroke="#000"
       stroke-width="2"
       fill="#fff"
       id="path120" />
    <path
       d="M1070 490h-15v20h15z"
       stroke="#000"
       fill="#fff"
       id="path122" />
    <path
       d="M1060 493.33h-10v3.34h10zm0 10h-10v3.34h10z"
       stroke="#000"
       fill="#fff"
       id="path124" />
    <use
       xlink:href="#j"
       transform="matrix(1,0,0,1,920,480) translate(27.054999999999993 51.9)"
       id="use126" />
    <use
       xlink:href="#k"
       transform="matrix(1,0,0,1,920,480) translate(10.604999999999999 73.5)"
       id="use128" />
    <use
       xlink:href="#l"
       transform="matrix(1,0,0,1,920,480) translate(86.555 73.5)"
       id="use130" />
    <path
       d="M920 300v120h160V300z"
       stroke="#000"
       stroke-width="2"
       fill="#fff"
       id="path132" />
    <path
       d="M1070 310h-15v20h15z"
       stroke="#000"
       fill="#fff"
       id="path134" />
    <path
       d="M1060 313.33h-10v3.34h10zm0 10h-10v3.34h10z"
       stroke="#000"
       fill="#fff"
       id="path136" />
    <use
       xlink:href="#j"
       transform="matrix(1,0,0,1,920,300) translate(27.054999999999993 51.9)"
       id="use138" />
    <use
       xlink:href="#m"
       transform="matrix(1,0,0,1,920,300) translate(29.805 73.5)"
       id="use140" />
    <use
       xlink:href="#n"
       transform="matrix(1,0,0,1,920,300) translate(60.705000000000005 73.5)"
       id="use142" />
    <path
       d="M920 120v120h160V120z"
       stroke="#000"
       stroke-width="2"
       fill="#fff"
       id="path144" />
    <path
       d="M1070 130h-15v20h15z"
       stroke="#000"
       fill="#fff"
       id="path146" />
    <path
       d="M1060 133.33h-10v3.34h10zm0 10h-10v3.34h10z"
       stroke="#000"
       fill="#fff"
       id="path148" />
    <use
       xlink:href="#j"
       transform="matrix(1,0,0,1,920,120) translate(27.054999999999993 51.9)"
       id="use150" />
    <use
       xlink:href="#o"
       transform="matrix(1,0,0,1,920,120) translate(31.604999999999997 73.5)"
       id="use152" />
    <use
       xlink:href="#n"
       transform="matrix(1,0,0,1,920,120) translate(58.905 73.5)"
       id="use154" />
    <path
       d="M920 720H820"
       stroke="#000"
       stroke-width="2"
       fill="none"
       id="path156" />
    <path
       d="M820 721h-.04l.04-1-.13-1h.13z"
       id="path158" />
    <path
       d="M520 390v120h160V390z"
       stroke="#000"
       stroke-width="2"
       fill="#fff"
       id="path160" />
    <path
       d="M670 400h-15v20h15z"
       stroke="#000"
       fill="#fff"
       id="path162" />
    <path
       d="M660 403.33h-10v3.34h10zm0 10h-10v3.34h10z"
       stroke="#000"
       fill="#fff"
       id="path164" />
    <use
       xlink:href="#p"
       transform="matrix(1,0,0,1,520,390) translate(53.555 63.15)"
       id="use166" />
    <path
       d="M680 480h47.5v60H775"
       stroke="#000"
       stroke-width="2"
       fill="none"
       id="path168" />
    <path
       d="M778 541h-3v-2h3z"
       id="path170" />
    <path
       d="M560 510v185"
       stroke="#000"
       stroke-width="2"
       fill="none"
       id="path172" />
    <path
       d="M561 698h-2v-3h2z"
       id="path174" />
    <path
       d="M320 470h240v60H320z"
       fill="none"
       id="path176" />
    <g
       id="g178">
      <use
         xlink:href="#q"
         transform="matrix(1,0,0,1,320,470) translate(87.075 33.6)"
         id="use180" />
    </g>
    <g
       id="g182">
      <path
         d="M465 450h-11m-14-20c-11.05 0-20 8.95-20 20s8.95 20 20 20m-20-20h-5"
         stroke="#000"
         stroke-width="2"
         fill="none"
         id="path184" />
      <path
         d="M440 464c-7.73 0-14-6.27-14-14s6.27-14 14-14 14 6.27 14 14-6.27 14-14 14z"
         stroke="#000"
         stroke-width="2"
         fill="#fff"
         id="path186" />
      <path
         d="M440 430c-11.05 0-20 8.95-20 20s8.95 20 20 20 20-8.95 20-20-8.95-20-20-20z"
         fill="none"
         id="path188" />
    </g>
    <path
       d="M180 120v120h160V120z"
       stroke="#000"
       stroke-width="2"
       fill="#fff"
       id="path190" />
    <path
       d="M330 130h-15v20h15z"
       stroke="#000"
       fill="#fff"
       id="path192" />
    <path
       d="M320 133.33h-10v3.34h10zm0 10h-10v3.34h10z"
       stroke="#000"
       fill="#fff"
       id="path194" />
    <g
       id="g196">
      <use
         xlink:href="#r"
         transform="matrix(1,0,0,1,180,120) translate(27.054999999999993 51.9)"
         id="use198" />
      <use
         xlink:href="#s"
         transform="matrix(1,0,0,1,180,120) translate(22.104999999999997 73.5)"
         id="use200" />
      <use
         xlink:href="#t"
         transform="matrix(1,0,0,1,180,120) translate(71.055 73.5)"
         id="use202" />
    </g>
    <path
       d="M260 241v44"
       stroke="#000"
       stroke-width="2"
       fill="none"
       id="path204" />
    <path
       d="M261 241h-2v-1h2zM261 288h-2v-3h2z"
       id="path206" />
    <path
       d="M260 390v-55"
       stroke="#000"
       stroke-width="2"
       fill="none"
       id="path208" />
    <path
       d="M261 335h-2v-3h2z"
       id="path210" />
    <path
       d="M60 280h240v60H60z"
       fill="none"
       id="path212" />
    <g
       id="g214">
      <use
         xlink:href="#u"
         transform="matrix(1,0,0,1,60,280) translate(83.525 33.6)"
         id="use216" />
    </g>
    <g
       id="g218">
      <path
         d="M260 285v11m-20 14c0 11.05 8.95 20 20 20s20-8.95 20-20m-20 20v5"
         stroke="#000"
         stroke-width="2"
         fill="none"
         id="path220" />
      <path
         d="M274 310c0 7.73-6.27 14-14 14s-14-6.27-14-14 6.27-14 14-14 14 6.27 14 14z"
         stroke="#000"
         stroke-width="2"
         fill="#fff"
         id="path222" />
      <path
         d="M240 310c0 11.05 8.95 20 20 20s20-8.95 20-20-8.95-20-20-20-20 8.95-20 20z"
         fill="none"
         id="path224" />
    </g>
    <defs
       id="defs226">
      <path
         d="M30-248c118-7 216 8 213 122C240-48 200 0 122 0H30v-248zM63-27c89 8 146-16 146-99s-60-101-146-95v194"
         id="v" />
      <path
         d="M160-131c35 5 61 23 61 61C221 17 115-2 30 0v-248c76 3 177-17 177 60 0 33-19 50-47 57zm-97-11c50-1 110 9 110-42 0-47-63-36-110-37v79zm0 115c55-2 124 14 124-45 0-56-70-42-124-44v89"
         id="w" />
      <path
         d="M240 0l2-218c-23 76-54 145-80 218h-23L58-218 59 0H30v-248h44l77 211c21-75 51-140 76-211h43V0h-30"
         id="x" />
      <path
         d="M185-189c-5-48-123-54-124 2 14 75 158 14 163 119 3 78-121 87-175 55-17-10-28-26-33-46l33-7c5 56 141 63 141-1 0-78-155-14-162-118-5-82 145-84 179-34 5 7 8 16 11 25"
         id="y" />
      <g
         id="a">
        <use
           transform="matrix(0.05,0,0,0.05,0,0)"
           xlink:href="#v"
           id="use233" />
        <use
           transform="matrix(0.05,0,0,0.05,12.950000000000001,0)"
           xlink:href="#w"
           id="use235" />
        <use
           transform="matrix(0.05,0,0,0.05,24.950000000000003,0)"
           xlink:href="#x"
           id="use237" />
        <use
           transform="matrix(0.05,0,0,0.05,39.900000000000006,0)"
           xlink:href="#y"
           id="use239" />
      </g>
      <path
         d="M205 0l-28-72H64L36 0H1l101-248h38L239 0h-34zm-38-99l-47-123c-12 45-31 82-46 123h93"
         id="z" />
      <path
         d="M30-248c87 1 191-15 191 75 0 78-77 80-158 76V0H30v-248zm33 125c57 0 124 11 124-50 0-59-68-47-124-48v98"
         id="A" />
      <path
         d="M33 0v-248h34V0H33"
         id="B" />
      <g
         id="b">
        <use
           transform="matrix(0.05,0,0,0.05,0,0)"
           xlink:href="#z"
           id="use245" />
        <use
           transform="matrix(0.05,0,0,0.05,12,0)"
           xlink:href="#A"
           id="use247" />
        <use
           transform="matrix(0.05,0,0,0.05,24,0)"
           xlink:href="#B"
           id="use249" />
      </g>
      <path
         d="M212-179c-10-28-35-45-73-45-59 0-87 40-87 99 0 60 29 101 89 101 43 0 62-24 78-52l27 14C228-24 195 4 139 4 59 4 22-46 18-125c-6-104 99-153 187-111 19 9 31 26 39 46"
         id="C" />
      <path
         d="M137 0h-34L2-248h35l83 218 83-218h36"
         id="D" />
      <path
         d="M141-36C126-15 110 5 73 4 37 3 15-17 15-53c-1-64 63-63 125-63 3-35-9-54-41-54-24 1-41 7-42 31l-33-3c5-37 33-52 76-52 45 0 72 20 72 64v82c-1 20 7 32 28 27v20c-31 9-61-2-59-35zM48-53c0 20 12 33 32 33 41-3 63-29 60-74-43 2-92-5-92 41"
         id="E" />
      <path
         d="M24 0v-261h32V0H24"
         id="F" />
      <path
         d="M24-231v-30h32v30H24zM24 0v-190h32V0H24"
         id="G" />
      <path
         d="M85-194c31 0 48 13 60 33l-1-100h32l1 261h-30c-2-10 0-23-3-31C134-8 116 4 85 4 32 4 16-35 15-94c0-66 23-100 70-100zm9 24c-40 0-46 34-46 75 0 40 6 74 45 74 42 0 51-32 51-76 0-42-9-74-50-73"
         id="H" />
      <path
         d="M59-47c-2 24 18 29 38 22v24C64 9 27 4 27-40v-127H5v-23h24l9-43h21v43h35v23H59v120"
         id="I" />
      <path
         d="M100-194c62-1 85 37 85 99 1 63-27 99-86 99S16-35 15-95c0-66 28-99 85-99zM99-20c44 1 53-31 53-75 0-43-8-75-51-75s-53 32-53 75 10 74 51 75"
         id="J" />
      <path
         d="M114-163C36-179 61-72 57 0H25l-1-190h30c1 12-1 29 2 39 6-27 23-49 58-41v29"
         id="K" />
      <path
         d="M117-194c89-4 53 116 60 194h-32v-121c0-31-8-49-39-48C34-167 62-67 57 0H25l-1-190h30c1 10-1 24 2 32 11-22 29-35 61-36"
         id="L" />
      <g
         id="c">
        <use
           transform="matrix(0.05,0,0,0.05,0,0)"
           xlink:href="#C"
           id="use262" />
        <use
           transform="matrix(0.05,0,0,0.05,12.950000000000001,0)"
           xlink:href="#C"
           id="use264" />
        <use
           transform="matrix(0.05,0,0,0.05,25.900000000000002,0)"
           xlink:href="#D"
           id="use266" />
        <use
           transform="matrix(0.05,0,0,0.05,36.55,0)"
           xlink:href="#E"
           id="use268" />
        <use
           transform="matrix(0.05,0,0,0.05,46.55,0)"
           xlink:href="#F"
           id="use270" />
        <use
           transform="matrix(0.05,0,0,0.05,50.5,0)"
           xlink:href="#G"
           id="use272" />
        <use
           transform="matrix(0.05,0,0,0.05,54.45,0)"
           xlink:href="#H"
           id="use274" />
        <use
           transform="matrix(0.05,0,0,0.05,64.45,0)"
           xlink:href="#E"
           id="use276" />
        <use
           transform="matrix(0.05,0,0,0.05,74.45,0)"
           xlink:href="#I"
           id="use278" />
        <use
           transform="matrix(0.05,0,0,0.05,79.45,0)"
           xlink:href="#J"
           id="use280" />
        <use
           transform="matrix(0.05,0,0,0.05,89.45,0)"
           xlink:href="#K"
           id="use282" />
        <use
           transform="matrix(0.05,0,0,0.05,95.4,0)"
           xlink:href="#B"
           id="use284" />
        <use
           transform="matrix(0.05,0,0,0.05,100.4,0)"
           xlink:href="#L"
           id="use286" />
        <use
           transform="matrix(0.05,0,0,0.05,110.4,0)"
           xlink:href="#I"
           id="use288" />
      </g>
      <path
         d="M30 0v-248h33v221h125V0H30"
         id="M" />
      <g
         id="d">
        <use
           transform="matrix(0.05,0,0,0.05,0,0)"
           xlink:href="#v"
           id="use292" />
        <use
           transform="matrix(0.05,0,0,0.05,12.950000000000001,0)"
           xlink:href="#M"
           id="use294" />
        <use
           transform="matrix(0.05,0,0,0.05,21.6,0)"
           xlink:href="#D"
           id="use296" />
        <use
           transform="matrix(0.05,0,0,0.05,32.25,0)"
           xlink:href="#E"
           id="use298" />
        <use
           transform="matrix(0.05,0,0,0.05,42.25,0)"
           xlink:href="#F"
           id="use300" />
        <use
           transform="matrix(0.05,0,0,0.05,46.2,0)"
           xlink:href="#G"
           id="use302" />
        <use
           transform="matrix(0.05,0,0,0.05,50.150000000000006,0)"
           xlink:href="#H"
           id="use304" />
        <use
           transform="matrix(0.05,0,0,0.05,60.150000000000006,0)"
           xlink:href="#E"
           id="use306" />
        <use
           transform="matrix(0.05,0,0,0.05,70.15,0)"
           xlink:href="#I"
           id="use308" />
        <use
           transform="matrix(0.05,0,0,0.05,75.15,0)"
           xlink:href="#J"
           id="use310" />
        <use
           transform="matrix(0.05,0,0,0.05,85.15,0)"
           xlink:href="#K"
           id="use312" />
        <use
           transform="matrix(0.05,0,0,0.05,91.10000000000001,0)"
           xlink:href="#B"
           id="use314" />
        <use
           transform="matrix(0.05,0,0,0.05,96.10000000000001,0)"
           xlink:href="#L"
           id="use316" />
        <use
           transform="matrix(0.05,0,0,0.05,106.10000000000001,0)"
           xlink:href="#I"
           id="use318" />
      </g>
      <g
         id="e">
        <use
           transform="matrix(0.05,0,0,0.05,0,0)"
           xlink:href="#C"
           id="use321" />
        <use
           transform="matrix(0.05,0,0,0.05,12.950000000000001,0)"
           xlink:href="#E"
           id="use323" />
        <use
           transform="matrix(0.05,0,0,0.05,22.950000000000003,0)"
           xlink:href="#K"
           id="use325" />
        <use
           transform="matrix(0.05,0,0,0.05,28.900000000000002,0)"
           xlink:href="#B"
           id="use327" />
        <use
           transform="matrix(0.05,0,0,0.05,33.900000000000006,0)"
           xlink:href="#L"
           id="use329" />
        <use
           transform="matrix(0.05,0,0,0.05,43.900000000000006,0)"
           xlink:href="#I"
           id="use331" />
      </g>
      <path
         d="M179-190L93 31C79 59 56 82 12 73V49c39 6 53-20 64-50L1-190h34L92-34l54-156h33"
         id="N" />
      <path
         d="M210-169c-67 3-38 105-44 169h-31v-121c0-29-5-50-35-48C34-165 62-65 56 0H25l-1-190h30c1 10-1 24 2 32 10-44 99-50 107 0 11-21 27-35 58-36 85-2 47 119 55 194h-31v-121c0-29-5-49-35-48"
         id="O" />
      <path
         d="M100-194c63 0 86 42 84 106H49c0 40 14 67 53 68 26 1 43-12 49-29l28 8c-11 28-37 45-77 45C44 4 14-33 15-96c1-61 26-98 85-98zm52 81c6-60-76-77-97-28-3 7-6 17-6 28h103"
         id="P" />
      <g
         id="f">
        <use
           transform="matrix(0.05,0,0,0.05,0,0)"
           xlink:href="#A"
           id="use337" />
        <use
           transform="matrix(0.05,0,0,0.05,12,0)"
           xlink:href="#E"
           id="use339" />
        <use
           transform="matrix(0.05,0,0,0.05,22,0)"
           xlink:href="#N"
           id="use341" />
        <use
           transform="matrix(0.05,0,0,0.05,31,0)"
           xlink:href="#O"
           id="use343" />
        <use
           transform="matrix(0.05,0,0,0.05,45.95,0)"
           xlink:href="#P"
           id="use345" />
        <use
           transform="matrix(0.05,0,0,0.05,55.95,0)"
           xlink:href="#L"
           id="use347" />
        <use
           transform="matrix(0.05,0,0,0.05,65.95,0)"
           xlink:href="#I"
           id="use349" />
        <use
           transform="matrix(0.05,0,0,0.05,70.95,0)"
           xlink:href="#B"
           id="use351" />
        <use
           transform="matrix(0.05,0,0,0.05,75.95,0)"
           xlink:href="#L"
           id="use353" />
        <use
           transform="matrix(0.05,0,0,0.05,85.95,0)"
           xlink:href="#I"
           id="use355" />
      </g>
      <g
         id="g">
        <use
           transform="matrix(0.05,0,0,0.05,0,0)"
           xlink:href="#C"
           id="use358" />
        <use
           transform="matrix(0.05,0,0,0.05,12.950000000000001,0)"
           xlink:href="#F"
           id="use360" />
        <use
           transform="matrix(0.05,0,0,0.05,16.900000000000002,0)"
           xlink:href="#G"
           id="use362" />
        <use
           transform="matrix(0.05,0,0,0.05,20.85,0)"
           xlink:href="#P"
           id="use364" />
        <use
           transform="matrix(0.05,0,0,0.05,30.85,0)"
           xlink:href="#L"
           id="use366" />
        <use
           transform="matrix(0.05,0,0,0.05,40.85,0)"
           xlink:href="#I"
           id="use368" />
      </g>
      <g
         id="h">
        <use
           transform="matrix(0.05,0,0,0.05,0,0)"
           xlink:href="#v"
           id="use371" />
        <use
           transform="matrix(0.05,0,0,0.05,12.950000000000001,0)"
           xlink:href="#w"
           id="use373" />
        <use
           transform="matrix(0.05,0,0,0.05,24.950000000000003,0)"
           xlink:href="#x"
           id="use375" />
        <use
           transform="matrix(0.05,0,0,0.05,39.900000000000006,0)"
           xlink:href="#y"
           id="use377" />
      </g>
      <g
         id="i">
        <use
           transform="matrix(0.05,0,0,0.05,0,0)"
           xlink:href="#C"
           id="use380" />
        <use
           transform="matrix(0.05,0,0,0.05,12.950000000000001,0)"
           xlink:href="#E"
           id="use382" />
        <use
           transform="matrix(0.05,0,0,0.05,22.950000000000003,0)"
           xlink:href="#K"
           id="use384" />
      </g>
      <path
         d="M18-100v-36l175-74v27L42-118l151 64v27"
         id="Q" />
      <path
         d="M141 0L90-78 38 0H4l68-98-65-92h35l48 74 47-74h35l-64 92 68 98h-35"
         id="R" />
      <path
         d="M18-27v-27l151-64-151-65v-27l175 74v36"
         id="S" />
      <g
         id="j">
        <use
           transform="matrix(0.05,0,0,0.05,0,0)"
           xlink:href="#Q"
           id="use390" />
        <use
           transform="matrix(0.05,0,0,0.05,10.5,0)"
           xlink:href="#Q"
           id="use392" />
        <use
           transform="matrix(0.05,0,0,0.05,21,0)"
           xlink:href="#P"
           id="use394" />
        <use
           transform="matrix(0.05,0,0,0.05,31,0)"
           xlink:href="#R"
           id="use396" />
        <use
           transform="matrix(0.05,0,0,0.05,40,0)"
           xlink:href="#I"
           id="use398" />
        <use
           transform="matrix(0.05,0,0,0.05,45,0)"
           xlink:href="#P"
           id="use400" />
        <use
           transform="matrix(0.05,0,0,0.05,55,0)"
           xlink:href="#K"
           id="use402" />
        <use
           transform="matrix(0.05,0,0,0.05,60.95,0)"
           xlink:href="#L"
           id="use404" />
        <use
           transform="matrix(0.05,0,0,0.05,70.95,0)"
           xlink:href="#E"
           id="use406" />
        <use
           transform="matrix(0.05,0,0,0.05,80.95,0)"
           xlink:href="#F"
           id="use408" />
        <use
           transform="matrix(0.05,0,0,0.05,84.9,0)"
           xlink:href="#S"
           id="use410" />
        <use
           transform="matrix(0.05,0,0,0.05,95.4,0)"
           xlink:href="#S"
           id="use412" />
      </g>
      <g
         id="k">
        <use
           transform="matrix(0.05,0,0,0.05,0,0)"
           xlink:href="#A"
           id="use415" />
        <use
           transform="matrix(0.05,0,0,0.05,12,0)"
           xlink:href="#E"
           id="use417" />
        <use
           transform="matrix(0.05,0,0,0.05,22,0)"
           xlink:href="#N"
           id="use419" />
        <use
           transform="matrix(0.05,0,0,0.05,31,0)"
           xlink:href="#O"
           id="use421" />
        <use
           transform="matrix(0.05,0,0,0.05,45.95,0)"
           xlink:href="#P"
           id="use423" />
        <use
           transform="matrix(0.05,0,0,0.05,55.95,0)"
           xlink:href="#L"
           id="use425" />
        <use
           transform="matrix(0.05,0,0,0.05,65.95,0)"
           xlink:href="#I"
           id="use427" />
      </g>
      <path
         d="M197 0v-115H63V0H30v-248h33v105h134v-105h34V0h-34"
         id="T" />
      <g
         id="l">
        <use
           transform="matrix(0.05,0,0,0.05,0,0)"
           xlink:href="#T"
           id="use431" />
        <use
           transform="matrix(0.05,0,0,0.05,12.950000000000001,0)"
           xlink:href="#E"
           id="use433" />
        <use
           transform="matrix(0.05,0,0,0.05,22.950000000000003,0)"
           xlink:href="#L"
           id="use435" />
        <use
           transform="matrix(0.05,0,0,0.05,32.95,0)"
           xlink:href="#H"
           id="use437" />
        <use
           transform="matrix(0.05,0,0,0.05,42.95,0)"
           xlink:href="#F"
           id="use439" />
        <use
           transform="matrix(0.05,0,0,0.05,46.900000000000006,0)"
           xlink:href="#P"
           id="use441" />
        <use
           transform="matrix(0.05,0,0,0.05,56.900000000000006,0)"
           xlink:href="#K"
           id="use443" />
      </g>
      <g
         id="m">
        <use
           transform="matrix(0.05,0,0,0.05,0,0)"
           xlink:href="#C"
           id="use446" />
        <use
           transform="matrix(0.05,0,0,0.05,12.950000000000001,0)"
           xlink:href="#C"
           id="use448" />
      </g>
      <g
         id="n">
        <use
           transform="matrix(0.05,0,0,0.05,0,0)"
           xlink:href="#D"
           id="use451" />
        <use
           transform="matrix(0.05,0,0,0.05,10.65,0)"
           xlink:href="#E"
           id="use453" />
        <use
           transform="matrix(0.05,0,0,0.05,20.65,0)"
           xlink:href="#F"
           id="use455" />
        <use
           transform="matrix(0.05,0,0,0.05,24.599999999999998,0)"
           xlink:href="#G"
           id="use457" />
        <use
           transform="matrix(0.05,0,0,0.05,28.549999999999997,0)"
           xlink:href="#H"
           id="use459" />
        <use
           transform="matrix(0.05,0,0,0.05,38.55,0)"
           xlink:href="#E"
           id="use461" />
        <use
           transform="matrix(0.05,0,0,0.05,48.55,0)"
           xlink:href="#I"
           id="use463" />
        <use
           transform="matrix(0.05,0,0,0.05,53.54999999999999,0)"
           xlink:href="#J"
           id="use465" />
        <use
           transform="matrix(0.05,0,0,0.05,63.54999999999999,0)"
           xlink:href="#K"
           id="use467" />
      </g>
      <g
         id="o">
        <use
           transform="matrix(0.05,0,0,0.05,0,0)"
           xlink:href="#v"
           id="use470" />
        <use
           transform="matrix(0.05,0,0,0.05,12.950000000000001,0)"
           xlink:href="#M"
           id="use472" />
      </g>
      <path
         d="M108 0H70L1-190h34L89-25l56-165h34"
         id="U" />
      <g
         id="p">
        <use
           transform="matrix(0.05,0,0,0.05,0,0)"
           xlink:href="#y"
           id="use476" />
        <use
           transform="matrix(0.05,0,0,0.05,12,0)"
           xlink:href="#P"
           id="use478" />
        <use
           transform="matrix(0.05,0,0,0.05,22,0)"
           xlink:href="#K"
           id="use480" />
        <use
           transform="matrix(0.05,0,0,0.05,27.950000000000003,0)"
           xlink:href="#U"
           id="use482" />
        <use
           transform="matrix(0.05,0,0,0.05,36.95,0)"
           xlink:href="#P"
           id="use484" />
        <use
           transform="matrix(0.05,0,0,0.05,46.95,0)"
           xlink:href="#K"
           id="use486" />
      </g>
      <g
         id="q">
        <use
           transform="matrix(0.05,0,0,0.05,0,0)"
           xlink:href="#C"
           id="use489" />
        <use
           transform="matrix(0.05,0,0,0.05,12.950000000000001,0)"
           xlink:href="#F"
           id="use491" />
        <use
           transform="matrix(0.05,0,0,0.05,16.900000000000002,0)"
           xlink:href="#G"
           id="use493" />
        <use
           transform="matrix(0.05,0,0,0.05,20.85,0)"
           xlink:href="#P"
           id="use495" />
        <use
           transform="matrix(0.05,0,0,0.05,30.85,0)"
           xlink:href="#L"
           id="use497" />
        <use
           transform="matrix(0.05,0,0,0.05,40.85,0)"
           xlink:href="#I"
           id="use499" />
        <use
           transform="matrix(0.05,0,0,0.05,45.85,0)"
           xlink:href="#B"
           id="use501" />
        <use
           transform="matrix(0.05,0,0,0.05,50.85,0)"
           xlink:href="#L"
           id="use503" />
        <use
           transform="matrix(0.05,0,0,0.05,60.85,0)"
           xlink:href="#I"
           id="use505" />
      </g>
      <g
         id="r">
        <use
           transform="matrix(0.05,0,0,0.05,0,0)"
           xlink:href="#Q"
           id="use508" />
        <use
           transform="matrix(0.05,0,0,0.05,10.5,0)"
           xlink:href="#Q"
           id="use510" />
        <use
           transform="matrix(0.05,0,0,0.05,21,0)"
           xlink:href="#P"
           id="use512" />
        <use
           transform="matrix(0.05,0,0,0.05,31,0)"
           xlink:href="#R"
           id="use514" />
        <use
           transform="matrix(0.05,0,0,0.05,40,0)"
           xlink:href="#I"
           id="use516" />
        <use
           transform="matrix(0.05,0,0,0.05,45,0)"
           xlink:href="#P"
           id="use518" />
        <use
           transform="matrix(0.05,0,0,0.05,55,0)"
           xlink:href="#K"
           id="use520" />
        <use
           transform="matrix(0.05,0,0,0.05,60.95,0)"
           xlink:href="#L"
           id="use522" />
        <use
           transform="matrix(0.05,0,0,0.05,70.95,0)"
           xlink:href="#E"
           id="use524" />
        <use
           transform="matrix(0.05,0,0,0.05,80.95,0)"
           xlink:href="#F"
           id="use526" />
        <use
           transform="matrix(0.05,0,0,0.05,84.9,0)"
           xlink:href="#S"
           id="use528" />
        <use
           transform="matrix(0.05,0,0,0.05,95.4,0)"
           xlink:href="#S"
           id="use530" />
      </g>
      <path
         d="M115-194c55 1 70 41 70 98S169 2 115 4C84 4 66-9 55-30l1 105H24l-1-265h31l2 30c10-21 28-34 59-34zm-8 174c40 0 45-34 45-75s-6-73-45-74c-42 0-51 32-51 76 0 43 10 73 51 73"
         id="V" />
      <path
         d="M135-143c-3-34-86-38-87 0 15 53 115 12 119 90S17 21 10-45l28-5c4 36 97 45 98 0-10-56-113-15-118-90-4-57 82-63 122-42 12 7 21 19 24 35"
         id="W" />
      <g
         id="s">
        <use
           transform="matrix(0.05,0,0,0.05,0,0)"
           xlink:href="#x"
           id="use535" />
        <use
           transform="matrix(0.05,0,0,0.05,14.950000000000001,0)"
           xlink:href="#E"
           id="use537" />
        <use
           transform="matrix(0.05,0,0,0.05,24.950000000000003,0)"
           xlink:href="#V"
           id="use539" />
        <use
           transform="matrix(0.05,0,0,0.05,34.95,0)"
           xlink:href="#W"
           id="use541" />
      </g>
      <g
         id="t">
        <use
           transform="matrix(0.05,0,0,0.05,0,0)"
           xlink:href="#A"
           id="use544" />
        <use
           transform="matrix(0.05,0,0,0.05,12,0)"
           xlink:href="#K"
           id="use546" />
        <use
           transform="matrix(0.05,0,0,0.05,17.95,0)"
           xlink:href="#J"
           id="use548" />
        <use
           transform="matrix(0.05,0,0,0.05,27.950000000000003,0)"
           xlink:href="#U"
           id="use550" />
        <use
           transform="matrix(0.05,0,0,0.05,36.95,0)"
           xlink:href="#G"
           id="use552" />
        <use
           transform="matrix(0.05,0,0,0.05,40.900000000000006,0)"
           xlink:href="#H"
           id="use554" />
        <use
           transform="matrix(0.05,0,0,0.05,50.900000000000006,0)"
           xlink:href="#P"
           id="use556" />
        <use
           transform="matrix(0.05,0,0,0.05,60.900000000000006,0)"
           xlink:href="#K"
           id="use558" />
      </g>
      <g
         id="u">
        <use
           transform="matrix(0.05,0,0,0.05,0,0)"
           xlink:href="#x"
           id="use561" />
        <use
           transform="matrix(0.05,0,0,0.05,14.950000000000001,0)"
           xlink:href="#E"
           id="use563" />
        <use
           transform="matrix(0.05,0,0,0.05,24.950000000000003,0)"
           xlink:href="#V"
           id="use565" />
        <use
           transform="matrix(0.05,0,0,0.05,34.95,0)"
           xlink:href="#W"
           id="use567" />
        <use
           transform="matrix(0.05,0,0,0.05,43.95,0)"
           xlink:href="#z"
           id="use569" />
        <use
           transform="matrix(0.05,0,0,0.05,55.95,0)"
           xlink:href="#A"
           id="use571" />
        <use
           transform="matrix(0.05,0,0,0.05,67.95,0)"
           xlink:href="#B"
           id="use573" />
      </g>
    </defs>
  </g>
</svg>
