<svg xmlns="http://www.w3.org/2000/svg" xmlns:xlink="http://www.w3.org/1999/xlink" width="3460" height="1540"><g transform="translate(-260 -460)"><path d="M0 0h1760v1360H0z" fill="#fff"/><path d="M400 1601c0 16.57-13.43 30-30 30s-30-13.43-30-30 13.43-30 30-30 30 13.43 30 30z" stroke="#666" stroke-width="2" fill="#fff"/><use xlink:href="#a" transform="matrix(1,0,0,1,340,1631) translate(30 15.4)"/><path d="M285 1440c-2.76 0-5-2.24-5-5V815c0-2.76 2.24-5 5-5h30c2.76 0 5 2.24 5 5v620c0 2.76-2.24 5-5 5z" fill="#fff"/><path d="M3700 1440H285c-2.76 0-5-2.24-5-5V815c0-2.76 2.24-5 5-5h3410c2.76 0 5 2.24 5 5zm-3380 0V810m0 210h3380" stroke="#666" stroke-width="2" fill="none"/><use xlink:href="#b" transform="matrix(6.123233995736766e-17,-1,1,6.123233995736766e-17,279.9999999999999,1439.9999999999998) translate(267.075 23.6)"/><use xlink:href="#c" transform="matrix(6.123233995736766e-17,-1,1,6.123233995736766e-17,319.9999999999999,1020) translate(90.55 23.6)"/><use xlink:href="#d" transform="matrix(6.123233995736766e-17,-1,1,6.123233995736766e-17,319.9999999999999,1439.9999999999998) translate(180.025 23.6)"/><path d="M285 1980c-2.76 0-5-2.24-5-5v-530c0-2.76 2.24-5 5-5h30c2.76 0 5 2.24 5 5v530c0 2.76-2.24 5-5 5z" fill="#fff"/><path d="M3700 1980H285c-2.76 0-5-2.24-5-5v-530c0-2.76 2.24-5 5-5h3410c2.76 0 5 2.24 5 5zm-3380 0v-540" stroke="#666" stroke-width="2" fill="none"/><use xlink:href="#e" transform="matrix(6.123233995736766e-17,-1,1,6.123233995736766e-17,279.9999999999999,1980) translate(224.075 23.6)"/><use xlink:href="#f" transform="matrix(6.123233995736766e-17,-1,1,6.123233995736766e-17,279.9999999999999,1980) translate(278.025 23.6)"/><use xlink:href="#a" transform="matrix(6.123233995736766e-17,-1,1,6.123233995736766e-17,319.9999999999999,1980) translate(270 25.4)"/><path d="M500 1546c0-2.76 2.24-5 5-5h150c2.76 0 5 2.24 5 5v110c0 2.76-2.24 5-5 5H505c-2.76 0-5-2.24-5-5z" stroke="#666" stroke-width="2" fill="#fff"/><path d="M508.6 1556.7h35v20h-35z" stroke="#666" stroke-width="2"/><path d="M508.6 1556.7l17.5 10 17.5-10" stroke="#fff" stroke-width="2" fill="none"/><use xlink:href="#g" transform="matrix(1,0,0,1,500,1541) translate(35.07999999999999 63.15)"/><use xlink:href="#h" transform="matrix(1,0,0,1,500,1541) translate(99.98 63.15)"/><path d="M540 1105c0-2.76 2.24-5 5-5h150c2.76 0 5 2.24 5 5v110c0 2.76-2.24 5-5 5H545c-2.76 0-5-2.24-5-5z" stroke="#666" stroke-width="2" fill="#fff"/><use xlink:href="#g" transform="matrix(1,0,0,1,540,1100) translate(35.07999999999999 63.15)"/><use xlink:href="#h" transform="matrix(1,0,0,1,540,1100) translate(99.98 63.15)"/><path d="M420 1160c0 16.57-13.43 30-30 30s-30-13.43-30-30 13.43-30 30-30 30 13.43 30 30z" stroke="#666" stroke-width="2" fill="#fff"/><path d="M370 1148.75h40v22.5h-40z" stroke="#666" stroke-width="2" fill="#fff"/><path d="M370 1148.75l20 11.25 20-11.25" stroke="#666" stroke-width="2" fill="none"/><use xlink:href="#a" transform="matrix(1,0,0,1,360,1190) translate(30 15.4)"/><path d="M580 1541v-170c0-2.76-2.24-5-5-5H395c-2.76 0-5-2.24-5-5v-170" fill="none"/><path d="M580 1541v-10m0-10v-20m0-10v-20m0-10v-20m0-10v-20m0-10v-20m0-10v-2.5c0-1.38-1.12-2.5-2.5-2.5H565m-10 0h-20m-10 0h-20m-10 0h-20m-10 0h-20m-10 0h-20m-10 0h-12.5c-1.38 0-2.5-1.12-2.5-2.5v-2.5m0-10v-20m0-10v-20m0-10v-20m0-10v-20m0-10v-20m0-10v-10" stroke="#999" stroke-width="2" fill="none"/><path d="M394.64 1205.27h-9.28L390 1191z" fill="#999"/><path d="M390 1190l.72-.03 5.3 16.3h-12.03l5.3-16.33zm-3.26 14.27h6.52l-3.26-10.03z" fill="#999"/><path d="M960 1160l37.5-37.5 37.5 37.5-37.5 37.5z" stroke="#666" stroke-width="2" fill="#fff"/><path d="M1020 1160c0 12.43-10.07 22.5-22.5 22.5S975 1172.43 975 1160s10.07-22.5 22.5-22.5 22.5 10.07 22.5 22.5z" stroke="#666" stroke-width="2" fill="none"/><path d="M997.5 1145l-15 11.25 4.5 15h21l4.5-15z" stroke="#666" stroke-width="2" fill="#fff"/><use xlink:href="#a" transform="matrix(1,0,0,1,960,1197.5) translate(37.5 15.4)"/><path d="M700 1160h260" stroke="#999" stroke-width="2" fill="none"/><path d="M960 1160l-14.27 4.64v-9.28z" fill="#999"/><path d="M960.8 1159.2l-.8.8.8.8-16.07 5.2v-12zm-14.07 4.06l10.03-3.26-10.03-3.26z" fill="#999"/><path d="M1240 1100c0 16.57-13.43 30-30 30s-30-13.43-30-30 13.43-30 30-30 30 13.43 30 30z" stroke="#666" stroke-width="2" fill="#fff"/><path d="M1237 1100c0 14.9-12.1 27-27 27s-27-12.1-27-27 12.1-27 27-27 27 12.1 27 27z" stroke="#666" stroke-width="2" fill="#fff"/><path d="M1230 1100c0 11.05-8.95 20-20 20s-20-8.95-20-20 8.95-20 20-20 20 8.95 20 20zm0 0h-4m1.32 10l-3.46-2m-3.86 9.32l-2-3.46m-8 6.14v-4m-10 1.32l2-3.46m-9.32-3.86l3.46-2m-6.14-8h4m-1.32-10l3.46 2m3.86-9.32l2 3.46m8-6.14v4m10-1.32l-2 3.46m9.32 3.86l-3.46 2m-13.86 8v-12m0 12h7" stroke="#666" stroke-width="2" fill="#fff"/><use xlink:href="#i" transform="matrix(1,0,0,1,1180,1130) translate(4.524999999999999 14.4)"/><use xlink:href="#j" transform="matrix(1,0,0,1,1180,1130) translate(19.525 14.4)"/><path d="M1237.5 1190c0 16.57-13.43 30-30 30s-30-13.43-30-30 13.43-30 30-30 30 13.43 30 30z" stroke="#666" stroke-width="2" fill="#fff"/><path d="M1234.5 1190c0 14.9-12.1 27-27 27s-27-12.1-27-27 12.1-27 27-27 27 12.1 27 27z" stroke="#666" stroke-width="2" fill="#fff"/><path d="M1187.5 1178.75h40v22.5h-40z" stroke="#666" stroke-width="2" fill="#fff"/><path d="M1187.5 1178.75l20 11.25 20-11.25" stroke="#666" stroke-width="2" fill="none"/><use xlink:href="#a" transform="matrix(1,0,0,1,1177.5,1220) translate(30 15.4)"/><path d="M997.5 1122.5V1105c0-2.76 2.24-5 5-5H1180" stroke="#999" stroke-width="2" fill="none"/><path d="M998.5 1123.5l-1-1-1 1v-1h2zM1180 1100l-14.27 4.64v-9.28z" fill="#999"/><path d="M1180.1 1098.98l-.1 1.02.04 1.04-15.3 4.97v-12zm-13.37 4.28l10.03-3.26-10.03-3.26z" fill="#999"/><path d="M1035 1160h66.25c2.76 0 5 2.24 5 5v20c0 2.76 2.24 5 5 5h66.25" stroke="#999" stroke-width="2" fill="none"/><path d="M1035 1161h-1l1-1-1-1h1zM1177.5 1190l-14.27 4.64v-9.28z" fill="#999"/><path d="M1177.6 1188.98l-.1 1.02.04 1.04-15.3 4.97v-12zm-13.37 4.28l10.03-3.26-10.03-3.26z" fill="#999"/><path d="M780 1600l37.5-37.5L855 1600l-37.5 37.5z" stroke="#666" stroke-width="2" fill="#fff"/><path d="M802.5 1585l30 30m-30 0l30-30" stroke="#666" stroke-width="4" fill="none"/><use xlink:href="#a" transform="matrix(1,0,0,1,780,1637.5) translate(37.5 15.4)"/><path d="M755 1600.5h12.25c.14 0 .25-.1.25-.25 0-.14.1-.25.25-.25H780" stroke="#999" stroke-width="2" fill="none"/><path d="M755.03 1601.5l-1.07.04 1.04-1.04-.97-.97.94-.03zM780 1600l-14.1 5.12-.32-9.26z" fill="#999"/><path d="M780.8 1599.2l-.8.8.78.78-15.83 5.75-.4-12zm-13.95 4.5l9.92-3.6-10.14-2.9z" fill="#999"/><path d="M660 1601h9.75c.14 0 .25-.1.25-.25 0-.14.1-.25.25-.25H680" stroke="#999" stroke-width="2" fill="none"/><path d="M660.03 1602H660v-1zM680 1600.5l-14.1 5.12-.32-9.26z" fill="#999"/><path d="M680.8 1599.7l-.8.8.78.78-15.83 5.75-.4-12zm-13.95 4.5l9.92-3.6-10.14-2.9z" fill="#999"/><path d="M1238 1520c0 16.57-13.43 30-30 30s-30-13.43-30-30 13.43-30 30-30 30 13.43 30 30z" stroke="#666" stroke-width="6" fill="#fff"/><path d="M1188 1508.75h40v22.5h-40z" stroke="#666" stroke-width="2"/><path d="M1188 1508.75l20 11.25 20-11.25" stroke="#fff" stroke-width="2" fill="none"/><use xlink:href="#a" transform="matrix(1,0,0,1,1178,1550) translate(30 15.4)"/><path d="M817.5 1562.5V1525c0-2.76 2.24-5 5-5h114" stroke="#999" stroke-width="2" fill="none"/><path d="M818.5 1563.5l-1-1-1 1v-1h2zM936.5 1520l-14.27 4.64v-9.28z" fill="#999"/><path d="M936.5 1518.95v2.1l-15.27 4.96v-12zm-13.27 4.3l10.03-3.25-10.03-3.26z" fill="#999"/><path d="M1096.5 1520h81.5" stroke="#999" stroke-width="2" fill="none"/><path d="M1178 1520l-14.27 4.64v-9.28z" fill="#999"/><path d="M1178.1 1518.98l-.1 1.02.04 1.04-15.3 4.97v-12zm-13.37 4.28l10.03-3.26-10.03-3.26z" fill="#999"/><path d="M936.5 1465c0-2.76 2.24-5 5-5h150c2.76 0 5 2.24 5 5v110c0 2.76-2.24 5-5 5h-150c-2.76 0-5-2.24-5-5z" stroke="#666" stroke-width="2" fill="#fff"/><use xlink:href="#k" transform="matrix(1,0,0,1,936.5,1460) translate(8.604999999999999 63.15)"/><use xlink:href="#l" transform="matrix(1,0,0,1,936.5,1460) translate(62.555 63.15)"/><path d="M1208 1490v-134.75c0-.14-.1-.25-.25-.25-.14 0-.25-.1-.25-.25V1220" fill="none"/><path d="M1208 1490v-10.02m0-10.02v-20.03m0-10.02v-20.03m0-10.02v-20.04m0-10v-20.04m-.5-9.52v-20.04m0-10v-20.05m0-10.02v-20.04m0-10.03v-20.03m0-10.02V1220" stroke="#999" stroke-width="2" fill="none"/><path d="M1209 1490.08l-1-.08-1 .04v-.04h2zM1212.14 1234.27h-9.28l4.64-14.27z" fill="#999"/><path d="M1207.5 1220l1.04-.04 4.97 15.3h-12l4.98-15.35zm-3.26 13.27h6.52l-3.26-10.03z" fill="#999"/><path d="M1500 1045c0-2.76 2.24-5 5-5h150c2.76 0 5 2.24 5 5v110c0 2.76-2.24 5-5 5h-150c-2.76 0-5-2.24-5-5z" stroke="#666" stroke-width="2" fill="#fff"/><use xlink:href="#k" transform="matrix(1,0,0,1,1500,1040) translate(13.604999999999999 63.15)"/><use xlink:href="#m" transform="matrix(1,0,0,1,1500,1040) translate(67.555 63.15)"/><path d="M1240 1100h40" stroke="#999" stroke-width="2" fill="none"/><path d="M1240 1101h-.08l.08-1-.04-1h.04zM1280 1100l-14.27 4.64v-9.28z" fill="#999"/><path d="M1280.1 1098.98l-.1 1.02.04 1.04-15.3 4.97v-12zm-13.37 4.28l10.03-3.26-10.03-3.26z" fill="#999"/><path d="M1340 1100h52.5" stroke="#999" stroke-width="2" fill="none"/><path d="M1340 1101h-.08l.08-1-.04-1h.04zM1392.5 1100l-14.27 4.64v-9.28z" fill="#999"/><path d="M1393.3 1099.2l-.8.8.8.8-16.07 5.2v-12zm-14.07 4.06l10.03-3.26-10.03-3.26z" fill="#999"/><path d="M1467.5 1100h32.5" stroke="#999" stroke-width="2" fill="none"/><path d="M1467.5 1101h-1l1-1-1-1h1zM1500 1100l-14.27 4.64v-9.28z" fill="#999"/><path d="M1500 1098.95v2.1l-15.27 4.96v-12zm-13.27 4.3l10.03-3.25-10.03-3.26z" fill="#999"/><path d="M1340 1100c0 16.57-13.43 30-30 30s-30-13.43-30-30 13.43-30 30-30 30 13.43 30 30z" stroke="#666" stroke-width="2" fill="#fff"/><path d="M1337 1100c0 14.9-12.1 27-27 27s-27-12.1-27-27 12.1-27 27-27 27 12.1 27 27z" stroke="#666" stroke-width="2" fill="#fff"/><path d="M1290 1088.75h40v22.5h-40z" stroke="#666" stroke-width="2"/><path d="M1290 1088.75l20 11.25 20-11.25" stroke="#fff" stroke-width="2" fill="none"/><use xlink:href="#a" transform="matrix(1,0,0,1,1280,1130) translate(30 15.4)"/><path d="M1392.5 1100l37.5-37.5 37.5 37.5-37.5 37.5z" stroke="#666" stroke-width="2" fill="#fff"/><path d="M1415 1085l30 30m-30 0l30-30" stroke="#666" stroke-width="4" fill="none"/><use xlink:href="#a" transform="matrix(1,0,0,1,1392.5,1137.5) translate(37.5 15.4)"/><path d="M1237.5 1190H1425c2.76 0 5-2.24 5-5v-47.5" stroke="#999" stroke-width="2" fill="none"/><path d="M1237.5 1191h-.08l.08-1-.04-1h.04zM1434.64 1151.77h-9.28l4.64-14.27z" fill="#999"/><path d="M1436 1152.77h-12l5.2-16.06.8.8.8-.8zm-9.26-2h6.52l-3.26-10.03z" fill="#999"/><path d="M1260 1545c0-2.76 2.24-5 5-5h150c2.76 0 5 2.24 5 5v110c0 2.76-2.24 5-5 5h-150c-2.76 0-5-2.24-5-5z" stroke="#666" stroke-width="2" fill="#fff"/><path d="M1268.6 1555.7h35v20h-35z" stroke="#666" stroke-width="2"/><path d="M1268.6 1555.7l17.5 10 17.5-10" stroke="#fff" stroke-width="2" fill="none"/><use xlink:href="#n" transform="matrix(1,0,0,1,1260,1540) translate(39.055 63.15)"/><use xlink:href="#h" transform="matrix(1,0,0,1,1260,1540) translate(96.005 63.15)"/><path d="M855 1600h405" stroke="#999" stroke-width="2" fill="none"/><path d="M855 1601h-1l1-1-1-1h1zM1260 1600l-14.27 4.64v-9.28z" fill="#999"/><path d="M1260 1598.95v2.1l-15.27 4.96v-12zm-13.27 4.3l10.03-3.25-10.03-3.26z" fill="#999"/><path d="M1370 1250c0 16.57-13.43 30-30 30s-30-13.43-30-30 13.43-30 30-30 30 13.43 30 30z" stroke="#666" stroke-width="2" fill="#fff"/><path d="M1367 1250c0 14.9-12.1 27-27 27s-27-12.1-27-27 12.1-27 27-27 27 12.1 27 27z" stroke="#666" stroke-width="2" fill="#fff"/><path d="M1320 1238.75h40v22.5h-40z" stroke="#666" stroke-width="2" fill="#fff"/><path d="M1320 1238.75l20 11.25 20-11.25" stroke="#666" stroke-width="2" fill="none"/><use xlink:href="#a" transform="matrix(1,0,0,1,1310,1280) translate(30 15.4)"/><path d="M997.5 1197.5v47.5c0 2.76 2.24 5 5 5H1310" stroke="#999" stroke-width="2" fill="none"/><path d="M997.5 1197.5h-1v-1zm1 0h-1l1-1zM1310 1250l-14.27 4.64v-9.28z" fill="#999"/><path d="M1310.1 1248.98l-.1 1.02.04 1.04-15.3 4.97v-12zm-13.37 4.28l10.03-3.26-10.03-3.26z" fill="#999"/><path d="M1340 1540v-259" fill="none"/><path d="M1340 1540v-9.6m0-9.6v-19.17m0-9.6v-19.18m0-9.6v-19.18m0-9.6v-19.17m0-9.6v-19.18m0-9.6v-19.18m0-9.6v-19.18m0-9.6v-19.17m0-9.6v-9.6" stroke="#999" stroke-width="2" fill="none"/><path d="M1344.64 1295.27h-9.28L1340 1281z" fill="#999"/><path d="M1340 1280l.72-.03 5.3 16.3h-12.03l5.3-16.33zm-3.26 14.27h6.52l-3.26-10.03z" fill="#999"/><path d="M1752.5 1100c0 16.57-13.43 30-30 30s-30-13.43-30-30 13.43-30 30-30 30 13.43 30 30z" stroke="#666" stroke-width="6" fill="#fff"/><use xlink:href="#a" transform="matrix(1,0,0,1,1692.5,1130) translate(30 15.4)"/><path d="M1660 1100h29.5" stroke="#999" stroke-width="2" fill="none"/><path d="M1689.5 1100l-14.27 4.64v-9.28z" fill="#999"/><path d="M1692.5 1099.93V1100.08l-18.27 5.93v-12zm-16.27 3.33l10.03-3.26-10.03-3.26z" fill="#999"/><path d="M1880 860c0-2.76 2.24-5 5-5h150c2.76 0 5 2.24 5 5v110c0 2.76-2.24 5-5 5h-150c-2.76 0-5-2.24-5-5z" stroke="#666" stroke-width="2" fill="#fff"/><use xlink:href="#o" transform="matrix(1,0,0,1,1880,855) translate(54.029999999999994 63.15)"/><path d="M1370 1250h130" stroke="#999" stroke-width="2" fill="none"/><path d="M1370 1251h-.08l.08-1-.04-1h.04zM1500 1250l-14.27 4.64v-9.28z" fill="#999"/><path d="M1500 1248.95v2.1l-15.27 4.96v-12zm-13.27 4.3l10.03-3.25-10.03-3.26z" fill="#999"/><path d="M1660 1250h125c2.76 0 5-2.24 5-5V920c0-2.76 2.24-5 5-5h85" stroke="#999" stroke-width="2" fill="none"/><path d="M1880 915l-14.27 4.64v-9.28z" fill="#999"/><path d="M1880 913.95v2.1l-15.27 4.96v-12zm-13.27 4.3l10.03-3.25-10.03-3.26z" fill="#999"/><path d="M1838 1655v2.5c0 1.38 1.12 2.5 2.5 2.5H2140" stroke="#999" stroke-width="2" fill="none"/><path d="M1838 1655l-.45.9-2.68-1.35.9-1.8zM2140 1660l-14.27 4.64v-9.28z" fill="#999"/><path d="M2140 1658.95v2.1l-15.27 4.96v-12zm-13.27 4.3l10.03-3.25-10.03-3.26z" fill="#999"/><path d="M2140 1605c0-2.76 2.24-5 5-5h150c2.76 0 5 2.24 5 5v110c0 2.76-2.24 5-5 5h-150c-2.76 0-5-2.24-5-5z" stroke="#666" stroke-width="2" fill="#fff"/><path d="M2148.6 1615.7h35v20h-35z" stroke="#666" stroke-width="2"/><path d="M2148.6 1615.7l17.5 10 17.5-10" stroke="#fff" stroke-width="2" fill="none"/><use xlink:href="#p" transform="matrix(1,0,0,1,2140,1600) translate(38.07999999999999 63.15)"/><use xlink:href="#q" transform="matrix(1,0,0,1,2140,1600) translate(63.029999999999994 63.15)"/><path d="M1868 1501.5c0 16.57-13.43 30-30 30s-30-13.43-30-30 13.43-30 30-30 30 13.43 30 30z" stroke="#666" stroke-width="2" fill="#fff"/><path d="M1865 1501.5c0 14.9-12.1 27-27 27s-27-12.1-27-27 12.1-27 27-27 27 12.1 27 27z" stroke="#666" stroke-width="2" fill="#fff"/><path d="M1818 1490.25h40v22.5h-40z" stroke="#666" stroke-width="2" fill="#fff"/><path d="M1818 1490.25l20 11.25 20-11.25" stroke="#666" stroke-width="2" fill="none"/><use xlink:href="#a" transform="matrix(1,0,0,1,1808,1531.5) translate(30 15.4)"/><path d="M1990 1327c0 16.57-13.43 30-30 30s-30-13.43-30-30 13.43-30 30-30 30 13.43 30 30z" stroke="#666" stroke-width="2" fill="#fff"/><path d="M1987 1327c0 14.9-12.1 27-27 27s-27-12.1-27-27 12.1-27 27-27 27 12.1 27 27z" stroke="#666" stroke-width="2" fill="#fff"/><path d="M1940 1315.75h40v22.5h-40z" stroke="#666" stroke-width="2"/><path d="M1940 1315.75l20 11.25 20-11.25" stroke="#fff" stroke-width="2" fill="none"/><use xlink:href="#a" transform="matrix(1,0,0,1,1930,1357) translate(30 15.4)"/><path d="M1960 975v321" stroke="#999" stroke-width="2" fill="none"/><path d="M1960 1296l-4.64-14.27h9.28z" fill="#999"/><path d="M1960.7 1297.06l-.7-.06-.72.03-5.3-16.3h12.03zm-3.96-14.33l3.26 10.03 3.26-10.03z" fill="#999"/><path d="M2228 1119c0 16.57-13.43 30-30 30s-30-13.43-30-30 13.43-30 30-30 30 13.43 30 30z" stroke="#666" stroke-width="2" fill="#fff"/><path d="M2225 1119c0 14.9-12.1 27-27 27s-27-12.1-27-27 12.1-27 27-27 27 12.1 27 27z" stroke="#666" stroke-width="2" fill="#fff"/><path d="M2178 1107.75h40v22.5h-40z" stroke="#666" stroke-width="2" fill="#fff"/><path d="M2178 1107.75l20 11.25 20-11.25" stroke="#666" stroke-width="2" fill="none"/><use xlink:href="#a" transform="matrix(1,0,0,1,2168,1149) translate(30 15.4)"/><path d="M1800.5 1617.5l37.5-37.5 37.5 37.5-37.5 37.5z" stroke="#666" stroke-width="2" fill="#fff"/><path d="M1823 1602.5l30 30m-30 0l30-30" stroke="#666" stroke-width="4" fill="none"/><use xlink:href="#a" transform="matrix(1,0,0,1,1800.5,1655) translate(37.5 15.4)"/><path d="M3160 1745c0-2.76 2.24-5 5-5h150c2.76 0 5 2.24 5 5v110c0 2.76-2.24 5-5 5h-150c-2.76 0-5-2.24-5-5z" stroke="#666" stroke-width="2" fill="#fff"/><path d="M3168.6 1755.7h35v20h-35z" stroke="#666" stroke-width="2"/><path d="M3168.6 1755.7l17.5 10 17.5-10" stroke="#fff" stroke-width="2" fill="none"/><use xlink:href="#r" transform="matrix(1,0,0,1,3160,1740) translate(21.62999999999999 63.15)"/><use xlink:href="#s" transform="matrix(1,0,0,1,3160,1740) translate(73.53 63.15)"/><path d="M1960 1357v52.25c0 2.76-2.24 5-5 5h-112c-2.76 0-5 2.24-5 5v52.25" fill="none"/><path d="M1960 1357v9.85m0 9.86v19.72m0 9.85v4c0 2.2-1.8 3.98-4 3.98h-7.73m-9.85 0h-19.7m-9.87 0h-19.7m-9.86 0h-19.72m-9.85 0H1842c-2.2 0-4 1.8-4 4v3.98m0 9.85v19.7m0 9.87v9.85" stroke="#999" stroke-width="2" fill="none"/><path d="M1960 1357h-1v-.08zm1 0h-1l1-.04zM1838 1471.5l-4.64-14.27h9.28z" fill="#999"/><path d="M1839.02 1471.6l-1.02-.1-1.04.04-4.97-15.3h12zm-4.28-13.37l3.26 10.03 3.26-10.03z" fill="#999"/><path d="M2220 1600v-116.5c0-2.76 2.24-5 5-5h86c2.76 0 5-2.24 5-5V1357" fill="none"/><path d="M2220 1600v-10.27m0-10.28v-20.54m0-10.26v-20.55m0-10.28v-20.55m0-10.27v-4.25c0-2.35 1.9-4.25 4.25-4.25h7.8m10.27 0h20.54m10.28 0h20.54m10.27 0h7.8c2.35 0 4.25-1.9 4.25-4.25V1470m0-10.27v-20.55m0-10.27v-20.54m0-10.27v-20.55m0-10.28V1357" stroke="#999" stroke-width="2" fill="none"/><path d="M2320.64 1371.27h-9.28L2316 1357z" fill="#999"/><path d="M2316 1357l1.04-.04 4.97 15.3h-12l4.98-15.35zm-3.26 13.27h6.52l-3.26-10.03z" fill="#999"/><path d="M2316 1297v-33.75c0-.14-.1-.25-.25-.25-.14 0-.25-.1-.25-.25V1229" stroke="#999" stroke-width="2" fill="none"/><path d="M2317 1297.08l-1-.08-1 .04v-.04h2zM2320.14 1243.27h-9.28l4.64-14.27z" fill="#999"/><path d="M2321.5 1244.27h-12l5.2-16.06.8.8.8-.8zm-9.26-2h6.52l-3.26-10.03z" fill="#999"/><path d="M2278 1191.5h-75c-2.76 0-5-2.24-5-5V1149" stroke="#999" stroke-width="2" fill="none"/><path d="M2278 1191.5l1 1h-1v-2h1zM2202.64 1163.27h-9.28L2198 1149z" fill="#999"/><path d="M2198 1149l1.04-.04 4.97 15.3h-12l4.98-15.35zm-3.26 13.27h6.52l-3.26-10.03z" fill="#999"/><path fill="#fff" d="M2216.96 1180.7h28v21.6h-28z"/><use xlink:href="#t" transform="matrix(1,0,0,1,2216.960578460616,1180.7) translate(0.005000000000000782 14.4)"/><path d="M2118 859.5c0-2.76 2.24-5 5-5h150c2.76 0 5 2.24 5 5v110c0 2.76-2.24 5-5 5h-150c-2.76 0-5-2.24-5-5z" stroke="#666" stroke-width="2" fill="#fff"/><use xlink:href="#u" transform="matrix(1,0,0,1,2118,854.5) translate(64.03 63.15)"/><path d="M2198 1089V974.5" stroke="#999" stroke-width="2" fill="none"/><path d="M2199 1089.08l-1-.08-1 .04v-.04h2zM2202.64 988.77h-9.28l4.64-14.27z" fill="#999"/><path d="M2204 989.77h-12l4.95-15.27h2.1zm-9.26-2h6.52l-3.26-10.03z" fill="#999"/><path d="M2278 1191.5l37.5-37.5 37.5 37.5-37.5 37.5z" stroke="#666" stroke-width="2" fill="#fff"/><path d="M2300.5 1176.5l30 30m-30 0l30-30" stroke="#666" stroke-width="4" fill="none"/><use xlink:href="#v" transform="matrix(1,0,0,1,2278,1229) translate(31.025 14.4)"/><use xlink:href="#w" transform="matrix(1,0,0,1,2278,1229) translate(8.049999999999997 36)"/><use xlink:href="#x" transform="matrix(1,0,0,1,2278,1229) translate(2.075000000000003 57.6)"/><path d="M2360 1660l37.5-37.5 37.5 37.5-37.5 37.5z" stroke="#666" stroke-width="2" fill="#fff"/><path d="M2420 1660c0 12.43-10.07 22.5-22.5 22.5s-22.5-10.07-22.5-22.5 10.07-22.5 22.5-22.5 22.5 10.07 22.5 22.5z" stroke="#666" stroke-width="2" fill="none"/><path d="M2397.5 1645l-15 11.25 4.5 15h21l4.5-15z" stroke="#666" stroke-width="2" fill="#fff"/><use xlink:href="#a" transform="matrix(1,0,0,1,2360,1697.5) translate(37.5 15.4)"/><path d="M2428 1531.25c0 16.57-13.43 30-30 30s-30-13.43-30-30 13.43-30 30-30 30 13.43 30 30z" stroke="#666" stroke-width="2" fill="#fff"/><path d="M2425 1531.25c0 14.9-12.1 27-27 27s-27-12.1-27-27 12.1-27 27-27 27 12.1 27 27z" stroke="#666" stroke-width="2" fill="#fff"/><path d="M2378 1520h40v22.5h-40z" stroke="#666" stroke-width="2" fill="#fff"/><path d="M2378 1520l20 11.25 20-11.25" stroke="#666" stroke-width="2" fill="none"/><use xlink:href="#a" transform="matrix(1,0,0,1,2368,1561.25) translate(30 15.4)"/><path d="M2300 1660h60" stroke="#999" stroke-width="2" fill="none"/><path d="M2360 1660l-14.27 4.64v-9.28z" fill="#999"/><path d="M2360.8 1659.2l-.8.8.8.8-16.07 5.2v-12zm-14.07 4.06l10.03-3.26-10.03-3.26z" fill="#999"/><path d="M2397.5 1622.5v-30.38c0-.13.1-.24.25-.24.14 0 .25-.12.25-.26v-30.37" stroke="#999" stroke-width="2" fill="none"/><path d="M2398.5 1623.5l-1-1-1 1v-1h2zM2402.64 1575.52h-9.28l4.64-14.27z" fill="#999"/><path d="M2398 1561.25l1.04-.04 4.97 15.32h-12l4.98-15.36zm-3.26 13.27h6.52l-3.26-10.03z" fill="#999"/><path d="M2480 1192c0 16.57-13.43 30-30 30s-30-13.43-30-30 13.43-30 30-30 30 13.43 30 30z" stroke="#666" stroke-width="2" fill="#fff"/><path d="M2477 1192c0 14.9-12.1 27-27 27s-27-12.1-27-27 12.1-27 27-27 27 12.1 27 27z" stroke="#666" stroke-width="2" fill="#fff"/><path d="M2430 1180.75h40v22.5h-40z" stroke="#666" stroke-width="2"/><path d="M2430 1180.75l20 11.25 20-11.25" stroke="#fff" stroke-width="2" fill="none"/><use xlink:href="#a" transform="matrix(1,0,0,1,2420,1222) translate(30 15.4)"/><path d="M2353 1191.5h33.25c.14 0 .25.1.25.25 0 .14.1.25.25.25H2420" stroke="#999" stroke-width="2" fill="none"/><path d="M2353 1192.5h-1l1-1-1-1h1zM2420 1192l-14.27 4.64v-9.28z" fill="#999"/><path d="M2420.1 1190.98l-.1 1.02.04 1.04-15.3 4.97v-12zm-13.37 4.28l10.03-3.26-10.03-3.26z" fill="#999"/><path fill="#fff" d="M2367.4 1180.7h20v21.6h-20z"/><use xlink:href="#y" transform="matrix(1,0,0,1,2367.3875896649365,1180.7) translate(0.005000000000000782 14.4)"/><path d="M2450 1222v134.63c0 2.76-2.24 5-5 5h-42c-2.76 0-5 2.23-5 5v134.62" fill="none"/><path d="M2450 1222v10.04m0 10.04v20.07m0 10.04v20.07m0 10.03v20.08m0 10.04v20.07m-.9 9.13H2429m-10.04 0h-20.07m-.9 9.13v20.07m0 10.04v20.08m0 10.03v20.08m0 10.04v20.07m0 10.04v10.05" stroke="#999" stroke-width="2" fill="none"/><path d="M2450 1222h-1v-.08zm1 0h-1l1-.04zM2398 1501.25l-4.64-14.27h9.28z" fill="#999"/><path d="M2399.02 1501.34l-1.02-.1-1.04.05-4.97-15.32h12zm-4.28-13.36L2398 1498l3.26-10.02z" fill="#999"/><path d="M2346 1327c0 16.57-13.43 30-30 30s-30-13.43-30-30 13.43-30 30-30 30 13.43 30 30z" stroke="#666" stroke-width="2" fill="#fff"/><path d="M2343 1327c0 14.9-12.1 27-27 27s-27-12.1-27-27 12.1-27 27-27 27 12.1 27 27z" stroke="#666" stroke-width="2" fill="#fff"/><path d="M2296 1315.75h40v22.5h-40z" stroke="#666" stroke-width="2" fill="#fff"/><path d="M2296 1315.75l20 11.25 20-11.25" stroke="#666" stroke-width="2" fill="none"/><use xlink:href="#a" transform="matrix(1,0,0,1,2286,1357) translate(30 15.4)"/><path d="M2368 1531.25h-433c-2.76 0-5 2.24-5 5v76.25c0 2.76-2.24 5-5 5h-49.5" stroke="#999" stroke-width="2" fill="none"/><path d="M2368 1531.25l.04 1h-.04v-2h.08zM1889.77 1622.14l-14.27-4.64 14.27-4.64z" fill="#999"/><path d="M1890.77 1623.5l-16.06-5.2.8-.8-.8-.8 16.07-5.2zm-12.03-6l10.03 3.26v-6.52z" fill="#999"/><path d="M1838 1531.5v48.5" stroke="#999" stroke-width="2" fill="none"/><path d="M1838 1531.5h-1v-.08zm1 0h-1l1-.04zM1838 1580l-4.64-14.27h9.28z" fill="#999"/><path d="M1838.8 1580.8l-.8-.8-.8.8-5.2-16.07h12zm-4.06-14.07l3.26 10.03 3.26-10.03z" fill="#999"/><path d="M680 1600.5l37.5-37.5 37.5 37.5-37.5 37.5z" stroke="#666" stroke-width="2" fill="#fff"/><path d="M717.5 1578v45m-22.5-22.5h45" stroke="#666" stroke-width="4" fill="none"/><use xlink:href="#a" transform="matrix(1,0,0,1,680,1638) translate(37.5 15.4)"/><path d="M1040 1750c0 16.57-13.43 30-30 30s-30-13.43-30-30 13.43-30 30-30 30 13.43 30 30z" stroke="#666" stroke-width="6" fill="#fff"/><path d="M1031.25 1750c0 11.74-9.5 21.25-21.25 21.25-11.74 0-21.25-9.5-21.25-21.25 0-11.74 9.5-21.25 21.25-21.25 11.74 0 21.25 9.5 21.25 21.25z" stroke="#666" stroke-width="2"/><use xlink:href="#a" transform="matrix(1,0,0,1,980,1780) translate(30 15.4)"/><path d="M717.5 1638v107c0 2.76 2.24 5 5 5H880" stroke="#999" stroke-width="2" fill="none"/><path d="M717.5 1638h-1v-1zm1 0h-1l1-1zM880 1750l-14.27 4.64v-9.28z" fill="#999"/><path d="M880.1 1748.98l-.1 1.02.04 1.04-15.3 4.97v-12zm-13.37 4.28l10.03-3.26-10.03-3.26z" fill="#999"/><path d="M940 1750h40" stroke="#999" stroke-width="2" fill="none"/><path d="M940 1751h-.08l.08-1-.04-1h.04zM980 1750l-14.27 4.64v-9.28z" fill="#999"/><path d="M980.1 1748.98l-.1 1.02.04 1.04-15.3 4.97v-12zm-13.37 4.28l10.03-3.26-10.03-3.26z" fill="#999"/><path d="M940 1750c0 16.57-13.43 30-30 30s-30-13.43-30-30 13.43-30 30-30 30 13.43 30 30z" stroke="#666" stroke-width="2" fill="#fff"/><path d="M937 1750c0 14.9-12.1 27-27 27s-27-12.1-27-27 12.1-27 27-27 27 12.1 27 27z" stroke="#666" stroke-width="2" fill="#fff"/><path d="M890 1738.75h40v22.5h-40z" stroke="#666" stroke-width="2" fill="#fff"/><path d="M890 1738.75l20 11.25 20-11.25" stroke="#666" stroke-width="2" fill="none"/><use xlink:href="#a" transform="matrix(1,0,0,1,880,1780) translate(30 15.4)"/><path d="M1310 1070v-35c0-2.76-2.24-5-5-5H915c-2.76 0-5 2.24-5 5v685" fill="none"/><path d="M1310 1070v-9.9m0-9.92v-19.83m-9.56-.35h-19.83m-9.9 0h-19.82m-9.92 0h-19.82m-9.9 0h-19.84m-9.9 0h-19.83m-9.92 0h-19.82m-9.9 0h-19.84m-9.92 0h-19.82m-9.92 0h-19.82m-9.9 0h-19.84m-9.9 0h-19.83m-9.92 0H953.5m-9.9 0h-19.83m-9.9 0h-1.94c-1.07 0-1.93.86-1.93 1.93v14.03m0 9.92v19.82m0 9.9v19.84m0 9.9v19.84m0 9.9v19.83m0 9.92v19.83m0 9.9v19.84m0 9.9v19.82m0 9.92v19.82m0 9.9v19.84m0 9.9v19.83m0 9.92v19.82m0 9.9v19.84m0 9.92v19.82m0 9.92v19.82m0 9.9v19.84m0 9.9v19.83m0 9.92v19.82m0 9.9v19.83m0 9.9v19.83m0 9.92v19.82m0 9.9v19.84m0 9.9v19.84m0 9.9v9.92" stroke="#999" stroke-width="2" fill="none"/><path d="M1311 1070.08l-1-.08-1 .04v-.04h2zM910 1720l-4.64-14.27h9.28z" fill="#999"/><path d="M911.02 1720.1l-1.02-.1-1.04.04-4.97-15.3h12zm-4.28-13.37l3.26 10.03 3.26-10.03z" fill="#999"/><path d="M1800.5 1617.5h-35c-2.76 0-5 2.24-5 5V1795c0 2.76 2.24 5 5 5H3160" stroke="#999" stroke-width="2" fill="none"/><path d="M1800.5 1617.5l1 1h-1v-2h1zM3160 1800l-14.27 4.64v-9.28z" fill="#999"/><path d="M3160 1798.95v2.1l-15.27 4.96v-12zm-13.27 4.3l10.03-3.25-10.03-3.26z" fill="#999"/><path d="M1420 1600h189c2.76 0 5-2.24 5-5v-88.5c0-2.76 2.24-5 5-5h189" stroke="#999" stroke-width="2" fill="none"/><path d="M1808 1501.5l-14.27 4.64v-9.28z" fill="#999"/><path d="M1808.1 1500.48l-.1 1.02.04 1.04-15.3 4.97v-12zm-13.37 4.28l10.03-3.26-10.03-3.26z" fill="#999"/><path d="M280 665c0-2.76 2.24-5 5-5h3410c2.76 0 5 2.24 5 5v70c0 2.76-2.24 5-5 5H285c-2.76 0-5-2.24-5-5z" stroke="#666" stroke-width="2" fill="#bfbfbf"/><use xlink:href="#z" transform="matrix(1,0,0,1,280,660) translate(1640.605 44.4)"/><use xlink:href="#A" transform="matrix(1,0,0,1,280,660) translate(1716.555 44.4)"/><path d="M2500 1285c0-2.76 2.24-5 5-5h150c2.76 0 5 2.24 5 5v110c0 2.76-2.24 5-5 5h-150c-2.76 0-5-2.24-5-5z" stroke="#666" stroke-width="2" fill="#fff"/><use xlink:href="#B" transform="matrix(1,0,0,1,2500,1280) translate(27.554999999999993 63.15)"/><use xlink:href="#C" transform="matrix(1,0,0,1,2500,1280) translate(101.505 63.15)"/><path d="M2980 1142l37.5-37.5 37.5 37.5-37.5 37.5z" stroke="#666" stroke-width="2" fill="#fff"/><path d="M3002.5 1127l30 30m-30 0l30-30" stroke="#666" stroke-width="4" fill="none"/><use xlink:href="#D" transform="matrix(1,0,0,1,2980,1179.5) translate(3.0249999999999986 14.4)"/><use xlink:href="#E" transform="matrix(1,0,0,1,2980,1179.5) translate(-6 36)"/><path d="M2805 1112V741" fill="none"/><path d="M2805 1112v-10.3m0-10.3v-20.62m0-10.3v-20.62m0-10.3v-20.62m0-10.3v-20.6m0-10.32v-20.6m0-10.3v-20.63m0-10.3v-20.62m0-10.3v-20.62m0-10.3v-20.62m0-10.3v-20.6m0-10.32v-20.6m0-10.3V741" stroke="#999" stroke-width="2" fill="none"/><path d="M2806 1112.08l-1-.08-1 .04v-.04h2zM2809.64 755.27h-9.28L2805 741z" fill="#999"/><path d="M2811 756.27h-12l5.27-16.27h1.46zm-9.26-2h6.52l-3.26-10.03z" fill="#999"/><path d="M3055 1142h85" stroke="#999" stroke-width="2" fill="none"/><path d="M3055 1143h-1l1-1-1-1h1zM3140 1142l-14.27 4.64v-9.28z" fill="#999"/><path d="M3140.1 1140.98l-.1 1.02.04 1.04-15.3 4.97v-12zm-13.37 4.28l10.03-3.26-10.03-3.26z" fill="#999"/><path fill="#fff" d="M3070.3 1131.2h28v21.6h-28z"/><use xlink:href="#t" transform="matrix(1,0,0,1,3070.313539284306,1131.2) translate(0.005000000000000782 14.4)"/><path d="M3200 1142c0 16.57-13.43 30-30 30s-30-13.43-30-30 13.43-30 30-30 30 13.43 30 30z" stroke="#666" stroke-width="6" fill="#fff"/><path d="M3191.25 1142c0 11.74-9.5 21.25-21.25 21.25-11.74 0-21.25-9.5-21.25-21.25 0-11.74 9.5-21.25 21.25-21.25 11.74 0 21.25 9.5 21.25 21.25z" stroke="#666" stroke-width="2"/><use xlink:href="#a" transform="matrix(1,0,0,1,3140,1172) translate(30 15.4)"/><path d="M3035.52 1162.9H3070c2.76 0 5 2.23 5 5v90.1" stroke="#999" stroke-width="2" fill="none"/><path d="M3035.52 1163.9h-2.42l2-2h.42zM3075 1258l-4.64-14.27h9.28z" fill="#999"/><path d="M3076.05 1258h-2.1l-4.96-15.27h12zm-4.3-13.27l3.25 10.03 3.26-10.03z" fill="#999"/><path fill="#fff" d="M3064.43 1152.1h20v21.6h-20z"/><use xlink:href="#y" transform="matrix(1,0,0,1,3064.4290412791192,1152.0951258574032) translate(0.005000000000000782 14.4)"/><path d="M2995 1263c0-2.76 2.24-5 5-5h150c2.76 0 5 2.24 5 5v110c0 2.76-2.24 5-5 5h-150c-2.76 0-5-2.24-5-5z" stroke="#666" stroke-width="2" fill="#fff"/><path d="M3003.6 1273.7h35v20h-35z" stroke="#666" stroke-width="2"/><path d="M3003.6 1273.7l17.5 10 17.5-10" stroke="#fff" stroke-width="2" fill="none"/><use xlink:href="#F" transform="matrix(1,0,0,1,2995,1258) translate(6.029999999999996 63.15)"/><use xlink:href="#G" transform="matrix(1,0,0,1,2995,1258) translate(66.03 63.15)"/><use xlink:href="#H" transform="matrix(1,0,0,1,2995,1258) translate(105.98 63.15)"/><path d="M2835 1142c0 16.57-13.43 30-30 30s-30-13.43-30-30 13.43-30 30-30 30 13.43 30 30z" stroke="#666" stroke-width="2" fill="#fff"/><path d="M2832 1142c0 14.9-12.1 27-27 27s-27-12.1-27-27 12.1-27 27-27 27 12.1 27 27z" stroke="#666" stroke-width="2" fill="#fff"/><path d="M2785 1130.75h40v22.5h-40z" stroke="#666" stroke-width="2"/><path d="M2785 1130.75l20 11.25 20-11.25" stroke="#fff" stroke-width="2" fill="none"/><use xlink:href="#a" transform="matrix(1,0,0,1,2775,1172) translate(30 15.4)"/><path d="M280 485c0-2.76 2.24-5 5-5h3410c2.76 0 5 2.24 5 5v70c0 2.76-2.24 5-5 5H285c-2.76 0-5-2.24-5-5z" stroke="#666" stroke-width="2" fill="#bfbfbf"/><use xlink:href="#I" transform="matrix(1,0,0,1,280,480) translate(1634.08 44.4)"/><use xlink:href="#J" transform="matrix(1,0,0,1,280,480) translate(1726.03 44.4)"/><path d="M2720 1660c0 16.57-13.43 30-30 30s-30-13.43-30-30 13.43-30 30-30 30 13.43 30 30z" stroke="#666" stroke-width="2" fill="#fff"/><path d="M2717 1660c0 14.9-12.1 27-27 27s-27-12.1-27-27 12.1-27 27-27 27 12.1 27 27z" stroke="#666" stroke-width="2" fill="#fff"/><path d="M2670 1648.75h40v22.5h-40z" stroke="#666" stroke-width="2" fill="#fff"/><path d="M2670 1648.75l20 11.25 20-11.25" stroke="#666" stroke-width="2" fill="none"/><use xlink:href="#a" transform="matrix(1,0,0,1,2660,1690) translate(30 15.4)"/><path d="M2435 1660h225" stroke="#999" stroke-width="2" fill="none"/><path d="M2435 1661h-1l1-1-1-1h1zM2660 1660l-14.27 4.64v-9.28z" fill="#999"/><path d="M2660.1 1658.98l-.1 1.02.04 1.04-15.3 4.97v-12zm-13.37 4.28l10.03-3.26-10.03-3.26z" fill="#999"/><path d="M3075 1378v121c0 2.76-2.24 5-5 5h-375c-2.76 0-5 2.24-5 5v121" fill="none"/><path d="M3075 1378v10.1m0 10.12v20.22m0 10.12v20.22m0 10.1v20.23m0 10.12v12.06c0 1.5-1.22 2.72-2.72 2.72h-2.72m-10.12 0h-20.22m-10.1 0h-20.23m-10.12 0h-20.22m-10.12 0h-20.22m-10.1 0h-20.23m-10.12 0h-20.22m-10.12 0h-20.22m-10.1 0h-20.23m-10.12 0h-20.22m-10.12 0h-20.22m-10.1 0h-20.23m-10.12 0h-20.22m-10.12 0h-2.72c-1.5 0-2.72 1.22-2.72 2.72v12.06m0 10.1v20.23m0 10.12v20.22m0 10.12v20.22m0 10.1V1630" stroke="#999" stroke-width="2" fill="none"/><path d="M2690 1630l-4.64-14.27h9.28z" fill="#999"/><path d="M2691.02 1630.1l-1.02-.1-1.04.04-4.97-15.3h12zm-4.28-13.37l3.26 10.03 3.26-10.03z" fill="#999"/><path d="M2720 1660h80" stroke="#999" stroke-width="2" fill="none"/><path d="M2720 1661h-.08l.08-1-.04-1h.04zM2800 1660l-14.27 4.64v-9.28z" fill="#999"/><path d="M2800 1658.95v2.1l-15.27 4.96v-12zm-13.27 4.3l10.03-3.25-10.03-3.26z" fill="#999"/><path d="M2800 1605c0-2.76 2.24-5 5-5h150c2.76 0 5 2.24 5 5v110c0 2.76-2.24 5-5 5h-150c-2.76 0-5-2.24-5-5z" stroke="#666" stroke-width="2" fill="#fff"/><path d="M2808.6 1615.7h35v20h-35z" stroke="#666" stroke-width="2"/><path d="M2808.6 1615.7l17.5 10 17.5-10" stroke="#fff" stroke-width="2" fill="none"/><use xlink:href="#K" transform="matrix(1,0,0,1,2800,1600) translate(74.505 51.9)"/><use xlink:href="#L" transform="matrix(1,0,0,1,2800,1600) translate(13.054999999999987 73.5)"/><use xlink:href="#M" transform="matrix(1,0,0,1,2800,1600) translate(87.005 73.5)"/><path d="M2278 914.5h297c2.76 0 5 2.24 5 5V1280" stroke="#999" stroke-width="2" fill="none"/><path d="M2580 1280l-4.64-14.27h9.28z" fill="#999"/><path d="M2581.05 1280h-2.1l-4.96-15.27h12zm-4.3-13.27l3.25 10.03 3.26-10.03z" fill="#999"/><path d="M2910 1390c0 16.57-13.43 30-30 30s-30-13.43-30-30 13.43-30 30-30 30 13.43 30 30z" stroke="#666" stroke-width="2" fill="#fff"/><path d="M2907 1390c0 14.9-12.1 27-27 27s-27-12.1-27-27 12.1-27 27-27 27 12.1 27 27z" stroke="#666" stroke-width="2" fill="#fff"/><path d="M2860 1378.75h40v22.5h-40z" stroke="#666" stroke-width="2" fill="#fff"/><path d="M2860 1378.75l20 11.25 20-11.25" stroke="#666" stroke-width="2" fill="none"/><use xlink:href="#a" transform="matrix(1,0,0,1,2850,1420) translate(30 15.4)"/><path d="M2880 1600v-180" fill="none"/><path d="M2880 1600v-10m0-10v-20m0-10v-20m0-10v-20m0-10v-20m0-10v-20m0-10v-10" stroke="#999" stroke-width="2" fill="none"/><path d="M2884.64 1434.27h-9.28L2880 1420z" fill="#999"/><path d="M2880 1420l1.04-.04 4.97 15.3h-12l4.98-15.35zm-3.26 13.27h6.52l-3.26-10.03z" fill="#999"/><path d="M2880 1720v35c0 2.76-2.24 5-5 5h-472.5c-2.76 0-5-2.24-5-5v-57.5" stroke="#999" stroke-width="2" fill="none"/><path d="M2402.14 1711.77h-9.28l4.64-14.27z" fill="#999"/><path d="M2403.5 1712.77h-12l5.2-16.06.8.8.8-.8zm-9.26-2h6.52l-3.26-10.03z" fill="#999"/><path d="M3460 1800c0 16.57-13.43 30-30 30s-30-13.43-30-30 13.43-30 30-30 30 13.43 30 30z" stroke="#666" stroke-width="6" fill="#fff"/><use xlink:href="#a" transform="matrix(1,0,0,1,3400,1830) translate(30 15.4)"/><path d="M3240 1740V561" fill="none"/><path d="M3240 1740v-10.08m0-10.07v-20.16m0-10.08v-20.16m0-10.08v-20.15m0-10.08V1609m0-10.08v-20.15m0-10.08v-20.16m0-10.08v-20.15m0-10.07v-20.15m0-10.08v-20.15m0-10.08v-20.15m0-10.08v-20.16m0-10.07v-20.15m0-10.07v-20.16m0-10.07v-20.16m0-10.08v-20.16m0-10.08v-20.15m0-10.08V1216m0-10.08v-20.15m0-10.08v-20.16m0-10.08v-20.15m0-10.07v-20.15m0-10.08v-20.15m0-10.08v-20.15m0-10.08v-20.16m0-10.07v-20.15m0-10.07v-20.16m0-10.07V913.7m0-10.08v-20.16m0-10.08v-20.15m0-10.08V823m0-10.08v-20.15m0-10.08v-20.16m0-10.08V732.3m0-10.07v-20.15m0-10.08v-20.15m0-10.08v-20.15m0-10.08v-20.16m0-10.07v-20.15m0-10.07V561" stroke="#999" stroke-width="2" fill="none"/><path d="M3244.64 575.27h-9.28L3240 561z" fill="#999"/><path d="M3246 576.27h-12l5.27-16.27h1.46zm-9.26-2h6.52l-3.26-10.03z" fill="#999"/><path d="M2737.5 1302.5V1147c0-2.76 2.24-5 5-5h32.5" stroke="#999" stroke-width="2" fill="none"/><path d="M2738.5 1303.5l-1-1-1 1v-1h2zM2775 1142l-14.27 4.64v-9.28z" fill="#999"/><path d="M2775.1 1140.98l-.1 1.02.04 1.04-15.3 4.97v-12zm-13.37 4.28l10.03-3.26-10.03-3.26z" fill="#999"/><path d="M2660 1340h40" stroke="#999" stroke-width="2" fill="none"/><path d="M2700 1340l-14.27 4.64v-9.28z" fill="#999"/><path d="M2700.8 1339.2l-.8.8.8.8-16.07 5.2v-12zm-14.07 4.06l10.03-3.26-10.03-3.26z" fill="#999"/><path d="M2700 1340l37.5-37.5 37.5 37.5-37.5 37.5z" stroke="#666" stroke-width="2" fill="#fff"/><path d="M2722.5 1325l30 30m-30 0l30-30" stroke="#666" stroke-width="4" fill="none"/><use xlink:href="#a" transform="matrix(1,0,0,1,2700,1377.5) translate(37.5 15.4)"/><path d="M2880 1360v-15c0-2.76-2.24-5-5-5h-100" stroke="#999" stroke-width="2" fill="none"/><path d="M2881 1360.08l-1-.08-1 .04v-.04h2zM2789.27 1344.64L2775 1340l14.27-4.64z" fill="#999"/><path d="M2790.27 1346l-16.06-5.2.8-.8-.8-.8 16.07-5.2zm-12.03-6l10.03 3.26v-6.52z" fill="#999"/><path d="M2835 1142h25" stroke="#999" stroke-width="2" fill="none"/><path d="M2835 1143h-.08l.08-1-.04-1h.04zM2860 1142l-14.27 4.64v-9.28z" fill="#999"/><path d="M2860.1 1140.98l-.1 1.02.04 1.04-15.3 4.97v-12zm-13.37 4.28l10.03-3.26-10.03-3.26z" fill="#999"/><path d="M2920 1142h60" stroke="#999" stroke-width="2" fill="none"/><path d="M2920 1143h-.08l.08-1-.04-1h.04zM2980 1142l-14.27 4.64v-9.28z" fill="#999"/><path d="M2980.8 1141.2l-.8.8.8.8-16.07 5.2v-12zm-14.07 4.06l10.03-3.26-10.03-3.26z" fill="#999"/><path d="M2995 1318h-37.5c-2.76 0-5 2.24-5 5v62c0 2.76-2.24 5-5 5H2910" stroke="#999" stroke-width="2" fill="none"/><path d="M2924.27 1394.64L2910 1390l14.27-4.64z" fill="#999"/><path d="M2925.27 1396l-15.36-4.98.1-1.02-.04-1.04 15.3-4.97zm-12.03-6l10.03 3.26v-6.52z" fill="#999"/><path d="M2920 1142c0 16.57-13.43 30-30 30s-30-13.43-30-30 13.43-30 30-30 30 13.43 30 30z" stroke="#666" stroke-width="2" fill="#fff"/><path d="M2917 1142c0 14.9-12.1 27-27 27s-27-12.1-27-27 12.1-27 27-27 27 12.1 27 27z" stroke="#666" stroke-width="2" fill="#fff"/><path d="M2870 1130.75h40v22.5h-40z" stroke="#666" stroke-width="2" fill="#fff"/><path d="M2870 1130.75l20 11.25 20-11.25" stroke="#666" stroke-width="2" fill="none"/><use xlink:href="#a" transform="matrix(1,0,0,1,2860,1172) translate(30 15.4)"/><path d="M2890 740v372" fill="none"/><path d="M2890 740v10.33m0 10.34v20.66m0 10.34v20.66m0 10.34v20.66m0 10.34v20.66m0 10.34v20.66m0 10.34v20.66m0 10.34v20.66m0 10.34v20.66m0 10.34v20.66m0 10.34v20.66m0 10.34v20.66m0 10.34V1112" stroke="#999" stroke-width="2" fill="none"/><path d="M2890 1112l-4.64-14.27h9.28z" fill="#999"/><path d="M2891.02 1112.1l-1.02-.1-1.04.04-4.97-15.3h12zm-4.28-13.37l3.26 10.03 3.26-10.03z" fill="#999"/><path d="M3320 1800h80" stroke="#999" stroke-width="2" fill="none"/><path d="M3400 1800l-14.27 4.64v-9.28z" fill="#999"/><path d="M3400.1 1798.98l-.1 1.02.04 1.04-15.3 4.97v-12zm-13.37 4.28l10.03-3.26-10.03-3.26z" fill="#999"/><path d="M400 1601h100" stroke="#999" stroke-width="2" fill="none"/><path d="M400 1602h-.08l.08-1-.04-1h.04zM500 1601l-14.27 4.64v-9.28z" fill="#999"/><path d="M500 1599.95v2.1l-15.27 4.96v-12zm-13.27 4.3l10.03-3.25-10.03-3.26z" fill="#999"/><path d="M420 1160h120" stroke="#999" stroke-width="2" fill="none"/><path d="M420 1161h-.08l.08-1-.04-1h.04zM540 1160l-14.27 4.64v-9.28z" fill="#999"/><path d="M540 1158.95v2.1l-15.27 4.96v-12zm-13.27 4.3l10.03-3.25-10.03-3.26z" fill="#999"/><path d="M1990 1327h296" stroke="#999" stroke-width="2" fill="none"/><path d="M1990 1328h-.08l.08-1-.04-1h.04zM2286 1327l-14.27 4.64v-9.28z" fill="#999"/><path d="M2286.1 1325.98l-.1 1.02.04 1.04-15.3 4.97v-12zm-13.37 4.28l10.03-3.26-10.03-3.26z" fill="#999"/><path d="M1500 1195c0-2.76 2.24-5 5-5h150c2.76 0 5 2.24 5 5v110c0 2.76-2.24 5-5 5h-150c-2.76 0-5-2.24-5-5z" stroke="#666" stroke-width="2" fill="#fff"/><g><use xlink:href="#N" transform="matrix(1,0,0,1,1500,1190) translate(49.555 63.15)"/><use xlink:href="#h" transform="matrix(1,0,0,1,1500,1190) translate(85.505 63.15)"/></g><defs><path fill="#333" d="M30-248c87 1 191-15 191 75 0 78-77 80-158 76V0H30v-248zm33 125c57 0 124 11 124-50 0-59-68-47-124-48v98" id="O"/><path fill="#333" d="M100-194c62-1 85 37 85 99 1 63-27 99-86 99S16-35 15-95c0-66 28-99 85-99zM99-20c44 1 53-31 53-75 0-43-8-75-51-75s-53 32-53 75 10 74 51 75" id="P"/><path fill="#333" d="M206 0h-36l-40-164L89 0H53L-1-190h32L70-26l43-164h34l41 164 42-164h31" id="Q"/><path fill="#333" d="M100-194c63 0 86 42 84 106H49c0 40 14 67 53 68 26 1 43-12 49-29l28 8c-11 28-37 45-77 45C44 4 14-33 15-96c1-61 26-98 85-98zm52 81c6-60-76-77-97-28-3 7-6 17-6 28h103" id="R"/><path fill="#333" d="M114-163C36-179 61-72 57 0H25l-1-190h30c1 12-1 29 2 39 6-27 23-49 58-41v29" id="S"/><path fill="#333" d="M30 0v-248h187v28H63v79h144v27H63v87h162V0H30" id="T"/><path fill="#333" d="M117-194c89-4 53 116 60 194h-32v-121c0-31-8-49-39-48C34-167 62-67 57 0H25l-1-190h30c1 10-1 24 2 32 11-22 29-35 61-36" id="U"/><path fill="#333" d="M24-231v-30h32v30H24zM-9 49c24 4 33-6 33-30v-209h32V24c2 40-23 58-65 49V49" id="V"/><path fill="#333" d="M179-190L93 31C79 59 56 82 12 73V49c39 6 53-20 64-50L1-190h34L92-34l54-156h33" id="W"/><g id="b"><use transform="matrix(0.05,0,0,0.05,0,0)" xlink:href="#O"/><use transform="matrix(0.05,0,0,0.05,12,0)" xlink:href="#P"/><use transform="matrix(0.05,0,0,0.05,22,0)" xlink:href="#Q"/><use transform="matrix(0.05,0,0,0.05,34.95,0)" xlink:href="#R"/><use transform="matrix(0.05,0,0,0.05,44.95,0)" xlink:href="#S"/><use transform="matrix(0.05,0,0,0.05,50.900000000000006,0)" xlink:href="#T"/><use transform="matrix(0.05,0,0,0.05,62.900000000000006,0)" xlink:href="#U"/><use transform="matrix(0.05,0,0,0.05,72.9,0)" xlink:href="#V"/><use transform="matrix(0.05,0,0,0.05,76.85000000000001,0)" xlink:href="#P"/><use transform="matrix(0.05,0,0,0.05,86.85000000000001,0)" xlink:href="#W"/></g><path fill="#333" d="M212-179c-10-28-35-45-73-45-59 0-87 40-87 99 0 60 29 101 89 101 43 0 62-24 78-52l27 14C228-24 195 4 139 4 59 4 22-46 18-125c-6-104 99-153 187-111 19 9 31 26 39 46" id="X"/><path fill="#333" d="M141-36C126-15 110 5 73 4 37 3 15-17 15-53c-1-64 63-63 125-63 3-35-9-54-41-54-24 1-41 7-42 31l-33-3c5-37 33-52 76-52 45 0 72 20 72 64v82c-1 20 7 32 28 27v20c-31 9-61-2-59-35zM48-53c0 20 12 33 32 33 41-3 63-29 60-74-43 2-92-5-92 41" id="Y"/><g id="c"><use transform="matrix(0.05,0,0,0.05,0,0)" xlink:href="#X"/><use transform="matrix(0.05,0,0,0.05,12.950000000000001,0)" xlink:href="#Y"/><use transform="matrix(0.05,0,0,0.05,22.950000000000003,0)" xlink:href="#S"/></g><path fill="#333" d="M185-189c-5-48-123-54-124 2 14 75 158 14 163 119 3 78-121 87-175 55-17-10-28-26-33-46l33-7c5 56 141 63 141-1 0-78-155-14-162-118-5-82 145-84 179-34 5 7 8 16 11 25" id="Z"/><path fill="#333" d="M135-143c-3-34-86-38-87 0 15 53 115 12 119 90S17 21 10-45l28-5c4 36 97 45 98 0-10-56-113-15-118-90-4-57 82-63 122-42 12 7 21 19 24 35" id="aa"/><path fill="#333" d="M59-47c-2 24 18 29 38 22v24C64 9 27 4 27-40v-127H5v-23h24l9-43h21v43h35v23H59v120" id="ab"/><path fill="#333" d="M210-169c-67 3-38 105-44 169h-31v-121c0-29-5-50-35-48C34-165 62-65 56 0H25l-1-190h30c1 10-1 24 2 32 10-44 99-50 107 0 11-21 27-35 58-36 85-2 47 119 55 194h-31v-121c0-29-5-49-35-48" id="ac"/><g id="d"><use transform="matrix(0.05,0,0,0.05,0,0)" xlink:href="#Z"/><use transform="matrix(0.05,0,0,0.05,12,0)" xlink:href="#W"/><use transform="matrix(0.05,0,0,0.05,21,0)" xlink:href="#aa"/><use transform="matrix(0.05,0,0,0.05,30,0)" xlink:href="#ab"/><use transform="matrix(0.05,0,0,0.05,35,0)" xlink:href="#R"/><use transform="matrix(0.05,0,0,0.05,45,0)" xlink:href="#ac"/></g><path fill="#333" d="M205 0l-28-72H64L36 0H1l101-248h38L239 0h-34zm-38-99l-47-123c-12 45-31 82-46 123h93" id="ad"/><path fill="#333" d="M96-169c-40 0-48 33-48 73s9 75 48 75c24 0 41-14 43-38l32 2c-6 37-31 61-74 61-59 0-76-41-82-99-10-93 101-131 147-64 4 7 5 14 7 22l-32 3c-4-21-16-35-41-35" id="ae"/><path fill="#333" d="M24-231v-30h32v30H24zM24 0v-190h32V0H24" id="af"/><path fill="#333" d="M108 0H70L1-190h34L89-25l56-165h34" id="ag"/><g id="e"><use transform="matrix(0.05,0,0,0.05,0,0)" xlink:href="#ad"/><use transform="matrix(0.05,0,0,0.05,12,0)" xlink:href="#ae"/><use transform="matrix(0.05,0,0,0.05,21,0)" xlink:href="#ab"/><use transform="matrix(0.05,0,0,0.05,26,0)" xlink:href="#af"/><use transform="matrix(0.05,0,0,0.05,29.950000000000003,0)" xlink:href="#ag"/><use transform="matrix(0.05,0,0,0.05,38.95,0)" xlink:href="#R"/></g><path fill="#333" d="M232-93c-1 65-40 97-104 97C67 4 28-28 28-90v-158h33c8 89-33 224 67 224 102 0 64-133 71-224h33v155" id="ah"/><g id="f"><use transform="matrix(0.05,0,0,0.05,0,0)" xlink:href="#ah"/><use transform="matrix(0.05,0,0,0.05,12.950000000000001,0)" xlink:href="#aa"/><use transform="matrix(0.05,0,0,0.05,21.950000000000003,0)" xlink:href="#R"/><use transform="matrix(0.05,0,0,0.05,31.950000000000003,0)" xlink:href="#S"/></g><g id="g"><use transform="matrix(0.05,0,0,0.05,0,0)" xlink:href="#S"/><use transform="matrix(0.05,0,0,0.05,5.95,0)" xlink:href="#R"/><use transform="matrix(0.05,0,0,0.05,15.949999999999998,0)" xlink:href="#aa"/><use transform="matrix(0.05,0,0,0.05,24.95,0)" xlink:href="#R"/><use transform="matrix(0.05,0,0,0.05,34.95,0)" xlink:href="#S"/><use transform="matrix(0.05,0,0,0.05,40.900000000000006,0)" xlink:href="#ag"/><use transform="matrix(0.05,0,0,0.05,49.900000000000006,0)" xlink:href="#R"/></g><g id="h"><use transform="matrix(0.05,0,0,0.05,0,0)" xlink:href="#ae"/><use transform="matrix(0.05,0,0,0.05,9,0)" xlink:href="#Y"/><use transform="matrix(0.05,0,0,0.05,19,0)" xlink:href="#S"/></g><path fill="#333" d="M27 0v-27h64v-190l-56 39v-29l58-41h29v221h61V0H27" id="ai"/><use transform="matrix(0.05,0,0,0.05,0,0)" xlink:href="#ai" id="i"/><path fill="#333" d="M106-169C34-169 62-67 57 0H25v-261h32l-1 103c12-21 28-36 61-36 89 0 53 116 60 194h-32v-121c2-32-8-49-39-48" id="aj"/><path fill="#333" d="M84 4C-5 8 30-112 23-190h32v120c0 31 7 50 39 49 72-2 45-101 50-169h31l1 190h-30c-1-10 1-25-2-33-11 22-28 36-60 37" id="ak"/><g id="j"><use transform="matrix(0.05,0,0,0.05,0,0)" xlink:href="#aj"/><use transform="matrix(0.05,0,0,0.05,10,0)" xlink:href="#P"/><use transform="matrix(0.05,0,0,0.05,20,0)" xlink:href="#ak"/><use transform="matrix(0.05,0,0,0.05,30,0)" xlink:href="#S"/></g><path fill="#333" d="M85-194c31 0 48 13 60 33l-1-100h32l1 261h-30c-2-10 0-23-3-31C134-8 116 4 85 4 32 4 16-35 15-94c0-66 23-100 70-100zm9 24c-40 0-46 34-46 75 0 40 6 74 45 74 42 0 51-32 51-76 0-42-9-74-50-73" id="al"/><path fill="#333" d="M24 0v-261h32V0H24" id="am"/><g id="k"><use transform="matrix(0.05,0,0,0.05,0,0)" xlink:href="#al"/><use transform="matrix(0.05,0,0,0.05,10,0)" xlink:href="#R"/><use transform="matrix(0.05,0,0,0.05,20,0)" xlink:href="#am"/><use transform="matrix(0.05,0,0,0.05,23.95,0)" xlink:href="#R"/><use transform="matrix(0.05,0,0,0.05,33.95,0)" xlink:href="#ab"/><use transform="matrix(0.05,0,0,0.05,38.95,0)" xlink:href="#R"/></g><g id="l"><use transform="matrix(0.05,0,0,0.05,0,0)" xlink:href="#S"/><use transform="matrix(0.05,0,0,0.05,5.95,0)" xlink:href="#R"/><use transform="matrix(0.05,0,0,0.05,15.949999999999998,0)" xlink:href="#aa"/><use transform="matrix(0.05,0,0,0.05,24.95,0)" xlink:href="#R"/><use transform="matrix(0.05,0,0,0.05,34.95,0)" xlink:href="#S"/><use transform="matrix(0.05,0,0,0.05,40.900000000000006,0)" xlink:href="#ag"/><use transform="matrix(0.05,0,0,0.05,49.900000000000006,0)" xlink:href="#Y"/><use transform="matrix(0.05,0,0,0.05,59.900000000000006,0)" xlink:href="#ab"/><use transform="matrix(0.05,0,0,0.05,64.9,0)" xlink:href="#af"/><use transform="matrix(0.05,0,0,0.05,68.85000000000001,0)" xlink:href="#P"/><use transform="matrix(0.05,0,0,0.05,78.85000000000001,0)" xlink:href="#U"/></g><g id="m"><use transform="matrix(0.05,0,0,0.05,0,0)" xlink:href="#S"/><use transform="matrix(0.05,0,0,0.05,5.95,0)" xlink:href="#R"/><use transform="matrix(0.05,0,0,0.05,15.949999999999998,0)" xlink:href="#aa"/><use transform="matrix(0.05,0,0,0.05,24.95,0)" xlink:href="#R"/><use transform="matrix(0.05,0,0,0.05,34.95,0)" xlink:href="#S"/><use transform="matrix(0.05,0,0,0.05,40.900000000000006,0)" xlink:href="#ag"/><use transform="matrix(0.05,0,0,0.05,49.900000000000006,0)" xlink:href="#Y"/><use transform="matrix(0.05,0,0,0.05,59.900000000000006,0)" xlink:href="#ab"/><use transform="matrix(0.05,0,0,0.05,64.9,0)" xlink:href="#af"/><use transform="matrix(0.05,0,0,0.05,68.85000000000001,0)" xlink:href="#U"/></g><path fill="#333" d="M143 0L79-87 56-68V0H24v-261h32v163l83-92h37l-77 82L181 0h-38" id="an"/><g id="n"><use transform="matrix(0.05,0,0,0.05,0,0)" xlink:href="#ak"/><use transform="matrix(0.05,0,0,0.05,10,0)" xlink:href="#U"/><use transform="matrix(0.05,0,0,0.05,20,0)" xlink:href="#am"/><use transform="matrix(0.05,0,0,0.05,23.95,0)" xlink:href="#P"/><use transform="matrix(0.05,0,0,0.05,33.95,0)" xlink:href="#ae"/><use transform="matrix(0.05,0,0,0.05,42.95,0)" xlink:href="#an"/></g><g id="o"><use transform="matrix(0.05,0,0,0.05,0,0)" xlink:href="#ak"/><use transform="matrix(0.05,0,0,0.05,10,0)" xlink:href="#U"/><use transform="matrix(0.05,0,0,0.05,20,0)" xlink:href="#am"/><use transform="matrix(0.05,0,0,0.05,23.95,0)" xlink:href="#P"/><use transform="matrix(0.05,0,0,0.05,33.95,0)" xlink:href="#ae"/><use transform="matrix(0.05,0,0,0.05,42.95,0)" xlink:href="#an"/></g><g id="p"><use transform="matrix(0.05,0,0,0.05,0,0)" xlink:href="#ab"/><use transform="matrix(0.05,0,0,0.05,5,0)" xlink:href="#S"/><use transform="matrix(0.05,0,0,0.05,10.95,0)" xlink:href="#W"/></g><path fill="#333" d="M115-194c55 1 70 41 70 98S169 2 115 4C84 4 66-9 55-30l1 105H24l-1-265h31l2 30c10-21 28-34 59-34zm-8 174c40 0 45-34 45-75s-6-73-45-74c-42 0-51 32-51 76 0 43 10 73 51 73" id="ao"/><path fill="#333" d="M177-190C167-65 218 103 67 71c-23-6-38-20-44-43l32-5c15 47 100 32 89-28v-30C133-14 115 1 83 1 29 1 15-40 15-95c0-56 16-97 71-98 29-1 48 16 59 35 1-10 0-23 2-32h30zM94-22c36 0 50-32 50-73 0-42-14-75-50-75-39 0-46 34-46 75s6 73 46 73" id="ap"/><g id="q"><use transform="matrix(0.05,0,0,0.05,0,0)" xlink:href="#ao"/><use transform="matrix(0.05,0,0,0.05,10,0)" xlink:href="#Y"/><use transform="matrix(0.05,0,0,0.05,20,0)" xlink:href="#S"/><use transform="matrix(0.05,0,0,0.05,25.950000000000003,0)" xlink:href="#an"/><use transform="matrix(0.05,0,0,0.05,34.95,0)" xlink:href="#af"/><use transform="matrix(0.05,0,0,0.05,38.900000000000006,0)" xlink:href="#U"/><use transform="matrix(0.05,0,0,0.05,48.900000000000006,0)" xlink:href="#ap"/></g><g id="r"><use transform="matrix(0.05,0,0,0.05,0,0)" xlink:href="#S"/><use transform="matrix(0.05,0,0,0.05,5.95,0)" xlink:href="#R"/><use transform="matrix(0.05,0,0,0.05,15.949999999999998,0)" xlink:href="#ao"/><use transform="matrix(0.05,0,0,0.05,25.950000000000003,0)" xlink:href="#P"/><use transform="matrix(0.05,0,0,0.05,35.95,0)" xlink:href="#S"/><use transform="matrix(0.05,0,0,0.05,41.900000000000006,0)" xlink:href="#ab"/></g><path fill="#333" d="M115-194c53 0 69 39 70 98 0 66-23 100-70 100C84 3 66-7 56-30L54 0H23l1-261h32v101c10-23 28-34 59-34zm-8 174c40 0 45-34 45-75 0-40-5-75-45-74-42 0-51 32-51 76 0 43 10 73 51 73" id="aq"/><g id="s"><use transform="matrix(0.05,0,0,0.05,0,0)" xlink:href="#ao"/><use transform="matrix(0.05,0,0,0.05,10,0)" xlink:href="#S"/><use transform="matrix(0.05,0,0,0.05,15.949999999999998,0)" xlink:href="#P"/><use transform="matrix(0.05,0,0,0.05,25.950000000000003,0)" xlink:href="#aq"/><use transform="matrix(0.05,0,0,0.05,35.95,0)" xlink:href="#am"/><use transform="matrix(0.05,0,0,0.05,39.900000000000006,0)" xlink:href="#R"/><use transform="matrix(0.05,0,0,0.05,49.900000000000006,0)" xlink:href="#ac"/></g><g id="t"><use transform="matrix(0.05,0,0,0.05,0,0)" xlink:href="#W"/><use transform="matrix(0.05,0,0,0.05,9,0)" xlink:href="#R"/><use transform="matrix(0.05,0,0,0.05,19,0)" xlink:href="#aa"/></g><g id="u"><use transform="matrix(0.05,0,0,0.05,0,0)" xlink:href="#am"/><use transform="matrix(0.05,0,0,0.05,3.95,0)" xlink:href="#P"/><use transform="matrix(0.05,0,0,0.05,13.949999999999998,0)" xlink:href="#ae"/><use transform="matrix(0.05,0,0,0.05,22.95,0)" xlink:href="#an"/></g><g id="v"><use transform="matrix(0.05,0,0,0.05,0,0)" xlink:href="#af"/><use transform="matrix(0.05,0,0,0.05,3.95,0)" xlink:href="#aa"/></g><g id="w"><use transform="matrix(0.05,0,0,0.05,0,0)" xlink:href="#ao"/><use transform="matrix(0.05,0,0,0.05,10,0)" xlink:href="#Y"/><use transform="matrix(0.05,0,0,0.05,20,0)" xlink:href="#S"/><use transform="matrix(0.05,0,0,0.05,25.950000000000003,0)" xlink:href="#an"/><use transform="matrix(0.05,0,0,0.05,34.95,0)" xlink:href="#af"/><use transform="matrix(0.05,0,0,0.05,38.900000000000006,0)" xlink:href="#U"/><use transform="matrix(0.05,0,0,0.05,48.900000000000006,0)" xlink:href="#ap"/></g><path fill="#333" d="M103-251c84 0 111 97 45 133-19 10-37 24-39 52H78c0-63 77-55 77-114 0-30-21-42-52-43-32 0-53 17-56 46l-32-2c7-45 34-72 88-72zM77 0v-35h34V0H77" id="ar"/><g id="x"><use transform="matrix(0.05,0,0,0.05,0,0)" xlink:href="#Y"/><use transform="matrix(0.05,0,0,0.05,10,0)" xlink:href="#am"/><use transform="matrix(0.05,0,0,0.05,13.949999999999998,0)" xlink:href="#am"/><use transform="matrix(0.05,0,0,0.05,17.9,0)" xlink:href="#P"/><use transform="matrix(0.05,0,0,0.05,27.899999999999995,0)" xlink:href="#Q"/><use transform="matrix(0.05,0,0,0.05,40.85,0)" xlink:href="#R"/><use transform="matrix(0.05,0,0,0.05,50.85,0)" xlink:href="#al"/><use transform="matrix(0.05,0,0,0.05,60.85,0)" xlink:href="#ar"/></g><g id="y"><use transform="matrix(0.05,0,0,0.05,0,0)" xlink:href="#U"/><use transform="matrix(0.05,0,0,0.05,10,0)" xlink:href="#P"/></g><g id="z"><use transform="matrix(0.05,0,0,0.05,0,0)" xlink:href="#O"/><use transform="matrix(0.05,0,0,0.05,12,0)" xlink:href="#Y"/><use transform="matrix(0.05,0,0,0.05,22,0)" xlink:href="#W"/><use transform="matrix(0.05,0,0,0.05,31,0)" xlink:href="#ac"/><use transform="matrix(0.05,0,0,0.05,45.95,0)" xlink:href="#R"/><use transform="matrix(0.05,0,0,0.05,55.95,0)" xlink:href="#U"/><use transform="matrix(0.05,0,0,0.05,65.95,0)" xlink:href="#ab"/></g><path fill="#333" d="M197 0v-115H63V0H30v-248h33v105h134v-105h34V0h-34" id="as"/><g id="A"><use transform="matrix(0.05,0,0,0.05,0,0)" xlink:href="#as"/><use transform="matrix(0.05,0,0,0.05,12.950000000000001,0)" xlink:href="#Y"/><use transform="matrix(0.05,0,0,0.05,22.950000000000003,0)" xlink:href="#U"/><use transform="matrix(0.05,0,0,0.05,32.95,0)" xlink:href="#al"/><use transform="matrix(0.05,0,0,0.05,42.95,0)" xlink:href="#am"/><use transform="matrix(0.05,0,0,0.05,46.900000000000006,0)" xlink:href="#R"/><use transform="matrix(0.05,0,0,0.05,56.900000000000006,0)" xlink:href="#S"/></g><g id="B"><use transform="matrix(0.05,0,0,0.05,0,0)" xlink:href="#ae"/><use transform="matrix(0.05,0,0,0.05,9,0)" xlink:href="#P"/><use transform="matrix(0.05,0,0,0.05,19,0)" xlink:href="#ac"/><use transform="matrix(0.05,0,0,0.05,33.95,0)" xlink:href="#ao"/><use transform="matrix(0.05,0,0,0.05,43.95,0)" xlink:href="#ak"/><use transform="matrix(0.05,0,0,0.05,53.95,0)" xlink:href="#ab"/><use transform="matrix(0.05,0,0,0.05,58.95,0)" xlink:href="#R"/></g><path fill="#333" d="M101-234c-31-9-42 10-38 44h38v23H63V0H32v-167H5v-23h27c-7-52 17-82 69-68v24" id="at"/><g id="C"><use transform="matrix(0.05,0,0,0.05,0,0)" xlink:href="#at"/><use transform="matrix(0.05,0,0,0.05,5,0)" xlink:href="#Y"/><use transform="matrix(0.05,0,0,0.05,15,0)" xlink:href="#S"/><use transform="matrix(0.05,0,0,0.05,20.95,0)" xlink:href="#R"/></g><g id="D"><use transform="matrix(0.05,0,0,0.05,0,0)" xlink:href="#ao"/><use transform="matrix(0.05,0,0,0.05,10,0)" xlink:href="#Y"/><use transform="matrix(0.05,0,0,0.05,20,0)" xlink:href="#W"/><use transform="matrix(0.05,0,0,0.05,29,0)" xlink:href="#ac"/><use transform="matrix(0.05,0,0,0.05,43.95,0)" xlink:href="#R"/><use transform="matrix(0.05,0,0,0.05,53.95,0)" xlink:href="#U"/><use transform="matrix(0.05,0,0,0.05,63.95,0)" xlink:href="#ab"/></g><g id="E"><use transform="matrix(0.05,0,0,0.05,0,0)" xlink:href="#aa"/><use transform="matrix(0.05,0,0,0.05,9,0)" xlink:href="#ak"/><use transform="matrix(0.05,0,0,0.05,19,0)" xlink:href="#ae"/><use transform="matrix(0.05,0,0,0.05,28,0)" xlink:href="#ae"/><use transform="matrix(0.05,0,0,0.05,37,0)" xlink:href="#R"/><use transform="matrix(0.05,0,0,0.05,47,0)" xlink:href="#al"/><use transform="matrix(0.05,0,0,0.05,57,0)" xlink:href="#R"/><use transform="matrix(0.05,0,0,0.05,67,0)" xlink:href="#al"/><use transform="matrix(0.05,0,0,0.05,77,0)" xlink:href="#ar"/></g><g id="F"><use transform="matrix(0.05,0,0,0.05,0,0)" xlink:href="#ak"/><use transform="matrix(0.05,0,0,0.05,10,0)" xlink:href="#ao"/><use transform="matrix(0.05,0,0,0.05,20,0)" xlink:href="#al"/><use transform="matrix(0.05,0,0,0.05,30,0)" xlink:href="#Y"/><use transform="matrix(0.05,0,0,0.05,40,0)" xlink:href="#ab"/><use transform="matrix(0.05,0,0,0.05,45,0)" xlink:href="#R"/></g><g id="G"><use transform="matrix(0.05,0,0,0.05,0,0)" xlink:href="#ak"/><use transform="matrix(0.05,0,0,0.05,10,0)" xlink:href="#aa"/><use transform="matrix(0.05,0,0,0.05,19,0)" xlink:href="#R"/><use transform="matrix(0.05,0,0,0.05,29,0)" xlink:href="#S"/></g><g id="H"><use transform="matrix(0.05,0,0,0.05,0,0)" xlink:href="#aa"/><use transform="matrix(0.05,0,0,0.05,9,0)" xlink:href="#ab"/><use transform="matrix(0.05,0,0,0.05,14,0)" xlink:href="#Y"/><use transform="matrix(0.05,0,0,0.05,24,0)" xlink:href="#ab"/><use transform="matrix(0.05,0,0,0.05,29,0)" xlink:href="#ak"/><use transform="matrix(0.05,0,0,0.05,39,0)" xlink:href="#aa"/></g><g id="I"><use transform="matrix(0.05,0,0,0.05,0,0)" xlink:href="#ad"/><use transform="matrix(0.05,0,0,0.05,12,0)" xlink:href="#aa"/><use transform="matrix(0.05,0,0,0.05,21,0)" xlink:href="#aa"/><use transform="matrix(0.05,0,0,0.05,30,0)" xlink:href="#af"/><use transform="matrix(0.05,0,0,0.05,33.95,0)" xlink:href="#aa"/><use transform="matrix(0.05,0,0,0.05,42.95,0)" xlink:href="#ab"/><use transform="matrix(0.05,0,0,0.05,47.95,0)" xlink:href="#Y"/><use transform="matrix(0.05,0,0,0.05,57.95,0)" xlink:href="#U"/><use transform="matrix(0.05,0,0,0.05,67.95,0)" xlink:href="#ae"/><use transform="matrix(0.05,0,0,0.05,76.95,0)" xlink:href="#R"/></g><g id="J"><use transform="matrix(0.05,0,0,0.05,0,0)" xlink:href="#Z"/><use transform="matrix(0.05,0,0,0.05,12,0)" xlink:href="#R"/><use transform="matrix(0.05,0,0,0.05,22,0)" xlink:href="#S"/><use transform="matrix(0.05,0,0,0.05,27.950000000000003,0)" xlink:href="#ag"/><use transform="matrix(0.05,0,0,0.05,36.95,0)" xlink:href="#af"/><use transform="matrix(0.05,0,0,0.05,40.900000000000006,0)" xlink:href="#ae"/><use transform="matrix(0.05,0,0,0.05,49.900000000000006,0)" xlink:href="#R"/></g><g id="K"><use transform="matrix(0.05,0,0,0.05,0,0)" xlink:href="#ak"/><use transform="matrix(0.05,0,0,0.05,10,0)" xlink:href="#ao"/><use transform="matrix(0.05,0,0,0.05,20,0)" xlink:href="#al"/><use transform="matrix(0.05,0,0,0.05,30,0)" xlink:href="#Y"/><use transform="matrix(0.05,0,0,0.05,40,0)" xlink:href="#ab"/><use transform="matrix(0.05,0,0,0.05,45,0)" xlink:href="#R"/></g><g id="L"><use transform="matrix(0.05,0,0,0.05,0,0)" xlink:href="#ao"/><use transform="matrix(0.05,0,0,0.05,10,0)" xlink:href="#Y"/><use transform="matrix(0.05,0,0,0.05,20,0)" xlink:href="#W"/><use transform="matrix(0.05,0,0,0.05,29,0)" xlink:href="#ac"/><use transform="matrix(0.05,0,0,0.05,43.95,0)" xlink:href="#R"/><use transform="matrix(0.05,0,0,0.05,53.95,0)" xlink:href="#U"/><use transform="matrix(0.05,0,0,0.05,63.95,0)" xlink:href="#ab"/></g><g id="M"><use transform="matrix(0.05,0,0,0.05,0,0)" xlink:href="#ac"/><use transform="matrix(0.05,0,0,0.05,14.950000000000001,0)" xlink:href="#R"/><use transform="matrix(0.05,0,0,0.05,24.950000000000003,0)" xlink:href="#ab"/><use transform="matrix(0.05,0,0,0.05,29.950000000000003,0)" xlink:href="#aj"/><use transform="matrix(0.05,0,0,0.05,39.95,0)" xlink:href="#P"/><use transform="matrix(0.05,0,0,0.05,49.95,0)" xlink:href="#al"/></g><g id="N"><use transform="matrix(0.05,0,0,0.05,0,0)" xlink:href="#S"/><use transform="matrix(0.05,0,0,0.05,5.95,0)" xlink:href="#R"/><use transform="matrix(0.05,0,0,0.05,15.949999999999998,0)" xlink:href="#U"/><use transform="matrix(0.05,0,0,0.05,25.950000000000003,0)" xlink:href="#ab"/></g></defs></g></svg>