<?xml version="1.0" encoding="UTF-8" standalone="no"?>
<svg
   xmlns:dc="http://purl.org/dc/elements/1.1/"
   xmlns:cc="http://creativecommons.org/ns#"
   xmlns:rdf="http://www.w3.org/1999/02/22-rdf-syntax-ns#"
   xmlns:svg="http://www.w3.org/2000/svg"
   xmlns="http://www.w3.org/2000/svg"
   xmlns:xlink="http://www.w3.org/1999/xlink"
   xmlns:sodipodi="http://sodipodi.sourceforge.net/DTD/sodipodi-0.dtd"
   xmlns:inkscape="http://www.inkscape.org/namespaces/inkscape"
   width="1012"
   height="926.01"
   id="svg2"
   version="1.1"
   inkscape:version="0.91 r13725"
   sodipodi:docname="component lvl 2 - Page 1.svg">
  <metadata
     id="metadata724">
    <rdf:RDF>
      <cc:Work
         rdf:about="">
        <dc:format>image/svg+xml</dc:format>
        <dc:type
           rdf:resource="http://purl.org/dc/dcmitype/StillImage" />
      </cc:Work>
    </rdf:RDF>
  </metadata>
  <defs
     id="defs722" />
  <sodipodi:namedview
     pagecolor="#ffffff"
     bordercolor="#666666"
     borderopacity="1"
     objecttolerance="10"
     gridtolerance="10"
     guidetolerance="10"
     inkscape:pageopacity="0"
     inkscape:pageshadow="2"
     inkscape:window-width="640"
     inkscape:window-height="480"
     id="namedview720"
     showgrid="false"
     inkscape:zoom="0.25485686"
     inkscape:cx="506"
     inkscape:cy="776.9067"
     inkscape:window-x="0"
     inkscape:window-y="0"
     inkscape:window-maximized="0"
     inkscape:current-layer="g4" />
  <g
     transform="translate(-157.00000000000045 -60)"
     id="g4">
    <path
       d="m 223.65496,62.78034 904.84254,0 0,904.61787 -904.84254,0 z"
       id="path6"
       inkscape:connector-curvature="0"
       style="fill:#ffffff" />
    <path
       d="M422 80c-2.76 0-5 2.24-5 5v804c0 2.76 2.24 5 5 5h430c2.76 0 5-2.24 5-5V85c0-2.76-2.24-5-5-5z"
       id="path8"
       stroke-width="2"
       stroke="#000"
       fill="#fff" />
    <path
       d="M847 90h-15v20h15z"
       id="path10"
       stroke="#000"
       fill="#fff" />
    <path
       d="M837 93.33h-10v3.34h10zm0 10h-10v3.34h10z"
       id="path12"
       stroke="#000"
       fill="#fff" />
    <path
       d="M517 85c0-2.76 2.24-5 5-5h230c2.76 0 5 2.24 5 5v50c0 2.76-2.24 5-5 5H522c-2.76 0-5-2.24-5-5z"
       id="path14"
       fill="none" />
    <use
       xlink:href="#a"
       transform="matrix(1,0,0,1,517.0000000000005,80) translate(16.52499999999999 33.6)"
       id="use16" />
    <use
       xlink:href="#b"
       transform="matrix(1,0,0,1,517.0000000000005,80) translate(74.425 33.6)"
       id="use18" />
    <use
       xlink:href="#c"
       transform="matrix(1,0,0,1,517.0000000000005,80) translate(115.375 33.6)"
       id="use20" />
    <use
       xlink:href="#d"
       transform="matrix(1,0,0,1,517.0000000000005,80) translate(187.325 33.6)"
       id="use22" />
    <path
       d="M817.67 497.67H892"
       id="path24"
       stroke-width="2"
       stroke="#000"
       fill="none" />
    <path
       d="M817.67 498.67h-1v-2h1zM895 498.67h-3v-2h3z"
       id="path26" />
    <path
       d="M177 326.33c0-2.76 2.24-5 5-5h230c2.76 0 5 2.24 5 5v50c0 2.76-2.24 5-5 5H182c-2.76 0-5-2.24-5-5z"
       id="path28"
       fill="none" />
    <use
       xlink:href="#e"
       transform="matrix(1,0,0,1,177.00000000000045,321.33333333333303) translate(87.075 33.6)"
       id="use30" />
    <path
       d="M395 351.33c2.76 0 2.76 0 0 0h-5m-40 0c0-11.04 8.95-20 20-20s20 8.96 20 20c0 11.05-8.95 20-20 20s-20-8.95-20-20z"
       id="path32"
       stroke-width="2"
       stroke="#000"
       fill="#fff" />
    <path
       d="M762.84 681.8c0-2.76 2.24-5 5-5h284.1c2.76 0 5 2.24 5 5v50c0 2.77-2.24 5-5 5h-284.1c-2.76 0-5-2.23-5-5z"
       id="path34"
       fill="none" />
    <use
       xlink:href="#f"
       transform="matrix(1,0,0,1,762.8436062557504,676.8041485769418) translate(123.05 33.6)"
       id="use36" />
    <g
       id="g38"
       fill="none">
      <path
         d="M908 657h-10m30 20c-11.05 0-20-8.95-20-20s8.95-20 20-20"
         id="path40"
         stroke-width="2"
         stroke="#000" />
      <path
         d="M928 677c-11.05 0-20-8.95-20-20s8.95-20 20-20z"
         id="path42" />
    </g>
    <path
       d="M460 596.67c-2.76 0-5 2.24-5 5v110c0 2.76 2.24 5 5 5h150c2.76 0 5-2.24 5-5v-110c0-2.76-2.24-5-5-5z"
       id="path44"
       stroke-width="2"
       stroke="#000"
       fill="#fff" />
    <path
       d="M605 606.67h-15v20h15z"
       id="path46"
       stroke="#000"
       fill="#fff" />
    <path
       d="M595 610h-10v3.33h10zm0 10h-10v3.33h10z"
       id="path48"
       stroke="#000"
       fill="#fff" />
    <use
       xlink:href="#g"
       transform="matrix(1,0,0,1,455.00000000000045,596.666666666667) translate(23.054999999999993 51.9)"
       id="use50" />
    <use
       xlink:href="#h"
       transform="matrix(1,0,0,1,455.00000000000045,596.666666666667) translate(44.55499999999999 73.5)"
       id="use52" />
    <path
       d="M662 140.33c-2.76 0-5 2.24-5 5v110c0 2.76 2.24 5 5 5h150c2.76 0 5-2.24 5-5v-110c0-2.76-2.24-5-5-5z"
       id="path54"
       stroke-width="2"
       stroke="#000"
       fill="#fff" />
    <path
       d="M807 150.33h-15v20h15z"
       id="path56"
       stroke="#000"
       fill="#fff" />
    <path
       d="M797 153.67h-10V157h10zm0 10h-10V167h10z"
       id="path58"
       stroke="#000"
       fill="#fff" />
    <use
       xlink:href="#i"
       transform="matrix(1,0,0,1,657.0000000000005,140.33333333333348) translate(32.10499999999999 51.9)"
       id="use60" />
    <use
       xlink:href="#h"
       transform="matrix(1,0,0,1,657.0000000000005,140.33333333333348) translate(44.55499999999999 73.5)"
       id="use62" />
    <path
       d="M661.67 441.67c-2.76 0-5 2.24-5 5v110c0 2.76 2.24 5 5 5h150c2.76 0 5-2.24 5-5v-110c0-2.76-2.24-5-5-5z"
       id="path64"
       stroke-width="2"
       stroke="#000"
       fill="#fff" />
    <path
       d="M806.67 451.67h-15v20h15z"
       id="path66"
       stroke="#000"
       fill="#fff" />
    <path
       d="M796.67 455h-10v3.33h10zm0 10h-10v3.33h10z"
       id="path68"
       stroke="#000"
       fill="#fff" />
    <use
       xlink:href="#j"
       transform="matrix(1,0,0,1,656.6666666666674,441.6666666666665) translate(32.07999999999999 51.9)"
       id="use70" />
    <use
       xlink:href="#h"
       transform="matrix(1,0,0,1,656.6666666666674,441.6666666666665) translate(44.55499999999999 73.5)"
       id="use72" />
    <path
       d="M662.03 596.67c-2.76 0-5 2.24-5 5v110c0 2.76 2.24 5 5 5h150c2.76 0 5-2.24 5-5v-110c0-2.76-2.24-5-5-5z"
       id="path74"
       stroke-width="2"
       stroke="#000"
       fill="#fff" />
    <path
       d="M807.03 606.67h-15v20h15z"
       id="path76"
       stroke="#000"
       fill="#fff" />
    <path
       d="M797.03 610h-10v3.33h10zm0 10h-10v3.33h10z"
       id="path78"
       stroke="#000"
       fill="#fff" />
    <use
       xlink:href="#k"
       transform="matrix(1,0,0,1,657.0318920576515,596.666666666667) translate(27.604999999999997 63.15)"
       id="use80" />
    <use
       xlink:href="#h"
       transform="matrix(1,0,0,1,657.0318920576515,596.666666666667) translate(61.505 63.15)"
       id="use82" />
    <path
       d="M460 291.33c-2.76 0-5 2.24-5 5v110c0 2.76 2.24 5 5 5h150c2.76 0 5-2.24 5-5v-110c0-2.76-2.24-5-5-5z"
       id="path84"
       stroke-width="2"
       stroke="#000"
       fill="#fff" />
    <path
       d="M605 301.33h-15v20h15z"
       id="path86"
       stroke="#000"
       fill="#fff" />
    <path
       d="M595 304.67h-10V308h10zm0 10h-10V318h10z"
       id="path88"
       stroke="#000"
       fill="#fff" />
    <use
       xlink:href="#l"
       transform="matrix(1,0,0,1,455.00000000000045,291.33333333333303) translate(23.154999999999994 63.15)"
       id="use90" />
    <use
       xlink:href="#m"
       transform="matrix(1,0,0,1,455.00000000000045,291.33333333333303) translate(74.005 63.15)"
       id="use92" />
    <path
       d="M455 351.33h-55"
       id="path94"
       stroke-width="2"
       stroke="#000"
       fill="none" />
    <path
       d="M400 352.33h-3v-2h3z"
       id="path96" />
    <path
       d="M817 170.33h32.8c.08 0 .15-.07.15-.16 0-.1.08-.17.17-.17h32.8"
       id="path98"
       stroke-width="2"
       stroke="#000"
       fill="none" />
    <path
       d="M885.9 171h-3v-2h3z"
       id="path100" />
    <path
       d="M570 751.67c-2.76 0-5 2.24-5 5v95.24c0 2.77 2.24 5 5 5h150c2.76 0 5-2.23 5-5v-95.23c0-2.76-2.24-5-5-5z"
       id="path102"
       stroke-width="2"
       stroke="#000"
       fill="#fff" />
    <path
       d="M715 761.67h-15v20h15z"
       id="path104"
       stroke="#000"
       fill="#fff" />
    <path
       d="M705 765h-10v3.33h10zm0 10h-10v3.33h10z"
       id="path106"
       stroke="#000"
       fill="#fff" />
    <use
       xlink:href="#n"
       transform="matrix(1,0,0,1,565.0000000000005,751.6666666666674) translate(17.604999999999997 57.4625)"
       id="use108" />
    <use
       xlink:href="#h"
       transform="matrix(1,0,0,1,565.0000000000005,751.6666666666674) translate(71.505 57.4625)"
       id="use110" />
    <path
       d="M817.03 656.67h40.32c.1 0 .17.07.17.16 0 .1.07.17.16.17H898"
       id="path112"
       stroke-width="2"
       stroke="#000"
       fill="none" />
    <path
       d="M901 658h-3v-2h3z"
       id="path114" />
    <path
       d="M817 230.33h32.8c.08 0 .15-.07.15-.16 0-.1.08-.17.17-.17h32.8"
       id="path116"
       stroke-width="2"
       stroke="#000"
       fill="none" />
    <path
       d="M885.9 231h-3v-2h3z"
       id="path118" />
    <path
       d="M645 856.9V915"
       id="path120"
       stroke-width="2"
       stroke="#000"
       fill="none" />
    <path
       d="M646 918h-2v-3h2z"
       id="path122" />
    <path
       d="M460 444c-2.76 0-5 2.24-5 5v110c0 2.76 2.24 5 5 5h150c2.76 0 5-2.24 5-5V449c0-2.76-2.24-5-5-5z"
       id="path124"
       stroke-width="2"
       stroke="#000"
       fill="#fff" />
    <path
       d="M605 454h-15v20h15z"
       id="path126"
       stroke="#000"
       fill="#fff" />
    <path
       d="M595 457.33h-10v3.34h10zm0 10h-10v3.34h10z"
       id="path128"
       stroke="#000"
       fill="#fff" />
    <use
       xlink:href="#o"
       transform="matrix(1,0,0,1,455.00000000000045,444) translate(23.12999999999999 51.9)"
       id="use130" />
    <use
       xlink:href="#p"
       transform="matrix(1,0,0,1,455.00000000000045,444) translate(50.555 73.5)"
       id="use132" />
    <path
       d="M455 920.14c0-2.76 2.24-5 5-5h230c2.76 0 5 2.24 5 5V961c0 2.77-2.24 5-5 5H460c-2.76 0-5-2.23-5-5z"
       id="path134"
       fill="none" />
    <use
       xlink:href="#q"
       transform="matrix(1,0,0,1,455.00000000000045,915.1446695610239) translate(77.05 29.1)"
       id="use136" />
    <use
       xlink:href="#r"
       transform="matrix(1,0,0,1,455.00000000000045,915.1446695610239) translate(133.95 29.1)"
       id="use138" />
    <g
       id="g140"
       fill="none">
      <path
         d="M645 925v-10m-20 30c0-11.05 8.95-20 20-20s20 8.95 20 20"
         id="path142"
         stroke-width="2"
         stroke="#000" />
      <path
         d="M625 945c0-11.05 8.95-20 20-20s20 8.95 20 20z"
         id="path144" />
    </g>
    <path
       d="M460 138.67c-2.76 0-5 2.24-5 5v110c0 2.76 2.24 5 5 5h150c2.76 0 5-2.24 5-5v-110c0-2.76-2.24-5-5-5z"
       id="path146"
       stroke-width="2"
       stroke="#000"
       fill="#fff" />
    <path
       d="M605 148.67h-15v20h15z"
       id="path148"
       stroke="#000"
       fill="#fff" />
    <path
       d="M595 152h-10v3.33h10zm0 10h-10v3.33h10z"
       id="path150"
       stroke="#000"
       fill="#fff" />
    <use
       xlink:href="#s"
       transform="matrix(1,0,0,1,455.00000000000045,138.66666666666606) translate(24.07999999999999 51.9)"
       id="use152" />
    <use
       xlink:href="#t"
       transform="matrix(1,0,0,1,455.00000000000045,138.66666666666606) translate(79.97999999999999 51.9)"
       id="use154" />
    <use
       xlink:href="#h"
       transform="matrix(1,0,0,1,455.00000000000045,138.66666666666606) translate(44.55499999999999 73.5)"
       id="use156" />
    <path
       d="M833.9 145c0-2.76 2.24-5 5-5H1123c2.76 0 5 2.24 5 5v50c0 2.76-2.24 5-5 5H838.9c-2.76 0-5-2.24-5-5z"
       id="path158"
       fill="none" />
    <use
       xlink:href="#u"
       transform="matrix(1,0,0,1,833.9061637534501,140) translate(91.94999999999999 33.6)"
       id="use160" />
    <g
       id="g162"
       fill="none">
      <path
         d="M892.9 170h-10m30 20c-11.04 0-20-8.95-20-20s8.96-20 20-20"
         id="path164"
         stroke-width="2"
         stroke="#000" />
      <path
         d="M912.9 190c-11.04 0-20-8.95-20-20s8.96-20 20-20z"
         id="path166" />
    </g>
    <path
       d="M833.9 205c0-2.76 2.24-5 5-5H1123c2.76 0 5 2.24 5 5v50c0 2.76-2.24 5-5 5H838.9c-2.76 0-5-2.24-5-5z"
       id="path168"
       fill="none" />
    <use
       xlink:href="#v"
       transform="matrix(1,0,0,1,833.9061637534501,200) translate(89.8 33.6)"
       id="use170" />
    <g
       id="g172"
       fill="none">
      <path
         d="M892.9 230h-10m30 20c-11.04 0-20-8.95-20-20s8.96-20 20-20"
         id="path174"
         stroke-width="2"
         stroke="#000" />
      <path
         d="M912.9 250c-11.04 0-20-8.95-20-20s8.96-20 20-20z"
         id="path176" />
    </g>
    <path
       d="M833.9 476.67c0-2.76 2.24-5 5-5H1123c2.76 0 5 2.24 5 5v50c0 2.76-2.24 5-5 5H838.9c-2.76 0-5-2.24-5-5z"
       id="path178"
       fill="none" />
    <g
       id="g180">
      <use
         xlink:href="#w"
         transform="matrix(1,0,0,1,833.9061637534505,471.6666666666665) translate(104.525 33.6)"
         id="use182" />
    </g>
    <g
       id="g184"
       fill="none">
      <path
         d="M902 497.67h-10m30 20c-11.05 0-20-8.96-20-20 0-11.05 8.95-20 20-20"
         id="path186"
         stroke-width="2"
         stroke="#000" />
      <path
         d="M922 517.67c-11.05 0-20-8.96-20-20 0-11.05 8.95-20 20-20z"
         id="path188" />
    </g>
    <path
       d="M662 291c-2.76 0-5 2.24-5 5v110c0 2.76 2.24 5 5 5h150c2.76 0 5-2.24 5-5V296c0-2.76-2.24-5-5-5z"
       id="path190"
       stroke-width="2"
       stroke="#000"
       fill="#fff" />
    <path
       d="M807 301h-15v20h15z"
       id="path192"
       stroke="#000"
       fill="#fff" />
    <path
       d="M797 304.33h-10v3.34h10zm0 10h-10v3.34h10z"
       id="path194"
       stroke="#000"
       fill="#fff" />
    <g
       id="g196">
      <use
         xlink:href="#x"
         transform="matrix(1,0,0,1,657.0000000000005,291) translate(21.529999999999994 40.65)"
         id="use198" />
      <use
         xlink:href="#y"
         transform="matrix(1,0,0,1,657.0000000000005,291) translate(56.38 62.25)"
         id="use200" />
      <use
         xlink:href="#z"
         transform="matrix(1,0,0,1,657.0000000000005,291) translate(44.55499999999999 83.85000000000001)"
         id="use202" />
    </g>
    <path
       d="M817 351h71"
       id="path204"
       stroke-width="2"
       stroke="#000"
       fill="none" />
    <path
       d="M891 352h-3v-2h3z"
       id="path206" />
    <path
       d="M909 326c0-2.76 2.24-5 5-5h230c2.76 0 5 2.24 5 5v50c0 2.76-2.24 5-5 5H914c-2.76 0-5-2.24-5-5z"
       id="path208"
       fill="none" />
    <g
       id="g210">
      <use
         xlink:href="#A"
         transform="matrix(1,0,0,1,909,321.0000000000001) translate(41.55 33.6)"
         id="use212" />
    </g>
    <path
       d="M893 351c-2.76 0-2.76 0 0 0h5m40 0c0 11.05-8.95 20-20 20s-20-8.95-20-20 8.95-20 20-20 20 8.95 20 20z"
       id="path214"
       stroke-width="2"
       stroke="#000"
       fill="#fff" />
    <defs
       id="defs216">
      <path
         d="M185-189c-5-48-123-54-124 2 14 75 158 14 163 119 3 78-121 87-175 55-17-10-28-26-33-46l33-7c5 56 141 63 141-1 0-78-155-14-162-118-5-82 145-84 179-34 5 7 8 16 11 25"
         id="B" />
      <path
         d="M100-194c63 0 86 42 84 106H49c0 40 14 67 53 68 26 1 43-12 49-29l28 8c-11 28-37 45-77 45C44 4 14-33 15-96c1-61 26-98 85-98zm52 81c6-60-76-77-97-28-3 7-6 17-6 28h103"
         id="C" />
      <path
         d="M114-163C36-179 61-72 57 0H25l-1-190h30c1 12-1 29 2 39 6-27 23-49 58-41v29"
         id="D" />
      <path
         d="M108 0H70L1-190h34L89-25l56-165h34"
         id="E" />
      <g
         id="a">
        <use
           transform="matrix(0.05,0,0,0.05,0,0)"
           xlink:href="#B"
           id="use223" />
        <use
           transform="matrix(0.05,0,0,0.05,12,0)"
           xlink:href="#C"
           id="use225" />
        <use
           transform="matrix(0.05,0,0,0.05,22,0)"
           xlink:href="#D"
           id="use227" />
        <use
           transform="matrix(0.05,0,0,0.05,27.950000000000003,0)"
           xlink:href="#E"
           id="use229" />
        <use
           transform="matrix(0.05,0,0,0.05,36.95,0)"
           xlink:href="#C"
           id="use231" />
        <use
           transform="matrix(0.05,0,0,0.05,46.95,0)"
           xlink:href="#D"
           id="use233" />
      </g>
      <path
         d="M24-231v-30h32v30H24zM24 0v-190h32V0H24"
         id="F" />
      <path
         d="M85-194c31 0 48 13 60 33l-1-100h32l1 261h-30c-2-10 0-23-3-31C134-8 116 4 85 4 32 4 16-35 15-94c0-66 23-100 70-100zm9 24c-40 0-46 34-46 75 0 40 6 74 45 74 42 0 51-32 51-76 0-42-9-74-50-73"
         id="G" />
      <g
         id="b">
        <use
           transform="matrix(0.05,0,0,0.05,0,0)"
           xlink:href="#B"
           id="use238" />
        <use
           transform="matrix(0.05,0,0,0.05,12,0)"
           xlink:href="#F"
           id="use240" />
        <use
           transform="matrix(0.05,0,0,0.05,15.949999999999998,0)"
           xlink:href="#G"
           id="use242" />
        <use
           transform="matrix(0.05,0,0,0.05,25.950000000000003,0)"
           xlink:href="#C"
           id="use244" />
      </g>
      <path
         d="M87 75C49 33 22-17 22-94c0-76 28-126 65-167h31c-38 41-64 92-64 168S80 34 118 75H87"
         id="H" />
      <path
         d="M96-169c-40 0-48 33-48 73s9 75 48 75c24 0 41-14 43-38l32 2c-6 37-31 61-74 61-59 0-76-41-82-99-10-93 101-131 147-64 4 7 5 14 7 22l-32 3c-4-21-16-35-41-35"
         id="I" />
      <path
         d="M100-194c62-1 85 37 85 99 1 63-27 99-86 99S16-35 15-95c0-66 28-99 85-99zM99-20c44 1 53-31 53-75 0-43-8-75-51-75s-53 32-53 75 10 74 51 75"
         id="J" />
      <path
         d="M117-194c89-4 53 116 60 194h-32v-121c0-31-8-49-39-48C34-167 62-67 57 0H25l-1-190h30c1 10-1 24 2 32 11-22 29-35 61-36"
         id="K" />
      <g
         id="c">
        <use
           transform="matrix(0.05,0,0,0.05,0,0)"
           xlink:href="#H"
           id="use251" />
        <use
           transform="matrix(0.05,0,0,0.05,5.95,0)"
           xlink:href="#B"
           id="use253" />
        <use
           transform="matrix(0.05,0,0,0.05,17.95,0)"
           xlink:href="#C"
           id="use255" />
        <use
           transform="matrix(0.05,0,0,0.05,27.950000000000003,0)"
           xlink:href="#I"
           id="use257" />
        <use
           transform="matrix(0.05,0,0,0.05,36.95,0)"
           xlink:href="#J"
           id="use259" />
        <use
           transform="matrix(0.05,0,0,0.05,46.95,0)"
           xlink:href="#K"
           id="use261" />
        <use
           transform="matrix(0.05,0,0,0.05,56.95,0)"
           xlink:href="#G"
           id="use263" />
      </g>
      <path
         d="M127-220V0H93v-220H8v-28h204v28h-85"
         id="L" />
      <path
         d="M33-261c38 41 65 92 65 168S71 34 33 75H2C39 34 66-17 66-93S39-220 2-261h31"
         id="M" />
      <g
         id="d">
        <use
           transform="matrix(0.05,0,0,0.05,0,0)"
           xlink:href="#L"
           id="use268" />
        <use
           transform="matrix(0.05,0,0,0.05,10.3,0)"
           xlink:href="#F"
           id="use270" />
        <use
           transform="matrix(0.05,0,0,0.05,14.25,0)"
           xlink:href="#C"
           id="use272" />
        <use
           transform="matrix(0.05,0,0,0.05,24.25,0)"
           xlink:href="#D"
           id="use274" />
        <use
           transform="matrix(0.05,0,0,0.05,30.200000000000003,0)"
           xlink:href="#M"
           id="use276" />
      </g>
      <path
         d="M212-179c-10-28-35-45-73-45-59 0-87 40-87 99 0 60 29 101 89 101 43 0 62-24 78-52l27 14C228-24 195 4 139 4 59 4 22-46 18-125c-6-104 99-153 187-111 19 9 31 26 39 46"
         id="N" />
      <path
         d="M24 0v-261h32V0H24"
         id="O" />
      <path
         d="M59-47c-2 24 18 29 38 22v24C64 9 27 4 27-40v-127H5v-23h24l9-43h21v43h35v23H59v120"
         id="P" />
      <path
         d="M33 0v-248h34V0H33"
         id="Q" />
      <g
         id="e">
        <use
           transform="matrix(0.05,0,0,0.05,0,0)"
           xlink:href="#N"
           id="use283" />
        <use
           transform="matrix(0.05,0,0,0.05,12.950000000000001,0)"
           xlink:href="#O"
           id="use285" />
        <use
           transform="matrix(0.05,0,0,0.05,16.900000000000002,0)"
           xlink:href="#F"
           id="use287" />
        <use
           transform="matrix(0.05,0,0,0.05,20.85,0)"
           xlink:href="#C"
           id="use289" />
        <use
           transform="matrix(0.05,0,0,0.05,30.85,0)"
           xlink:href="#K"
           id="use291" />
        <use
           transform="matrix(0.05,0,0,0.05,40.85,0)"
           xlink:href="#P"
           id="use293" />
        <use
           transform="matrix(0.05,0,0,0.05,45.85,0)"
           xlink:href="#Q"
           id="use295" />
        <use
           transform="matrix(0.05,0,0,0.05,50.85,0)"
           xlink:href="#K"
           id="use297" />
        <use
           transform="matrix(0.05,0,0,0.05,60.85,0)"
           xlink:href="#P"
           id="use299" />
      </g>
      <path
         d="M141-36C126-15 110 5 73 4 37 3 15-17 15-53c-1-64 63-63 125-63 3-35-9-54-41-54-24 1-41 7-42 31l-33-3c5-37 33-52 76-52 45 0 72 20 72 64v82c-1 20 7 32 28 27v20c-31 9-61-2-59-35zM48-53c0 20 12 33 32 33 41-3 63-29 60-74-43 2-92-5-92 41"
         id="R" />
      <g
         id="f">
        <use
           transform="matrix(0.05,0,0,0.05,0,0)"
           xlink:href="#N"
           id="use303" />
        <use
           transform="matrix(0.05,0,0,0.05,12.950000000000001,0)"
           xlink:href="#R"
           id="use305" />
        <use
           transform="matrix(0.05,0,0,0.05,22.950000000000003,0)"
           xlink:href="#D"
           id="use307" />
        <use
           transform="matrix(0.05,0,0,0.05,28.900000000000002,0)"
           xlink:href="#Q"
           id="use309" />
        <use
           transform="matrix(0.05,0,0,0.05,33.900000000000006,0)"
           xlink:href="#K"
           id="use311" />
        <use
           transform="matrix(0.05,0,0,0.05,43.900000000000006,0)"
           xlink:href="#P"
           id="use313" />
      </g>
      <path
         d="M205 0l-28-72H64L36 0H1l101-248h38L239 0h-34zm-38-99l-47-123c-12 45-31 82-46 123h93"
         id="S" />
      <path
         d="M84 4C-5 8 30-112 23-190h32v120c0 31 7 50 39 49 72-2 45-101 50-169h31l1 190h-30c-1-10 1-25-2-33-11 22-28 36-60 37"
         id="T" />
      <path
         d="M106-169C34-169 62-67 57 0H25v-261h32l-1 103c12-21 28-36 61-36 89 0 53 116 60 194h-32v-121c2-32-8-49-39-48"
         id="U" />
      <g
         id="g">
        <use
           transform="matrix(0.05,0,0,0.05,0,0)"
           xlink:href="#S"
           id="use319" />
        <use
           transform="matrix(0.05,0,0,0.05,12,0)"
           xlink:href="#T"
           id="use321" />
        <use
           transform="matrix(0.05,0,0,0.05,22,0)"
           xlink:href="#P"
           id="use323" />
        <use
           transform="matrix(0.05,0,0,0.05,27,0)"
           xlink:href="#U"
           id="use325" />
        <use
           transform="matrix(0.05,0,0,0.05,37,0)"
           xlink:href="#C"
           id="use327" />
        <use
           transform="matrix(0.05,0,0,0.05,47,0)"
           xlink:href="#K"
           id="use329" />
        <use
           transform="matrix(0.05,0,0,0.05,57,0)"
           xlink:href="#P"
           id="use331" />
        <use
           transform="matrix(0.05,0,0,0.05,62,0)"
           xlink:href="#F"
           id="use333" />
        <use
           transform="matrix(0.05,0,0,0.05,65.95,0)"
           xlink:href="#I"
           id="use335" />
        <use
           transform="matrix(0.05,0,0,0.05,74.95,0)"
           xlink:href="#R"
           id="use337" />
        <use
           transform="matrix(0.05,0,0,0.05,84.95,0)"
           xlink:href="#P"
           id="use339" />
        <use
           transform="matrix(0.05,0,0,0.05,89.95,0)"
           xlink:href="#F"
           id="use341" />
        <use
           transform="matrix(0.05,0,0,0.05,93.9,0)"
           xlink:href="#J"
           id="use343" />
        <use
           transform="matrix(0.05,0,0,0.05,103.9,0)"
           xlink:href="#K"
           id="use345" />
      </g>
      <path
         d="M240 0l2-218c-23 76-54 145-80 218h-23L58-218 59 0H30v-248h44l77 211c21-75 51-140 76-211h43V0h-30"
         id="V" />
      <path
         d="M177-190C167-65 218 103 67 71c-23-6-38-20-44-43l32-5c15 47 100 32 89-28v-30C133-14 115 1 83 1 29 1 15-40 15-95c0-56 16-97 71-98 29-1 48 16 59 35 1-10 0-23 2-32h30zM94-22c36 0 50-32 50-73 0-42-14-75-50-75-39 0-46 34-46 75s6 73 46 73"
         id="W" />
      <g
         id="h">
        <use
           transform="matrix(0.05,0,0,0.05,0,0)"
           xlink:href="#V"
           id="use350" />
        <use
           transform="matrix(0.05,0,0,0.05,14.950000000000001,0)"
           xlink:href="#R"
           id="use352" />
        <use
           transform="matrix(0.05,0,0,0.05,24.950000000000003,0)"
           xlink:href="#K"
           id="use354" />
        <use
           transform="matrix(0.05,0,0,0.05,34.95,0)"
           xlink:href="#R"
           id="use356" />
        <use
           transform="matrix(0.05,0,0,0.05,44.95,0)"
           xlink:href="#W"
           id="use358" />
        <use
           transform="matrix(0.05,0,0,0.05,54.95,0)"
           xlink:href="#C"
           id="use360" />
        <use
           transform="matrix(0.05,0,0,0.05,64.95,0)"
           xlink:href="#D"
           id="use362" />
      </g>
      <path
         d="M233-177c-1 41-23 64-60 70L243 0h-38l-65-103H63V0H30v-248c88 3 205-21 203 71zM63-129c60-2 137 13 137-47 0-61-80-42-137-45v92"
         id="X" />
      <path
         d="M135-143c-3-34-86-38-87 0 15 53 115 12 119 90S17 21 10-45l28-5c4 36 97 45 98 0-10-56-113-15-118-90-4-57 82-63 122-42 12 7 21 19 24 35"
         id="Y" />
      <g
         id="i">
        <use
           transform="matrix(0.05,0,0,0.05,0,0)"
           xlink:href="#X"
           id="use367" />
        <use
           transform="matrix(0.05,0,0,0.05,12.950000000000001,0)"
           xlink:href="#C"
           id="use369" />
        <use
           transform="matrix(0.05,0,0,0.05,22.950000000000003,0)"
           xlink:href="#W"
           id="use371" />
        <use
           transform="matrix(0.05,0,0,0.05,32.95,0)"
           xlink:href="#F"
           id="use373" />
        <use
           transform="matrix(0.05,0,0,0.05,36.900000000000006,0)"
           xlink:href="#Y"
           id="use375" />
        <use
           transform="matrix(0.05,0,0,0.05,45.900000000000006,0)"
           xlink:href="#P"
           id="use377" />
        <use
           transform="matrix(0.05,0,0,0.05,50.900000000000006,0)"
           xlink:href="#D"
           id="use379" />
        <use
           transform="matrix(0.05,0,0,0.05,56.85,0)"
           xlink:href="#R"
           id="use381" />
        <use
           transform="matrix(0.05,0,0,0.05,66.85000000000001,0)"
           xlink:href="#P"
           id="use383" />
        <use
           transform="matrix(0.05,0,0,0.05,71.85000000000001,0)"
           xlink:href="#F"
           id="use385" />
        <use
           transform="matrix(0.05,0,0,0.05,75.80000000000001,0)"
           xlink:href="#J"
           id="use387" />
        <use
           transform="matrix(0.05,0,0,0.05,85.80000000000001,0)"
           xlink:href="#K"
           id="use389" />
      </g>
      <g
         id="j">
        <use
           transform="matrix(0.05,0,0,0.05,0,0)"
           xlink:href="#X"
           id="use392" />
        <use
           transform="matrix(0.05,0,0,0.05,12.950000000000001,0)"
           xlink:href="#C"
           id="use394" />
        <use
           transform="matrix(0.05,0,0,0.05,22.950000000000003,0)"
           xlink:href="#Y"
           id="use396" />
        <use
           transform="matrix(0.05,0,0,0.05,31.950000000000003,0)"
           xlink:href="#C"
           id="use398" />
        <use
           transform="matrix(0.05,0,0,0.05,41.95,0)"
           xlink:href="#D"
           id="use400" />
        <use
           transform="matrix(0.05,0,0,0.05,47.900000000000006,0)"
           xlink:href="#E"
           id="use402" />
        <use
           transform="matrix(0.05,0,0,0.05,56.900000000000006,0)"
           xlink:href="#R"
           id="use404" />
        <use
           transform="matrix(0.05,0,0,0.05,66.9,0)"
           xlink:href="#P"
           id="use406" />
        <use
           transform="matrix(0.05,0,0,0.05,71.9,0)"
           xlink:href="#F"
           id="use408" />
        <use
           transform="matrix(0.05,0,0,0.05,75.85000000000001,0)"
           xlink:href="#J"
           id="use410" />
        <use
           transform="matrix(0.05,0,0,0.05,85.85000000000001,0)"
           xlink:href="#K"
           id="use412" />
      </g>
      <g
         id="k">
        <use
           transform="matrix(0.05,0,0,0.05,0,0)"
           xlink:href="#N"
           id="use415" />
        <use
           transform="matrix(0.05,0,0,0.05,12.950000000000001,0)"
           xlink:href="#R"
           id="use417" />
        <use
           transform="matrix(0.05,0,0,0.05,22.950000000000003,0)"
           xlink:href="#D"
           id="use419" />
      </g>
      <g
         id="l">
        <use
           transform="matrix(0.05,0,0,0.05,0,0)"
           xlink:href="#N"
           id="use422" />
        <use
           transform="matrix(0.05,0,0,0.05,12.950000000000001,0)"
           xlink:href="#O"
           id="use424" />
        <use
           transform="matrix(0.05,0,0,0.05,16.900000000000002,0)"
           xlink:href="#F"
           id="use426" />
        <use
           transform="matrix(0.05,0,0,0.05,20.85,0)"
           xlink:href="#C"
           id="use428" />
        <use
           transform="matrix(0.05,0,0,0.05,30.85,0)"
           xlink:href="#K"
           id="use430" />
        <use
           transform="matrix(0.05,0,0,0.05,40.85,0)"
           xlink:href="#P"
           id="use432" />
      </g>
      <path
         d="M197 0v-115H63V0H30v-248h33v105h134v-105h34V0h-34"
         id="Z" />
      <g
         id="m">
        <use
           transform="matrix(0.05,0,0,0.05,0,0)"
           xlink:href="#Z"
           id="use436" />
        <use
           transform="matrix(0.05,0,0,0.05,12.950000000000001,0)"
           xlink:href="#R"
           id="use438" />
        <use
           transform="matrix(0.05,0,0,0.05,22.950000000000003,0)"
           xlink:href="#K"
           id="use440" />
        <use
           transform="matrix(0.05,0,0,0.05,32.95,0)"
           xlink:href="#G"
           id="use442" />
        <use
           transform="matrix(0.05,0,0,0.05,42.95,0)"
           xlink:href="#O"
           id="use444" />
        <use
           transform="matrix(0.05,0,0,0.05,46.900000000000006,0)"
           xlink:href="#C"
           id="use446" />
        <use
           transform="matrix(0.05,0,0,0.05,56.900000000000006,0)"
           xlink:href="#D"
           id="use448" />
      </g>
      <g
         id="n">
        <use
           transform="matrix(0.05,0,0,0.05,0,0)"
           xlink:href="#V"
           id="use451" />
        <use
           transform="matrix(0.05,0,0,0.05,14.950000000000001,0)"
           xlink:href="#J"
           id="use453" />
        <use
           transform="matrix(0.05,0,0,0.05,24.950000000000003,0)"
           xlink:href="#G"
           id="use455" />
        <use
           transform="matrix(0.05,0,0,0.05,34.95,0)"
           xlink:href="#C"
           id="use457" />
        <use
           transform="matrix(0.05,0,0,0.05,44.95,0)"
           xlink:href="#O"
           id="use459" />
      </g>
      <path
         d="M210-169c-67 3-38 105-44 169h-31v-121c0-29-5-50-35-48C34-165 62-65 56 0H25l-1-190h30c1 10-1 24 2 32 10-44 99-50 107 0 11-21 27-35 58-36 85-2 47 119 55 194h-31v-121c0-29-5-49-35-48"
         id="aa" />
      <g
         id="o">
        <use
           transform="matrix(0.05,0,0,0.05,0,0)"
           xlink:href="#S"
           id="use463" />
        <use
           transform="matrix(0.05,0,0,0.05,12,0)"
           xlink:href="#G"
           id="use465" />
        <use
           transform="matrix(0.05,0,0,0.05,22,0)"
           xlink:href="#aa"
           id="use467" />
        <use
           transform="matrix(0.05,0,0,0.05,36.95,0)"
           xlink:href="#F"
           id="use469" />
        <use
           transform="matrix(0.05,0,0,0.05,40.900000000000006,0)"
           xlink:href="#K"
           id="use471" />
        <use
           transform="matrix(0.05,0,0,0.05,50.900000000000006,0)"
           xlink:href="#F"
           id="use473" />
        <use
           transform="matrix(0.05,0,0,0.05,54.85,0)"
           xlink:href="#Y"
           id="use475" />
        <use
           transform="matrix(0.05,0,0,0.05,63.85,0)"
           xlink:href="#P"
           id="use477" />
        <use
           transform="matrix(0.05,0,0,0.05,68.85000000000001,0)"
           xlink:href="#D"
           id="use479" />
        <use
           transform="matrix(0.05,0,0,0.05,74.80000000000001,0)"
           xlink:href="#R"
           id="use481" />
        <use
           transform="matrix(0.05,0,0,0.05,84.80000000000001,0)"
           xlink:href="#P"
           id="use483" />
        <use
           transform="matrix(0.05,0,0,0.05,89.80000000000001,0)"
           xlink:href="#F"
           id="use485" />
        <use
           transform="matrix(0.05,0,0,0.05,93.75000000000001,0)"
           xlink:href="#J"
           id="use487" />
        <use
           transform="matrix(0.05,0,0,0.05,103.75,0)"
           xlink:href="#K"
           id="use489" />
      </g>
      <g
         id="p">
        <use
           transform="matrix(0.05,0,0,0.05,0,0)"
           xlink:href="#V"
           id="use492" />
        <use
           transform="matrix(0.05,0,0,0.05,14.950000000000001,0)"
           xlink:href="#J"
           id="use494" />
        <use
           transform="matrix(0.05,0,0,0.05,24.950000000000003,0)"
           xlink:href="#G"
           id="use496" />
        <use
           transform="matrix(0.05,0,0,0.05,34.95,0)"
           xlink:href="#T"
           id="use498" />
        <use
           transform="matrix(0.05,0,0,0.05,44.95,0)"
           xlink:href="#O"
           id="use500" />
        <use
           transform="matrix(0.05,0,0,0.05,48.900000000000006,0)"
           xlink:href="#C"
           id="use502" />
      </g>
      <path
         d="M30-248c118-7 216 8 213 122C240-48 200 0 122 0H30v-248zM63-27c89 8 146-16 146-99s-60-101-146-95v194"
         id="ab" />
      <path
         d="M160-131c35 5 61 23 61 61C221 17 115-2 30 0v-248c76 3 177-17 177 60 0 33-19 50-47 57zm-97-11c50-1 110 9 110-42 0-47-63-36-110-37v79zm0 115c55-2 124 14 124-45 0-56-70-42-124-44v89"
         id="ac" />
      <g
         id="q">
        <use
           transform="matrix(0.05,0,0,0.05,0,0)"
           xlink:href="#ab"
           id="use507" />
        <use
           transform="matrix(0.05,0,0,0.05,12.950000000000001,0)"
           xlink:href="#ac"
           id="use509" />
        <use
           transform="matrix(0.05,0,0,0.05,24.950000000000003,0)"
           xlink:href="#V"
           id="use511" />
        <use
           transform="matrix(0.05,0,0,0.05,39.900000000000006,0)"
           xlink:href="#B"
           id="use513" />
      </g>
      <path
         d="M30-248c87 1 191-15 191 75 0 78-77 80-158 76V0H30v-248zm33 125c57 0 124 11 124-50 0-59-68-47-124-48v98"
         id="ad" />
      <g
         id="r">
        <use
           transform="matrix(0.05,0,0,0.05,0,0)"
           xlink:href="#S"
           id="use517" />
        <use
           transform="matrix(0.05,0,0,0.05,12,0)"
           xlink:href="#ad"
           id="use519" />
        <use
           transform="matrix(0.05,0,0,0.05,24,0)"
           xlink:href="#Q"
           id="use521" />
      </g>
      <path
         d="M206 0h-36l-40-164L89 0H53L-1-190h32L70-26l43-164h34l41 164 42-164h31"
         id="ae" />
      <g
         id="s">
        <use
           transform="matrix(0.05,0,0,0.05,0,0)"
           xlink:href="#ad"
           id="use525" />
        <use
           transform="matrix(0.05,0,0,0.05,12,0)"
           xlink:href="#J"
           id="use527" />
        <use
           transform="matrix(0.05,0,0,0.05,22,0)"
           xlink:href="#ae"
           id="use529" />
        <use
           transform="matrix(0.05,0,0,0.05,34.95,0)"
           xlink:href="#C"
           id="use531" />
        <use
           transform="matrix(0.05,0,0,0.05,44.95,0)"
           xlink:href="#D"
           id="use533" />
      </g>
      <g
         id="t">
        <use
           transform="matrix(0.05,0,0,0.05,0,0)"
           xlink:href="#B"
           id="use536" />
        <use
           transform="matrix(0.05,0,0,0.05,12,0)"
           xlink:href="#P"
           id="use538" />
        <use
           transform="matrix(0.05,0,0,0.05,17,0)"
           xlink:href="#R"
           id="use540" />
        <use
           transform="matrix(0.05,0,0,0.05,27,0)"
           xlink:href="#P"
           id="use542" />
        <use
           transform="matrix(0.05,0,0,0.05,32,0)"
           xlink:href="#F"
           id="use544" />
        <use
           transform="matrix(0.05,0,0,0.05,35.95,0)"
           xlink:href="#J"
           id="use546" />
        <use
           transform="matrix(0.05,0,0,0.05,45.95,0)"
           xlink:href="#K"
           id="use548" />
      </g>
      <path
         d="M30 0v-248h33v221h125V0H30"
         id="af" />
      <path
         d="M137 0h-34L2-248h35l83 218 83-218h36"
         id="ag" />
      <g
         id="u">
        <use
           transform="matrix(0.05,0,0,0.05,0,0)"
           xlink:href="#ab"
           id="use553" />
        <use
           transform="matrix(0.05,0,0,0.05,12.950000000000001,0)"
           xlink:href="#af"
           id="use555" />
        <use
           transform="matrix(0.05,0,0,0.05,21.6,0)"
           xlink:href="#ag"
           id="use557" />
        <use
           transform="matrix(0.05,0,0,0.05,32.25,0)"
           xlink:href="#R"
           id="use559" />
        <use
           transform="matrix(0.05,0,0,0.05,42.25,0)"
           xlink:href="#O"
           id="use561" />
        <use
           transform="matrix(0.05,0,0,0.05,46.2,0)"
           xlink:href="#F"
           id="use563" />
        <use
           transform="matrix(0.05,0,0,0.05,50.150000000000006,0)"
           xlink:href="#G"
           id="use565" />
        <use
           transform="matrix(0.05,0,0,0.05,60.150000000000006,0)"
           xlink:href="#R"
           id="use567" />
        <use
           transform="matrix(0.05,0,0,0.05,70.15,0)"
           xlink:href="#P"
           id="use569" />
        <use
           transform="matrix(0.05,0,0,0.05,75.15,0)"
           xlink:href="#J"
           id="use571" />
        <use
           transform="matrix(0.05,0,0,0.05,85.15,0)"
           xlink:href="#D"
           id="use573" />
        <use
           transform="matrix(0.05,0,0,0.05,91.10000000000001,0)"
           xlink:href="#Q"
           id="use575" />
        <use
           transform="matrix(0.05,0,0,0.05,96.10000000000001,0)"
           xlink:href="#K"
           id="use577" />
        <use
           transform="matrix(0.05,0,0,0.05,106.10000000000001,0)"
           xlink:href="#P"
           id="use579" />
      </g>
      <g
         id="v">
        <use
           transform="matrix(0.05,0,0,0.05,0,0)"
           xlink:href="#N"
           id="use582" />
        <use
           transform="matrix(0.05,0,0,0.05,12.950000000000001,0)"
           xlink:href="#N"
           id="use584" />
        <use
           transform="matrix(0.05,0,0,0.05,25.900000000000002,0)"
           xlink:href="#ag"
           id="use586" />
        <use
           transform="matrix(0.05,0,0,0.05,36.55,0)"
           xlink:href="#R"
           id="use588" />
        <use
           transform="matrix(0.05,0,0,0.05,46.55,0)"
           xlink:href="#O"
           id="use590" />
        <use
           transform="matrix(0.05,0,0,0.05,50.5,0)"
           xlink:href="#F"
           id="use592" />
        <use
           transform="matrix(0.05,0,0,0.05,54.45,0)"
           xlink:href="#G"
           id="use594" />
        <use
           transform="matrix(0.05,0,0,0.05,64.45,0)"
           xlink:href="#R"
           id="use596" />
        <use
           transform="matrix(0.05,0,0,0.05,74.45,0)"
           xlink:href="#P"
           id="use598" />
        <use
           transform="matrix(0.05,0,0,0.05,79.45,0)"
           xlink:href="#J"
           id="use600" />
        <use
           transform="matrix(0.05,0,0,0.05,89.45,0)"
           xlink:href="#D"
           id="use602" />
        <use
           transform="matrix(0.05,0,0,0.05,95.4,0)"
           xlink:href="#Q"
           id="use604" />
        <use
           transform="matrix(0.05,0,0,0.05,100.4,0)"
           xlink:href="#K"
           id="use606" />
        <use
           transform="matrix(0.05,0,0,0.05,110.4,0)"
           xlink:href="#P"
           id="use608" />
      </g>
      <path
         d="M179-190L93 31C79 59 56 82 12 73V49c39 6 53-20 64-50L1-190h34L92-34l54-156h33"
         id="ah" />
      <g
         id="w">
        <use
           transform="matrix(0.05,0,0,0.05,0,0)"
           xlink:href="#ad"
           id="use612" />
        <use
           transform="matrix(0.05,0,0,0.05,12,0)"
           xlink:href="#R"
           id="use614" />
        <use
           transform="matrix(0.05,0,0,0.05,22,0)"
           xlink:href="#ah"
           id="use616" />
        <use
           transform="matrix(0.05,0,0,0.05,31,0)"
           xlink:href="#aa"
           id="use618" />
        <use
           transform="matrix(0.05,0,0,0.05,45.95,0)"
           xlink:href="#C"
           id="use620" />
        <use
           transform="matrix(0.05,0,0,0.05,55.95,0)"
           xlink:href="#K"
           id="use622" />
        <use
           transform="matrix(0.05,0,0,0.05,65.95,0)"
           xlink:href="#Q"
           id="use624" />
        <use
           transform="matrix(0.05,0,0,0.05,70.95,0)"
           xlink:href="#K"
           id="use626" />
        <use
           transform="matrix(0.05,0,0,0.05,80.95,0)"
           xlink:href="#P"
           id="use628" />
      </g>
      <g
         id="x">
        <use
           transform="matrix(0.05,0,0,0.05,0,0)"
           xlink:href="#S"
           id="use631" />
        <use
           transform="matrix(0.05,0,0,0.05,12,0)"
           xlink:href="#Y"
           id="use633" />
        <use
           transform="matrix(0.05,0,0,0.05,21,0)"
           xlink:href="#Y"
           id="use635" />
        <use
           transform="matrix(0.05,0,0,0.05,30,0)"
           xlink:href="#F"
           id="use637" />
        <use
           transform="matrix(0.05,0,0,0.05,33.95,0)"
           xlink:href="#Y"
           id="use639" />
        <use
           transform="matrix(0.05,0,0,0.05,42.95,0)"
           xlink:href="#P"
           id="use641" />
        <use
           transform="matrix(0.05,0,0,0.05,47.95,0)"
           xlink:href="#R"
           id="use643" />
        <use
           transform="matrix(0.05,0,0,0.05,57.95,0)"
           xlink:href="#K"
           id="use645" />
        <use
           transform="matrix(0.05,0,0,0.05,67.95,0)"
           xlink:href="#I"
           id="use647" />
        <use
           transform="matrix(0.05,0,0,0.05,76.95,0)"
           xlink:href="#C"
           id="use649" />
      </g>
      <path
         d="M143 0L79-87 56-68V0H24v-261h32v163l83-92h37l-77 82L181 0h-38"
         id="ai" />
      <g
         id="y">
        <use
           transform="matrix(0.05,0,0,0.05,0,0)"
           xlink:href="#L"
           id="use653" />
        <use
           transform="matrix(0.05,0,0,0.05,10.3,0)"
           xlink:href="#F"
           id="use655" />
        <use
           transform="matrix(0.05,0,0,0.05,14.25,0)"
           xlink:href="#I"
           id="use657" />
        <use
           transform="matrix(0.05,0,0,0.05,23.25,0)"
           xlink:href="#ai"
           id="use659" />
        <use
           transform="matrix(0.05,0,0,0.05,32.25,0)"
           xlink:href="#C"
           id="use661" />
        <use
           transform="matrix(0.05,0,0,0.05,42.25,0)"
           xlink:href="#P"
           id="use663" />
      </g>
      <g
         id="z">
        <use
           transform="matrix(0.05,0,0,0.05,0,0)"
           xlink:href="#V"
           id="use666" />
        <use
           transform="matrix(0.05,0,0,0.05,14.950000000000001,0)"
           xlink:href="#R"
           id="use668" />
        <use
           transform="matrix(0.05,0,0,0.05,24.950000000000003,0)"
           xlink:href="#K"
           id="use670" />
        <use
           transform="matrix(0.05,0,0,0.05,34.95,0)"
           xlink:href="#R"
           id="use672" />
        <use
           transform="matrix(0.05,0,0,0.05,44.95,0)"
           xlink:href="#W"
           id="use674" />
        <use
           transform="matrix(0.05,0,0,0.05,54.95,0)"
           xlink:href="#C"
           id="use676" />
        <use
           transform="matrix(0.05,0,0,0.05,64.95,0)"
           xlink:href="#D"
           id="use678" />
      </g>
      <path
         d="M101-234c-31-9-42 10-38 44h38v23H63V0H32v-167H5v-23h27c-7-52 17-82 69-68v24"
         id="aj" />
      <g
         id="A">
        <use
           transform="matrix(0.05,0,0,0.05,0,0)"
           xlink:href="#S"
           id="use682" />
        <use
           transform="matrix(0.05,0,0,0.05,12,0)"
           xlink:href="#Y"
           id="use684" />
        <use
           transform="matrix(0.05,0,0,0.05,21,0)"
           xlink:href="#Y"
           id="use686" />
        <use
           transform="matrix(0.05,0,0,0.05,30,0)"
           xlink:href="#F"
           id="use688" />
        <use
           transform="matrix(0.05,0,0,0.05,33.95,0)"
           xlink:href="#Y"
           id="use690" />
        <use
           transform="matrix(0.05,0,0,0.05,42.95,0)"
           xlink:href="#P"
           id="use692" />
        <use
           transform="matrix(0.05,0,0,0.05,47.95,0)"
           xlink:href="#R"
           id="use694" />
        <use
           transform="matrix(0.05,0,0,0.05,57.95,0)"
           xlink:href="#K"
           id="use696" />
        <use
           transform="matrix(0.05,0,0,0.05,67.95,0)"
           xlink:href="#I"
           id="use698" />
        <use
           transform="matrix(0.05,0,0,0.05,76.95,0)"
           xlink:href="#C"
           id="use700" />
        <use
           transform="matrix(0.05,0,0,0.05,86.95,0)"
           xlink:href="#Q"
           id="use702" />
        <use
           transform="matrix(0.05,0,0,0.05,91.95,0)"
           xlink:href="#K"
           id="use704" />
        <use
           transform="matrix(0.05,0,0,0.05,101.95,0)"
           xlink:href="#P"
           id="use706" />
        <use
           transform="matrix(0.05,0,0,0.05,106.95,0)"
           xlink:href="#C"
           id="use708" />
        <use
           transform="matrix(0.05,0,0,0.05,116.95,0)"
           xlink:href="#D"
           id="use710" />
        <use
           transform="matrix(0.05,0,0,0.05,122.9,0)"
           xlink:href="#aj"
           id="use712" />
        <use
           transform="matrix(0.05,0,0,0.05,127.9,0)"
           xlink:href="#R"
           id="use714" />
        <use
           transform="matrix(0.05,0,0,0.05,137.9,0)"
           xlink:href="#I"
           id="use716" />
        <use
           transform="matrix(0.05,0,0,0.05,146.9,0)"
           xlink:href="#C"
           id="use718" />
      </g>
    </defs>
  </g>
</svg>
