<?xml version="1.0" encoding="UTF-8" standalone="no"?>
<svg
   xmlns:dc="http://purl.org/dc/elements/1.1/"
   xmlns:cc="http://creativecommons.org/ns#"
   xmlns:rdf="http://www.w3.org/1999/02/22-rdf-syntax-ns#"
   xmlns:svg="http://www.w3.org/2000/svg"
   xmlns="http://www.w3.org/2000/svg"
   xmlns:xlink="http://www.w3.org/1999/xlink"
   xmlns:sodipodi="http://sodipodi.sourceforge.net/DTD/sodipodi-0.dtd"
   xmlns:inkscape="http://www.inkscape.org/namespaces/inkscape"
   width="742"
   height="1009.62"
   id="svg2"
   version="1.1"
   inkscape:version="0.91 r13725"
   sodipodi:docname="ITP - Page 1.svg">
  <metadata
     id="metadata583">
    <rdf:RDF>
      <cc:Work
         rdf:about="">
        <dc:format>image/svg+xml</dc:format>
        <dc:type
           rdf:resource="http://purl.org/dc/dcmitype/StillImage" />
      </cc:Work>
    </rdf:RDF>
  </metadata>
  <defs
     id="defs581" />
  <sodipodi:namedview
     pagecolor="#ffffff"
     bordercolor="#666666"
     borderopacity="1"
     objecttolerance="10"
     gridtolerance="10"
     guidetolerance="10"
     inkscape:pageopacity="0"
     inkscape:pageshadow="2"
     inkscape:window-width="640"
     inkscape:window-height="480"
     id="namedview579"
     showgrid="false"
     inkscape:zoom="0.23375131"
     inkscape:cx="371"
     inkscape:cy="162.56593"
     inkscape:window-x="0"
     inkscape:window-y="0"
     inkscape:window-maximized="0"
     inkscape:current-layer="g4" />
  <g
     transform="translate(-269 -146)"
     id="g4">
    <path
       d="m 265.23915,149.73178 773.90705,0 0,989.95082 -773.90705,0 z"
       id="path6"
       inkscape:connector-curvature="0"
       style="fill:#ffffff" />
    <path
       d="M320 800v120h160V800z"
       id="path8"
       stroke-width="2"
       stroke="#000"
       fill="#fff" />
    <path
       d="M470 810h-15v20h15z"
       id="path10"
       stroke="#000"
       fill="#fff" />
    <path
       d="M460 813.33h-10v3.34h10zm0 10h-10v3.34h10z"
       id="path12"
       stroke="#000"
       fill="#fff" />
    <use
       xlink:href="#a"
       transform="matrix(1,0,0,1,320,800) translate(23.054999999999993 51.9)"
       id="use14" />
    <use
       xlink:href="#b"
       transform="matrix(1,0,0,1,320,800) translate(44.55499999999999 73.5)"
       id="use16" />
    <path
       d="M560 166v120h160V166z"
       id="path18"
       stroke-width="2"
       stroke="#000"
       fill="#fff" />
    <path
       d="M710 176h-15v20h15z"
       id="path20"
       stroke="#000"
       fill="#fff" />
    <path
       d="M700 179.33h-10v3.34h10zm0 10h-10v3.34h10z"
       id="path22"
       stroke="#000"
       fill="#fff" />
    <use
       xlink:href="#c"
       transform="matrix(1,0,0,1,560,166) translate(32.10499999999999 51.9)"
       id="use24" />
    <use
       xlink:href="#b"
       transform="matrix(1,0,0,1,560,166) translate(44.55499999999999 73.5)"
       id="use26" />
    <path
       d="M799 628v120h160V628z"
       id="path28"
       stroke-width="2"
       stroke="#000"
       fill="#fff" />
    <path
       d="M949 638h-15v20h15z"
       id="path30"
       stroke="#000"
       fill="#fff" />
    <path
       d="M939 641.33h-10v3.34h10zm0 10h-10v3.34h10z"
       id="path32"
       stroke="#000"
       fill="#fff" />
    <use
       xlink:href="#d"
       transform="matrix(1,0,0,1,799,628) translate(32.07999999999999 51.9)"
       id="use34" />
    <use
       xlink:href="#b"
       transform="matrix(1,0,0,1,799,628) translate(44.55499999999999 73.5)"
       id="use36" />
    <path
       d="M799 800v120h160V800z"
       id="path38"
       stroke-width="2"
       stroke="#000"
       fill="#fff" />
    <path
       d="M949 810h-15v20h15z"
       id="path40"
       stroke="#000"
       fill="#fff" />
    <path
       d="M939 813.33h-10v3.34h10zm0 10h-10v3.34h10z"
       id="path42"
       stroke="#000"
       fill="#fff" />
    <use
       xlink:href="#e"
       transform="matrix(1,0,0,1,799,800) translate(27.604999999999997 63.15)"
       id="use44" />
    <use
       xlink:href="#b"
       transform="matrix(1,0,0,1,799,800) translate(61.505 63.15)"
       id="use46" />
    <path
       d="M320 460v120h160V460z"
       id="path48"
       stroke-width="2"
       stroke="#000"
       fill="#fff" />
    <path
       d="M470 470h-15v20h15z"
       id="path50"
       stroke="#000"
       fill="#fff" />
    <path
       d="M460 473.33h-10v3.34h10zm0 10h-10v3.34h10z"
       id="path52"
       stroke="#000"
       fill="#fff" />
    <use
       xlink:href="#f"
       transform="matrix(1,0,0,1,320,460) translate(23.154999999999994 63.15)"
       id="use54" />
    <use
       xlink:href="#g"
       transform="matrix(1,0,0,1,320,460) translate(74.005 63.15)"
       id="use56" />
    <path
       d="M559.5 1030.38v105.24h160v-105.24z"
       id="path58"
       stroke-width="2"
       stroke="#000"
       fill="#fff" />
    <path
       d="M709.5 1040.38h-15v20h15z"
       id="path60"
       stroke="#000"
       fill="#fff" />
    <path
       d="M699.5 1043.7h-10v3.35h10zm0 10h-10v3.35h10z"
       id="path62"
       stroke="#000"
       fill="#fff" />
    <use
       xlink:href="#h"
       transform="matrix(1,0,0,1,559.5,1030.380607814761) translate(17.604999999999997 57.4625)"
       id="use64" />
    <use
       xlink:href="#b"
       transform="matrix(1,0,0,1,559.5,1030.380607814761) translate(71.505 57.4625)"
       id="use66" />
    <path
       d="M320 628v120h160V628z"
       id="path68"
       stroke-width="2"
       stroke="#000"
       fill="#fff" />
    <path
       d="M470 638h-15v20h15z"
       id="path70"
       stroke="#000"
       fill="#fff" />
    <path
       d="M460 641.33h-10v3.34h10zm0 10h-10v3.34h10z"
       id="path72"
       stroke="#000"
       fill="#fff" />
    <use
       xlink:href="#i"
       transform="matrix(1,0,0,1,320,628) translate(23.12999999999999 51.9)"
       id="use74" />
    <use
       xlink:href="#j"
       transform="matrix(1,0,0,1,320,628) translate(50.555 73.5)"
       id="use76" />
    <path
       d="M799 460v120h160V460z"
       id="path78"
       stroke-width="2"
       stroke="#000"
       fill="#fff" />
    <path
       d="M949 470h-15v20h15z"
       id="path80"
       stroke="#000"
       fill="#fff" />
    <path
       d="M939 473.33h-10v3.34h10zm0 10h-10v3.34h10z"
       id="path82"
       stroke="#000"
       fill="#fff" />
    <use
       xlink:href="#k"
       transform="matrix(1,0,0,1,799,460) translate(24.07999999999999 51.9)"
       id="use84" />
    <use
       xlink:href="#l"
       transform="matrix(1,0,0,1,799,460) translate(79.97999999999999 51.9)"
       id="use86" />
    <use
       xlink:href="#b"
       transform="matrix(1,0,0,1,799,460) translate(44.55499999999999 73.5)"
       id="use88" />
    <path
       d="M799 290v120h160V290z"
       id="path90"
       stroke-width="2"
       stroke="#000"
       fill="#fff" />
    <path
       d="M949 300h-15v20h15z"
       id="path92"
       stroke="#000"
       fill="#fff" />
    <path
       d="M939 303.33h-10v3.34h10zm0 10h-10v3.34h10z"
       id="path94"
       stroke="#000"
       fill="#fff" />
    <use
       xlink:href="#m"
       transform="matrix(1,0,0,1,799,289.9999999999999) translate(21.529999999999994 40.65)"
       id="use96" />
    <use
       xlink:href="#n"
       transform="matrix(1,0,0,1,799,289.9999999999999) translate(56.38 62.25)"
       id="use98" />
    <use
       xlink:href="#o"
       transform="matrix(1,0,0,1,799,289.9999999999999) translate(44.55499999999999 83.85000000000001)"
       id="use100" />
    <path
       d="M480 490h160V286"
       id="path102"
       fill="none" />
    <path
       d="M480 490h10.1m10.12 0h20.22m10.12 0h20.22m10.1 0h20.23m10.12 0h20.22m10.12 0H640v-1.78m0-10.1v-20.23m0-10.12v-20.22m0-10.12v-20.22m0-10.1v-20.23m0-10.12v-20.22m0-10.12v-20.22m0-10.1V286"
       id="path104"
       stroke-width="2"
       stroke="#000"
       fill="none" />
    <path
       d="M644.64 300.27h-9.28L640 286z"
       id="path106" />
    <path
       d="M646 301.27h-12l4.95-15.27h2.1zm-9.26-2h6.52L640 289.24z"
       id="path108" />
    <path
       d="M632.5 346.82h15v21.6h-15z"
       id="path110"
       fill="#fff" />
    <use
       xlink:href="#p"
       transform="matrix(1,0,0,1,632.5,346.8190476190477) translate(0 14.4)"
       id="use112" />
    <path
       d="M879 748v52"
       id="path114"
       fill="none" />
    <path
       d="M879 748v8.67m0 8.66v17.34m0 8.66V800"
       id="path116"
       stroke-width="2"
       stroke="#000"
       fill="none" />
    <path
       d="M879 800l-4.64-14.27h9.28z"
       id="path118" />
    <path
       d="M880.05 800h-2.1L873 784.73h12zm-4.3-13.27l3.25 10.03 3.26-10.03z"
       id="path120" />
    <path
       d="M871.5 763.2h15v21.6h-15z"
       id="path122"
       fill="#fff" />
    <use
       xlink:href="#p"
       transform="matrix(1,0,0,1,871.5,763.2) translate(0 14.4)"
       id="use124" />
    <path
       d="M879 628v-48"
       id="path126"
       fill="none" />
    <path
       d="M879 628v-8m0-8v-16m0-8v-8"
       id="path128"
       stroke-width="2"
       stroke="#000"
       fill="none" />
    <path
       d="M883.64 594.27h-9.28L879 580z"
       id="path130" />
    <path
       d="M885 595.27h-12l4.95-15.27h2.1zm-9.26-2h6.52L879 583.24z"
       id="path132" />
    <path
       d="M871.5 593.2h15v21.6h-15z"
       id="path134"
       fill="#fff" />
    <use
       xlink:href="#p"
       transform="matrix(1,0,0,1,871.5,593.2) translate(0 14.4)"
       id="use136" />
    <path
       d="M400 748v51"
       id="path138"
       fill="none" />
    <path
       d="M400 748v8.5m0 8.5v17m0 8.5v8.5"
       id="path140"
       stroke-width="2"
       stroke="#000"
       fill="none" />
    <path
       d="M400 799l-4.64-14.27h9.28z"
       id="path142" />
    <path
       d="M400.73 800h-1.46L394 783.73h12zm-4-14.27l3.27 10.03 3.26-10.03z"
       id="path144" />
    <path
       d="M393.02 762.7h13.96v21.6h-13.96z"
       id="path146"
       fill="#fff" />
    <use
       xlink:href="#q"
       transform="matrix(1,0,0,1,393.025,762.7) translate(0 14.4)"
       id="use148" />
    <path
       d="M480 550h80v280h-80"
       id="path150"
       fill="none" />
    <path
       d="M480 550h9.78m9.78 0h19.55m9.8 0h19.54m9.78 0H560v17.78m0 9.78v19.55m0 9.8v19.54m0 9.78v19.56m0 9.78v19.55m0 9.8v19.54m0 9.78v19.56m0 9.78v19.55m0 9.8v19.54m0 9.78V830h-1.78m-9.78 0H528.9m-9.8 0h-19.54m-9.78 0H480"
       id="path152"
       stroke-width="2"
       stroke="#000"
       fill="none" />
    <path
       d="M494.27 834.64L480 830l14.27-4.64z"
       id="path154" />
    <path
       d="M495.27 836L480 831.06v-2.1l15.27-4.96zm-12.03-6l10.03 3.26v-6.52z"
       id="path156" />
    <path
       d="M509.55 819.2h15v21.6h-15z"
       id="path158"
       fill="#fff" />
    <use
       xlink:href="#p"
       transform="matrix(1,0,0,1,509.5476190476189,819.2) translate(0 14.4)"
       id="use160" />
    <path
       d="M480 520h240v138h79"
       id="path162"
       fill="none" />
    <path
       d="M480 520h10.16m10.15 0h20.32m10.16 0h20.3m10.16 0h20.32m10.15 0h20.32m10.16 0h20.3m10.16 0h20.32m10.15 0h20.32m10.16 0H720v13.9m0 10.14v20.32m0 10.15v20.32m0 10.16v20.3m0 10.16v20.32m7.9 2.24h20.32m10.16 0h20.3m10.16 0H799"
       id="path164"
       stroke-width="2"
       stroke="#000"
       fill="none" />
    <path
       d="M799 658l-14.27 4.64v-9.28z"
       id="path166" />
    <path
       d="M799 656.95v2.1L783.73 664v-12zm-13.27 4.3l10.03-3.25-10.03-3.26z"
       id="path168" />
    <path
       d="M712.5 578.82h15v21.6h-15z"
       id="path170"
       fill="#fff" />
    <use
       xlink:href="#r"
       transform="matrix(1,0,0,1,712.5,578.8190476190478) translate(0 14.4)"
       id="use172" />
    <path
       d="M320 860h-40v223h279.5"
       id="path174"
       fill="none" />
    <path
       d="M320 860h-10.05m-10.04 0H280v.2m0 10.03v20.1m0 10.04v20.1m0 10.04v20.1m0 10.05v20.1m0 10.04v20.08m0 10.05v20.1m0 10.03v20.1m0 10.04v1.8h18.3m10.04 0h20.1m10.04 0h20.1m10.04 0h20.1m10.04 0h20.1m10.04 0H449m10.04 0h20.1m10.04 0h20.1m10.03 0h20.1m10.05 0h10.05"
       id="path176"
       stroke-width="2"
       stroke="#000"
       fill="none" />
    <path
       d="M559.5 1083l-14.27 4.64v-9.28z"
       id="path178" />
    <path
       d="M559.5 1081.95v2.1l-15.27 4.96v-12zm-13.27 4.3l10.03-3.25-10.03-3.26z"
       id="path180" />
    <path
       d="M320 688h-40v395h279.5"
       id="path182"
       fill="none" />
    <path
       d="M320 688h-9.92m-9.93 0H280.3m-.3 9.62v19.85m0 9.92v19.84m0 9.92V777m0 9.93v19.85m0 9.92v19.85m0 9.92v19.85m0 9.92v19.85m0 9.9v19.86m0 9.92v19.85m0 9.93v19.84m0 9.93v19.84m0 9.93v19.84m0 9.93v19.85m1.64 8.28h19.85m9.9 0h19.86m9.92 0h19.85m9.92 0h19.85m9.92 0h19.85m9.92 0h19.84m9.92 0h19.85m9.93 0h19.85m9.93 0h19.85m9.93 0h9.92"
       id="path184"
       stroke-width="2"
       stroke="#000"
       fill="none" />
    <path
       d="M559.5 1083l-14.27 4.64v-9.28z"
       id="path186" />
    <path
       d="M559.5 1081.95v2.1l-15.27 4.96v-12zm-13.27 4.3l10.03-3.25-10.03-3.26z"
       id="path188" />
    <path
       d="M450.88 1072.2h15v21.6h-15z"
       id="path190"
       fill="#fff" />
    <use
       xlink:href="#s"
       transform="matrix(1,0,0,1,450.8809523809523,1072.2) translate(0 14.4)"
       id="use192" />
    <path
       d="M959 688h40v395H719.5"
       id="path194"
       fill="none" />
    <path
       d="M959 688h9.92m9.93 0h19.84m.3 9.62v19.85m0 9.92v19.84m0 9.92V777m0 9.93v19.85m0 9.92v19.85m0 9.92v19.85m0 9.92v19.85m0 9.9v19.86m0 9.92v19.85m0 9.93v19.84m0 9.93v19.84m0 9.93v19.84m0 9.93v19.85m-1.64 8.28H977.5m-9.9 0h-19.86m-9.92 0h-19.85m-9.92 0H888.2m-9.92 0h-19.85m-9.92 0h-19.84m-9.92 0H798.9m-9.93 0h-19.85m-9.93 0h-19.85m-9.93 0h-9.92"
       id="path196"
       stroke-width="2"
       stroke="#000"
       fill="none" />
    <path
       d="M733.77 1087.64L719.5 1083l14.27-4.64z"
       id="path198" />
    <path
       d="M734.77 1089l-15.27-4.95v-2.1l15.27-4.96zm-12.03-6l10.03 3.26v-6.52z"
       id="path200" />
    <path
       d="M959 860h40v223H719.5"
       id="path202"
       fill="none" />
    <path
       d="M959 860h10.05m10.04 0H999v.2m0 10.03v20.1m0 10.04v20.1m0 10.04v20.1m0 10.05v20.1m0 10.04v20.08m0 10.05v20.1m0 10.03v20.1m0 10.04v1.8h-18.3m-10.04 0h-20.1m-10.04 0h-20.1m-10.04 0h-20.1m-10.04 0h-20.1m-10.04 0H830m-10.04 0h-20.1m-10.04 0h-20.1m-10.03 0h-20.1m-10.05 0H719.5"
       id="path204"
       stroke-width="2"
       stroke="#000"
       fill="none" />
    <path
       d="M733.77 1087.64L719.5 1083l14.27-4.64z"
       id="path206" />
    <path
       d="M734.77 1089l-15.27-4.95v-2.1l15.27-4.96zm-12.03-6l10.03 3.26v-6.52z"
       id="path208" />
    <path
       d="M959 520h40v563H719.5"
       id="path210"
       fill="none" />
    <path
       d="M959 520h10.14m10.15 0H999v.57m0 10.15v20.3m0 10.13v20.3m0 10.13v20.3m0 10.13v20.3m0 10.14v20.3m0 10.13v20.3m0 10.13v20.3m0 10.14v20.28m0 10.15v20.28m0 10.15v20.3m0 10.13v20.3m0 10.13v20.3m0 10.13v20.28m0 10.14v20.3m0 10.13v20.3m0 10.13v20.3m0 10.13v20.3m0 10.15v20.28m0 10.15v4.52h-15.76m-10.15 0h-20.3m-10.14 0h-20.3m-10.13 0h-20.3m-10.13 0h-20.3m-10.13 0h-20.3m-10.13 0h-20.3m-10.13 0h-20.28m-10.15 0H739.8m-10.16 0H719.5"
       id="path212"
       stroke-width="2"
       stroke="#000"
       fill="none" />
    <path
       d="M733.77 1087.64L719.5 1083l14.27-4.64z"
       id="path214" />
    <path
       d="M734.77 1089l-15.27-4.95v-2.1l15.27-4.96zm-12.03-6l10.03 3.26v-6.52z"
       id="path216" />
    <path
       d="M959 350h40v733H719.5"
       id="path218"
       fill="none" />
    <path
       d="M959 350h10.02m10.03 0H999v.1m0 10.02v20.05m0 10.02v20.04m0 10.02v20.05m0 10.03v20.05m0 10.02v20.05m0 10.03v20.04m0 10.03v20.05m0 10.02v20.05m0 10.02v20.04m0 10.02v20.05m0 10.03v20.05m0 10.02v20.05m0 10.03v20.04m0 10.03v20.05m0 10.02v20.05m0 10.02v20.04m0 10.02v20.05m0 10.03v20.05m0 10.02v20.05m0 10.03v20.04m0 10.03v20.05m0 10.02v20.05m0 10.02v20.04m0 10.02v20.05m0 10.03v1.17h-18.88m-10.02 0h-20.05m-10.03 0h-20.04m-10.03 0H889.9m-10.02 0h-20.05m-10.02 0h-20.04m-10.02 0H799.7m-10.03 0h-20.05m-10.02 0h-20.05m-10.03 0H719.5"
       id="path220"
       stroke-width="2"
       stroke="#000"
       fill="none" />
    <path
       d="M733.77 1087.64L719.5 1083l14.27-4.64z"
       id="path222" />
    <path
       d="M734.77 1089l-15.27-4.95v-2.1l15.27-4.96zm-12.03-6l10.03 3.26v-6.52z"
       id="path224" />
    <path
       d="M400 580v48"
       id="path226"
       fill="none" />
    <path
       d="M400 580v8m0 8v16m0 8v8"
       id="path228"
       stroke-width="2"
       stroke="#000"
       fill="none" />
    <path
       d="M400 628l-4.64-14.27h9.28z"
       id="path230" />
    <path
       d="M401.05 628h-2.1L394 612.73h12zm-4.3-13.27l3.25 10.03 3.26-10.03z"
       id="path232" />
    <path
       d="M392.5 593.2h15v21.6h-15z"
       id="path234"
       fill="#fff" />
    <use
       xlink:href="#t"
       transform="matrix(1,0,0,1,392.5,593.2) translate(0 14.4)"
       id="use236" />
    <path
       d="M720 226h280v857H719.5"
       id="path238"
       fill="none" />
    <path
       d="M720 226h10.05m10.06 0h20.1m10.07 0h20.1m10.06 0h20.1m10.06 0h20.1m10.04 0h20.1m10.06 0H911m10.06 0h20.1m10.06 0h20.1m10.06 0H1000v1.5m0 10.04v20.1m0 10.06v20.1m0 10.06v20.1m0 10.06v20.1m0 10.06v20.1m0 10.06v20.1m0 10.06v20.1m0 10.06v20.1m0 10.06v20.1m0 10.06v20.1m0 10.06v20.1m0 10.06v20.1m0 10.06v20.1m0 10.06v20.1m0 10.06v20.1m0 10.06v20.1m0 10.06v20.1m0 10.06v20.1m0 10.05v20.12m0 10.05v20.1m0 10.06v20.1m0 10.06V891m0 10.05v20.1m0 10.06v20.12m0 10.05v20.1m0 10.06v20.1m0 10.06v20.1m0 10.05v20.1m0 10.06v1h-19.12m-10.05 0h-20.1m-10.06 0h-20.1m-10.06 0h-20.1m-10.05 0h-20.1m-10.06 0h-20.1m-10.07 0h-20.1m-10.06 0h-20.1m-10.06 0h-20.1m-10.05 0H719.5"
       id="path240"
       stroke-width="2"
       stroke="#000"
       fill="none" />
    <path
       d="M733.77 1087.64L719.5 1083l14.27-4.64z"
       id="path242" />
    <path
       d="M734.77 1089l-15.27-4.95v-2.1l15.27-4.96zm-12.03-6l10.03 3.26v-6.52z"
       id="path244" />
    <path
       d="M830.88 1072.2h15v21.6h-15z"
       id="path246"
       fill="#fff" />
    <g
       id="g248">
      <use
         xlink:href="#s"
         transform="matrix(1,0,0,1,830.8809523809523,1072.2) translate(0 14.4)"
         id="use250" />
    </g>
    <path
       d="M480 688h319"
       id="path252"
       fill="none" />
    <path
       d="M480 688h9.67m9.66 0h19.34m9.66 0h19.34m9.66 0h19.34m9.66 0h19.34m9.66 0h19.34m9.66 0h19.34m9.66 0h19.34m9.66 0h19.34m9.66 0h19.34m9.66 0h19.34m9.66 0H799"
       id="path254"
       stroke-width="2"
       stroke="#000"
       fill="none" />
    <path
       d="M799 688l-14.27 4.64v-9.28z"
       id="path256" />
    <path
       d="M799 686.95v2.1L783.73 694v-12zm-13.27 4.3l10.03-3.25-10.03-3.26z"
       id="path258" />
    <path
       d="M666.88 677.2h15v21.6h-15z"
       id="path260"
       fill="#fff" />
    <g
       id="g262">
      <use
         xlink:href="#r"
         transform="matrix(1,0,0,1,666.8809523809523,677.2) translate(0 14.4)"
         id="use264" />
    </g>
    <defs
       id="defs266">
      <path
         d="M205 0l-28-72H64L36 0H1l101-248h38L239 0h-34zm-38-99l-47-123c-12 45-31 82-46 123h93"
         id="u" />
      <path
         d="M84 4C-5 8 30-112 23-190h32v120c0 31 7 50 39 49 72-2 45-101 50-169h31l1 190h-30c-1-10 1-25-2-33-11 22-28 36-60 37"
         id="v" />
      <path
         d="M59-47c-2 24 18 29 38 22v24C64 9 27 4 27-40v-127H5v-23h24l9-43h21v43h35v23H59v120"
         id="w" />
      <path
         d="M106-169C34-169 62-67 57 0H25v-261h32l-1 103c12-21 28-36 61-36 89 0 53 116 60 194h-32v-121c2-32-8-49-39-48"
         id="x" />
      <path
         d="M100-194c63 0 86 42 84 106H49c0 40 14 67 53 68 26 1 43-12 49-29l28 8c-11 28-37 45-77 45C44 4 14-33 15-96c1-61 26-98 85-98zm52 81c6-60-76-77-97-28-3 7-6 17-6 28h103"
         id="y" />
      <path
         d="M117-194c89-4 53 116 60 194h-32v-121c0-31-8-49-39-48C34-167 62-67 57 0H25l-1-190h30c1 10-1 24 2 32 11-22 29-35 61-36"
         id="z" />
      <path
         d="M24-231v-30h32v30H24zM24 0v-190h32V0H24"
         id="A" />
      <path
         d="M96-169c-40 0-48 33-48 73s9 75 48 75c24 0 41-14 43-38l32 2c-6 37-31 61-74 61-59 0-76-41-82-99-10-93 101-131 147-64 4 7 5 14 7 22l-32 3c-4-21-16-35-41-35"
         id="B" />
      <path
         d="M141-36C126-15 110 5 73 4 37 3 15-17 15-53c-1-64 63-63 125-63 3-35-9-54-41-54-24 1-41 7-42 31l-33-3c5-37 33-52 76-52 45 0 72 20 72 64v82c-1 20 7 32 28 27v20c-31 9-61-2-59-35zM48-53c0 20 12 33 32 33 41-3 63-29 60-74-43 2-92-5-92 41"
         id="C" />
      <path
         d="M100-194c62-1 85 37 85 99 1 63-27 99-86 99S16-35 15-95c0-66 28-99 85-99zM99-20c44 1 53-31 53-75 0-43-8-75-51-75s-53 32-53 75 10 74 51 75"
         id="D" />
      <g
         id="a">
        <use
           transform="matrix(0.05,0,0,0.05,0,0)"
           xlink:href="#u"
           id="use279" />
        <use
           transform="matrix(0.05,0,0,0.05,12,0)"
           xlink:href="#v"
           id="use281" />
        <use
           transform="matrix(0.05,0,0,0.05,22,0)"
           xlink:href="#w"
           id="use283" />
        <use
           transform="matrix(0.05,0,0,0.05,27,0)"
           xlink:href="#x"
           id="use285" />
        <use
           transform="matrix(0.05,0,0,0.05,37,0)"
           xlink:href="#y"
           id="use287" />
        <use
           transform="matrix(0.05,0,0,0.05,47,0)"
           xlink:href="#z"
           id="use289" />
        <use
           transform="matrix(0.05,0,0,0.05,57,0)"
           xlink:href="#w"
           id="use291" />
        <use
           transform="matrix(0.05,0,0,0.05,62,0)"
           xlink:href="#A"
           id="use293" />
        <use
           transform="matrix(0.05,0,0,0.05,65.95,0)"
           xlink:href="#B"
           id="use295" />
        <use
           transform="matrix(0.05,0,0,0.05,74.95,0)"
           xlink:href="#C"
           id="use297" />
        <use
           transform="matrix(0.05,0,0,0.05,84.95,0)"
           xlink:href="#w"
           id="use299" />
        <use
           transform="matrix(0.05,0,0,0.05,89.95,0)"
           xlink:href="#A"
           id="use301" />
        <use
           transform="matrix(0.05,0,0,0.05,93.9,0)"
           xlink:href="#D"
           id="use303" />
        <use
           transform="matrix(0.05,0,0,0.05,103.9,0)"
           xlink:href="#z"
           id="use305" />
      </g>
      <path
         d="M240 0l2-218c-23 76-54 145-80 218h-23L58-218 59 0H30v-248h44l77 211c21-75 51-140 76-211h43V0h-30"
         id="E" />
      <path
         d="M177-190C167-65 218 103 67 71c-23-6-38-20-44-43l32-5c15 47 100 32 89-28v-30C133-14 115 1 83 1 29 1 15-40 15-95c0-56 16-97 71-98 29-1 48 16 59 35 1-10 0-23 2-32h30zM94-22c36 0 50-32 50-73 0-42-14-75-50-75-39 0-46 34-46 75s6 73 46 73"
         id="F" />
      <path
         d="M114-163C36-179 61-72 57 0H25l-1-190h30c1 12-1 29 2 39 6-27 23-49 58-41v29"
         id="G" />
      <g
         id="b">
        <use
           transform="matrix(0.05,0,0,0.05,0,0)"
           xlink:href="#E"
           id="use311" />
        <use
           transform="matrix(0.05,0,0,0.05,14.950000000000001,0)"
           xlink:href="#C"
           id="use313" />
        <use
           transform="matrix(0.05,0,0,0.05,24.950000000000003,0)"
           xlink:href="#z"
           id="use315" />
        <use
           transform="matrix(0.05,0,0,0.05,34.95,0)"
           xlink:href="#C"
           id="use317" />
        <use
           transform="matrix(0.05,0,0,0.05,44.95,0)"
           xlink:href="#F"
           id="use319" />
        <use
           transform="matrix(0.05,0,0,0.05,54.95,0)"
           xlink:href="#y"
           id="use321" />
        <use
           transform="matrix(0.05,0,0,0.05,64.95,0)"
           xlink:href="#G"
           id="use323" />
      </g>
      <path
         d="M233-177c-1 41-23 64-60 70L243 0h-38l-65-103H63V0H30v-248c88 3 205-21 203 71zM63-129c60-2 137 13 137-47 0-61-80-42-137-45v92"
         id="H" />
      <path
         d="M135-143c-3-34-86-38-87 0 15 53 115 12 119 90S17 21 10-45l28-5c4 36 97 45 98 0-10-56-113-15-118-90-4-57 82-63 122-42 12 7 21 19 24 35"
         id="I" />
      <g
         id="c">
        <use
           transform="matrix(0.05,0,0,0.05,0,0)"
           xlink:href="#H"
           id="use328" />
        <use
           transform="matrix(0.05,0,0,0.05,12.950000000000001,0)"
           xlink:href="#y"
           id="use330" />
        <use
           transform="matrix(0.05,0,0,0.05,22.950000000000003,0)"
           xlink:href="#F"
           id="use332" />
        <use
           transform="matrix(0.05,0,0,0.05,32.95,0)"
           xlink:href="#A"
           id="use334" />
        <use
           transform="matrix(0.05,0,0,0.05,36.900000000000006,0)"
           xlink:href="#I"
           id="use336" />
        <use
           transform="matrix(0.05,0,0,0.05,45.900000000000006,0)"
           xlink:href="#w"
           id="use338" />
        <use
           transform="matrix(0.05,0,0,0.05,50.900000000000006,0)"
           xlink:href="#G"
           id="use340" />
        <use
           transform="matrix(0.05,0,0,0.05,56.85,0)"
           xlink:href="#C"
           id="use342" />
        <use
           transform="matrix(0.05,0,0,0.05,66.85000000000001,0)"
           xlink:href="#w"
           id="use344" />
        <use
           transform="matrix(0.05,0,0,0.05,71.85000000000001,0)"
           xlink:href="#A"
           id="use346" />
        <use
           transform="matrix(0.05,0,0,0.05,75.80000000000001,0)"
           xlink:href="#D"
           id="use348" />
        <use
           transform="matrix(0.05,0,0,0.05,85.80000000000001,0)"
           xlink:href="#z"
           id="use350" />
      </g>
      <path
         d="M108 0H70L1-190h34L89-25l56-165h34"
         id="J" />
      <g
         id="d">
        <use
           transform="matrix(0.05,0,0,0.05,0,0)"
           xlink:href="#H"
           id="use354" />
        <use
           transform="matrix(0.05,0,0,0.05,12.950000000000001,0)"
           xlink:href="#y"
           id="use356" />
        <use
           transform="matrix(0.05,0,0,0.05,22.950000000000003,0)"
           xlink:href="#I"
           id="use358" />
        <use
           transform="matrix(0.05,0,0,0.05,31.950000000000003,0)"
           xlink:href="#y"
           id="use360" />
        <use
           transform="matrix(0.05,0,0,0.05,41.95,0)"
           xlink:href="#G"
           id="use362" />
        <use
           transform="matrix(0.05,0,0,0.05,47.900000000000006,0)"
           xlink:href="#J"
           id="use364" />
        <use
           transform="matrix(0.05,0,0,0.05,56.900000000000006,0)"
           xlink:href="#C"
           id="use366" />
        <use
           transform="matrix(0.05,0,0,0.05,66.9,0)"
           xlink:href="#w"
           id="use368" />
        <use
           transform="matrix(0.05,0,0,0.05,71.9,0)"
           xlink:href="#A"
           id="use370" />
        <use
           transform="matrix(0.05,0,0,0.05,75.85000000000001,0)"
           xlink:href="#D"
           id="use372" />
        <use
           transform="matrix(0.05,0,0,0.05,85.85000000000001,0)"
           xlink:href="#z"
           id="use374" />
      </g>
      <path
         d="M212-179c-10-28-35-45-73-45-59 0-87 40-87 99 0 60 29 101 89 101 43 0 62-24 78-52l27 14C228-24 195 4 139 4 59 4 22-46 18-125c-6-104 99-153 187-111 19 9 31 26 39 46"
         id="K" />
      <g
         id="e">
        <use
           transform="matrix(0.05,0,0,0.05,0,0)"
           xlink:href="#K"
           id="use378" />
        <use
           transform="matrix(0.05,0,0,0.05,12.950000000000001,0)"
           xlink:href="#C"
           id="use380" />
        <use
           transform="matrix(0.05,0,0,0.05,22.950000000000003,0)"
           xlink:href="#G"
           id="use382" />
      </g>
      <path
         d="M24 0v-261h32V0H24"
         id="L" />
      <g
         id="f">
        <use
           transform="matrix(0.05,0,0,0.05,0,0)"
           xlink:href="#K"
           id="use386" />
        <use
           transform="matrix(0.05,0,0,0.05,12.950000000000001,0)"
           xlink:href="#L"
           id="use388" />
        <use
           transform="matrix(0.05,0,0,0.05,16.900000000000002,0)"
           xlink:href="#A"
           id="use390" />
        <use
           transform="matrix(0.05,0,0,0.05,20.85,0)"
           xlink:href="#y"
           id="use392" />
        <use
           transform="matrix(0.05,0,0,0.05,30.85,0)"
           xlink:href="#z"
           id="use394" />
        <use
           transform="matrix(0.05,0,0,0.05,40.85,0)"
           xlink:href="#w"
           id="use396" />
      </g>
      <path
         d="M197 0v-115H63V0H30v-248h33v105h134v-105h34V0h-34"
         id="M" />
      <path
         d="M85-194c31 0 48 13 60 33l-1-100h32l1 261h-30c-2-10 0-23-3-31C134-8 116 4 85 4 32 4 16-35 15-94c0-66 23-100 70-100zm9 24c-40 0-46 34-46 75 0 40 6 74 45 74 42 0 51-32 51-76 0-42-9-74-50-73"
         id="N" />
      <g
         id="g">
        <use
           transform="matrix(0.05,0,0,0.05,0,0)"
           xlink:href="#M"
           id="use401" />
        <use
           transform="matrix(0.05,0,0,0.05,12.950000000000001,0)"
           xlink:href="#C"
           id="use403" />
        <use
           transform="matrix(0.05,0,0,0.05,22.950000000000003,0)"
           xlink:href="#z"
           id="use405" />
        <use
           transform="matrix(0.05,0,0,0.05,32.95,0)"
           xlink:href="#N"
           id="use407" />
        <use
           transform="matrix(0.05,0,0,0.05,42.95,0)"
           xlink:href="#L"
           id="use409" />
        <use
           transform="matrix(0.05,0,0,0.05,46.900000000000006,0)"
           xlink:href="#y"
           id="use411" />
        <use
           transform="matrix(0.05,0,0,0.05,56.900000000000006,0)"
           xlink:href="#G"
           id="use413" />
      </g>
      <g
         id="h">
        <use
           transform="matrix(0.05,0,0,0.05,0,0)"
           xlink:href="#E"
           id="use416" />
        <use
           transform="matrix(0.05,0,0,0.05,14.950000000000001,0)"
           xlink:href="#D"
           id="use418" />
        <use
           transform="matrix(0.05,0,0,0.05,24.950000000000003,0)"
           xlink:href="#N"
           id="use420" />
        <use
           transform="matrix(0.05,0,0,0.05,34.95,0)"
           xlink:href="#y"
           id="use422" />
        <use
           transform="matrix(0.05,0,0,0.05,44.95,0)"
           xlink:href="#L"
           id="use424" />
      </g>
      <path
         d="M210-169c-67 3-38 105-44 169h-31v-121c0-29-5-50-35-48C34-165 62-65 56 0H25l-1-190h30c1 10-1 24 2 32 10-44 99-50 107 0 11-21 27-35 58-36 85-2 47 119 55 194h-31v-121c0-29-5-49-35-48"
         id="O" />
      <g
         id="i">
        <use
           transform="matrix(0.05,0,0,0.05,0,0)"
           xlink:href="#u"
           id="use428" />
        <use
           transform="matrix(0.05,0,0,0.05,12,0)"
           xlink:href="#N"
           id="use430" />
        <use
           transform="matrix(0.05,0,0,0.05,22,0)"
           xlink:href="#O"
           id="use432" />
        <use
           transform="matrix(0.05,0,0,0.05,36.95,0)"
           xlink:href="#A"
           id="use434" />
        <use
           transform="matrix(0.05,0,0,0.05,40.900000000000006,0)"
           xlink:href="#z"
           id="use436" />
        <use
           transform="matrix(0.05,0,0,0.05,50.900000000000006,0)"
           xlink:href="#A"
           id="use438" />
        <use
           transform="matrix(0.05,0,0,0.05,54.85,0)"
           xlink:href="#I"
           id="use440" />
        <use
           transform="matrix(0.05,0,0,0.05,63.85,0)"
           xlink:href="#w"
           id="use442" />
        <use
           transform="matrix(0.05,0,0,0.05,68.85000000000001,0)"
           xlink:href="#G"
           id="use444" />
        <use
           transform="matrix(0.05,0,0,0.05,74.80000000000001,0)"
           xlink:href="#C"
           id="use446" />
        <use
           transform="matrix(0.05,0,0,0.05,84.80000000000001,0)"
           xlink:href="#w"
           id="use448" />
        <use
           transform="matrix(0.05,0,0,0.05,89.80000000000001,0)"
           xlink:href="#A"
           id="use450" />
        <use
           transform="matrix(0.05,0,0,0.05,93.75000000000001,0)"
           xlink:href="#D"
           id="use452" />
        <use
           transform="matrix(0.05,0,0,0.05,103.75,0)"
           xlink:href="#z"
           id="use454" />
      </g>
      <g
         id="j">
        <use
           transform="matrix(0.05,0,0,0.05,0,0)"
           xlink:href="#E"
           id="use457" />
        <use
           transform="matrix(0.05,0,0,0.05,14.950000000000001,0)"
           xlink:href="#D"
           id="use459" />
        <use
           transform="matrix(0.05,0,0,0.05,24.950000000000003,0)"
           xlink:href="#N"
           id="use461" />
        <use
           transform="matrix(0.05,0,0,0.05,34.95,0)"
           xlink:href="#v"
           id="use463" />
        <use
           transform="matrix(0.05,0,0,0.05,44.95,0)"
           xlink:href="#L"
           id="use465" />
        <use
           transform="matrix(0.05,0,0,0.05,48.900000000000006,0)"
           xlink:href="#y"
           id="use467" />
      </g>
      <path
         d="M30-248c87 1 191-15 191 75 0 78-77 80-158 76V0H30v-248zm33 125c57 0 124 11 124-50 0-59-68-47-124-48v98"
         id="P" />
      <path
         d="M206 0h-36l-40-164L89 0H53L-1-190h32L70-26l43-164h34l41 164 42-164h31"
         id="Q" />
      <g
         id="k">
        <use
           transform="matrix(0.05,0,0,0.05,0,0)"
           xlink:href="#P"
           id="use472" />
        <use
           transform="matrix(0.05,0,0,0.05,12,0)"
           xlink:href="#D"
           id="use474" />
        <use
           transform="matrix(0.05,0,0,0.05,22,0)"
           xlink:href="#Q"
           id="use476" />
        <use
           transform="matrix(0.05,0,0,0.05,34.95,0)"
           xlink:href="#y"
           id="use478" />
        <use
           transform="matrix(0.05,0,0,0.05,44.95,0)"
           xlink:href="#G"
           id="use480" />
      </g>
      <path
         d="M185-189c-5-48-123-54-124 2 14 75 158 14 163 119 3 78-121 87-175 55-17-10-28-26-33-46l33-7c5 56 141 63 141-1 0-78-155-14-162-118-5-82 145-84 179-34 5 7 8 16 11 25"
         id="R" />
      <g
         id="l">
        <use
           transform="matrix(0.05,0,0,0.05,0,0)"
           xlink:href="#R"
           id="use484" />
        <use
           transform="matrix(0.05,0,0,0.05,12,0)"
           xlink:href="#w"
           id="use486" />
        <use
           transform="matrix(0.05,0,0,0.05,17,0)"
           xlink:href="#C"
           id="use488" />
        <use
           transform="matrix(0.05,0,0,0.05,27,0)"
           xlink:href="#w"
           id="use490" />
        <use
           transform="matrix(0.05,0,0,0.05,32,0)"
           xlink:href="#A"
           id="use492" />
        <use
           transform="matrix(0.05,0,0,0.05,35.95,0)"
           xlink:href="#D"
           id="use494" />
        <use
           transform="matrix(0.05,0,0,0.05,45.95,0)"
           xlink:href="#z"
           id="use496" />
      </g>
      <g
         id="m">
        <use
           transform="matrix(0.05,0,0,0.05,0,0)"
           xlink:href="#u"
           id="use499" />
        <use
           transform="matrix(0.05,0,0,0.05,12,0)"
           xlink:href="#I"
           id="use501" />
        <use
           transform="matrix(0.05,0,0,0.05,21,0)"
           xlink:href="#I"
           id="use503" />
        <use
           transform="matrix(0.05,0,0,0.05,30,0)"
           xlink:href="#A"
           id="use505" />
        <use
           transform="matrix(0.05,0,0,0.05,33.95,0)"
           xlink:href="#I"
           id="use507" />
        <use
           transform="matrix(0.05,0,0,0.05,42.95,0)"
           xlink:href="#w"
           id="use509" />
        <use
           transform="matrix(0.05,0,0,0.05,47.95,0)"
           xlink:href="#C"
           id="use511" />
        <use
           transform="matrix(0.05,0,0,0.05,57.95,0)"
           xlink:href="#z"
           id="use513" />
        <use
           transform="matrix(0.05,0,0,0.05,67.95,0)"
           xlink:href="#B"
           id="use515" />
        <use
           transform="matrix(0.05,0,0,0.05,76.95,0)"
           xlink:href="#y"
           id="use517" />
      </g>
      <path
         d="M127-220V0H93v-220H8v-28h204v28h-85"
         id="S" />
      <path
         d="M143 0L79-87 56-68V0H24v-261h32v163l83-92h37l-77 82L181 0h-38"
         id="T" />
      <g
         id="n">
        <use
           transform="matrix(0.05,0,0,0.05,0,0)"
           xlink:href="#S"
           id="use522" />
        <use
           transform="matrix(0.05,0,0,0.05,10.3,0)"
           xlink:href="#A"
           id="use524" />
        <use
           transform="matrix(0.05,0,0,0.05,14.25,0)"
           xlink:href="#B"
           id="use526" />
        <use
           transform="matrix(0.05,0,0,0.05,23.25,0)"
           xlink:href="#T"
           id="use528" />
        <use
           transform="matrix(0.05,0,0,0.05,32.25,0)"
           xlink:href="#y"
           id="use530" />
        <use
           transform="matrix(0.05,0,0,0.05,42.25,0)"
           xlink:href="#w"
           id="use532" />
      </g>
      <g
         id="o">
        <use
           transform="matrix(0.05,0,0,0.05,0,0)"
           xlink:href="#E"
           id="use535" />
        <use
           transform="matrix(0.05,0,0,0.05,14.950000000000001,0)"
           xlink:href="#C"
           id="use537" />
        <use
           transform="matrix(0.05,0,0,0.05,24.950000000000003,0)"
           xlink:href="#z"
           id="use539" />
        <use
           transform="matrix(0.05,0,0,0.05,34.95,0)"
           xlink:href="#C"
           id="use541" />
        <use
           transform="matrix(0.05,0,0,0.05,44.95,0)"
           xlink:href="#F"
           id="use543" />
        <use
           transform="matrix(0.05,0,0,0.05,54.95,0)"
           xlink:href="#y"
           id="use545" />
        <use
           transform="matrix(0.05,0,0,0.05,64.95,0)"
           xlink:href="#G"
           id="use547" />
      </g>
      <path
         d="M33 0v-248h34V0H33"
         id="U" />
      <path
         d="M101-251c82-7 93 87 43 132L82-64C71-53 59-42 53-27h129V0H18c2-99 128-94 128-182 0-28-16-43-45-43s-46 15-49 41l-32-3c6-41 34-60 81-64"
         id="V" />
      <g
         id="p">
        <use
           transform="matrix(0.05,0,0,0.05,0,0)"
           xlink:href="#U"
           id="use552" />
        <use
           transform="matrix(0.05,0,0,0.05,5,0)"
           xlink:href="#V"
           id="use554" />
      </g>
      <g
         id="q">
        <use
           transform="matrix(0.05,0,0,0.05,0,0)"
           xlink:href="#A"
           id="use557" />
        <use
           transform="matrix(0.05,0,0,0.05,3.95,0)"
           xlink:href="#V"
           id="use559" />
      </g>
      <path
         d="M126-127c33 6 58 20 58 59 0 88-139 92-164 29-3-8-5-16-6-25l32-3c6 27 21 44 54 44 32 0 52-15 52-46 0-38-36-46-79-43v-28c39 1 72-4 72-42 0-27-17-43-46-43-28 0-47 15-49 41l-32-3c6-42 35-63 81-64 48-1 79 21 79 65 0 36-21 52-52 59"
         id="W" />
      <g
         id="r">
        <use
           transform="matrix(0.05,0,0,0.05,0,0)"
           xlink:href="#U"
           id="use563" />
        <use
           transform="matrix(0.05,0,0,0.05,5,0)"
           xlink:href="#W"
           id="use565" />
      </g>
      <path
         d="M27 0v-27h64v-190l-56 39v-29l58-41h29v221h61V0H27"
         id="X" />
      <g
         id="s">
        <use
           transform="matrix(0.05,0,0,0.05,0,0)"
           xlink:href="#U"
           id="use569" />
        <use
           transform="matrix(0.05,0,0,0.05,5,0)"
           xlink:href="#X"
           id="use571" />
      </g>
      <path
         d="M155-56V0h-30v-56H8v-25l114-167h33v167h35v25h-35zm-30-156c-27 46-58 90-88 131h88v-131"
         id="Y" />
      <g
         id="t">
        <use
           transform="matrix(0.05,0,0,0.05,0,0)"
           xlink:href="#U"
           id="use575" />
        <use
           transform="matrix(0.05,0,0,0.05,5,0)"
           xlink:href="#Y"
           id="use577" />
      </g>
    </defs>
  </g>
</svg>
