<?xml version="1.0" encoding="UTF-8" standalone="no"?><svg xmlns="http://www.w3.org/2000/svg" xmlns:xlink="http://www.w3.org/1999/xlink" contentScriptType="application/ecmascript" contentStyleType="text/css" height="911px" preserveAspectRatio="none" style="width:1369px;height:911px;" version="1.1" viewBox="0 0 1369 911" width="1369px" zoomAndPan="magnify"><defs><filter height="300%" id="frbdeul" width="300%" x="-1" y="-1"><feGaussianBlur result="blurOut" stdDeviation="2.0"/><feColorMatrix in="blurOut" result="blurOut2" type="matrix" values="0 0 0 0 0 0 0 0 0 0 0 0 0 0 0 0 0 0 .4 0"/><feOffset dx="4.0" dy="4.0" in="blurOut2" result="blurOut3"/><feBlend in="SourceGraphic" in2="blurOut3" mode="normal"/></filter></defs><g><rect fill="#FFFFFF" filter="url(#frbdeul)" height="563.3906" style="stroke: #FFFFFF; stroke-width: 1.0;" width="10" x="44.5" y="96.2969"/><line style="stroke: #A80036; stroke-width: 1.0;" x1="44.5" x2="44.5" y1="96.2969" y2="659.6875"/><line style="stroke: #A80036; stroke-width: 1.0;" x1="54.5" x2="54.5" y1="96.2969" y2="659.6875"/><line style="stroke: #A80036; stroke-width: 1.0;" x1="44.5" x2="54.5" y1="96.2969" y2="96.2969"/><rect fill="#FFFFFF" filter="url(#frbdeul)" height="130.5313" style="stroke: #FFFFFF; stroke-width: 1.0;" width="10" x="44.5" y="687.6875"/><line style="stroke: #A80036; stroke-width: 1.0;" x1="44.5" x2="44.5" y1="687.6875" y2="818.2188"/><line style="stroke: #A80036; stroke-width: 1.0;" x1="54.5" x2="54.5" y1="687.6875" y2="818.2188"/><rect fill="#FFFFFF" filter="url(#frbdeul)" height="563.3906" style="stroke: #FFFFFF; stroke-width: 1.0;" width="10" x="194.5" y="96.2969"/><line style="stroke: #A80036; stroke-width: 1.0;" x1="194.5" x2="194.5" y1="96.2969" y2="659.6875"/><line style="stroke: #A80036; stroke-width: 1.0;" x1="204.5" x2="204.5" y1="96.2969" y2="659.6875"/><line style="stroke: #A80036; stroke-width: 1.0;" x1="194.5" x2="204.5" y1="96.2969" y2="96.2969"/><rect fill="#FFFFFF" filter="url(#frbdeul)" height="130.5313" style="stroke: #FFFFFF; stroke-width: 1.0;" width="10" x="194.5" y="687.6875"/><line style="stroke: #A80036; stroke-width: 1.0;" x1="194.5" x2="194.5" y1="687.6875" y2="818.2188"/><line style="stroke: #A80036; stroke-width: 1.0;" x1="204.5" x2="204.5" y1="687.6875" y2="818.2188"/><rect fill="#FFFFFF" filter="url(#frbdeul)" height="505.2578" style="stroke: #FFFFFF; stroke-width: 1.0;" width="10" x="458.5" y="154.4297"/><line style="stroke: #A80036; stroke-width: 1.0;" x1="458.5" x2="458.5" y1="154.4297" y2="659.6875"/><line style="stroke: #A80036; stroke-width: 1.0;" x1="468.5" x2="468.5" y1="154.4297" y2="659.6875"/><line style="stroke: #A80036; stroke-width: 1.0;" x1="458.5" x2="468.5" y1="154.4297" y2="154.4297"/><rect fill="#FFFFFF" filter="url(#frbdeul)" height="130.5313" style="stroke: #FFFFFF; stroke-width: 1.0;" width="10" x="458.5" y="687.6875"/><line style="stroke: #A80036; stroke-width: 1.0;" x1="458.5" x2="458.5" y1="687.6875" y2="818.2188"/><line style="stroke: #A80036; stroke-width: 1.0;" x1="468.5" x2="468.5" y1="687.6875" y2="818.2188"/><rect fill="#FFFFFF" filter="url(#frbdeul)" height="471.125" style="stroke: #FFFFFF; stroke-width: 1.0;" width="10" x="760.5" y="188.5625"/><line style="stroke: #A80036; stroke-width: 1.0;" x1="760.5" x2="760.5" y1="188.5625" y2="659.6875"/><line style="stroke: #A80036; stroke-width: 1.0;" x1="770.5" x2="770.5" y1="188.5625" y2="659.6875"/><line style="stroke: #A80036; stroke-width: 1.0;" x1="760.5" x2="770.5" y1="188.5625" y2="188.5625"/><rect fill="#FFFFFF" filter="url(#frbdeul)" height="130.5313" style="stroke: #FFFFFF; stroke-width: 1.0;" width="10" x="760.5" y="687.6875"/><line style="stroke: #A80036; stroke-width: 1.0;" x1="760.5" x2="760.5" y1="687.6875" y2="818.2188"/><line style="stroke: #A80036; stroke-width: 1.0;" x1="770.5" x2="770.5" y1="687.6875" y2="818.2188"/><rect fill="#FFFFFF" filter="url(#frbdeul)" height="441.9922" style="stroke: #FFFFFF; stroke-width: 1.0;" width="10" x="989.5" y="217.6953"/><line style="stroke: #A80036; stroke-width: 1.0;" x1="989.5" x2="989.5" y1="217.6953" y2="659.6875"/><line style="stroke: #A80036; stroke-width: 1.0;" x1="999.5" x2="999.5" y1="217.6953" y2="659.6875"/><line style="stroke: #A80036; stroke-width: 1.0;" x1="989.5" x2="999.5" y1="217.6953" y2="217.6953"/><rect fill="#FFFFFF" filter="url(#frbdeul)" height="130.5313" style="stroke: #FFFFFF; stroke-width: 1.0;" width="10" x="989.5" y="687.6875"/><line style="stroke: #A80036; stroke-width: 1.0;" x1="989.5" x2="989.5" y1="687.6875" y2="818.2188"/><line style="stroke: #A80036; stroke-width: 1.0;" x1="999.5" x2="999.5" y1="687.6875" y2="818.2188"/><rect fill="#FFFFFF" filter="url(#frbdeul)" height="187.9297" style="stroke: #FFFFFF; stroke-width: 1.0;" width="10" x="1119.5" y="471.7578"/><line style="stroke: #A80036; stroke-width: 1.0;" x1="1119.5" x2="1119.5" y1="471.7578" y2="659.6875"/><line style="stroke: #A80036; stroke-width: 1.0;" x1="1129.5" x2="1129.5" y1="471.7578" y2="659.6875"/><line style="stroke: #A80036; stroke-width: 1.0;" x1="1119.5" x2="1129.5" y1="471.7578" y2="471.7578"/><rect fill="#FFFFFF" filter="url(#frbdeul)" height="21" style="stroke: #FFFFFF; stroke-width: 1.0;" width="10" x="1119.5" y="687.6875"/><line style="stroke: #A80036; stroke-width: 1.0;" x1="1119.5" x2="1119.5" y1="687.6875" y2="708.6875"/><line style="stroke: #A80036; stroke-width: 1.0;" x1="1129.5" x2="1129.5" y1="687.6875" y2="708.6875"/><line style="stroke: #A80036; stroke-width: 1.0;" x1="1119.5" x2="1129.5" y1="708.6875" y2="708.6875"/><rect fill="#FFFFFF" filter="url(#frbdeul)" height="288.3281" style="stroke: #FFFFFF; stroke-width: 1.0;" width="10" x="1257" y="371.3594"/><line style="stroke: #A80036; stroke-width: 1.0;" x1="1257" x2="1257" y1="371.3594" y2="659.6875"/><line style="stroke: #A80036; stroke-width: 1.0;" x1="1267" x2="1267" y1="371.3594" y2="659.6875"/><line style="stroke: #A80036; stroke-width: 1.0;" x1="1257" x2="1267" y1="371.3594" y2="371.3594"/><rect fill="#FFFFFF" filter="url(#frbdeul)" height="130.5313" style="stroke: #FFFFFF; stroke-width: 1.0;" width="10" x="1257" y="687.6875"/><line style="stroke: #A80036; stroke-width: 1.0;" x1="1257" x2="1257" y1="687.6875" y2="818.2188"/><line style="stroke: #A80036; stroke-width: 1.0;" x1="1267" x2="1267" y1="687.6875" y2="818.2188"/><rect fill="#FFFFFF" filter="url(#frbdeul)" height="563.3906" style="stroke: #FFFFFF; stroke-width: 1.0;" width="10" x="1342" y="96.2969"/><line style="stroke: #A80036; stroke-width: 1.0;" x1="1342" x2="1342" y1="96.2969" y2="659.6875"/><line style="stroke: #A80036; stroke-width: 1.0;" x1="1352" x2="1352" y1="96.2969" y2="659.6875"/><line style="stroke: #A80036; stroke-width: 1.0;" x1="1342" x2="1352" y1="96.2969" y2="96.2969"/><rect fill="#FFFFFF" filter="url(#frbdeul)" height="130.5313" style="stroke: #FFFFFF; stroke-width: 1.0;" width="10" x="1342" y="687.6875"/><line style="stroke: #A80036; stroke-width: 1.0;" x1="1342" x2="1342" y1="687.6875" y2="818.2188"/><line style="stroke: #A80036; stroke-width: 1.0;" x1="1352" x2="1352" y1="687.6875" y2="818.2188"/><line style="stroke: #A80036; stroke-width: 1.0;" x1="49" x2="49" y1="86.2969" y2="659.6875"/><line style="stroke: #A80036; stroke-width: 1.0; stroke-dasharray: 1.0,4.0;" x1="49" x2="49" y1="659.6875" y2="687.6875"/><line style="stroke: #A80036; stroke-width: 1.0;" x1="49" x2="49" y1="687.6875" y2="827.2188"/><line style="stroke: #A80036; stroke-width: 1.0;" x1="199" x2="199" y1="86.2969" y2="659.6875"/><line style="stroke: #A80036; stroke-width: 1.0; stroke-dasharray: 1.0,4.0;" x1="199" x2="199" y1="659.6875" y2="687.6875"/><line style="stroke: #A80036; stroke-width: 1.0;" x1="199" x2="199" y1="687.6875" y2="827.2188"/><line style="stroke: #A80036; stroke-width: 1.0;" x1="463.5" x2="463.5" y1="86.2969" y2="659.6875"/><line style="stroke: #A80036; stroke-width: 1.0; stroke-dasharray: 1.0,4.0;" x1="463.5" x2="463.5" y1="659.6875" y2="687.6875"/><line style="stroke: #A80036; stroke-width: 1.0;" x1="463.5" x2="463.5" y1="687.6875" y2="827.2188"/><line style="stroke: #A80036; stroke-width: 1.0;" x1="765.5" x2="765.5" y1="86.2969" y2="659.6875"/><line style="stroke: #A80036; stroke-width: 1.0; stroke-dasharray: 1.0,4.0;" x1="765.5" x2="765.5" y1="659.6875" y2="687.6875"/><line style="stroke: #A80036; stroke-width: 1.0;" x1="765.5" x2="765.5" y1="687.6875" y2="827.2188"/><line style="stroke: #A80036; stroke-width: 1.0;" x1="994" x2="994" y1="86.2969" y2="659.6875"/><line style="stroke: #A80036; stroke-width: 1.0; stroke-dasharray: 1.0,4.0;" x1="994" x2="994" y1="659.6875" y2="687.6875"/><line style="stroke: #A80036; stroke-width: 1.0;" x1="994" x2="994" y1="687.6875" y2="827.2188"/><line style="stroke: #A80036; stroke-width: 1.0;" x1="1124" x2="1124" y1="86.2969" y2="659.6875"/><line style="stroke: #A80036; stroke-width: 1.0; stroke-dasharray: 1.0,4.0;" x1="1124" x2="1124" y1="659.6875" y2="687.6875"/><line style="stroke: #A80036; stroke-width: 1.0;" x1="1124" x2="1124" y1="687.6875" y2="827.2188"/><line style="stroke: #A80036; stroke-width: 1.0;" x1="1262" x2="1262" y1="86.2969" y2="659.6875"/><line style="stroke: #A80036; stroke-width: 1.0; stroke-dasharray: 1.0,4.0;" x1="1262" x2="1262" y1="659.6875" y2="687.6875"/><line style="stroke: #A80036; stroke-width: 1.0;" x1="1262" x2="1262" y1="687.6875" y2="827.2188"/><line style="stroke: #A80036; stroke-width: 1.0;" x1="1347" x2="1347" y1="86.2969" y2="659.6875"/><line style="stroke: #A80036; stroke-width: 1.0; stroke-dasharray: 1.0,4.0;" x1="1347" x2="1347" y1="659.6875" y2="687.6875"/><line style="stroke: #A80036; stroke-width: 1.0;" x1="1347" x2="1347" y1="687.6875" y2="827.2188"/><text fill="#000000" font-family="sans-serif" font-size="14" lengthAdjust="spacingAndGlyphs" textLength="77" x="8" y="82.9951">Active User</text><ellipse cx="49.5" cy="13" fill="#FEFECE" filter="url(#frbdeul)" rx="8" ry="8" style="stroke: #A80036; stroke-width: 2.0;"/><path d="M49.5,21 L49.5,48 M36.5,29 L62.5,29 M49.5,48 L36.5,63 M49.5,48 L62.5,63 " fill="#FEFECE" filter="url(#frbdeul)" style="stroke: #A80036; stroke-width: 2.0;"/><text fill="#000000" font-family="sans-serif" font-size="14" lengthAdjust="spacingAndGlyphs" textLength="77" x="8" y="839.2139">Active User</text><ellipse cx="49.5" cy="852.5156" fill="#FEFECE" filter="url(#frbdeul)" rx="8" ry="8" style="stroke: #A80036; stroke-width: 2.0;"/><path d="M49.5,860.5156 L49.5,887.5156 M36.5,868.5156 L62.5,868.5156 M49.5,887.5156 L36.5,902.5156 M49.5,887.5156 L62.5,902.5156 " fill="#FEFECE" filter="url(#frbdeul)" style="stroke: #A80036; stroke-width: 2.0;"/><rect fill="#FEFECE" filter="url(#frbdeul)" height="30.2969" style="stroke: #A80036; stroke-width: 1.5;" width="125" x="135" y="51"/><text fill="#000000" font-family="sans-serif" font-size="14" lengthAdjust="spacingAndGlyphs" textLength="111" x="142" y="70.9951">User Application</text><rect fill="#FEFECE" filter="url(#frbdeul)" height="30.2969" style="stroke: #A80036; stroke-width: 1.5;" width="125" x="135" y="826.2188"/><text fill="#000000" font-family="sans-serif" font-size="14" lengthAdjust="spacingAndGlyphs" textLength="111" x="142" y="846.2139">User Application</text><rect fill="#FEFECE" filter="url(#frbdeul)" height="30.2969" style="stroke: #A80036; stroke-width: 1.5;" width="110" x="406.5" y="51"/><text fill="#000000" font-family="sans-serif" font-size="14" lengthAdjust="spacingAndGlyphs" textLength="96" x="413.5" y="70.9951">Client Handler</text><rect fill="#FEFECE" filter="url(#frbdeul)" height="30.2969" style="stroke: #A80036; stroke-width: 1.5;" width="110" x="406.5" y="826.2188"/><text fill="#000000" font-family="sans-serif" font-size="14" lengthAdjust="spacingAndGlyphs" textLength="96" x="413.5" y="846.2139">Client Handler</text><rect fill="#FEFECE" filter="url(#frbdeul)" height="30.2969" style="stroke: #A80036; stroke-width: 1.5;" width="160" x="683.5" y="51"/><text fill="#000000" font-family="sans-serif" font-size="14" lengthAdjust="spacingAndGlyphs" textLength="146" x="690.5" y="70.9951">Reservation Manager</text><rect fill="#FEFECE" filter="url(#frbdeul)" height="30.2969" style="stroke: #A80036; stroke-width: 1.5;" width="160" x="683.5" y="826.2188"/><text fill="#000000" font-family="sans-serif" font-size="14" lengthAdjust="spacingAndGlyphs" textLength="146" x="690.5" y="846.2139">Reservation Manager</text><rect fill="#FEFECE" filter="url(#frbdeul)" height="30.2969" style="stroke: #A80036; stroke-width: 1.5;" width="101" x="942" y="51"/><text fill="#000000" font-family="sans-serif" font-size="14" lengthAdjust="spacingAndGlyphs" textLength="87" x="949" y="70.9951">Car Manager</text><rect fill="#FEFECE" filter="url(#frbdeul)" height="30.2969" style="stroke: #A80036; stroke-width: 1.5;" width="101" x="942" y="826.2188"/><text fill="#000000" font-family="sans-serif" font-size="14" lengthAdjust="spacingAndGlyphs" textLength="87" x="949" y="846.2139">Car Manager</text><rect fill="#FEFECE" filter="url(#frbdeul)" height="30.2969" style="stroke: #A80036; stroke-width: 1.5;" width="131" x="1057" y="51"/><text fill="#000000" font-family="sans-serif" font-size="14" lengthAdjust="spacingAndGlyphs" textLength="117" x="1064" y="70.9951">Payment Handler</text><rect fill="#FEFECE" filter="url(#frbdeul)" height="30.2969" style="stroke: #A80036; stroke-width: 1.5;" width="131" x="1057" y="826.2188"/><text fill="#000000" font-family="sans-serif" font-size="14" lengthAdjust="spacingAndGlyphs" textLength="117" x="1064" y="846.2139">Payment Handler</text><rect fill="#FEFECE" filter="url(#frbdeul)" height="30.2969" style="stroke: #A80036; stroke-width: 1.5;" width="116" x="1202" y="51"/><text fill="#000000" font-family="sans-serif" font-size="14" lengthAdjust="spacingAndGlyphs" textLength="102" x="1209" y="70.9951">ModelManager</text><rect fill="#FEFECE" filter="url(#frbdeul)" height="30.2969" style="stroke: #A80036; stroke-width: 1.5;" width="116" x="1202" y="826.2188"/><text fill="#000000" font-family="sans-serif" font-size="14" lengthAdjust="spacingAndGlyphs" textLength="102" x="1209" y="846.2139">ModelManager</text><text fill="#000000" font-family="sans-serif" font-size="14" lengthAdjust="spacingAndGlyphs" textLength="23" x="1332.5" y="82.9951">Car</text><ellipse cx="1347" cy="13" fill="#FEFECE" filter="url(#frbdeul)" rx="8" ry="8" style="stroke: #A80036; stroke-width: 2.0;"/><path d="M1347,21 L1347,48 M1334,29 L1360,29 M1347,48 L1334,63 M1347,48 L1360,63 " fill="#FEFECE" filter="url(#frbdeul)" style="stroke: #A80036; stroke-width: 2.0;"/><text fill="#000000" font-family="sans-serif" font-size="14" lengthAdjust="spacingAndGlyphs" textLength="23" x="1332.5" y="839.2139">Car</text><ellipse cx="1347" cy="852.5156" fill="#FEFECE" filter="url(#frbdeul)" rx="8" ry="8" style="stroke: #A80036; stroke-width: 2.0;"/><path d="M1347,860.5156 L1347,887.5156 M1334,868.5156 L1360,868.5156 M1347,887.5156 L1334,902.5156 M1347,887.5156 L1360,902.5156 " fill="#FEFECE" filter="url(#frbdeul)" style="stroke: #A80036; stroke-width: 2.0;"/><rect fill="#FFFFFF" filter="url(#frbdeul)" height="563.3906" style="stroke: #FFFFFF; stroke-width: 1.0;" width="10" x="44.5" y="96.2969"/><line style="stroke: #A80036; stroke-width: 1.0;" x1="44.5" x2="44.5" y1="96.2969" y2="659.6875"/><line style="stroke: #A80036; stroke-width: 1.0;" x1="54.5" x2="54.5" y1="96.2969" y2="659.6875"/><line style="stroke: #A80036; stroke-width: 1.0;" x1="44.5" x2="54.5" y1="96.2969" y2="96.2969"/><rect fill="#FFFFFF" filter="url(#frbdeul)" height="130.5313" style="stroke: #FFFFFF; stroke-width: 1.0;" width="10" x="44.5" y="687.6875"/><line style="stroke: #A80036; stroke-width: 1.0;" x1="44.5" x2="44.5" y1="687.6875" y2="818.2188"/><line style="stroke: #A80036; stroke-width: 1.0;" x1="54.5" x2="54.5" y1="687.6875" y2="818.2188"/><rect fill="#FFFFFF" filter="url(#frbdeul)" height="563.3906" style="stroke: #FFFFFF; stroke-width: 1.0;" width="10" x="194.5" y="96.2969"/><line style="stroke: #A80036; stroke-width: 1.0;" x1="194.5" x2="194.5" y1="96.2969" y2="659.6875"/><line style="stroke: #A80036; stroke-width: 1.0;" x1="204.5" x2="204.5" y1="96.2969" y2="659.6875"/><line style="stroke: #A80036; stroke-width: 1.0;" x1="194.5" x2="204.5" y1="96.2969" y2="96.2969"/><rect fill="#FFFFFF" filter="url(#frbdeul)" height="130.5313" style="stroke: #FFFFFF; stroke-width: 1.0;" width="10" x="194.5" y="687.6875"/><line style="stroke: #A80036; stroke-width: 1.0;" x1="194.5" x2="194.5" y1="687.6875" y2="818.2188"/><line style="stroke: #A80036; stroke-width: 1.0;" x1="204.5" x2="204.5" y1="687.6875" y2="818.2188"/><rect fill="#FFFFFF" filter="url(#frbdeul)" height="505.2578" style="stroke: #FFFFFF; stroke-width: 1.0;" width="10" x="458.5" y="154.4297"/><line style="stroke: #A80036; stroke-width: 1.0;" x1="458.5" x2="458.5" y1="154.4297" y2="659.6875"/><line style="stroke: #A80036; stroke-width: 1.0;" x1="468.5" x2="468.5" y1="154.4297" y2="659.6875"/><line style="stroke: #A80036; stroke-width: 1.0;" x1="458.5" x2="468.5" y1="154.4297" y2="154.4297"/><rect fill="#FFFFFF" filter="url(#frbdeul)" height="130.5313" style="stroke: #FFFFFF; stroke-width: 1.0;" width="10" x="458.5" y="687.6875"/><line style="stroke: #A80036; stroke-width: 1.0;" x1="458.5" x2="458.5" y1="687.6875" y2="818.2188"/><line style="stroke: #A80036; stroke-width: 1.0;" x1="468.5" x2="468.5" y1="687.6875" y2="818.2188"/><rect fill="#FFFFFF" filter="url(#frbdeul)" height="471.125" style="stroke: #FFFFFF; stroke-width: 1.0;" width="10" x="760.5" y="188.5625"/><line style="stroke: #A80036; stroke-width: 1.0;" x1="760.5" x2="760.5" y1="188.5625" y2="659.6875"/><line style="stroke: #A80036; stroke-width: 1.0;" x1="770.5" x2="770.5" y1="188.5625" y2="659.6875"/><line style="stroke: #A80036; stroke-width: 1.0;" x1="760.5" x2="770.5" y1="188.5625" y2="188.5625"/><rect fill="#FFFFFF" filter="url(#frbdeul)" height="130.5313" style="stroke: #FFFFFF; stroke-width: 1.0;" width="10" x="760.5" y="687.6875"/><line style="stroke: #A80036; stroke-width: 1.0;" x1="760.5" x2="760.5" y1="687.6875" y2="818.2188"/><line style="stroke: #A80036; stroke-width: 1.0;" x1="770.5" x2="770.5" y1="687.6875" y2="818.2188"/><rect fill="#FFFFFF" filter="url(#frbdeul)" height="441.9922" style="stroke: #FFFFFF; stroke-width: 1.0;" width="10" x="989.5" y="217.6953"/><line style="stroke: #A80036; stroke-width: 1.0;" x1="989.5" x2="989.5" y1="217.6953" y2="659.6875"/><line style="stroke: #A80036; stroke-width: 1.0;" x1="999.5" x2="999.5" y1="217.6953" y2="659.6875"/><line style="stroke: #A80036; stroke-width: 1.0;" x1="989.5" x2="999.5" y1="217.6953" y2="217.6953"/><rect fill="#FFFFFF" filter="url(#frbdeul)" height="130.5313" style="stroke: #FFFFFF; stroke-width: 1.0;" width="10" x="989.5" y="687.6875"/><line style="stroke: #A80036; stroke-width: 1.0;" x1="989.5" x2="989.5" y1="687.6875" y2="818.2188"/><line style="stroke: #A80036; stroke-width: 1.0;" x1="999.5" x2="999.5" y1="687.6875" y2="818.2188"/><rect fill="#FFFFFF" filter="url(#frbdeul)" height="187.9297" style="stroke: #FFFFFF; stroke-width: 1.0;" width="10" x="1119.5" y="471.7578"/><line style="stroke: #A80036; stroke-width: 1.0;" x1="1119.5" x2="1119.5" y1="471.7578" y2="659.6875"/><line style="stroke: #A80036; stroke-width: 1.0;" x1="1129.5" x2="1129.5" y1="471.7578" y2="659.6875"/><line style="stroke: #A80036; stroke-width: 1.0;" x1="1119.5" x2="1129.5" y1="471.7578" y2="471.7578"/><rect fill="#FFFFFF" filter="url(#frbdeul)" height="21" style="stroke: #FFFFFF; stroke-width: 1.0;" width="10" x="1119.5" y="687.6875"/><line style="stroke: #A80036; stroke-width: 1.0;" x1="1119.5" x2="1119.5" y1="687.6875" y2="708.6875"/><line style="stroke: #A80036; stroke-width: 1.0;" x1="1129.5" x2="1129.5" y1="687.6875" y2="708.6875"/><line style="stroke: #A80036; stroke-width: 1.0;" x1="1119.5" x2="1129.5" y1="708.6875" y2="708.6875"/><rect fill="#FFFFFF" filter="url(#frbdeul)" height="288.3281" style="stroke: #FFFFFF; stroke-width: 1.0;" width="10" x="1257" y="371.3594"/><line style="stroke: #A80036; stroke-width: 1.0;" x1="1257" x2="1257" y1="371.3594" y2="659.6875"/><line style="stroke: #A80036; stroke-width: 1.0;" x1="1267" x2="1267" y1="371.3594" y2="659.6875"/><line style="stroke: #A80036; stroke-width: 1.0;" x1="1257" x2="1267" y1="371.3594" y2="371.3594"/><rect fill="#FFFFFF" filter="url(#frbdeul)" height="130.5313" style="stroke: #FFFFFF; stroke-width: 1.0;" width="10" x="1257" y="687.6875"/><line style="stroke: #A80036; stroke-width: 1.0;" x1="1257" x2="1257" y1="687.6875" y2="818.2188"/><line style="stroke: #A80036; stroke-width: 1.0;" x1="1267" x2="1267" y1="687.6875" y2="818.2188"/><rect fill="#FFFFFF" filter="url(#frbdeul)" height="563.3906" style="stroke: #FFFFFF; stroke-width: 1.0;" width="10" x="1342" y="96.2969"/><line style="stroke: #A80036; stroke-width: 1.0;" x1="1342" x2="1342" y1="96.2969" y2="659.6875"/><line style="stroke: #A80036; stroke-width: 1.0;" x1="1352" x2="1352" y1="96.2969" y2="659.6875"/><line style="stroke: #A80036; stroke-width: 1.0;" x1="1342" x2="1352" y1="96.2969" y2="96.2969"/><rect fill="#FFFFFF" filter="url(#frbdeul)" height="130.5313" style="stroke: #FFFFFF; stroke-width: 1.0;" width="10" x="1342" y="687.6875"/><line style="stroke: #A80036; stroke-width: 1.0;" x1="1342" x2="1342" y1="687.6875" y2="818.2188"/><line style="stroke: #A80036; stroke-width: 1.0;" x1="1352" x2="1352" y1="687.6875" y2="818.2188"/><polygon fill="#A80036" points="182.5,113.2969,192.5,117.2969,182.5,121.2969,186.5,117.2969" style="stroke: #A80036; stroke-width: 1.0;"/><line style="stroke: #A80036; stroke-width: 1.0;" x1="54.5" x2="188.5" y1="117.2969" y2="117.2969"/><text fill="#000000" font-family="sans-serif" font-size="13" lengthAdjust="spacingAndGlyphs" textLength="116" x="61.5" y="112.3638">parkCarIntention()</text><line style="stroke: #A80036; stroke-width: 1.0;" x1="204.5" x2="251.5" y1="141.5625" y2="141.5625"/><line style="stroke: #A80036; stroke-width: 1.0;" x1="251.5" x2="251.5" y1="141.5625" y2="154.5625"/><line style="stroke: #A80036; stroke-width: 1.0;" x1="210.5" x2="251.5" y1="154.5625" y2="154.5625"/><polygon fill="#A80036" points="220.5,150.5625,210.5,154.5625,220.5,158.5625,216.5,154.5625" style="stroke: #A80036; stroke-width: 1.0;"/><text fill="#000000" font-family="sans-serif" font-size="13" lengthAdjust="spacingAndGlyphs" textLength="136" x="216.5" y="136.4966">retrieveRealPosition()</text><line style="stroke: #A80036; stroke-width: 1.0;" x1="456.5" x2="446.5" y1="188.5625" y2="184.5625"/><line style="stroke: #A80036; stroke-width: 1.0;" x1="456.5" x2="446.5" y1="188.5625" y2="192.5625"/><line style="stroke: #A80036; stroke-width: 1.0;" x1="204.5" x2="457.5" y1="188.5625" y2="188.5625"/><text fill="#000000" font-family="sans-serif" font-size="13" lengthAdjust="spacingAndGlyphs" textLength="172" x="211.5" y="183.6294">parkRequest(CarID, AU_ID)</text><line style="stroke: #A80036; stroke-width: 1.0;" x1="758.5" x2="748.5" y1="217.6953" y2="213.6953"/><line style="stroke: #A80036; stroke-width: 1.0;" x1="758.5" x2="748.5" y1="217.6953" y2="221.6953"/><line style="stroke: #A80036; stroke-width: 1.0;" x1="468.5" x2="759.5" y1="217.6953" y2="217.6953"/><text fill="#000000" font-family="sans-serif" font-size="13" lengthAdjust="spacingAndGlyphs" textLength="172" x="475.5" y="212.7622">parkRequest(CarID, AU_ID)</text><line style="stroke: #A80036; stroke-width: 1.0;" x1="987.5" x2="977.5" y1="246.8281" y2="242.8281"/><line style="stroke: #A80036; stroke-width: 1.0;" x1="987.5" x2="977.5" y1="246.8281" y2="250.8281"/><line style="stroke: #A80036; stroke-width: 1.0;" x1="770.5" x2="988.5" y1="246.8281" y2="246.8281"/><text fill="#000000" font-family="sans-serif" font-size="13" lengthAdjust="spacingAndGlyphs" textLength="154" x="777.5" y="241.895">getCarInfo(CarID,AU_ID)</text><line style="stroke: #A80036; stroke-width: 1.0;" x1="1340" x2="1330" y1="275.9609" y2="271.9609"/><line style="stroke: #A80036; stroke-width: 1.0;" x1="1340" x2="1330" y1="275.9609" y2="279.9609"/><line style="stroke: #A80036; stroke-width: 1.0;" x1="999.5" x2="1341" y1="275.9609" y2="275.9609"/><text fill="#000000" font-family="sans-serif" font-size="13" lengthAdjust="spacingAndGlyphs" textLength="170" x="1006.5" y="271.0278">retrieveCarPosition (CarID)</text><line style="stroke: #A80036; stroke-width: 1.0;" x1="999.5" x2="1009.5" y1="305.0938" y2="301.0938"/><line style="stroke: #A80036; stroke-width: 1.0;" x1="999.5" x2="1009.5" y1="305.0938" y2="309.0938"/><line style="stroke: #A80036; stroke-width: 1.0; stroke-dasharray: 2.0,2.0;" x1="999.5" x2="1341" y1="305.0938" y2="305.0938"/><text fill="#000000" font-family="sans-serif" font-size="13" lengthAdjust="spacingAndGlyphs" textLength="146" x="1016.5" y="300.1606">&lt;&lt;Current Position&gt;&gt;</text><line style="stroke: #A80036; stroke-width: 1.0;" x1="770.5" x2="780.5" y1="334.2266" y2="330.2266"/><line style="stroke: #A80036; stroke-width: 1.0;" x1="770.5" x2="780.5" y1="334.2266" y2="338.2266"/><line style="stroke: #A80036; stroke-width: 1.0;" x1="770.5" x2="988.5" y1="334.2266" y2="334.2266"/><text fill="#000000" font-family="sans-serif" font-size="13" lengthAdjust="spacingAndGlyphs" textLength="94" x="787.5" y="329.2935">carStatus(Car)</text><line style="stroke: #A80036; stroke-width: 1.0;" x1="770.5" x2="817.5" y1="358.4922" y2="358.4922"/><line style="stroke: #A80036; stroke-width: 1.0;" x1="817.5" x2="817.5" y1="358.4922" y2="371.4922"/><line style="stroke: #A80036; stroke-width: 1.0;" x1="776.5" x2="817.5" y1="371.4922" y2="371.4922"/><polygon fill="#A80036" points="786.5,367.4922,776.5,371.4922,786.5,375.4922,782.5,371.4922" style="stroke: #A80036; stroke-width: 1.0;"/><text fill="#000000" font-family="sans-serif" font-size="13" lengthAdjust="spacingAndGlyphs" textLength="138" x="782.5" y="353.4263">verifyBoundaries(Car)</text><line style="stroke: #A80036; stroke-width: 1.0;" x1="987.5" x2="977.5" y1="405.4922" y2="401.4922"/><line style="stroke: #A80036; stroke-width: 1.0;" x1="987.5" x2="977.5" y1="405.4922" y2="409.4922"/><line style="stroke: #A80036; stroke-width: 1.0;" x1="770.5" x2="988.5" y1="405.4922" y2="405.4922"/><text fill="#000000" font-family="sans-serif" font-size="13" lengthAdjust="spacingAndGlyphs" textLength="195" x="777.5" y="400.5591">terminateRental(CarID, AU_ID)</text><line style="stroke: #A80036; stroke-width: 1.0;" x1="1255" x2="1245" y1="434.625" y2="430.625"/><line style="stroke: #A80036; stroke-width: 1.0;" x1="1255" x2="1245" y1="434.625" y2="438.625"/><line style="stroke: #A80036; stroke-width: 1.0;" x1="999.5" x2="1256" y1="434.625" y2="434.625"/><text fill="#000000" font-family="sans-serif" font-size="13" lengthAdjust="spacingAndGlyphs" textLength="187" x="1006.5" y="429.6919">updateStatus(CarID,PARKED)</text><line style="stroke: #A80036; stroke-width: 1.0;" x1="770.5" x2="817.5" y1="458.8906" y2="458.8906"/><line style="stroke: #A80036; stroke-width: 1.0;" x1="817.5" x2="817.5" y1="458.8906" y2="471.8906"/><line style="stroke: #A80036; stroke-width: 1.0;" x1="776.5" x2="817.5" y1="471.8906" y2="471.8906"/><line style="stroke: #A80036; stroke-width: 1.0;" x1="776.5" x2="786.5" y1="471.8906" y2="467.8906"/><line style="stroke: #A80036; stroke-width: 1.0;" x1="776.5" x2="786.5" y1="471.8906" y2="475.8906"/><text fill="#000000" font-family="sans-serif" font-size="13" lengthAdjust="spacingAndGlyphs" textLength="95" x="782.5" y="453.8247">computeFare()</text><line style="stroke: #A80036; stroke-width: 1.0;" x1="1117.5" x2="1107.5" y1="505.8906" y2="501.8906"/><line style="stroke: #A80036; stroke-width: 1.0;" x1="1117.5" x2="1107.5" y1="505.8906" y2="509.8906"/><line style="stroke: #A80036; stroke-width: 1.0;" x1="770.5" x2="1118.5" y1="505.8906" y2="505.8906"/><text fill="#000000" font-family="sans-serif" font-size="13" lengthAdjust="spacingAndGlyphs" textLength="191" x="777.5" y="500.9575">makePayment(User, amount)</text><line style="stroke: #A80036; stroke-width: 1.0;" x1="468.5" x2="478.5" y1="535.0234" y2="531.0234"/><line style="stroke: #A80036; stroke-width: 1.0;" x1="468.5" x2="478.5" y1="535.0234" y2="539.0234"/><line style="stroke: #A80036; stroke-width: 1.0;" x1="468.5" x2="759.5" y1="535.0234" y2="535.0234"/><text fill="#000000" font-family="sans-serif" font-size="13" lengthAdjust="spacingAndGlyphs" textLength="127" x="485.5" y="530.0903">showFare(Payment)</text><line style="stroke: #A80036; stroke-width: 1.0;" x1="204.5" x2="214.5" y1="564.1563" y2="560.1563"/><line style="stroke: #A80036; stroke-width: 1.0;" x1="204.5" x2="214.5" y1="564.1563" y2="568.1563"/><line style="stroke: #A80036; stroke-width: 1.0;" x1="204.5" x2="457.5" y1="564.1563" y2="564.1563"/><text fill="#000000" font-family="sans-serif" font-size="13" lengthAdjust="spacingAndGlyphs" textLength="127" x="221.5" y="559.2231">showFare(Payment)</text><line style="stroke: #A80036; stroke-width: 1.0;" x1="999.5" x2="1009.5" y1="593.2891" y2="589.2891"/><line style="stroke: #A80036; stroke-width: 1.0;" x1="999.5" x2="1009.5" y1="593.2891" y2="597.2891"/><line style="stroke: #A80036; stroke-width: 1.0;" x1="999.5" x2="1341" y1="593.2891" y2="593.2891"/><text fill="#000000" font-family="sans-serif" font-size="13" lengthAdjust="spacingAndGlyphs" textLength="206" x="1016.5" y="588.356">&lt;&lt;Doors Locked, Car Empty&gt;&gt;</text><line style="stroke: #A80036; stroke-width: 1.0;" x1="1255" x2="1245" y1="622.4219" y2="618.4219"/><line style="stroke: #A80036; stroke-width: 1.0;" x1="1255" x2="1245" y1="622.4219" y2="626.4219"/><line style="stroke: #A80036; stroke-width: 1.0;" x1="999.5" x2="1256" y1="622.4219" y2="622.4219"/><text fill="#000000" font-family="sans-serif" font-size="13" lengthAdjust="spacingAndGlyphs" textLength="167" x="1006.5" y="617.4888">updateStatus(CarID,FREE)</text><line style="stroke: #A80036; stroke-width: 1.0;" x1="1340" x2="1330" y1="651.5547" y2="647.5547"/><line style="stroke: #A80036; stroke-width: 1.0;" x1="1340" x2="1330" y1="651.5547" y2="655.5547"/><line style="stroke: #A80036; stroke-width: 1.0;" x1="999.5" x2="1341" y1="651.5547" y2="651.5547"/><text fill="#000000" font-family="sans-serif" font-size="13" lengthAdjust="spacingAndGlyphs" textLength="96" x="1006.5" y="646.6216">setState(FREE)</text><line style="stroke: #A80036; stroke-width: 1.0;" x1="770.5" x2="780.5" y1="708.6875" y2="704.6875"/><line style="stroke: #A80036; stroke-width: 1.0;" x1="770.5" x2="780.5" y1="708.6875" y2="712.6875"/><line style="stroke: #A80036; stroke-width: 1.0;" x1="770.5" x2="1123.5" y1="708.6875" y2="708.6875"/><text fill="#000000" font-family="sans-serif" font-size="13" lengthAdjust="spacingAndGlyphs" textLength="268" x="787.5" y="703.7544">paymentSuccessful(User, PaymentSeqID)</text><line style="stroke: #A80036; stroke-width: 1.0;" x1="468.5" x2="478.5" y1="737.8203" y2="733.8203"/><line style="stroke: #A80036; stroke-width: 1.0;" x1="468.5" x2="478.5" y1="737.8203" y2="741.8203"/><line style="stroke: #A80036; stroke-width: 1.0; stroke-dasharray: 2.0,2.0;" x1="468.5" x2="759.5" y1="737.8203" y2="737.8203"/><text fill="#000000" font-family="sans-serif" font-size="13" lengthAdjust="spacingAndGlyphs" textLength="268" x="485.5" y="732.8872">paymentSuccessful(User, PaymentSeqID)</text><line style="stroke: #A80036; stroke-width: 1.0;" x1="204.5" x2="214.5" y1="766.9531" y2="762.9531"/><line style="stroke: #A80036; stroke-width: 1.0;" x1="204.5" x2="214.5" y1="766.9531" y2="770.9531"/><line style="stroke: #A80036; stroke-width: 1.0; stroke-dasharray: 2.0,2.0;" x1="204.5" x2="457.5" y1="766.9531" y2="766.9531"/><text fill="#000000" font-family="sans-serif" font-size="13" lengthAdjust="spacingAndGlyphs" textLength="230" x="221.5" y="762.02">paymentSuccessful(PaymentSeqID)</text><line style="stroke: #A80036; stroke-width: 1.0;" x1="204.5" x2="246.5" y1="801.2188" y2="801.2188"/><line style="stroke: #A80036; stroke-width: 1.0;" x1="246.5" x2="246.5" y1="801.2188" y2="814.2188"/><line style="stroke: #A80036; stroke-width: 1.0;" x1="199.5" x2="246.5" y1="814.2188" y2="814.2188"/><polygon fill="#A80036" points="209.5,810.2188,199.5,814.2188,209.5,818.2188,205.5,814.2188" style="stroke: #A80036; stroke-width: 1.0;"/><text fill="#000000" font-family="sans-serif" font-size="13" lengthAdjust="spacingAndGlyphs" textLength="160" x="211.5" y="796.1528">showSuccesfulPayment()</text></g></svg>