<?xml version="1.0" encoding="UTF-8" standalone="no"?><svg xmlns="http://www.w3.org/2000/svg" xmlns:xlink="http://www.w3.org/1999/xlink" contentScriptType="application/ecmascript" contentStyleType="text/css" height="980px" preserveAspectRatio="none" style="width:1089px;height:980px;" version="1.1" viewBox="0 0 1089 980" width="1089px" zoomAndPan="magnify"><defs><filter height="300%" id="f0bczd1" width="300%" x="-1" y="-1"><feGaussianBlur result="blurOut" stdDeviation="2.0"/><feColorMatrix in="blurOut" result="blurOut2" type="matrix" values="0 0 0 0 0 0 0 0 0 0 0 0 0 0 0 0 0 0 .4 0"/><feOffset dx="4.0" dy="4.0" in="blurOut2" result="blurOut3"/><feBlend in="SourceGraphic" in2="blurOut3" mode="normal"/></filter></defs><g><rect fill="#FFFFFF" filter="url(#f0bczd1)" height="788.7344" style="stroke: #A80036; stroke-width: 1.0;" width="10" x="41.5" y="97.6094"/><rect fill="#FFFFFF" filter="url(#f0bczd1)" height="788.7344" style="stroke: #A80036; stroke-width: 1.0;" width="10" x="192.5" y="97.6094"/><rect fill="#FFFFFF" filter="url(#f0bczd1)" height="788.7344" style="stroke: #A80036; stroke-width: 1.0;" width="10" x="392.5" y="97.6094"/><rect fill="#FFFFFF" filter="url(#f0bczd1)" height="574.9766" style="stroke: #A80036; stroke-width: 1.0;" width="10" x="507" y="311.3672"/><rect fill="#FFFFFF" filter="url(#f0bczd1)" height="544.625" style="stroke: #A80036; stroke-width: 1.0;" width="10" x="830" y="341.7188"/><line style="stroke: #A80036; stroke-width: 1.0; stroke-dasharray: 5.0,5.0;" x1="46" x2="46" y1="87.6094" y2="895.3438"/><line style="stroke: #A80036; stroke-width: 1.0; stroke-dasharray: 5.0,5.0;" x1="197.5" x2="197.5" y1="87.6094" y2="895.3438"/><line style="stroke: #A80036; stroke-width: 1.0; stroke-dasharray: 5.0,5.0;" x1="397.5" x2="397.5" y1="87.6094" y2="895.3438"/><line style="stroke: #A80036; stroke-width: 1.0; stroke-dasharray: 5.0,5.0;" x1="511.5" x2="511.5" y1="87.6094" y2="895.3438"/><line style="stroke: #A80036; stroke-width: 1.0; stroke-dasharray: 5.0,5.0;" x1="835" x2="835" y1="87.6094" y2="895.3438"/><text fill="#000000" font-family="sans-serif" font-size="14" lengthAdjust="spacingAndGlyphs" textLength="71" x="8" y="84.5332">Active User</text><ellipse cx="46.5" cy="13" fill="#FEFECE" filter="url(#f0bczd1)" rx="8" ry="8" style="stroke: #A80036; stroke-width: 2.0;"/><path d="M46.5,21 L46.5,48 M33.5,29 L59.5,29 M46.5,48 L33.5,63 M46.5,48 L59.5,63 " fill="#FEFECE" filter="url(#f0bczd1)" style="stroke: #A80036; stroke-width: 2.0;"/><text fill="#000000" font-family="sans-serif" font-size="14" lengthAdjust="spacingAndGlyphs" textLength="71" x="8" y="908.877">Active User</text><ellipse cx="46.5" cy="921.9531" fill="#FEFECE" filter="url(#f0bczd1)" rx="8" ry="8" style="stroke: #A80036; stroke-width: 2.0;"/><path d="M46.5,929.9531 L46.5,956.9531 M33.5,937.9531 L59.5,937.9531 M46.5,956.9531 L33.5,971.9531 M46.5,956.9531 L59.5,971.9531 " fill="#FEFECE" filter="url(#f0bczd1)" style="stroke: #A80036; stroke-width: 2.0;"/><rect fill="#FEFECE" filter="url(#f0bczd1)" height="31.6094" style="stroke: #A80036; stroke-width: 1.5;" width="116" x="137.5" y="51"/><text fill="#000000" font-family="sans-serif" font-size="14" lengthAdjust="spacingAndGlyphs" textLength="102" x="144.5" y="72.5332">User Application</text><rect fill="#FEFECE" filter="url(#f0bczd1)" height="31.6094" style="stroke: #A80036; stroke-width: 1.5;" width="116" x="137.5" y="894.3438"/><text fill="#000000" font-family="sans-serif" font-size="14" lengthAdjust="spacingAndGlyphs" textLength="102" x="144.5" y="915.877">User Application</text><rect fill="#FEFECE" filter="url(#f0bczd1)" height="31.6094" style="stroke: #A80036; stroke-width: 1.5;" width="98" x="346.5" y="51"/><text fill="#000000" font-family="sans-serif" font-size="14" lengthAdjust="spacingAndGlyphs" textLength="84" x="353.5" y="72.5332">Map Provider</text><rect fill="#FEFECE" filter="url(#f0bczd1)" height="31.6094" style="stroke: #A80036; stroke-width: 1.5;" width="98" x="346.5" y="894.3438"/><text fill="#000000" font-family="sans-serif" font-size="14" lengthAdjust="spacingAndGlyphs" textLength="84" x="353.5" y="915.877">Map Provider</text><rect fill="#FEFECE" filter="url(#f0bczd1)" height="31.6094" style="stroke: #A80036; stroke-width: 1.5;" width="103" x="458.5" y="51"/><text fill="#000000" font-family="sans-serif" font-size="14" lengthAdjust="spacingAndGlyphs" textLength="89" x="465.5" y="72.5332">Client Handler</text><rect fill="#FEFECE" filter="url(#f0bczd1)" height="31.6094" style="stroke: #A80036; stroke-width: 1.5;" width="103" x="458.5" y="894.3438"/><text fill="#000000" font-family="sans-serif" font-size="14" lengthAdjust="spacingAndGlyphs" textLength="89" x="465.5" y="915.877">Client Handler</text><rect fill="#FEFECE" filter="url(#f0bczd1)" height="31.6094" style="stroke: #A80036; stroke-width: 1.5;" width="150" x="758" y="51"/><text fill="#000000" font-family="sans-serif" font-size="14" lengthAdjust="spacingAndGlyphs" textLength="136" x="765" y="72.5332">Reservation Manager</text><rect fill="#FEFECE" filter="url(#f0bczd1)" height="31.6094" style="stroke: #A80036; stroke-width: 1.5;" width="150" x="758" y="894.3438"/><text fill="#000000" font-family="sans-serif" font-size="14" lengthAdjust="spacingAndGlyphs" textLength="136" x="765" y="915.877">Reservation Manager</text><rect fill="#FFFFFF" filter="url(#f0bczd1)" height="788.7344" style="stroke: #A80036; stroke-width: 1.0;" width="10" x="41.5" y="97.6094"/><rect fill="#FFFFFF" filter="url(#f0bczd1)" height="788.7344" style="stroke: #A80036; stroke-width: 1.0;" width="10" x="192.5" y="97.6094"/><rect fill="#FFFFFF" filter="url(#f0bczd1)" height="788.7344" style="stroke: #A80036; stroke-width: 1.0;" width="10" x="392.5" y="97.6094"/><rect fill="#FFFFFF" filter="url(#f0bczd1)" height="574.9766" style="stroke: #A80036; stroke-width: 1.0;" width="10" x="507" y="311.3672"/><rect fill="#FFFFFF" filter="url(#f0bczd1)" height="544.625" style="stroke: #A80036; stroke-width: 1.0;" width="10" x="830" y="341.7188"/><rect fill="#EEEEEE" filter="url(#f0bczd1)" height="3" style="stroke: #EEEEEE; stroke-width: 1.0;" width="1081" x="3" y="118.7852"/><line style="stroke: #000000; stroke-width: 1.0;" x1="3" x2="1084" y1="118.7852" y2="118.7852"/><line style="stroke: #000000; stroke-width: 1.0;" x1="3" x2="1084" y1="121.7852" y2="121.7852"/><rect fill="#EEEEEE" filter="url(#f0bczd1)" height="24.3516" style="stroke: #000000; stroke-width: 2.0;" width="69" x="509" y="107.6094"/><text fill="#000000" font-family="sans-serif" font-size="13" font-weight="bold" lengthAdjust="spacingAndGlyphs" textLength="51" x="515" y="125.1045">Intialize</text><polygon fill="#A80036" points="180.5,159.9609,190.5,163.9609,180.5,167.9609,184.5,163.9609" style="stroke: #A80036; stroke-width: 1.0;"/><line style="stroke: #A80036; stroke-width: 1.0;" x1="51.5" x2="186.5" y1="163.9609" y2="163.9609"/><text fill="#000000" font-family="sans-serif" font-size="13" lengthAdjust="spacingAndGlyphs" textLength="98" x="58.5" y="159.4561">reserveIntention()</text><line style="stroke: #A80036; stroke-width: 1.0;" x1="202.5" x2="244.5" y1="194.6641" y2="194.6641"/><line style="stroke: #A80036; stroke-width: 1.0;" x1="244.5" x2="244.5" y1="194.6641" y2="207.6641"/><line style="stroke: #A80036; stroke-width: 1.0;" x1="203.5" x2="244.5" y1="207.6641" y2="207.6641"/><polygon fill="#A80036" points="213.5,203.6641,203.5,207.6641,213.5,211.6641,209.5,207.6641" style="stroke: #A80036; stroke-width: 1.0;"/><text fill="#000000" font-family="sans-serif" font-size="13" lengthAdjust="spacingAndGlyphs" textLength="175" x="209.5" y="189.8076">retrieveVirtualPositionOnMap()</text><line style="stroke: #A80036; stroke-width: 1.0;" x1="202.5" x2="244.5" y1="238.0156" y2="238.0156"/><line style="stroke: #A80036; stroke-width: 1.0;" x1="244.5" x2="244.5" y1="238.0156" y2="251.0156"/><line style="stroke: #A80036; stroke-width: 1.0;" x1="203.5" x2="244.5" y1="251.0156" y2="251.0156"/><polygon fill="#A80036" points="213.5,247.0156,203.5,251.0156,213.5,255.0156,209.5,251.0156" style="stroke: #A80036; stroke-width: 1.0;"/><text fill="#000000" font-family="sans-serif" font-size="13" lengthAdjust="spacingAndGlyphs" textLength="131" x="209.5" y="233.1592">retrieveRadiusOnMap()</text><line style="stroke: #A80036; stroke-width: 1.0;" x1="390.5" x2="380.5" y1="281.0156" y2="277.0156"/><line style="stroke: #A80036; stroke-width: 1.0;" x1="390.5" x2="380.5" y1="281.0156" y2="285.0156"/><line style="stroke: #A80036; stroke-width: 1.0;" x1="202.5" x2="391.5" y1="281.0156" y2="281.0156"/><text fill="#000000" font-family="sans-serif" font-size="13" lengthAdjust="spacingAndGlyphs" textLength="166" x="209.5" y="276.5107">getAreaMap(location, radius)</text><line style="stroke: #A80036; stroke-width: 1.0;" x1="505" x2="495" y1="311.3672" y2="307.3672"/><line style="stroke: #A80036; stroke-width: 1.0;" x1="505" x2="495" y1="311.3672" y2="315.3672"/><line style="stroke: #A80036; stroke-width: 1.0;" x1="202.5" x2="506" y1="311.3672" y2="311.3672"/><text fill="#000000" font-family="sans-serif" font-size="13" lengthAdjust="spacingAndGlyphs" textLength="219" x="209.5" y="306.8623">getNearAvailableCars(location, radius)</text><line style="stroke: #A80036; stroke-width: 1.0;" x1="828" x2="818" y1="341.7188" y2="337.7188"/><line style="stroke: #A80036; stroke-width: 1.0;" x1="828" x2="818" y1="341.7188" y2="345.7188"/><line style="stroke: #A80036; stroke-width: 1.0;" x1="517" x2="829" y1="341.7188" y2="341.7188"/><text fill="#000000" font-family="sans-serif" font-size="13" lengthAdjust="spacingAndGlyphs" textLength="219" x="524" y="337.2139">getNearAvailableCars(location, radius)</text><line style="stroke: #A80036; stroke-width: 1.0;" x1="517" x2="527" y1="372.0703" y2="368.0703"/><line style="stroke: #A80036; stroke-width: 1.0;" x1="517" x2="527" y1="372.0703" y2="376.0703"/><line style="stroke: #A80036; stroke-width: 1.0; stroke-dasharray: 2.0,2.0;" x1="517" x2="829" y1="372.0703" y2="372.0703"/><text fill="#000000" font-family="sans-serif" font-size="13" lengthAdjust="spacingAndGlyphs" textLength="114" x="534" y="367.5654">&lt;&lt;Available Cars&gt;&gt;</text><line style="stroke: #A80036; stroke-width: 1.0;" x1="202.5" x2="212.5" y1="402.4219" y2="398.4219"/><line style="stroke: #A80036; stroke-width: 1.0;" x1="202.5" x2="212.5" y1="402.4219" y2="406.4219"/><line style="stroke: #A80036; stroke-width: 1.0; stroke-dasharray: 2.0,2.0;" x1="202.5" x2="506" y1="402.4219" y2="402.4219"/><text fill="#000000" font-family="sans-serif" font-size="13" lengthAdjust="spacingAndGlyphs" textLength="114" x="219.5" y="397.917">&lt;&lt;Available Cars&gt;&gt;</text><line style="stroke: #A80036; stroke-width: 1.0;" x1="202.5" x2="212.5" y1="432.7734" y2="428.7734"/><line style="stroke: #A80036; stroke-width: 1.0;" x1="202.5" x2="212.5" y1="432.7734" y2="436.7734"/><line style="stroke: #A80036; stroke-width: 1.0; stroke-dasharray: 2.0,2.0;" x1="202.5" x2="391.5" y1="432.7734" y2="432.7734"/><text fill="#000000" font-family="sans-serif" font-size="13" lengthAdjust="spacingAndGlyphs" textLength="96" x="219.5" y="428.2686">&lt;&lt; Data: Map&gt;&gt;</text><rect fill="#EEEEEE" filter="url(#f0bczd1)" height="3" style="stroke: #EEEEEE; stroke-width: 1.0;" width="1081" x="3" y="462.3008"/><line style="stroke: #000000; stroke-width: 1.0;" x1="3" x2="1084" y1="462.3008" y2="462.3008"/><line style="stroke: #000000; stroke-width: 1.0;" x1="3" x2="1084" y1="465.3008" y2="465.3008"/><rect fill="#EEEEEE" filter="url(#f0bczd1)" height="24.3516" style="stroke: #000000; stroke-width: 2.0;" width="139" x="474" y="451.125"/><text fill="#000000" font-family="sans-serif" font-size="13" font-weight="bold" lengthAdjust="spacingAndGlyphs" textLength="121" x="480" y="468.6201">Wait user selection</text><line style="stroke: #A80036; stroke-width: 1.0;" x1="202.5" x2="244.5" y1="507.8281" y2="507.8281"/><line style="stroke: #A80036; stroke-width: 1.0;" x1="244.5" x2="244.5" y1="507.8281" y2="520.8281"/><line style="stroke: #A80036; stroke-width: 1.0;" x1="203.5" x2="244.5" y1="520.8281" y2="520.8281"/><polygon fill="#A80036" points="213.5,516.8281,203.5,520.8281,213.5,524.8281,209.5,520.8281" style="stroke: #A80036; stroke-width: 1.0;"/><text fill="#000000" font-family="sans-serif" font-size="13" lengthAdjust="spacingAndGlyphs" textLength="122" x="209.5" y="502.9717">renderAvailableCars()</text><polygon fill="#A80036" points="180.5,546.8281,190.5,550.8281,180.5,554.8281,184.5,550.8281" style="stroke: #A80036; stroke-width: 1.0;"/><line style="stroke: #A80036; stroke-width: 1.0;" x1="51.5" x2="186.5" y1="550.8281" y2="550.8281"/><text fill="#000000" font-family="sans-serif" font-size="13" lengthAdjust="spacingAndGlyphs" textLength="108" x="58.5" y="546.3232">highlightCar(CarID)</text><line style="stroke: #A80036; stroke-width: 1.0;" x1="202.5" x2="244.5" y1="581.5313" y2="581.5313"/><line style="stroke: #A80036; stroke-width: 1.0;" x1="244.5" x2="244.5" y1="581.5313" y2="594.5313"/><line style="stroke: #A80036; stroke-width: 1.0;" x1="203.5" x2="244.5" y1="594.5313" y2="594.5313"/><polygon fill="#A80036" points="213.5,590.5313,203.5,594.5313,213.5,598.5313,209.5,594.5313" style="stroke: #A80036; stroke-width: 1.0;"/><text fill="#000000" font-family="sans-serif" font-size="13" lengthAdjust="spacingAndGlyphs" textLength="128" x="209.5" y="576.6748">showHiglightedDetail()</text><polygon fill="#A80036" points="180.5,620.5313,190.5,624.5313,180.5,628.5313,184.5,624.5313" style="stroke: #A80036; stroke-width: 1.0;"/><line style="stroke: #A80036; stroke-width: 1.0;" x1="51.5" x2="186.5" y1="624.5313" y2="624.5313"/><text fill="#000000" font-family="sans-serif" font-size="13" lengthAdjust="spacingAndGlyphs" textLength="117" x="58.5" y="620.0264">confirmReservation()</text><rect fill="#EEEEEE" filter="url(#f0bczd1)" height="3" style="stroke: #EEEEEE; stroke-width: 1.0;" width="1081" x="3" y="654.0586"/><line style="stroke: #000000; stroke-width: 1.0;" x1="3" x2="1084" y1="654.0586" y2="654.0586"/><line style="stroke: #000000; stroke-width: 1.0;" x1="3" x2="1084" y1="657.0586" y2="657.0586"/><rect fill="#EEEEEE" filter="url(#f0bczd1)" height="24.3516" style="stroke: #000000; stroke-width: 2.0;" width="131" x="478" y="642.8828"/><text fill="#000000" font-family="sans-serif" font-size="13" font-weight="bold" lengthAdjust="spacingAndGlyphs" textLength="113" x="484" y="660.3779">Make Reservation</text><line style="stroke: #A80036; stroke-width: 1.0;" x1="505" x2="495" y1="699.2344" y2="695.2344"/><line style="stroke: #A80036; stroke-width: 1.0;" x1="505" x2="495" y1="699.2344" y2="703.2344"/><line style="stroke: #A80036; stroke-width: 1.0;" x1="202.5" x2="506" y1="699.2344" y2="699.2344"/><text fill="#000000" font-family="sans-serif" font-size="13" lengthAdjust="spacingAndGlyphs" textLength="146" x="209.5" y="694.7295">reserveCar(CarID, AU_ID)</text><line style="stroke: #A80036; stroke-width: 1.0;" x1="828" x2="818" y1="729.5859" y2="725.5859"/><line style="stroke: #A80036; stroke-width: 1.0;" x1="828" x2="818" y1="729.5859" y2="733.5859"/><line style="stroke: #A80036; stroke-width: 1.0;" x1="517" x2="829" y1="729.5859" y2="729.5859"/><text fill="#000000" font-family="sans-serif" font-size="13" lengthAdjust="spacingAndGlyphs" textLength="146" x="524" y="725.0811">reserveCar(CarID, AU_ID)</text><line style="stroke: #A80036; stroke-width: 1.0;" x1="840" x2="882" y1="760.2891" y2="760.2891"/><line style="stroke: #A80036; stroke-width: 1.0;" x1="882" x2="882" y1="760.2891" y2="773.2891"/><line style="stroke: #A80036; stroke-width: 1.0;" x1="841" x2="882" y1="773.2891" y2="773.2891"/><line style="stroke: #A80036; stroke-width: 1.0;" x1="841" x2="851" y1="773.2891" y2="769.2891"/><line style="stroke: #A80036; stroke-width: 1.0;" x1="841" x2="851" y1="773.2891" y2="777.2891"/><text fill="#000000" font-family="sans-serif" font-size="13" lengthAdjust="spacingAndGlyphs" textLength="225" x="847" y="755.4326">makeReservation(CarID, AU_ID):Reg##</text><line style="stroke: #A80036; stroke-width: 1.0;" x1="517" x2="527" y1="803.2891" y2="799.2891"/><line style="stroke: #A80036; stroke-width: 1.0;" x1="517" x2="527" y1="803.2891" y2="807.2891"/><line style="stroke: #A80036; stroke-width: 1.0; stroke-dasharray: 2.0,2.0;" x1="517" x2="829" y1="803.2891" y2="803.2891"/><text fill="#000000" font-family="sans-serif" font-size="13" lengthAdjust="spacingAndGlyphs" textLength="289" x="534" y="798.7842">&lt;&lt;Confirmed Registration Reg##, CarID, AU_ID&gt;&gt;</text><line style="stroke: #A80036; stroke-width: 1.0;" x1="202.5" x2="212.5" y1="833.6406" y2="829.6406"/><line style="stroke: #A80036; stroke-width: 1.0;" x1="202.5" x2="212.5" y1="833.6406" y2="837.6406"/><line style="stroke: #A80036; stroke-width: 1.0; stroke-dasharray: 2.0,2.0;" x1="202.5" x2="506" y1="833.6406" y2="833.6406"/><text fill="#000000" font-family="sans-serif" font-size="13" lengthAdjust="spacingAndGlyphs" textLength="244" x="219.5" y="829.1357">&lt;&lt;Confirmed Registration Reg##, CarID&gt;&gt;</text><line style="stroke: #A80036; stroke-width: 1.0;" x1="202.5" x2="244.5" y1="864.3438" y2="864.3438"/><line style="stroke: #A80036; stroke-width: 1.0;" x1="244.5" x2="244.5" y1="864.3438" y2="877.3438"/><line style="stroke: #A80036; stroke-width: 1.0;" x1="203.5" x2="244.5" y1="877.3438" y2="877.3438"/><polygon fill="#A80036" points="213.5,873.3438,203.5,877.3438,213.5,881.3438,209.5,877.3438" style="stroke: #A80036; stroke-width: 1.0;"/><text fill="#000000" font-family="sans-serif" font-size="13" lengthAdjust="spacingAndGlyphs" textLength="159" x="209.5" y="859.4873">showResevationConfirmed()</text></g></svg>