<?xml version="1.0" encoding="UTF-8" standalone="no"?><svg xmlns="http://www.w3.org/2000/svg" xmlns:xlink="http://www.w3.org/1999/xlink" contentScriptType="application/ecmascript" contentStyleType="text/css" height="1028px" preserveAspectRatio="none" style="width:1115px;height:1028px;" version="1.1" viewBox="0 0 1115 1028" width="1115px" zoomAndPan="magnify"><defs><filter height="300%" id="f6um5zk" width="300%" x="-1" y="-1"><feGaussianBlur result="blurOut" stdDeviation="2.0"/><feColorMatrix in="blurOut" result="blurOut2" type="matrix" values="0 0 0 0 0 0 0 0 0 0 0 0 0 0 0 0 0 0 .4 0"/><feOffset dx="4.0" dy="4.0" in="blurOut2" result="blurOut3"/><feBlend in="SourceGraphic" in2="blurOut3" mode="normal"/></filter></defs><g><rect fill="#FFFFFF" filter="url(#f6um5zk)" height="836.4375" style="stroke: #A80036; stroke-width: 1.0;" width="10" x="41.5" y="97.6094"/><rect fill="#FFFFFF" filter="url(#f6um5zk)" height="836.4375" style="stroke: #A80036; stroke-width: 1.0;" width="10" x="192.5" y="97.6094"/><rect fill="#FFFFFF" filter="url(#f6um5zk)" height="836.4375" style="stroke: #A80036; stroke-width: 1.0;" width="10" x="392.5" y="97.6094"/><rect fill="#FFFFFF" filter="url(#f6um5zk)" height="622.6797" style="stroke: #A80036; stroke-width: 1.0;" width="10" x="507" y="311.3672"/><rect fill="#FFFFFF" filter="url(#f6um5zk)" height="622.6797" style="stroke: #A80036; stroke-width: 1.0;" width="10" x="789" y="311.3672"/><rect fill="#FFFFFF" filter="url(#f6um5zk)" height="592.3281" style="stroke: #A80036; stroke-width: 1.0;" width="10" x="1042" y="341.7188"/><line style="stroke: #A80036; stroke-width: 1.0; stroke-dasharray: 5.0,5.0;" x1="46" x2="46" y1="87.6094" y2="943.0469"/><line style="stroke: #A80036; stroke-width: 1.0; stroke-dasharray: 5.0,5.0;" x1="197.5" x2="197.5" y1="87.6094" y2="943.0469"/><line style="stroke: #A80036; stroke-width: 1.0; stroke-dasharray: 5.0,5.0;" x1="397.5" x2="397.5" y1="87.6094" y2="943.0469"/><line style="stroke: #A80036; stroke-width: 1.0; stroke-dasharray: 5.0,5.0;" x1="511.5" x2="511.5" y1="87.6094" y2="943.0469"/><line style="stroke: #A80036; stroke-width: 1.0; stroke-dasharray: 5.0,5.0;" x1="794" x2="794" y1="87.6094" y2="943.0469"/><line style="stroke: #A80036; stroke-width: 1.0; stroke-dasharray: 5.0,5.0;" x1="1047" x2="1047" y1="87.6094" y2="943.0469"/><text fill="#000000" font-family="sans-serif" font-size="14" lengthAdjust="spacingAndGlyphs" textLength="71" x="8" y="84.5332">Active User</text><ellipse cx="46.5" cy="13" fill="#FEFECE" filter="url(#f6um5zk)" rx="8" ry="8" style="stroke: #A80036; stroke-width: 2.0;"/><path d="M46.5,21 L46.5,48 M33.5,29 L59.5,29 M46.5,48 L33.5,63 M46.5,48 L59.5,63 " fill="#FEFECE" filter="url(#f6um5zk)" style="stroke: #A80036; stroke-width: 2.0;"/><text fill="#000000" font-family="sans-serif" font-size="14" lengthAdjust="spacingAndGlyphs" textLength="71" x="8" y="956.5801">Active User</text><ellipse cx="46.5" cy="969.6563" fill="#FEFECE" filter="url(#f6um5zk)" rx="8" ry="8" style="stroke: #A80036; stroke-width: 2.0;"/><path d="M46.5,977.6563 L46.5,1004.6563 M33.5,985.6563 L59.5,985.6563 M46.5,1004.6563 L33.5,1019.6563 M46.5,1004.6563 L59.5,1019.6563 " fill="#FEFECE" filter="url(#f6um5zk)" style="stroke: #A80036; stroke-width: 2.0;"/><rect fill="#FEFECE" filter="url(#f6um5zk)" height="31.6094" style="stroke: #A80036; stroke-width: 1.5;" width="116" x="137.5" y="51"/><text fill="#000000" font-family="sans-serif" font-size="14" lengthAdjust="spacingAndGlyphs" textLength="102" x="144.5" y="72.5332">User Application</text><rect fill="#FEFECE" filter="url(#f6um5zk)" height="31.6094" style="stroke: #A80036; stroke-width: 1.5;" width="116" x="137.5" y="942.0469"/><text fill="#000000" font-family="sans-serif" font-size="14" lengthAdjust="spacingAndGlyphs" textLength="102" x="144.5" y="963.5801">User Application</text><rect fill="#FEFECE" filter="url(#f6um5zk)" height="31.6094" style="stroke: #A80036; stroke-width: 1.5;" width="98" x="346.5" y="51"/><text fill="#000000" font-family="sans-serif" font-size="14" lengthAdjust="spacingAndGlyphs" textLength="84" x="353.5" y="72.5332">Map Provider</text><rect fill="#FEFECE" filter="url(#f6um5zk)" height="31.6094" style="stroke: #A80036; stroke-width: 1.5;" width="98" x="346.5" y="942.0469"/><text fill="#000000" font-family="sans-serif" font-size="14" lengthAdjust="spacingAndGlyphs" textLength="84" x="353.5" y="963.5801">Map Provider</text><rect fill="#FEFECE" filter="url(#f6um5zk)" height="31.6094" style="stroke: #A80036; stroke-width: 1.5;" width="103" x="458.5" y="51"/><text fill="#000000" font-family="sans-serif" font-size="14" lengthAdjust="spacingAndGlyphs" textLength="89" x="465.5" y="72.5332">Client Handler</text><rect fill="#FEFECE" filter="url(#f6um5zk)" height="31.6094" style="stroke: #A80036; stroke-width: 1.5;" width="103" x="458.5" y="942.0469"/><text fill="#000000" font-family="sans-serif" font-size="14" lengthAdjust="spacingAndGlyphs" textLength="89" x="465.5" y="963.5801">Client Handler</text><rect fill="#FEFECE" filter="url(#f6um5zk)" height="31.6094" style="stroke: #A80036; stroke-width: 1.5;" width="150" x="717" y="51"/><text fill="#000000" font-family="sans-serif" font-size="14" lengthAdjust="spacingAndGlyphs" textLength="136" x="724" y="72.5332">Reservation Manager</text><rect fill="#FEFECE" filter="url(#f6um5zk)" height="31.6094" style="stroke: #A80036; stroke-width: 1.5;" width="150" x="717" y="942.0469"/><text fill="#000000" font-family="sans-serif" font-size="14" lengthAdjust="spacingAndGlyphs" textLength="136" x="724" y="963.5801">Reservation Manager</text><rect fill="#FEFECE" filter="url(#f6um5zk)" height="31.6094" style="stroke: #A80036; stroke-width: 1.5;" width="112" x="989" y="51"/><text fill="#000000" font-family="sans-serif" font-size="14" lengthAdjust="spacingAndGlyphs" textLength="98" x="996" y="72.5332">Model Manager</text><rect fill="#FEFECE" filter="url(#f6um5zk)" height="31.6094" style="stroke: #A80036; stroke-width: 1.5;" width="112" x="989" y="942.0469"/><text fill="#000000" font-family="sans-serif" font-size="14" lengthAdjust="spacingAndGlyphs" textLength="98" x="996" y="963.5801">Model Manager</text><rect fill="#FFFFFF" filter="url(#f6um5zk)" height="836.4375" style="stroke: #A80036; stroke-width: 1.0;" width="10" x="41.5" y="97.6094"/><rect fill="#FFFFFF" filter="url(#f6um5zk)" height="836.4375" style="stroke: #A80036; stroke-width: 1.0;" width="10" x="192.5" y="97.6094"/><rect fill="#FFFFFF" filter="url(#f6um5zk)" height="836.4375" style="stroke: #A80036; stroke-width: 1.0;" width="10" x="392.5" y="97.6094"/><rect fill="#FFFFFF" filter="url(#f6um5zk)" height="622.6797" style="stroke: #A80036; stroke-width: 1.0;" width="10" x="507" y="311.3672"/><rect fill="#FFFFFF" filter="url(#f6um5zk)" height="622.6797" style="stroke: #A80036; stroke-width: 1.0;" width="10" x="789" y="311.3672"/><rect fill="#FFFFFF" filter="url(#f6um5zk)" height="592.3281" style="stroke: #A80036; stroke-width: 1.0;" width="10" x="1042" y="341.7188"/><rect fill="#EEEEEE" filter="url(#f6um5zk)" height="3" style="stroke: #EEEEEE; stroke-width: 1.0;" width="1107" x="3" y="118.7852"/><line style="stroke: #000000; stroke-width: 1.0;" x1="3" x2="1110" y1="118.7852" y2="118.7852"/><line style="stroke: #000000; stroke-width: 1.0;" x1="3" x2="1110" y1="121.7852" y2="121.7852"/><rect fill="#EEEEEE" filter="url(#f6um5zk)" height="24.3516" style="stroke: #000000; stroke-width: 2.0;" width="69" x="522" y="107.6094"/><text fill="#000000" font-family="sans-serif" font-size="13" font-weight="bold" lengthAdjust="spacingAndGlyphs" textLength="51" x="528" y="125.1045">Intialize</text><polygon fill="#A80036" points="180.5,159.9609,190.5,163.9609,180.5,167.9609,184.5,163.9609" style="stroke: #A80036; stroke-width: 1.0;"/><line style="stroke: #A80036; stroke-width: 1.0;" x1="51.5" x2="186.5" y1="163.9609" y2="163.9609"/><text fill="#000000" font-family="sans-serif" font-size="13" lengthAdjust="spacingAndGlyphs" textLength="98" x="58.5" y="159.4561">reserveIntention()</text><line style="stroke: #A80036; stroke-width: 1.0;" x1="202.5" x2="244.5" y1="194.6641" y2="194.6641"/><line style="stroke: #A80036; stroke-width: 1.0;" x1="244.5" x2="244.5" y1="194.6641" y2="207.6641"/><line style="stroke: #A80036; stroke-width: 1.0;" x1="203.5" x2="244.5" y1="207.6641" y2="207.6641"/><polygon fill="#A80036" points="213.5,203.6641,203.5,207.6641,213.5,211.6641,209.5,207.6641" style="stroke: #A80036; stroke-width: 1.0;"/><text fill="#000000" font-family="sans-serif" font-size="13" lengthAdjust="spacingAndGlyphs" textLength="175" x="209.5" y="189.8076">retrieveVirtualPositionOnMap()</text><line style="stroke: #A80036; stroke-width: 1.0;" x1="202.5" x2="244.5" y1="238.0156" y2="238.0156"/><line style="stroke: #A80036; stroke-width: 1.0;" x1="244.5" x2="244.5" y1="238.0156" y2="251.0156"/><line style="stroke: #A80036; stroke-width: 1.0;" x1="203.5" x2="244.5" y1="251.0156" y2="251.0156"/><polygon fill="#A80036" points="213.5,247.0156,203.5,251.0156,213.5,255.0156,209.5,251.0156" style="stroke: #A80036; stroke-width: 1.0;"/><text fill="#000000" font-family="sans-serif" font-size="13" lengthAdjust="spacingAndGlyphs" textLength="131" x="209.5" y="233.1592">retrieveRadiusOnMap()</text><line style="stroke: #A80036; stroke-width: 1.0;" x1="390.5" x2="380.5" y1="281.0156" y2="277.0156"/><line style="stroke: #A80036; stroke-width: 1.0;" x1="390.5" x2="380.5" y1="281.0156" y2="285.0156"/><line style="stroke: #A80036; stroke-width: 1.0;" x1="202.5" x2="391.5" y1="281.0156" y2="281.0156"/><text fill="#000000" font-family="sans-serif" font-size="13" lengthAdjust="spacingAndGlyphs" textLength="166" x="209.5" y="276.5107">getAreaMap(location, radius)</text><line style="stroke: #A80036; stroke-width: 1.0;" x1="505" x2="495" y1="311.3672" y2="307.3672"/><line style="stroke: #A80036; stroke-width: 1.0;" x1="505" x2="495" y1="311.3672" y2="315.3672"/><line style="stroke: #A80036; stroke-width: 1.0;" x1="202.5" x2="506" y1="311.3672" y2="311.3672"/><text fill="#000000" font-family="sans-serif" font-size="13" lengthAdjust="spacingAndGlyphs" textLength="219" x="209.5" y="306.8623">getNearAvailableCars(location, radius)</text><line style="stroke: #A80036; stroke-width: 1.0;" x1="787" x2="777" y1="341.7188" y2="337.7188"/><line style="stroke: #A80036; stroke-width: 1.0;" x1="787" x2="777" y1="341.7188" y2="345.7188"/><line style="stroke: #A80036; stroke-width: 1.0;" x1="517" x2="788" y1="341.7188" y2="341.7188"/><text fill="#000000" font-family="sans-serif" font-size="13" lengthAdjust="spacingAndGlyphs" textLength="219" x="524" y="337.2139">getNearAvailableCars(location, radius)</text><line style="stroke: #A80036; stroke-width: 1.0;" x1="1040" x2="1030" y1="372.0703" y2="368.0703"/><line style="stroke: #A80036; stroke-width: 1.0;" x1="1040" x2="1030" y1="372.0703" y2="376.0703"/><line style="stroke: #A80036; stroke-width: 1.0;" x1="799" x2="1041" y1="372.0703" y2="372.0703"/><text fill="#000000" font-family="sans-serif" font-size="13" lengthAdjust="spacingAndGlyphs" textLength="219" x="806" y="367.5654">getNearAvailableCars(location, radius)</text><line style="stroke: #A80036; stroke-width: 1.0;" x1="799" x2="809" y1="402.4219" y2="398.4219"/><line style="stroke: #A80036; stroke-width: 1.0;" x1="799" x2="809" y1="402.4219" y2="406.4219"/><line style="stroke: #A80036; stroke-width: 1.0; stroke-dasharray: 2.0,2.0;" x1="799" x2="1041" y1="402.4219" y2="402.4219"/><text fill="#000000" font-family="sans-serif" font-size="13" lengthAdjust="spacingAndGlyphs" textLength="114" x="816" y="397.917">&lt;&lt;Available Cars&gt;&gt;</text><line style="stroke: #A80036; stroke-width: 1.0;" x1="517" x2="527" y1="432.7734" y2="428.7734"/><line style="stroke: #A80036; stroke-width: 1.0;" x1="517" x2="527" y1="432.7734" y2="436.7734"/><line style="stroke: #A80036; stroke-width: 1.0; stroke-dasharray: 2.0,2.0;" x1="517" x2="788" y1="432.7734" y2="432.7734"/><text fill="#000000" font-family="sans-serif" font-size="13" lengthAdjust="spacingAndGlyphs" textLength="114" x="534" y="428.2686">&lt;&lt;Available Cars&gt;&gt;</text><line style="stroke: #A80036; stroke-width: 1.0;" x1="202.5" x2="212.5" y1="463.125" y2="459.125"/><line style="stroke: #A80036; stroke-width: 1.0;" x1="202.5" x2="212.5" y1="463.125" y2="467.125"/><line style="stroke: #A80036; stroke-width: 1.0; stroke-dasharray: 2.0,2.0;" x1="202.5" x2="506" y1="463.125" y2="463.125"/><text fill="#000000" font-family="sans-serif" font-size="13" lengthAdjust="spacingAndGlyphs" textLength="114" x="219.5" y="458.6201">&lt;&lt;Available Cars&gt;&gt;</text><line style="stroke: #A80036; stroke-width: 1.0;" x1="202.5" x2="212.5" y1="493.4766" y2="489.4766"/><line style="stroke: #A80036; stroke-width: 1.0;" x1="202.5" x2="212.5" y1="493.4766" y2="497.4766"/><line style="stroke: #A80036; stroke-width: 1.0; stroke-dasharray: 2.0,2.0;" x1="202.5" x2="391.5" y1="493.4766" y2="493.4766"/><text fill="#000000" font-family="sans-serif" font-size="13" lengthAdjust="spacingAndGlyphs" textLength="96" x="219.5" y="488.9717">&lt;&lt; Data: Map&gt;&gt;</text><rect fill="#EEEEEE" filter="url(#f6um5zk)" height="3" style="stroke: #EEEEEE; stroke-width: 1.0;" width="1107" x="3" y="523.0039"/><line style="stroke: #000000; stroke-width: 1.0;" x1="3" x2="1110" y1="523.0039" y2="523.0039"/><line style="stroke: #000000; stroke-width: 1.0;" x1="3" x2="1110" y1="526.0039" y2="526.0039"/><rect fill="#EEEEEE" filter="url(#f6um5zk)" height="24.3516" style="stroke: #000000; stroke-width: 2.0;" width="139" x="487" y="511.8281"/><text fill="#000000" font-family="sans-serif" font-size="13" font-weight="bold" lengthAdjust="spacingAndGlyphs" textLength="121" x="493" y="529.3232">Wait user selection</text><line style="stroke: #A80036; stroke-width: 1.0;" x1="202.5" x2="244.5" y1="568.5313" y2="568.5313"/><line style="stroke: #A80036; stroke-width: 1.0;" x1="244.5" x2="244.5" y1="568.5313" y2="581.5313"/><line style="stroke: #A80036; stroke-width: 1.0;" x1="203.5" x2="244.5" y1="581.5313" y2="581.5313"/><polygon fill="#A80036" points="213.5,577.5313,203.5,581.5313,213.5,585.5313,209.5,581.5313" style="stroke: #A80036; stroke-width: 1.0;"/><text fill="#000000" font-family="sans-serif" font-size="13" lengthAdjust="spacingAndGlyphs" textLength="122" x="209.5" y="563.6748">renderAvailableCars()</text><polygon fill="#A80036" points="180.5,607.5313,190.5,611.5313,180.5,615.5313,184.5,611.5313" style="stroke: #A80036; stroke-width: 1.0;"/><line style="stroke: #A80036; stroke-width: 1.0;" x1="51.5" x2="186.5" y1="611.5313" y2="611.5313"/><text fill="#000000" font-family="sans-serif" font-size="13" lengthAdjust="spacingAndGlyphs" textLength="108" x="58.5" y="607.0264">highlightCar(CarID)</text><line style="stroke: #A80036; stroke-width: 1.0;" x1="202.5" x2="244.5" y1="642.2344" y2="642.2344"/><line style="stroke: #A80036; stroke-width: 1.0;" x1="244.5" x2="244.5" y1="642.2344" y2="655.2344"/><line style="stroke: #A80036; stroke-width: 1.0;" x1="203.5" x2="244.5" y1="655.2344" y2="655.2344"/><polygon fill="#A80036" points="213.5,651.2344,203.5,655.2344,213.5,659.2344,209.5,655.2344" style="stroke: #A80036; stroke-width: 1.0;"/><text fill="#000000" font-family="sans-serif" font-size="13" lengthAdjust="spacingAndGlyphs" textLength="128" x="209.5" y="637.3779">showHiglightedDetail()</text><polygon fill="#A80036" points="180.5,681.2344,190.5,685.2344,180.5,689.2344,184.5,685.2344" style="stroke: #A80036; stroke-width: 1.0;"/><line style="stroke: #A80036; stroke-width: 1.0;" x1="51.5" x2="186.5" y1="685.2344" y2="685.2344"/><text fill="#000000" font-family="sans-serif" font-size="13" lengthAdjust="spacingAndGlyphs" textLength="117" x="58.5" y="680.7295">confirmReservation()</text><rect fill="#EEEEEE" filter="url(#f6um5zk)" height="3" style="stroke: #EEEEEE; stroke-width: 1.0;" width="1107" x="3" y="714.7617"/><line style="stroke: #000000; stroke-width: 1.0;" x1="3" x2="1110" y1="714.7617" y2="714.7617"/><line style="stroke: #000000; stroke-width: 1.0;" x1="3" x2="1110" y1="717.7617" y2="717.7617"/><rect fill="#EEEEEE" filter="url(#f6um5zk)" height="24.3516" style="stroke: #000000; stroke-width: 2.0;" width="131" x="491" y="703.5859"/><text fill="#000000" font-family="sans-serif" font-size="13" font-weight="bold" lengthAdjust="spacingAndGlyphs" textLength="113" x="497" y="721.0811">Make Reservation</text><line style="stroke: #A80036; stroke-width: 1.0;" x1="505" x2="495" y1="759.9375" y2="755.9375"/><line style="stroke: #A80036; stroke-width: 1.0;" x1="505" x2="495" y1="759.9375" y2="763.9375"/><line style="stroke: #A80036; stroke-width: 1.0;" x1="202.5" x2="506" y1="759.9375" y2="759.9375"/><text fill="#000000" font-family="sans-serif" font-size="13" lengthAdjust="spacingAndGlyphs" textLength="146" x="209.5" y="755.4326">reserveCar(CarID, AU_ID)</text><line style="stroke: #A80036; stroke-width: 1.0;" x1="787" x2="777" y1="790.2891" y2="786.2891"/><line style="stroke: #A80036; stroke-width: 1.0;" x1="787" x2="777" y1="790.2891" y2="794.2891"/><line style="stroke: #A80036; stroke-width: 1.0;" x1="517" x2="788" y1="790.2891" y2="790.2891"/><text fill="#000000" font-family="sans-serif" font-size="13" lengthAdjust="spacingAndGlyphs" textLength="146" x="524" y="785.7842">reserveCar(CarID, AU_ID)</text><line style="stroke: #A80036; stroke-width: 1.0;" x1="1040" x2="1030" y1="820.6406" y2="816.6406"/><line style="stroke: #A80036; stroke-width: 1.0;" x1="1040" x2="1030" y1="820.6406" y2="824.6406"/><line style="stroke: #A80036; stroke-width: 1.0;" x1="799" x2="1041" y1="820.6406" y2="820.6406"/><text fill="#000000" font-family="sans-serif" font-size="13" lengthAdjust="spacingAndGlyphs" textLength="184" x="806" y="816.1357">makeReservation(CarID, AU_ID)</text><line style="stroke: #A80036; stroke-width: 1.0;" x1="517" x2="527" y1="850.9922" y2="846.9922"/><line style="stroke: #A80036; stroke-width: 1.0;" x1="517" x2="527" y1="850.9922" y2="854.9922"/><line style="stroke: #A80036; stroke-width: 1.0; stroke-dasharray: 2.0,2.0;" x1="517" x2="788" y1="850.9922" y2="850.9922"/><text fill="#000000" font-family="sans-serif" font-size="13" lengthAdjust="spacingAndGlyphs" textLength="248" x="534" y="846.4873">&lt;&lt;Confirmed Registration, CarID, AU_ID&gt;&gt;</text><line style="stroke: #A80036; stroke-width: 1.0;" x1="202.5" x2="212.5" y1="881.3438" y2="877.3438"/><line style="stroke: #A80036; stroke-width: 1.0;" x1="202.5" x2="212.5" y1="881.3438" y2="885.3438"/><line style="stroke: #A80036; stroke-width: 1.0; stroke-dasharray: 2.0,2.0;" x1="202.5" x2="506" y1="881.3438" y2="881.3438"/><text fill="#000000" font-family="sans-serif" font-size="13" lengthAdjust="spacingAndGlyphs" textLength="244" x="219.5" y="876.8389">&lt;&lt;Confirmed Registration Reg##, CarID&gt;&gt;</text><line style="stroke: #A80036; stroke-width: 1.0;" x1="202.5" x2="244.5" y1="912.0469" y2="912.0469"/><line style="stroke: #A80036; stroke-width: 1.0;" x1="244.5" x2="244.5" y1="912.0469" y2="925.0469"/><line style="stroke: #A80036; stroke-width: 1.0;" x1="203.5" x2="244.5" y1="925.0469" y2="925.0469"/><polygon fill="#A80036" points="213.5,921.0469,203.5,925.0469,213.5,929.0469,209.5,925.0469" style="stroke: #A80036; stroke-width: 1.0;"/><text fill="#000000" font-family="sans-serif" font-size="13" lengthAdjust="spacingAndGlyphs" textLength="159" x="209.5" y="907.1904">showResevationConfirmed()</text></g></svg>