<?xml version="1.0" encoding="UTF-8" standalone="no"?><svg xmlns="http://www.w3.org/2000/svg" xmlns:xlink="http://www.w3.org/1999/xlink" contentScriptType="application/ecmascript" contentStyleType="text/css" height="928px" preserveAspectRatio="none" style="width:1236px;height:928px;" version="1.1" viewBox="0 0 1236 928" width="1236px" zoomAndPan="magnify"><defs><filter height="300%" id="f469jql" width="300%" x="-1" y="-1"><feGaussianBlur result="blurOut" stdDeviation="2.0"/><feColorMatrix in="blurOut" result="blurOut2" type="matrix" values="0 0 0 0 0 0 0 0 0 0 0 0 0 0 0 0 0 0 .4 0"/><feOffset dx="4.0" dy="4.0" in="blurOut2" result="blurOut3"/><feBlend in="SourceGraphic" in2="blurOut3" mode="normal"/></filter></defs><g><rect fill="#FFFFFF" filter="url(#f469jql)" height="405.7266" style="stroke: #FFFFFF; stroke-width: 1.0;" width="10" x="42.5" y="96.2969"/><line style="stroke: #A80036; stroke-width: 1.0;" x1="42.5" x2="42.5" y1="96.2969" y2="502.0234"/><line style="stroke: #A80036; stroke-width: 1.0;" x1="52.5" x2="52.5" y1="96.2969" y2="502.0234"/><line style="stroke: #A80036; stroke-width: 1.0;" x1="42.5" x2="52.5" y1="96.2969" y2="96.2969"/><rect fill="#FFFFFF" filter="url(#f469jql)" height="43.1328" style="stroke: #FFFFFF; stroke-width: 1.0;" width="10" x="42.5" y="530.0234"/><line style="stroke: #A80036; stroke-width: 1.0;" x1="42.5" x2="42.5" y1="530.0234" y2="573.1563"/><line style="stroke: #A80036; stroke-width: 1.0;" x1="52.5" x2="52.5" y1="530.0234" y2="573.1563"/><rect fill="#FFFFFF" filter="url(#f469jql)" height="234.0625" style="stroke: #FFFFFF; stroke-width: 1.0;" width="10" x="42.5" y="601.1563"/><line style="stroke: #A80036; stroke-width: 1.0;" x1="42.5" x2="42.5" y1="601.1563" y2="835.2188"/><line style="stroke: #A80036; stroke-width: 1.0;" x1="52.5" x2="52.5" y1="601.1563" y2="835.2188"/><rect fill="#FFFFFF" filter="url(#f469jql)" height="384.7266" style="stroke: #FFFFFF; stroke-width: 1.0;" width="10" x="234.5" y="117.2969"/><line style="stroke: #A80036; stroke-width: 1.0;" x1="234.5" x2="234.5" y1="117.2969" y2="502.0234"/><line style="stroke: #A80036; stroke-width: 1.0;" x1="244.5" x2="244.5" y1="117.2969" y2="502.0234"/><line style="stroke: #A80036; stroke-width: 1.0;" x1="234.5" x2="244.5" y1="117.2969" y2="117.2969"/><rect fill="#FFFFFF" filter="url(#f469jql)" height="43.1328" style="stroke: #FFFFFF; stroke-width: 1.0;" width="10" x="234.5" y="530.0234"/><line style="stroke: #A80036; stroke-width: 1.0;" x1="234.5" x2="234.5" y1="530.0234" y2="573.1563"/><line style="stroke: #A80036; stroke-width: 1.0;" x1="244.5" x2="244.5" y1="530.0234" y2="573.1563"/><rect fill="#FFFFFF" filter="url(#f469jql)" height="234.0625" style="stroke: #FFFFFF; stroke-width: 1.0;" width="10" x="234.5" y="601.1563"/><line style="stroke: #A80036; stroke-width: 1.0;" x1="234.5" x2="234.5" y1="601.1563" y2="835.2188"/><line style="stroke: #A80036; stroke-width: 1.0;" x1="244.5" x2="244.5" y1="601.1563" y2="835.2188"/><rect fill="#FFFFFF" filter="url(#f469jql)" height="355.5938" style="stroke: #FFFFFF; stroke-width: 1.0;" width="10" x="521.5" y="146.4297"/><line style="stroke: #A80036; stroke-width: 1.0;" x1="521.5" x2="521.5" y1="146.4297" y2="502.0234"/><line style="stroke: #A80036; stroke-width: 1.0;" x1="531.5" x2="531.5" y1="146.4297" y2="502.0234"/><line style="stroke: #A80036; stroke-width: 1.0;" x1="521.5" x2="531.5" y1="146.4297" y2="146.4297"/><rect fill="#FFFFFF" filter="url(#f469jql)" height="43.1328" style="stroke: #FFFFFF; stroke-width: 1.0;" width="10" x="521.5" y="530.0234"/><line style="stroke: #A80036; stroke-width: 1.0;" x1="521.5" x2="521.5" y1="530.0234" y2="573.1563"/><line style="stroke: #A80036; stroke-width: 1.0;" x1="531.5" x2="531.5" y1="530.0234" y2="573.1563"/><rect fill="#FFFFFF" filter="url(#f469jql)" height="234.0625" style="stroke: #FFFFFF; stroke-width: 1.0;" width="10" x="521.5" y="601.1563"/><line style="stroke: #A80036; stroke-width: 1.0;" x1="521.5" x2="521.5" y1="601.1563" y2="835.2188"/><line style="stroke: #A80036; stroke-width: 1.0;" x1="531.5" x2="531.5" y1="601.1563" y2="835.2188"/><rect fill="#FFFFFF" filter="url(#f469jql)" height="241.1953" style="stroke: #FFFFFF; stroke-width: 1.0;" width="10" x="706.5" y="260.8281"/><line style="stroke: #A80036; stroke-width: 1.0;" x1="706.5" x2="706.5" y1="260.8281" y2="502.0234"/><line style="stroke: #A80036; stroke-width: 1.0;" x1="716.5" x2="716.5" y1="260.8281" y2="502.0234"/><line style="stroke: #A80036; stroke-width: 1.0;" x1="706.5" x2="716.5" y1="260.8281" y2="260.8281"/><rect fill="#FFFFFF" filter="url(#f469jql)" height="43.1328" style="stroke: #FFFFFF; stroke-width: 1.0;" width="10" x="706.5" y="530.0234"/><line style="stroke: #A80036; stroke-width: 1.0;" x1="706.5" x2="706.5" y1="530.0234" y2="573.1563"/><line style="stroke: #A80036; stroke-width: 1.0;" x1="716.5" x2="716.5" y1="530.0234" y2="573.1563"/><rect fill="#FFFFFF" filter="url(#f469jql)" height="234.0625" style="stroke: #FFFFFF; stroke-width: 1.0;" width="10" x="706.5" y="601.1563"/><line style="stroke: #A80036; stroke-width: 1.0;" x1="706.5" x2="706.5" y1="601.1563" y2="835.2188"/><line style="stroke: #A80036; stroke-width: 1.0;" x1="716.5" x2="716.5" y1="601.1563" y2="835.2188"/><rect fill="#FFFFFF" filter="url(#f469jql)" height="212.0625" style="stroke: #FFFFFF; stroke-width: 1.0;" width="10" x="911.5" y="289.9609"/><line style="stroke: #A80036; stroke-width: 1.0;" x1="911.5" x2="911.5" y1="289.9609" y2="502.0234"/><line style="stroke: #A80036; stroke-width: 1.0;" x1="921.5" x2="921.5" y1="289.9609" y2="502.0234"/><line style="stroke: #A80036; stroke-width: 1.0;" x1="911.5" x2="921.5" y1="289.9609" y2="289.9609"/><rect fill="#FFFFFF" filter="url(#f469jql)" height="43.1328" style="stroke: #FFFFFF; stroke-width: 1.0;" width="10" x="911.5" y="530.0234"/><line style="stroke: #A80036; stroke-width: 1.0;" x1="911.5" x2="911.5" y1="530.0234" y2="573.1563"/><line style="stroke: #A80036; stroke-width: 1.0;" x1="921.5" x2="921.5" y1="530.0234" y2="573.1563"/><rect fill="#FFFFFF" filter="url(#f469jql)" height="50.1328" style="stroke: #FFFFFF; stroke-width: 1.0;" width="10" x="911.5" y="601.1563"/><line style="stroke: #A80036; stroke-width: 1.0;" x1="911.5" x2="911.5" y1="601.1563" y2="651.2891"/><line style="stroke: #A80036; stroke-width: 1.0;" x1="921.5" x2="921.5" y1="601.1563" y2="651.2891"/><line style="stroke: #A80036; stroke-width: 1.0;" x1="911.5" x2="921.5" y1="651.2891" y2="651.2891"/><rect fill="#FFFFFF" filter="url(#f469jql)" height="182.9297" style="stroke: #FFFFFF; stroke-width: 1.0;" width="10" x="1034.5" y="319.0938"/><line style="stroke: #A80036; stroke-width: 1.0;" x1="1034.5" x2="1034.5" y1="319.0938" y2="502.0234"/><line style="stroke: #A80036; stroke-width: 1.0;" x1="1044.5" x2="1044.5" y1="319.0938" y2="502.0234"/><line style="stroke: #A80036; stroke-width: 1.0;" x1="1034.5" x2="1044.5" y1="319.0938" y2="319.0938"/><rect fill="#FFFFFF" filter="url(#f469jql)" height="43.1328" style="stroke: #FFFFFF; stroke-width: 1.0;" width="10" x="1034.5" y="530.0234"/><line style="stroke: #A80036; stroke-width: 1.0;" x1="1034.5" x2="1034.5" y1="530.0234" y2="573.1563"/><line style="stroke: #A80036; stroke-width: 1.0;" x1="1044.5" x2="1044.5" y1="530.0234" y2="573.1563"/><rect fill="#FFFFFF" filter="url(#f469jql)" height="50.1328" style="stroke: #FFFFFF; stroke-width: 1.0;" width="10" x="1034.5" y="601.1563"/><line style="stroke: #A80036; stroke-width: 1.0;" x1="1034.5" x2="1034.5" y1="601.1563" y2="651.2891"/><line style="stroke: #A80036; stroke-width: 1.0;" x1="1044.5" x2="1044.5" y1="601.1563" y2="651.2891"/><line style="stroke: #A80036; stroke-width: 1.0;" x1="1034.5" x2="1044.5" y1="651.2891" y2="651.2891"/><rect fill="#FFFFFF" filter="url(#f469jql)" height="153.7969" style="stroke: #FFFFFF; stroke-width: 1.0;" width="10" x="1161.5" y="348.2266"/><line style="stroke: #A80036; stroke-width: 1.0;" x1="1161.5" x2="1161.5" y1="348.2266" y2="502.0234"/><line style="stroke: #A80036; stroke-width: 1.0;" x1="1171.5" x2="1171.5" y1="348.2266" y2="502.0234"/><line style="stroke: #A80036; stroke-width: 1.0;" x1="1161.5" x2="1171.5" y1="348.2266" y2="348.2266"/><rect fill="#FFFFFF" filter="url(#f469jql)" height="43.1328" style="stroke: #FFFFFF; stroke-width: 1.0;" width="10" x="1161.5" y="530.0234"/><line style="stroke: #A80036; stroke-width: 1.0;" x1="1161.5" x2="1161.5" y1="530.0234" y2="573.1563"/><line style="stroke: #A80036; stroke-width: 1.0;" x1="1171.5" x2="1171.5" y1="530.0234" y2="573.1563"/><rect fill="#FFFFFF" filter="url(#f469jql)" height="234.0625" style="stroke: #FFFFFF; stroke-width: 1.0;" width="10" x="1161.5" y="601.1563"/><line style="stroke: #A80036; stroke-width: 1.0;" x1="1161.5" x2="1161.5" y1="601.1563" y2="835.2188"/><line style="stroke: #A80036; stroke-width: 1.0;" x1="1171.5" x2="1171.5" y1="601.1563" y2="835.2188"/><line style="stroke: #A80036; stroke-width: 1.0;" x1="47" x2="47" y1="86.2969" y2="502.0234"/><line style="stroke: #A80036; stroke-width: 1.0; stroke-dasharray: 1.0,4.0;" x1="47" x2="47" y1="502.0234" y2="530.0234"/><line style="stroke: #A80036; stroke-width: 1.0;" x1="47" x2="47" y1="530.0234" y2="573.1563"/><line style="stroke: #A80036; stroke-width: 1.0; stroke-dasharray: 1.0,4.0;" x1="47" x2="47" y1="573.1563" y2="601.1563"/><line style="stroke: #A80036; stroke-width: 1.0;" x1="47" x2="47" y1="601.1563" y2="844.2188"/><line style="stroke: #A80036; stroke-width: 1.0;" x1="239.5" x2="239.5" y1="86.2969" y2="502.0234"/><line style="stroke: #A80036; stroke-width: 1.0; stroke-dasharray: 1.0,4.0;" x1="239.5" x2="239.5" y1="502.0234" y2="530.0234"/><line style="stroke: #A80036; stroke-width: 1.0;" x1="239.5" x2="239.5" y1="530.0234" y2="573.1563"/><line style="stroke: #A80036; stroke-width: 1.0; stroke-dasharray: 1.0,4.0;" x1="239.5" x2="239.5" y1="573.1563" y2="601.1563"/><line style="stroke: #A80036; stroke-width: 1.0;" x1="239.5" x2="239.5" y1="601.1563" y2="844.2188"/><line style="stroke: #A80036; stroke-width: 1.0;" x1="526.5" x2="526.5" y1="86.2969" y2="502.0234"/><line style="stroke: #A80036; stroke-width: 1.0; stroke-dasharray: 1.0,4.0;" x1="526.5" x2="526.5" y1="502.0234" y2="530.0234"/><line style="stroke: #A80036; stroke-width: 1.0;" x1="526.5" x2="526.5" y1="530.0234" y2="573.1563"/><line style="stroke: #A80036; stroke-width: 1.0; stroke-dasharray: 1.0,4.0;" x1="526.5" x2="526.5" y1="573.1563" y2="601.1563"/><line style="stroke: #A80036; stroke-width: 1.0;" x1="526.5" x2="526.5" y1="601.1563" y2="844.2188"/><line style="stroke: #A80036; stroke-width: 1.0;" x1="711" x2="711" y1="86.2969" y2="502.0234"/><line style="stroke: #A80036; stroke-width: 1.0; stroke-dasharray: 1.0,4.0;" x1="711" x2="711" y1="502.0234" y2="530.0234"/><line style="stroke: #A80036; stroke-width: 1.0;" x1="711" x2="711" y1="530.0234" y2="573.1563"/><line style="stroke: #A80036; stroke-width: 1.0; stroke-dasharray: 1.0,4.0;" x1="711" x2="711" y1="573.1563" y2="601.1563"/><line style="stroke: #A80036; stroke-width: 1.0;" x1="711" x2="711" y1="601.1563" y2="844.2188"/><line style="stroke: #A80036; stroke-width: 1.0;" x1="916.5" x2="916.5" y1="86.2969" y2="502.0234"/><line style="stroke: #A80036; stroke-width: 1.0; stroke-dasharray: 1.0,4.0;" x1="916.5" x2="916.5" y1="502.0234" y2="530.0234"/><line style="stroke: #A80036; stroke-width: 1.0;" x1="916.5" x2="916.5" y1="530.0234" y2="573.1563"/><line style="stroke: #A80036; stroke-width: 1.0; stroke-dasharray: 1.0,4.0;" x1="916.5" x2="916.5" y1="573.1563" y2="601.1563"/><line style="stroke: #A80036; stroke-width: 1.0;" x1="916.5" x2="916.5" y1="601.1563" y2="844.2188"/><line style="stroke: #A80036; stroke-width: 1.0;" x1="1039.5" x2="1039.5" y1="86.2969" y2="502.0234"/><line style="stroke: #A80036; stroke-width: 1.0; stroke-dasharray: 1.0,4.0;" x1="1039.5" x2="1039.5" y1="502.0234" y2="530.0234"/><line style="stroke: #A80036; stroke-width: 1.0;" x1="1039.5" x2="1039.5" y1="530.0234" y2="573.1563"/><line style="stroke: #A80036; stroke-width: 1.0; stroke-dasharray: 1.0,4.0;" x1="1039.5" x2="1039.5" y1="573.1563" y2="601.1563"/><line style="stroke: #A80036; stroke-width: 1.0;" x1="1039.5" x2="1039.5" y1="601.1563" y2="844.2188"/><line style="stroke: #A80036; stroke-width: 1.0;" x1="1166.5" x2="1166.5" y1="86.2969" y2="502.0234"/><line style="stroke: #A80036; stroke-width: 1.0; stroke-dasharray: 1.0,4.0;" x1="1166.5" x2="1166.5" y1="502.0234" y2="530.0234"/><line style="stroke: #A80036; stroke-width: 1.0;" x1="1166.5" x2="1166.5" y1="530.0234" y2="573.1563"/><line style="stroke: #A80036; stroke-width: 1.0; stroke-dasharray: 1.0,4.0;" x1="1166.5" x2="1166.5" y1="573.1563" y2="601.1563"/><line style="stroke: #A80036; stroke-width: 1.0;" x1="1166.5" x2="1166.5" y1="601.1563" y2="844.2188"/><text fill="#000000" font-family="sans-serif" font-size="14" lengthAdjust="spacingAndGlyphs" textLength="73" x="8" y="82.9951">ActiveUser</text><ellipse cx="47.5" cy="13" fill="#FEFECE" filter="url(#f469jql)" rx="8" ry="8" style="stroke: #A80036; stroke-width: 2.0;"/><path d="M47.5,21 L47.5,48 M34.5,29 L60.5,29 M47.5,48 L34.5,63 M47.5,48 L60.5,63 " fill="#FEFECE" filter="url(#f469jql)" style="stroke: #A80036; stroke-width: 2.0;"/><text fill="#000000" font-family="sans-serif" font-size="14" lengthAdjust="spacingAndGlyphs" textLength="73" x="8" y="856.2139">ActiveUser</text><ellipse cx="47.5" cy="869.5156" fill="#FEFECE" filter="url(#f469jql)" rx="8" ry="8" style="stroke: #A80036; stroke-width: 2.0;"/><path d="M47.5,877.5156 L47.5,904.5156 M34.5,885.5156 L60.5,885.5156 M47.5,904.5156 L34.5,919.5156 M47.5,904.5156 L60.5,919.5156 " fill="#FEFECE" filter="url(#f469jql)" style="stroke: #A80036; stroke-width: 2.0;"/><rect fill="#FEFECE" filter="url(#f469jql)" height="30.2969" style="stroke: #A80036; stroke-width: 1.5;" width="128" x="173.5" y="51"/><text fill="#000000" font-family="sans-serif" font-size="14" lengthAdjust="spacingAndGlyphs" textLength="114" x="180.5" y="70.9951">ClientApplication</text><rect fill="#FEFECE" filter="url(#f469jql)" height="30.2969" style="stroke: #A80036; stroke-width: 1.5;" width="128" x="173.5" y="843.2188"/><text fill="#000000" font-family="sans-serif" font-size="14" lengthAdjust="spacingAndGlyphs" textLength="114" x="180.5" y="863.2139">ClientApplication</text><rect fill="#FEFECE" filter="url(#f469jql)" height="30.2969" style="stroke: #A80036; stroke-width: 1.5;" width="106" x="471.5" y="51"/><text fill="#000000" font-family="sans-serif" font-size="14" lengthAdjust="spacingAndGlyphs" textLength="92" x="478.5" y="70.9951">ClientHandler</text><rect fill="#FEFECE" filter="url(#f469jql)" height="30.2969" style="stroke: #A80036; stroke-width: 1.5;" width="106" x="471.5" y="843.2188"/><text fill="#000000" font-family="sans-serif" font-size="14" lengthAdjust="spacingAndGlyphs" textLength="92" x="478.5" y="863.2139">ClientHandler</text><rect fill="#FEFECE" filter="url(#f469jql)" height="30.2969" style="stroke: #A80036; stroke-width: 1.5;" width="157" x="631" y="51"/><text fill="#000000" font-family="sans-serif" font-size="14" lengthAdjust="spacingAndGlyphs" textLength="143" x="638" y="70.9951">RegistrationManager</text><rect fill="#FEFECE" filter="url(#f469jql)" height="30.2969" style="stroke: #A80036; stroke-width: 1.5;" width="157" x="631" y="843.2188"/><text fill="#000000" font-family="sans-serif" font-size="14" lengthAdjust="spacingAndGlyphs" textLength="143" x="638" y="863.2139">RegistrationManager</text><rect fill="#FEFECE" filter="url(#f469jql)" height="30.2969" style="stroke: #A80036; stroke-width: 1.5;" width="108" x="860.5" y="51"/><text fill="#000000" font-family="sans-serif" font-size="14" lengthAdjust="spacingAndGlyphs" textLength="94" x="867.5" y="70.9951">DLValidatorInt</text><rect fill="#FEFECE" filter="url(#f469jql)" height="30.2969" style="stroke: #A80036; stroke-width: 1.5;" width="108" x="860.5" y="843.2188"/><text fill="#000000" font-family="sans-serif" font-size="14" lengthAdjust="spacingAndGlyphs" textLength="94" x="867.5" y="863.2139">DLValidatorInt</text><rect fill="#FEFECE" filter="url(#f469jql)" height="30.2969" style="stroke: #A80036; stroke-width: 1.5;" width="110" x="982.5" y="51"/><text fill="#000000" font-family="sans-serif" font-size="14" lengthAdjust="spacingAndGlyphs" textLength="96" x="989.5" y="70.9951">CCValidatorInt</text><rect fill="#FEFECE" filter="url(#f469jql)" height="30.2969" style="stroke: #A80036; stroke-width: 1.5;" width="110" x="982.5" y="843.2188"/><text fill="#000000" font-family="sans-serif" font-size="14" lengthAdjust="spacingAndGlyphs" textLength="96" x="989.5" y="863.2139">CCValidatorInt</text><rect fill="#FEFECE" filter="url(#f469jql)" height="30.2969" style="stroke: #A80036; stroke-width: 1.5;" width="116" x="1106.5" y="51"/><text fill="#000000" font-family="sans-serif" font-size="14" lengthAdjust="spacingAndGlyphs" textLength="102" x="1113.5" y="70.9951">ModelManager</text><rect fill="#FEFECE" filter="url(#f469jql)" height="30.2969" style="stroke: #A80036; stroke-width: 1.5;" width="116" x="1106.5" y="843.2188"/><text fill="#000000" font-family="sans-serif" font-size="14" lengthAdjust="spacingAndGlyphs" textLength="102" x="1113.5" y="863.2139">ModelManager</text><rect fill="#FFFFFF" filter="url(#f469jql)" height="405.7266" style="stroke: #FFFFFF; stroke-width: 1.0;" width="10" x="42.5" y="96.2969"/><line style="stroke: #A80036; stroke-width: 1.0;" x1="42.5" x2="42.5" y1="96.2969" y2="502.0234"/><line style="stroke: #A80036; stroke-width: 1.0;" x1="52.5" x2="52.5" y1="96.2969" y2="502.0234"/><line style="stroke: #A80036; stroke-width: 1.0;" x1="42.5" x2="52.5" y1="96.2969" y2="96.2969"/><rect fill="#FFFFFF" filter="url(#f469jql)" height="43.1328" style="stroke: #FFFFFF; stroke-width: 1.0;" width="10" x="42.5" y="530.0234"/><line style="stroke: #A80036; stroke-width: 1.0;" x1="42.5" x2="42.5" y1="530.0234" y2="573.1563"/><line style="stroke: #A80036; stroke-width: 1.0;" x1="52.5" x2="52.5" y1="530.0234" y2="573.1563"/><rect fill="#FFFFFF" filter="url(#f469jql)" height="234.0625" style="stroke: #FFFFFF; stroke-width: 1.0;" width="10" x="42.5" y="601.1563"/><line style="stroke: #A80036; stroke-width: 1.0;" x1="42.5" x2="42.5" y1="601.1563" y2="835.2188"/><line style="stroke: #A80036; stroke-width: 1.0;" x1="52.5" x2="52.5" y1="601.1563" y2="835.2188"/><rect fill="#FFFFFF" filter="url(#f469jql)" height="384.7266" style="stroke: #FFFFFF; stroke-width: 1.0;" width="10" x="234.5" y="117.2969"/><line style="stroke: #A80036; stroke-width: 1.0;" x1="234.5" x2="234.5" y1="117.2969" y2="502.0234"/><line style="stroke: #A80036; stroke-width: 1.0;" x1="244.5" x2="244.5" y1="117.2969" y2="502.0234"/><line style="stroke: #A80036; stroke-width: 1.0;" x1="234.5" x2="244.5" y1="117.2969" y2="117.2969"/><rect fill="#FFFFFF" filter="url(#f469jql)" height="43.1328" style="stroke: #FFFFFF; stroke-width: 1.0;" width="10" x="234.5" y="530.0234"/><line style="stroke: #A80036; stroke-width: 1.0;" x1="234.5" x2="234.5" y1="530.0234" y2="573.1563"/><line style="stroke: #A80036; stroke-width: 1.0;" x1="244.5" x2="244.5" y1="530.0234" y2="573.1563"/><rect fill="#FFFFFF" filter="url(#f469jql)" height="234.0625" style="stroke: #FFFFFF; stroke-width: 1.0;" width="10" x="234.5" y="601.1563"/><line style="stroke: #A80036; stroke-width: 1.0;" x1="234.5" x2="234.5" y1="601.1563" y2="835.2188"/><line style="stroke: #A80036; stroke-width: 1.0;" x1="244.5" x2="244.5" y1="601.1563" y2="835.2188"/><rect fill="#FFFFFF" filter="url(#f469jql)" height="355.5938" style="stroke: #FFFFFF; stroke-width: 1.0;" width="10" x="521.5" y="146.4297"/><line style="stroke: #A80036; stroke-width: 1.0;" x1="521.5" x2="521.5" y1="146.4297" y2="502.0234"/><line style="stroke: #A80036; stroke-width: 1.0;" x1="531.5" x2="531.5" y1="146.4297" y2="502.0234"/><line style="stroke: #A80036; stroke-width: 1.0;" x1="521.5" x2="531.5" y1="146.4297" y2="146.4297"/><rect fill="#FFFFFF" filter="url(#f469jql)" height="43.1328" style="stroke: #FFFFFF; stroke-width: 1.0;" width="10" x="521.5" y="530.0234"/><line style="stroke: #A80036; stroke-width: 1.0;" x1="521.5" x2="521.5" y1="530.0234" y2="573.1563"/><line style="stroke: #A80036; stroke-width: 1.0;" x1="531.5" x2="531.5" y1="530.0234" y2="573.1563"/><rect fill="#FFFFFF" filter="url(#f469jql)" height="234.0625" style="stroke: #FFFFFF; stroke-width: 1.0;" width="10" x="521.5" y="601.1563"/><line style="stroke: #A80036; stroke-width: 1.0;" x1="521.5" x2="521.5" y1="601.1563" y2="835.2188"/><line style="stroke: #A80036; stroke-width: 1.0;" x1="531.5" x2="531.5" y1="601.1563" y2="835.2188"/><rect fill="#FFFFFF" filter="url(#f469jql)" height="241.1953" style="stroke: #FFFFFF; stroke-width: 1.0;" width="10" x="706.5" y="260.8281"/><line style="stroke: #A80036; stroke-width: 1.0;" x1="706.5" x2="706.5" y1="260.8281" y2="502.0234"/><line style="stroke: #A80036; stroke-width: 1.0;" x1="716.5" x2="716.5" y1="260.8281" y2="502.0234"/><line style="stroke: #A80036; stroke-width: 1.0;" x1="706.5" x2="716.5" y1="260.8281" y2="260.8281"/><rect fill="#FFFFFF" filter="url(#f469jql)" height="43.1328" style="stroke: #FFFFFF; stroke-width: 1.0;" width="10" x="706.5" y="530.0234"/><line style="stroke: #A80036; stroke-width: 1.0;" x1="706.5" x2="706.5" y1="530.0234" y2="573.1563"/><line style="stroke: #A80036; stroke-width: 1.0;" x1="716.5" x2="716.5" y1="530.0234" y2="573.1563"/><rect fill="#FFFFFF" filter="url(#f469jql)" height="234.0625" style="stroke: #FFFFFF; stroke-width: 1.0;" width="10" x="706.5" y="601.1563"/><line style="stroke: #A80036; stroke-width: 1.0;" x1="706.5" x2="706.5" y1="601.1563" y2="835.2188"/><line style="stroke: #A80036; stroke-width: 1.0;" x1="716.5" x2="716.5" y1="601.1563" y2="835.2188"/><rect fill="#FFFFFF" filter="url(#f469jql)" height="212.0625" style="stroke: #FFFFFF; stroke-width: 1.0;" width="10" x="911.5" y="289.9609"/><line style="stroke: #A80036; stroke-width: 1.0;" x1="911.5" x2="911.5" y1="289.9609" y2="502.0234"/><line style="stroke: #A80036; stroke-width: 1.0;" x1="921.5" x2="921.5" y1="289.9609" y2="502.0234"/><line style="stroke: #A80036; stroke-width: 1.0;" x1="911.5" x2="921.5" y1="289.9609" y2="289.9609"/><rect fill="#FFFFFF" filter="url(#f469jql)" height="43.1328" style="stroke: #FFFFFF; stroke-width: 1.0;" width="10" x="911.5" y="530.0234"/><line style="stroke: #A80036; stroke-width: 1.0;" x1="911.5" x2="911.5" y1="530.0234" y2="573.1563"/><line style="stroke: #A80036; stroke-width: 1.0;" x1="921.5" x2="921.5" y1="530.0234" y2="573.1563"/><rect fill="#FFFFFF" filter="url(#f469jql)" height="50.1328" style="stroke: #FFFFFF; stroke-width: 1.0;" width="10" x="911.5" y="601.1563"/><line style="stroke: #A80036; stroke-width: 1.0;" x1="911.5" x2="911.5" y1="601.1563" y2="651.2891"/><line style="stroke: #A80036; stroke-width: 1.0;" x1="921.5" x2="921.5" y1="601.1563" y2="651.2891"/><line style="stroke: #A80036; stroke-width: 1.0;" x1="911.5" x2="921.5" y1="651.2891" y2="651.2891"/><rect fill="#FFFFFF" filter="url(#f469jql)" height="182.9297" style="stroke: #FFFFFF; stroke-width: 1.0;" width="10" x="1034.5" y="319.0938"/><line style="stroke: #A80036; stroke-width: 1.0;" x1="1034.5" x2="1034.5" y1="319.0938" y2="502.0234"/><line style="stroke: #A80036; stroke-width: 1.0;" x1="1044.5" x2="1044.5" y1="319.0938" y2="502.0234"/><line style="stroke: #A80036; stroke-width: 1.0;" x1="1034.5" x2="1044.5" y1="319.0938" y2="319.0938"/><rect fill="#FFFFFF" filter="url(#f469jql)" height="43.1328" style="stroke: #FFFFFF; stroke-width: 1.0;" width="10" x="1034.5" y="530.0234"/><line style="stroke: #A80036; stroke-width: 1.0;" x1="1034.5" x2="1034.5" y1="530.0234" y2="573.1563"/><line style="stroke: #A80036; stroke-width: 1.0;" x1="1044.5" x2="1044.5" y1="530.0234" y2="573.1563"/><rect fill="#FFFFFF" filter="url(#f469jql)" height="50.1328" style="stroke: #FFFFFF; stroke-width: 1.0;" width="10" x="1034.5" y="601.1563"/><line style="stroke: #A80036; stroke-width: 1.0;" x1="1034.5" x2="1034.5" y1="601.1563" y2="651.2891"/><line style="stroke: #A80036; stroke-width: 1.0;" x1="1044.5" x2="1044.5" y1="601.1563" y2="651.2891"/><line style="stroke: #A80036; stroke-width: 1.0;" x1="1034.5" x2="1044.5" y1="651.2891" y2="651.2891"/><rect fill="#FFFFFF" filter="url(#f469jql)" height="153.7969" style="stroke: #FFFFFF; stroke-width: 1.0;" width="10" x="1161.5" y="348.2266"/><line style="stroke: #A80036; stroke-width: 1.0;" x1="1161.5" x2="1161.5" y1="348.2266" y2="502.0234"/><line style="stroke: #A80036; stroke-width: 1.0;" x1="1171.5" x2="1171.5" y1="348.2266" y2="502.0234"/><line style="stroke: #A80036; stroke-width: 1.0;" x1="1161.5" x2="1171.5" y1="348.2266" y2="348.2266"/><rect fill="#FFFFFF" filter="url(#f469jql)" height="43.1328" style="stroke: #FFFFFF; stroke-width: 1.0;" width="10" x="1161.5" y="530.0234"/><line style="stroke: #A80036; stroke-width: 1.0;" x1="1161.5" x2="1161.5" y1="530.0234" y2="573.1563"/><line style="stroke: #A80036; stroke-width: 1.0;" x1="1171.5" x2="1171.5" y1="530.0234" y2="573.1563"/><rect fill="#FFFFFF" filter="url(#f469jql)" height="234.0625" style="stroke: #FFFFFF; stroke-width: 1.0;" width="10" x="1161.5" y="601.1563"/><line style="stroke: #A80036; stroke-width: 1.0;" x1="1161.5" x2="1161.5" y1="601.1563" y2="835.2188"/><line style="stroke: #A80036; stroke-width: 1.0;" x1="1171.5" x2="1171.5" y1="601.1563" y2="835.2188"/><polygon fill="#A80036" points="222.5,113.2969,232.5,117.2969,222.5,121.2969,226.5,117.2969" style="stroke: #A80036; stroke-width: 1.0;"/><line style="stroke: #A80036; stroke-width: 1.0;" x1="52.5" x2="228.5" y1="117.2969" y2="117.2969"/><text fill="#000000" font-family="sans-serif" font-size="13" lengthAdjust="spacingAndGlyphs" textLength="163" x="59.5" y="112.3638">accessRegistrationForm()</text><line style="stroke: #A80036; stroke-width: 1.0;" x1="519.5" x2="509.5" y1="146.4297" y2="142.4297"/><line style="stroke: #A80036; stroke-width: 1.0;" x1="519.5" x2="509.5" y1="146.4297" y2="150.4297"/><line style="stroke: #A80036; stroke-width: 1.0;" x1="244.5" x2="520.5" y1="146.4297" y2="146.4297"/><text fill="#000000" font-family="sans-serif" font-size="13" lengthAdjust="spacingAndGlyphs" textLength="258" x="251.5" y="141.4966">getRegistrationForm() : registrationForm</text><line style="stroke: #A80036; stroke-width: 1.0;" x1="244.5" x2="254.5" y1="160.5625" y2="156.5625"/><line style="stroke: #A80036; stroke-width: 1.0;" x1="244.5" x2="254.5" y1="160.5625" y2="164.5625"/><line style="stroke: #A80036; stroke-width: 1.0; stroke-dasharray: 2.0,2.0;" x1="244.5" x2="520.5" y1="160.5625" y2="160.5625"/><line style="stroke: #A80036; stroke-width: 1.0;" x1="244.5" x2="286.5" y1="189.6953" y2="189.6953"/><line style="stroke: #A80036; stroke-width: 1.0;" x1="286.5" x2="286.5" y1="189.6953" y2="202.6953"/><line style="stroke: #A80036; stroke-width: 1.0;" x1="245.5" x2="286.5" y1="202.6953" y2="202.6953"/><polygon fill="#A80036" points="255.5,198.6953,245.5,202.6953,255.5,206.6953,251.5,202.6953" style="stroke: #A80036; stroke-width: 1.0;"/><text fill="#000000" font-family="sans-serif" font-size="13" lengthAdjust="spacingAndGlyphs" textLength="151" x="251.5" y="184.6294">showRegistrationForm()</text><polygon fill="#A80036" points="222.5,227.6953,232.5,231.6953,222.5,235.6953,226.5,231.6953" style="stroke: #A80036; stroke-width: 1.0;"/><line style="stroke: #A80036; stroke-width: 1.0;" x1="52.5" x2="228.5" y1="231.6953" y2="231.6953"/><text fill="#000000" font-family="sans-serif" font-size="13" lengthAdjust="spacingAndGlyphs" textLength="132" x="59.5" y="226.7622">fillRegistrationForm()</text><line style="stroke: #A80036; stroke-width: 1.0;" x1="519.5" x2="509.5" y1="260.8281" y2="256.8281"/><line style="stroke: #A80036; stroke-width: 1.0;" x1="519.5" x2="509.5" y1="260.8281" y2="264.8281"/><line style="stroke: #A80036; stroke-width: 1.0;" x1="244.5" x2="520.5" y1="260.8281" y2="260.8281"/><text fill="#000000" font-family="sans-serif" font-size="13" lengthAdjust="spacingAndGlyphs" textLength="151" x="251.5" y="255.895">registerUser(User user)</text><line style="stroke: #A80036; stroke-width: 1.0;" x1="704.5" x2="694.5" y1="289.9609" y2="285.9609"/><line style="stroke: #A80036; stroke-width: 1.0;" x1="704.5" x2="694.5" y1="289.9609" y2="293.9609"/><line style="stroke: #A80036; stroke-width: 1.0;" x1="531.5" x2="705.5" y1="289.9609" y2="289.9609"/><text fill="#000000" font-family="sans-serif" font-size="13" lengthAdjust="spacingAndGlyphs" textLength="151" x="538.5" y="285.0278">registerUser(User user)</text><line style="stroke: #A80036; stroke-width: 1.0;" x1="909.5" x2="899.5" y1="319.0938" y2="315.0938"/><line style="stroke: #A80036; stroke-width: 1.0;" x1="909.5" x2="899.5" y1="319.0938" y2="323.0938"/><line style="stroke: #A80036; stroke-width: 1.0;" x1="716.5" x2="910.5" y1="319.0938" y2="319.0938"/><text fill="#000000" font-family="sans-serif" font-size="13" lengthAdjust="spacingAndGlyphs" textLength="171" x="723.5" y="314.1606">checkDL(DrivingLicence dl)</text><line style="stroke: #A80036; stroke-width: 1.0;" x1="1032.5" x2="1022.5" y1="348.2266" y2="344.2266"/><line style="stroke: #A80036; stroke-width: 1.0;" x1="1032.5" x2="1022.5" y1="348.2266" y2="352.2266"/><line style="stroke: #A80036; stroke-width: 1.0;" x1="716.5" x2="1033.5" y1="348.2266" y2="348.2266"/><text fill="#000000" font-family="sans-serif" font-size="13" lengthAdjust="spacingAndGlyphs" textLength="140" x="723.5" y="343.2935">checkCC(CCData ccd)</text><line style="stroke: #A80036; stroke-width: 1.0;" x1="1159.5" x2="1149.5" y1="377.3594" y2="373.3594"/><line style="stroke: #A80036; stroke-width: 1.0;" x1="1159.5" x2="1149.5" y1="377.3594" y2="381.3594"/><line style="stroke: #A80036; stroke-width: 1.0;" x1="716.5" x2="1160.5" y1="377.3594" y2="377.3594"/><text fill="#000000" font-family="sans-serif" font-size="13" lengthAdjust="spacingAndGlyphs" textLength="139" x="723.5" y="372.4263">checkUser(User user)</text><line style="stroke: #A80036; stroke-width: 1.0;" x1="716.5" x2="726.5" y1="406.4922" y2="402.4922"/><line style="stroke: #A80036; stroke-width: 1.0;" x1="716.5" x2="726.5" y1="406.4922" y2="410.4922"/><line style="stroke: #A80036; stroke-width: 1.0;" x1="716.5" x2="1160.5" y1="406.4922" y2="406.4922"/><text fill="#000000" font-family="sans-serif" font-size="13" lengthAdjust="spacingAndGlyphs" textLength="160" x="733.5" y="401.5591">userAccepted(User user)</text><line style="stroke: #A80036; stroke-width: 1.0;" x1="1159.5" x2="1149.5" y1="435.625" y2="431.625"/><line style="stroke: #A80036; stroke-width: 1.0;" x1="1159.5" x2="1149.5" y1="435.625" y2="439.625"/><line style="stroke: #A80036; stroke-width: 1.0;" x1="716.5" x2="1160.5" y1="435.625" y2="435.625"/><text fill="#000000" font-family="sans-serif" font-size="13" lengthAdjust="spacingAndGlyphs" textLength="126" x="723.5" y="430.6919">addUser(User user)</text><line style="stroke: #A80036; stroke-width: 1.0;" x1="531.5" x2="541.5" y1="464.7578" y2="460.7578"/><line style="stroke: #A80036; stroke-width: 1.0;" x1="531.5" x2="541.5" y1="464.7578" y2="468.7578"/><line style="stroke: #A80036; stroke-width: 1.0;" x1="531.5" x2="705.5" y1="464.7578" y2="464.7578"/><text fill="#000000" font-family="sans-serif" font-size="13" lengthAdjust="spacingAndGlyphs" textLength="151" x="548.5" y="459.8247">userCreated(User user)</text><line style="stroke: #A80036; stroke-width: 1.0;" x1="244.5" x2="254.5" y1="493.8906" y2="489.8906"/><line style="stroke: #A80036; stroke-width: 1.0;" x1="244.5" x2="254.5" y1="493.8906" y2="497.8906"/><line style="stroke: #A80036; stroke-width: 1.0;" x1="244.5" x2="520.5" y1="493.8906" y2="493.8906"/><text fill="#000000" font-family="sans-serif" font-size="13" lengthAdjust="spacingAndGlyphs" textLength="171" x="261.5" y="488.9575">showRegistrationSuccess()</text><rect fill="#EEEEEE" filter="url(#f469jql)" height="3" style="stroke: #EEEEEE; stroke-width: 1.0;" width="1228.5" x="3" y="550.5898"/><line style="stroke: #000000; stroke-width: 1.0;" x1="3" x2="1231.5" y1="550.5898" y2="550.5898"/><line style="stroke: #000000; stroke-width: 1.0;" x1="3" x2="1231.5" y1="553.5898" y2="553.5898"/><rect fill="#EEEEEE" filter="url(#f469jql)" height="23.1328" style="stroke: #000000; stroke-width: 2.0;" width="216" x="509.25" y="540.0234"/><text fill="#000000" font-family="sans-serif" font-size="13" font-weight="bold" lengthAdjust="spacingAndGlyphs" textLength="197" x="515.25" y="556.0903">wait for DLV and CC check</text><line style="stroke: #A80036; stroke-width: 1.0;" x1="716.5" x2="726.5" y1="622.1563" y2="618.1563"/><line style="stroke: #A80036; stroke-width: 1.0;" x1="716.5" x2="726.5" y1="622.1563" y2="626.1563"/><line style="stroke: #A80036; stroke-width: 1.0; stroke-dasharray: 2.0,2.0;" x1="716.5" x2="910.5" y1="622.1563" y2="622.1563"/><text fill="#000000" font-family="sans-serif" font-size="13" lengthAdjust="spacingAndGlyphs" textLength="51" x="733.5" y="617.2231">success</text><line style="stroke: #A80036; stroke-width: 1.0;" x1="716.5" x2="726.5" y1="651.2891" y2="647.2891"/><line style="stroke: #A80036; stroke-width: 1.0;" x1="716.5" x2="726.5" y1="651.2891" y2="655.2891"/><line style="stroke: #A80036; stroke-width: 1.0; stroke-dasharray: 2.0,2.0;" x1="716.5" x2="1038.5" y1="651.2891" y2="651.2891"/><text fill="#000000" font-family="sans-serif" font-size="13" lengthAdjust="spacingAndGlyphs" textLength="51" x="733.5" y="646.356">success</text><line style="stroke: #A80036; stroke-width: 1.0;" x1="531.5" x2="541.5" y1="680.4219" y2="676.4219"/><line style="stroke: #A80036; stroke-width: 1.0;" x1="531.5" x2="541.5" y1="680.4219" y2="684.4219"/><line style="stroke: #A80036; stroke-width: 1.0;" x1="531.5" x2="705.5" y1="680.4219" y2="680.4219"/><text fill="#000000" font-family="sans-serif" font-size="13" lengthAdjust="spacingAndGlyphs" textLength="94" x="548.5" y="675.4888">CCConfirmed()</text><line style="stroke: #A80036; stroke-width: 1.0;" x1="1159.5" x2="1149.5" y1="709.5547" y2="705.5547"/><line style="stroke: #A80036; stroke-width: 1.0;" x1="1159.5" x2="1149.5" y1="709.5547" y2="713.5547"/><line style="stroke: #A80036; stroke-width: 1.0;" x1="716.5" x2="1160.5" y1="709.5547" y2="709.5547"/><text fill="#000000" font-family="sans-serif" font-size="13" lengthAdjust="spacingAndGlyphs" textLength="156" x="723.5" y="704.6216">CCConfirmed(User user)</text><line style="stroke: #A80036; stroke-width: 1.0;" x1="244.5" x2="254.5" y1="738.6875" y2="734.6875"/><line style="stroke: #A80036; stroke-width: 1.0;" x1="244.5" x2="254.5" y1="738.6875" y2="742.6875"/><line style="stroke: #A80036; stroke-width: 1.0;" x1="244.5" x2="520.5" y1="738.6875" y2="738.6875"/><text fill="#000000" font-family="sans-serif" font-size="13" lengthAdjust="spacingAndGlyphs" textLength="94" x="261.5" y="733.7544">CCConfirmed()</text><line style="stroke: #A80036; stroke-width: 1.0;" x1="531.5" x2="541.5" y1="767.8203" y2="763.8203"/><line style="stroke: #A80036; stroke-width: 1.0;" x1="531.5" x2="541.5" y1="767.8203" y2="771.8203"/><line style="stroke: #A80036; stroke-width: 1.0;" x1="531.5" x2="705.5" y1="767.8203" y2="767.8203"/><text fill="#000000" font-family="sans-serif" font-size="13" lengthAdjust="spacingAndGlyphs" textLength="102" x="548.5" y="762.8872">DLVConfirmed()</text><line style="stroke: #A80036; stroke-width: 1.0;" x1="1159.5" x2="1149.5" y1="796.9531" y2="792.9531"/><line style="stroke: #A80036; stroke-width: 1.0;" x1="1159.5" x2="1149.5" y1="796.9531" y2="800.9531"/><line style="stroke: #A80036; stroke-width: 1.0;" x1="716.5" x2="1160.5" y1="796.9531" y2="796.9531"/><text fill="#000000" font-family="sans-serif" font-size="13" lengthAdjust="spacingAndGlyphs" textLength="164" x="723.5" y="792.02">DLVConfirmed(User user)</text><line style="stroke: #A80036; stroke-width: 1.0;" x1="244.5" x2="254.5" y1="826.0859" y2="822.0859"/><line style="stroke: #A80036; stroke-width: 1.0;" x1="244.5" x2="254.5" y1="826.0859" y2="830.0859"/><line style="stroke: #A80036; stroke-width: 1.0;" x1="244.5" x2="520.5" y1="826.0859" y2="826.0859"/><text fill="#000000" font-family="sans-serif" font-size="13" lengthAdjust="spacingAndGlyphs" textLength="102" x="261.5" y="821.1528">DLVConfirmed()</text></g></svg>